<svg class="main-svg" xmlns="http://www.w3.org/2000/svg" xmlns:xlink="http://www.w3.org/1999/xlink" width="2200" height="1000" style="" viewBox="0 0 1100 500"><rect x="0" y="0" width="1100" height="500" style="fill: rgb(255, 255, 255); fill-opacity: 1;"/><defs id="defs-4de8a7"><g class="clips"><clipPath id="clip4de8a7xyplot" class="plotclip"><rect width="1025" height="385"/></clipPath><clipPath class="axesclip" id="clip4de8a7x"><rect x="60" y="0" width="1025" height="500"/></clipPath><clipPath class="axesclip" id="clip4de8a7y"><rect x="0" y="50" width="1100" height="385"/></clipPath><clipPath class="axesclip" id="clip4de8a7xy"><rect x="60" y="50" width="1025" height="385"/></clipPath></g><g class="gradients"/><g class="patterns"/></defs><g class="bglayer"/><g class="layer-below"><g class="imagelayer"/><g class="shapelayer"><g class="shape-group" data-index="0" clip-path="url(#clip4de8a7y)"><path data-index="0" fill-rule="evenodd" d="M60,-1105H1085V-7265H60Z" style="opacity: 0.13; stroke: rgb(0, 0, 0); stroke-opacity: 0; fill: rgb(153, 1, 1); fill-opacity: 1; stroke-width: 0px;"/></g><g class="shape-group" data-index="1" clip-path="url(#clip4de8a7y)"><path data-index="1" fill-rule="evenodd" d="M60,50H1085V-1105H60Z" style="opacity: 0.13; stroke: rgb(0, 0, 0); stroke-opacity: 0; fill: rgb(160, 115, 0); fill-opacity: 1; stroke-width: 0px;"/></g><g class="shape-group" data-index="2" clip-path="url(#clip4de8a7y)"><path data-index="2" fill-rule="evenodd" d="M60,435H1085V50H60Z" style="opacity: 0.13; stroke: rgb(0, 0, 0); stroke-opacity: 0; fill: rgb(0, 149, 0); fill-opacity: 1; stroke-width: 0px;"/></g><g class="shape-group" data-index="3" clip-path="url(#clip4de8a7y)"><path data-index="3" fill-rule="evenodd" d="M60,-1105H1085V-7265H60Z" style="opacity: 0.13; stroke: rgb(0, 0, 0); stroke-opacity: 0; fill: rgb(153, 1, 1); fill-opacity: 1; stroke-width: 0px;"/></g><g class="shape-group" data-index="4" clip-path="url(#clip4de8a7y)"><path data-index="4" fill-rule="evenodd" d="M60,50H1085V-1105H60Z" style="opacity: 0.13; stroke: rgb(0, 0, 0); stroke-opacity: 0; fill: rgb(160, 115, 0); fill-opacity: 1; stroke-width: 0px;"/></g><g class="shape-group" data-index="5" clip-path="url(#clip4de8a7y)"><path data-index="5" fill-rule="evenodd" d="M60,435H1085V50H60Z" style="opacity: 0.13; stroke: rgb(0, 0, 0); stroke-opacity: 0; fill: rgb(0, 149, 0); fill-opacity: 1; stroke-width: 0px;"/></g></g></g><g class="cartesianlayer"><g class="subplot xy"><g class="layer-subplot"><g class="shapelayer"/><g class="imagelayer"/></g><g class="minor-gridlayer"><g class="x"/><g class="y"/></g><g class="gridlayer"><g class="x"><path class="xgrid crisp" transform="translate(196.67,0)" d="M0,50v385" style="stroke: rgb(0, 0, 0); stroke-opacity: 0.05; stroke-width: 1px;"/><path class="xgrid crisp" transform="translate(333.33,0)" d="M0,50v385" style="stroke: rgb(0, 0, 0); stroke-opacity: 0.05; stroke-width: 1px;"/><path class="xgrid crisp" transform="translate(470,0)" d="M0,50v385" style="stroke: rgb(0, 0, 0); stroke-opacity: 0.05; stroke-width: 1px;"/><path class="xgrid crisp" transform="translate(606.67,0)" d="M0,50v385" style="stroke: rgb(0, 0, 0); stroke-opacity: 0.05; stroke-width: 1px;"/><path class="xgrid crisp" transform="translate(743.33,0)" d="M0,50v385" style="stroke: rgb(0, 0, 0); stroke-opacity: 0.05; stroke-width: 1px;"/><path class="xgrid crisp" transform="translate(880,0)" d="M0,50v385" style="stroke: rgb(0, 0, 0); stroke-opacity: 0.05; stroke-width: 1px;"/><path class="xgrid crisp" transform="translate(1016.67,0)" d="M0,50v385" style="stroke: rgb(0, 0, 0); stroke-opacity: 0.05; stroke-width: 1px;"/></g><g class="y"><path class="ygrid crisp" transform="translate(0,358)" d="M60,0h1025" style="stroke: rgb(0, 0, 0); stroke-opacity: 0.05; stroke-width: 1px;"/><path class="ygrid crisp" transform="translate(0,281)" d="M60,0h1025" style="stroke: rgb(0, 0, 0); stroke-opacity: 0.05; stroke-width: 1px;"/><path class="ygrid crisp" transform="translate(0,204)" d="M60,0h1025" style="stroke: rgb(0, 0, 0); stroke-opacity: 0.05; stroke-width: 1px;"/><path class="ygrid crisp" transform="translate(0,127)" d="M60,0h1025" style="stroke: rgb(0, 0, 0); stroke-opacity: 0.05; stroke-width: 1px;"/></g></g><g class="zerolinelayer"><path class="xzl zl crisp" transform="translate(60,0)" d="M0,50v385" style="stroke: rgb(0, 0, 0); stroke-opacity: 0.05; stroke-width: 1px;"/><path class="yzl zl crisp" transform="translate(0,435)" d="M60,0h1025" style="stroke: rgb(0, 0, 0); stroke-opacity: 0.05; stroke-width: 1px;"/></g><g class="layer-between"><g class="shapelayer"/><g class="imagelayer"/></g><path class="xlines-below"/><path class="ylines-below"/><g class="overlines-below"/><g class="xaxislayer-below"/><g class="yaxislayer-below"/><g class="overaxes-below"/><g class="overplot"><g class="xy" transform="translate(60,50)" clip-path="url(#clip4de8a7xyplot)"><g class="scatterlayer mlayer"><g class="trace scatter trace8a2b58" style="stroke-miterlimit: 2; opacity: 1;"><g class="fills"/><g class="errorbars"/><g class="lines"><path class="js-line" d="M6.83,385L13.67,384.22L20.5,385L683.33,385L717.5,382.59L785.83,384.97L820,385L854.17,383.74L888.33,384.97L1025,385" style="vector-effect: none; fill: none; stroke: rgb(92, 184, 92); stroke-opacity: 1; stroke-width: 2px; opacity: 1;"/></g><g class="points"/><g class="text"/></g><g class="trace scatter trace79df8b" style="stroke-miterlimit: 2; opacity: 1;"><g class="fills"/><g class="errorbars"/><g class="lines"><path class="js-line" d="M6.83,385L68.33,384.99L102.5,383.7L136.67,383.67L170.83,385L205,381.27L239.17,385L273.33,382.39L307.5,385L410,384.88L444.17,382.47L478.33,384.97L512.5,383.7L546.67,384.93L580.83,385L615,380.96L649.17,384.99L683.33,383.74L717.5,385L785.83,384.96L820,382.5L854.17,380.05L888.33,384.99L956.67,383.88L990.83,384.46L1025,385" style="vector-effect: none; fill: none; stroke: rgb(92, 184, 92); stroke-opacity: 1; stroke-width: 2px; opacity: 1;"/></g><g class="points"/><g class="text"/></g><g class="trace scatter tracef31893" style="stroke-miterlimit: 2; opacity: 1;"><g class="fills"/><g class="errorbars"/><g class="lines"><path class="js-line" d="M6.83,385L13.67,384.2L20.5,385L683.33,385L717.5,382.71L785.83,384.97L820,385L854.17,383.75L888.33,384.97L1025,385" style="vector-effect: none; fill: none; stroke: rgb(92, 184, 92); stroke-opacity: 1; stroke-width: 2px; opacity: 1;"/></g><g class="points"/><g class="text"/></g><g class="trace scatter trace056ddf" style="stroke-miterlimit: 2; opacity: 1;"><g class="fills"/><g class="errorbars"/><g class="lines"><path class="js-line" d="M6.83,385L68.33,384.99L102.5,383.71L136.67,383.7L170.83,385L205,381.38L239.17,384.99L273.33,382.36L307.5,385L410,384.89L444.17,382.56L478.33,384.97L512.5,383.68L546.67,384.93L580.83,384.99L615,381L649.17,384.99L683.33,383.78L717.5,385L785.83,384.95L820,382.59L854.17,380.23L888.33,384.99L956.67,383.89L990.83,384.47L1025,385" style="vector-effect: none; fill: none; stroke: rgb(92, 184, 92); stroke-opacity: 1; stroke-width: 2px; opacity: 1;"/></g><g class="points"/><g class="text"/></g><g class="trace scatter trace2cec44" style="stroke-miterlimit: 2; opacity: 1;"><g class="fills"/><g class="errorbars"/><g class="lines"><path class="js-line" d="M6.83,385L13.67,384.21L20.5,385L683.33,385L717.5,382.5L785.83,384.97L820,385L854.17,383.74L888.33,384.97L1025,385" style="vector-effect: none; fill: none; stroke: rgb(92, 184, 92); stroke-opacity: 1; stroke-width: 2px; opacity: 1;"/></g><g class="points"/><g class="text"/></g><g class="trace scatter tracec3d2cb" style="stroke-miterlimit: 2; opacity: 1;"><g class="fills"/><g class="errorbars"/><g class="lines"><path class="js-line" d="M6.83,385L68.33,384.99L102.5,383.69L136.67,383.65L170.83,385L205,381.17L239.17,385L273.33,382.38L307.5,385L410,384.88L444.17,382.37L478.33,384.97L512.5,383.68L546.67,384.93L580.83,385L615,380.95L649.17,384.99L683.33,383.72L717.5,385L785.83,384.95L820,382.42L854.17,379.89L888.33,384.99L956.67,383.89L990.83,384.46L1025,385" style="vector-effect: none; fill: none; stroke: rgb(92, 184, 92); stroke-opacity: 1; stroke-width: 2px; opacity: 1;"/></g><g class="points"/><g class="text"/></g><g class="trace scatter traceab20a5" style="stroke-miterlimit: 2; opacity: 1;"><g class="fills"/><g class="errorbars"/><g class="lines"><path class="js-line" d="M6.83,385L13.67,384.2L20.5,385L683.33,385L717.5,382.52L785.83,384.97L820,385L854.17,383.73L888.33,384.96L1025,385" style="vector-effect: none; fill: none; stroke: rgb(92, 184, 92); stroke-opacity: 1; stroke-width: 2px; opacity: 1;"/></g><g class="points"/><g class="text"/></g><g class="trace scatter trace26323b" style="stroke-miterlimit: 2; opacity: 1;"><g class="fills"/><g class="errorbars"/><g class="lines"><path class="js-line" d="M6.83,385L68.33,384.99L102.5,383.7L136.67,383.67L170.83,385L205,381.26L239.17,385L273.33,382.43L307.5,385L410,384.89L444.17,382.43L478.33,384.97L512.5,383.69L546.67,384.93L580.83,385L615,380.96L649.17,384.99L683.33,383.72L717.5,385L785.83,384.96L820,382.47L854.17,379.98L888.33,384.99L956.67,383.89L990.83,384.47L1025,385" style="vector-effect: none; fill: none; stroke: rgb(92, 184, 92); stroke-opacity: 1; stroke-width: 2px; opacity: 1;"/></g><g class="points"/><g class="text"/></g><g class="trace scatter trace0b906e" style="stroke-miterlimit: 2; opacity: 1;"><g class="fills"/><g class="errorbars"/><g class="lines"><path class="js-line" d="M6.83,385L13.67,384.23L20.5,385L683.33,385L717.5,382.64L785.83,384.97L820,385L854.17,383.74L888.33,384.97L1025,385" style="vector-effect: none; fill: none; stroke: rgb(92, 184, 92); stroke-opacity: 1; stroke-width: 2px; opacity: 1;"/></g><g class="points"/><g class="text"/></g><g class="trace scatter traced3674e" style="stroke-miterlimit: 2; opacity: 1;"><g class="fills"/><g class="errorbars"/><g class="lines"><path class="js-line" d="M6.83,385L68.33,384.99L102.5,383.72L136.67,383.71L170.83,385L205,381.37L239.17,384.99L273.33,382.33L307.5,385L410,384.89L444.17,382.53L478.33,384.97L512.5,383.68L546.67,384.92L580.83,385L615,381.04L649.17,384.99L683.33,383.76L717.5,385L785.83,384.95L820,382.54L854.17,380.17L888.33,384.99L956.67,383.9L990.83,384.49L1025,385" style="vector-effect: none; fill: none; stroke: rgb(92, 184, 92); stroke-opacity: 1; stroke-width: 2px; opacity: 1;"/></g><g class="points"/><g class="text"/></g><g class="trace scatter trace32fed0" style="stroke-miterlimit: 2; opacity: 1;"><g class="fills"/><g class="errorbars"/><g class="lines"><path class="js-line" d="M6.83,385L13.67,384.2L20.5,385L683.33,385L717.5,382.68L785.83,384.97L820,385L854.17,383.77L888.33,384.97L1025,385" style="vector-effect: none; fill: none; stroke: rgb(92, 184, 92); stroke-opacity: 1; stroke-width: 2px; opacity: 1;"/></g><g class="points"/><g class="text"/></g><g class="trace scatter tracefbb6ce" style="stroke-miterlimit: 2; opacity: 1;"><g class="fills"/><g class="errorbars"/><g class="lines"><path class="js-line" d="M6.83,385L68.33,384.99L102.5,383.74L136.67,383.71L170.83,385L205,381.38L239.17,385L273.33,382.36L307.5,385L410,384.89L444.17,382.56L478.33,384.97L512.5,383.72L546.67,384.92L580.83,384.99L615,381.08L649.17,384.99L683.33,383.79L717.5,385L785.83,384.96L820,382.6L854.17,380.24L888.33,384.99L956.67,383.89L990.83,384.48L1025,385" style="vector-effect: none; fill: none; stroke: rgb(92, 184, 92); stroke-opacity: 1; stroke-width: 2px; opacity: 1;"/></g><g class="points"/><g class="text"/></g><g class="trace scatter trace256037" style="stroke-miterlimit: 2; opacity: 1;"><g class="fills"/><g class="errorbars"/><g class="lines"><path class="js-line" d="M6.83,385L13.67,384.2L20.5,385L683.33,385L717.5,382.57L785.83,384.96L820,385L854.17,383.73L888.33,384.97L1025,385" style="vector-effect: none; fill: none; stroke: rgb(92, 184, 92); stroke-opacity: 1; stroke-width: 2px; opacity: 1;"/></g><g class="points"/><g class="text"/></g><g class="trace scatter tracef63baa" style="stroke-miterlimit: 2; opacity: 1;"><g class="fills"/><g class="errorbars"/><g class="lines"><path class="js-line" d="M6.83,385L68.33,384.99L102.5,383.68L136.67,383.67L170.83,385L205,381.3L239.17,385L273.33,382.39L307.5,385L410,384.89L444.17,382.42L478.33,384.97L512.5,383.7L546.67,384.92L580.83,384.99L615,380.97L649.17,384.99L683.33,383.73L717.5,385L785.83,384.96L820,382.52L854.17,380.03L888.33,384.99L956.67,383.89L990.83,384.46L1025,385" style="vector-effect: none; fill: none; stroke: rgb(92, 184, 92); stroke-opacity: 1; stroke-width: 2px; opacity: 1;"/></g><g class="points"/><g class="text"/></g><g class="trace scatter trace780fbd" style="stroke-miterlimit: 2; opacity: 1;"><g class="fills"/><g class="errorbars"/><g class="lines"><path class="js-line" d="M6.83,385L13.67,384.25L20.5,385L683.33,385L717.5,382.65L785.83,384.97L820,385L854.17,383.75L888.33,384.97L1025,385" style="vector-effect: none; fill: none; stroke: rgb(92, 184, 92); stroke-opacity: 1; stroke-width: 2px; opacity: 1;"/></g><g class="points"/><g class="text"/></g><g class="trace scatter trace3f80a7" style="stroke-miterlimit: 2; opacity: 1;"><g class="fills"/><g class="errorbars"/><g class="lines"><path class="js-line" d="M6.83,385L68.33,384.99L102.5,383.72L136.67,383.68L170.83,384.99L205,381.35L239.17,384.99L273.33,382.36L307.5,385L410,384.89L444.17,382.47L478.33,384.97L512.5,383.68L546.67,384.92L580.83,384.99L615,381L649.17,384.99L683.33,383.78L717.5,385L785.83,384.95L820,382.53L854.17,380.17L888.33,384.99L956.67,383.9L990.83,384.47L1025,385" style="vector-effect: none; fill: none; stroke: rgb(92, 184, 92); stroke-opacity: 1; stroke-width: 2px; opacity: 1;"/></g><g class="points"/><g class="text"/></g><g class="trace scatter trace2e334f" style="stroke-miterlimit: 2; opacity: 1;"><g class="fills"/><g class="errorbars"/><g class="lines"><path class="js-line" d="M6.83,385L13.67,384.22L20.5,385L683.33,385L717.5,382.61L785.83,384.97L820,385L854.17,383.73L888.33,384.97L1025,385" style="vector-effect: none; fill: none; stroke: rgb(92, 184, 92); stroke-opacity: 1; stroke-width: 2px; opacity: 1;"/></g><g class="points"/><g class="text"/></g><g class="trace scatter trace00eb73" style="stroke-miterlimit: 2; opacity: 1;"><g class="fills"/><g class="errorbars"/><g class="lines"><path class="js-line" d="M6.83,385L68.33,384.99L102.5,383.7L136.67,383.69L170.83,384.99L205,381.32L239.17,384.99L273.33,382.35L307.5,385L410,384.89L444.17,382.5L478.33,384.97L512.5,383.67L546.67,384.93L580.83,384.99L615,380.99L649.17,384.99L683.33,383.74L717.5,385L785.83,384.95L820,382.53L854.17,380.13L888.33,384.99L956.67,383.88L990.83,384.47L1025,385" style="vector-effect: none; fill: none; stroke: rgb(92, 184, 92); stroke-opacity: 1; stroke-width: 2px; opacity: 1;"/></g><g class="points"/><g class="text"/></g><g class="trace scatter trace81c2d3" style="stroke-miterlimit: 2; opacity: 1;"><g class="fills"/><g class="errorbars"/><g class="lines"><path class="js-line" d="M6.83,385L13.67,384.23L20.5,385L683.33,385L717.5,382.55L785.83,384.97L820,385L854.17,383.72L888.33,384.97L1025,385" style="vector-effect: none; fill: none; stroke: rgb(92, 184, 92); stroke-opacity: 1; stroke-width: 2px; opacity: 1;"/></g><g class="points"/><g class="text"/></g><g class="trace scatter trace088371" style="stroke-miterlimit: 2; opacity: 1;"><g class="fills"/><g class="errorbars"/><g class="lines"><path class="js-line" d="M6.83,385L68.33,384.99L102.5,383.68L136.67,383.64L170.83,385L205,381.19L239.17,384.99L273.33,382.39L307.5,385L410,384.88L444.17,382.4L478.33,384.97L512.5,383.67L546.67,384.92L580.83,385L615,380.94L649.17,384.99L683.33,383.72L717.5,385L785.83,384.95L820,382.47L854.17,379.96L888.33,384.99L956.67,383.9L990.83,384.46L1025,385" style="vector-effect: none; fill: none; stroke: rgb(92, 184, 92); stroke-opacity: 1; stroke-width: 2px; opacity: 1;"/></g><g class="points"/><g class="text"/></g></g></g></g><g class="zerolinelayer-above"/><path class="xlines-above crisp" d="M0,0" style="fill: none;"/><path class="ylines-above crisp" d="M0,0" style="fill: none;"/><g class="overlines-above"/><g class="xaxislayer-above"><g class="xtick"><text text-anchor="middle" x="0" y="451" transform="translate(60,0)" style="font-family: 'Lucida Grande', 'Open Sans', verdana, arial, sans-serif; font-size: 10px; fill: rgb(0, 0, 0); fill-opacity: 1; white-space: pre;">0 bp</text></g><g class="xtick"><text text-anchor="middle" x="0" y="451" style="font-family: 'Lucida Grande', 'Open Sans', verdana, arial, sans-serif; font-size: 10px; fill: rgb(0, 0, 0); fill-opacity: 1; white-space: pre;" transform="translate(196.67,0)">20 bp</text></g><g class="xtick"><text text-anchor="middle" x="0" y="451" style="font-family: 'Lucida Grande', 'Open Sans', verdana, arial, sans-serif; font-size: 10px; fill: rgb(0, 0, 0); fill-opacity: 1; white-space: pre;" transform="translate(333.33,0)">40 bp</text></g><g class="xtick"><text text-anchor="middle" x="0" y="451" style="font-family: 'Lucida Grande', 'Open Sans', verdana, arial, sans-serif; font-size: 10px; fill: rgb(0, 0, 0); fill-opacity: 1; white-space: pre;" transform="translate(470,0)">60 bp</text></g><g class="xtick"><text text-anchor="middle" x="0" y="451" style="font-family: 'Lucida Grande', 'Open Sans', verdana, arial, sans-serif; font-size: 10px; fill: rgb(0, 0, 0); fill-opacity: 1; white-space: pre;" transform="translate(606.67,0)">80 bp</text></g><g class="xtick"><text text-anchor="middle" x="0" y="451" style="font-family: 'Lucida Grande', 'Open Sans', verdana, arial, sans-serif; font-size: 10px; fill: rgb(0, 0, 0); fill-opacity: 1; white-space: pre;" transform="translate(743.33,0)">100 bp</text></g><g class="xtick"><text text-anchor="middle" x="0" y="451" style="font-family: 'Lucida Grande', 'Open Sans', verdana, arial, sans-serif; font-size: 10px; fill: rgb(0, 0, 0); fill-opacity: 1; white-space: pre;" transform="translate(880,0)">120 bp</text></g><g class="xtick"><text text-anchor="middle" x="0" y="451" style="font-family: 'Lucida Grande', 'Open Sans', verdana, arial, sans-serif; font-size: 10px; fill: rgb(0, 0, 0); fill-opacity: 1; white-space: pre;" transform="translate(1016.67,0)">140 bp</text></g></g><g class="yaxislayer-above"><g class="ytick"><text text-anchor="end" x="54" y="3.5" transform="translate(0,435)" style="font-family: 'Lucida Grande', 'Open Sans', verdana, arial, sans-serif; font-size: 10px; fill: rgb(0, 0, 0); fill-opacity: 1; white-space: pre;">0%</text></g><g class="ytick"><text text-anchor="end" x="54" y="3.5" style="font-family: 'Lucida Grande', 'Open Sans', verdana, arial, sans-serif; font-size: 10px; fill: rgb(0, 0, 0); fill-opacity: 1; white-space: pre;" transform="translate(0,358)">1%</text></g><g class="ytick"><text text-anchor="end" x="54" y="3.5" style="font-family: 'Lucida Grande', 'Open Sans', verdana, arial, sans-serif; font-size: 10px; fill: rgb(0, 0, 0); fill-opacity: 1; white-space: pre;" transform="translate(0,281)">2%</text></g><g class="ytick"><text text-anchor="end" x="54" y="3.5" style="font-family: 'Lucida Grande', 'Open Sans', verdana, arial, sans-serif; font-size: 10px; fill: rgb(0, 0, 0); fill-opacity: 1; white-space: pre;" transform="translate(0,204)">3%</text></g><g class="ytick"><text text-anchor="end" x="54" y="3.5" style="font-family: 'Lucida Grande', 'Open Sans', verdana, arial, sans-serif; font-size: 10px; fill: rgb(0, 0, 0); fill-opacity: 1; white-space: pre;" transform="translate(0,127)">4%</text></g><g class="ytick"><text text-anchor="end" x="54" y="3.5" style="font-family: 'Lucida Grande', 'Open Sans', verdana, arial, sans-serif; font-size: 10px; fill: rgb(0, 0, 0); fill-opacity: 1; white-space: pre;" transform="translate(0,50)">5%</text></g></g><g class="overaxes-above"/></g></g><g class="polarlayer"/><g class="smithlayer"/><g class="ternarylayer"/><g class="geolayer"/><g class="funnelarealayer"/><g class="pielayer"/><g class="iciclelayer"/><g class="treemaplayer"/><g class="sunburstlayer"/><g class="glimages"/><defs id="topdefs-4de8a7"><g class="clips"/></defs><g class="layer-above"><g class="imagelayer"/><g class="shapelayer"/></g><g class="infolayer"><g class="g-gtitle"><text class="gtitle" x="550" y="25" text-anchor="middle" dy="0em" style="opacity: 1; font-family: 'Lucida Grande', 'Open Sans', verdana, arial, sans-serif; font-size: 20px; fill: rgb(68, 68, 68); fill-opacity: 1; white-space: pre;"><tspan class="line" dy="0em" x="550" y="25">FastQC: Per Base N Content</tspan><tspan class="line" dy="1.3em" x="550" y="25">​<tspan style="font-size:70%" dy="-0.6em">20 lines</tspan><tspan dy="0.42em">​</tspan></tspan></text></g><g class="g-xtitle"><text class="xtitle" x="572.5" y="487" text-anchor="middle" style="opacity: 0.3; font-family: 'Lucida Grande', 'Open Sans', verdana, arial, sans-serif; font-size: 14px; fill: rgb(0, 0, 0); fill-opacity: 1; white-space: pre;">Position in Read (bp)</text></g><g class="g-ytitle"><text class="ytitle" transform="rotate(-90,22,242.5)" x="22" y="242.5" text-anchor="middle" style="opacity: 0.3; font-family: 'Lucida Grande', 'Open Sans', verdana, arial, sans-serif; font-size: 14px; fill: rgb(0, 0, 0); fill-opacity: 1; white-space: pre;">Percentage N-Count</text></g></g></svg>