<svg class="main-svg" xmlns="http://www.w3.org/2000/svg" xmlns:xlink="http://www.w3.org/1999/xlink" width="2200" height="1000" style="" viewBox="0 0 1100 500"><rect x="0" y="0" width="1100" height="500" style="fill: rgb(255, 255, 255); fill-opacity: 1;"/><defs id="defs-9359ff"><g class="clips"><clipPath id="clip9359ffxyplot" class="plotclip"><rect width="1025" height="385"/></clipPath><clipPath class="axesclip" id="clip9359ffx"><rect x="60" y="0" width="1025" height="500"/></clipPath><clipPath class="axesclip" id="clip9359ffy"><rect x="0" y="50" width="1100" height="385"/></clipPath><clipPath class="axesclip" id="clip9359ffxy"><rect x="60" y="50" width="1025" height="385"/></clipPath></g><g class="gradients"/><g class="patterns"/></defs><g class="bglayer"/><g class="layer-below"><g class="imagelayer"/><g class="shapelayer"/></g><g class="cartesianlayer"><g class="subplot xy"><g class="layer-subplot"><g class="shapelayer"/><g class="imagelayer"/></g><g class="minor-gridlayer"><g class="x"/><g class="y"/></g><g class="gridlayer"><g class="x"><path class="xgrid crisp" transform="translate(231.42,0)" d="M0,50v385" style="stroke: rgb(0, 0, 0); stroke-opacity: 0.05; stroke-width: 1px;"/><path class="xgrid crisp" transform="translate(406.33,0)" d="M0,50v385" style="stroke: rgb(0, 0, 0); stroke-opacity: 0.05; stroke-width: 1px;"/><path class="xgrid crisp" transform="translate(581.25,0)" d="M0,50v385" style="stroke: rgb(0, 0, 0); stroke-opacity: 0.05; stroke-width: 1px;"/><path class="xgrid crisp" transform="translate(756.16,0)" d="M0,50v385" style="stroke: rgb(0, 0, 0); stroke-opacity: 0.05; stroke-width: 1px;"/><path class="xgrid crisp" transform="translate(931.08,0)" d="M0,50v385" style="stroke: rgb(0, 0, 0); stroke-opacity: 0.05; stroke-width: 1px;"/></g><g class="y"><path class="ygrid crisp" transform="translate(0,380.55)" d="M60,0h1025" style="stroke: rgb(0, 0, 0); stroke-opacity: 0.05; stroke-width: 1px;"/><path class="ygrid crisp" transform="translate(0,326.1)" d="M60,0h1025" style="stroke: rgb(0, 0, 0); stroke-opacity: 0.05; stroke-width: 1px;"/><path class="ygrid crisp" transform="translate(0,271.65)" d="M60,0h1025" style="stroke: rgb(0, 0, 0); stroke-opacity: 0.05; stroke-width: 1px;"/><path class="ygrid crisp" transform="translate(0,217.2)" d="M60,0h1025" style="stroke: rgb(0, 0, 0); stroke-opacity: 0.05; stroke-width: 1px;"/><path class="ygrid crisp" transform="translate(0,162.75)" d="M60,0h1025" style="stroke: rgb(0, 0, 0); stroke-opacity: 0.05; stroke-width: 1px;"/><path class="ygrid crisp" transform="translate(0,108.3)" d="M60,0h1025" style="stroke: rgb(0, 0, 0); stroke-opacity: 0.05; stroke-width: 1px;"/><path class="ygrid crisp" transform="translate(0,53.85)" d="M60,0h1025" style="stroke: rgb(0, 0, 0); stroke-opacity: 0.05; stroke-width: 1px;"/></g></g><g class="zerolinelayer"><path class="yzl zl crisp" transform="translate(0,435)" d="M60,0h1025" style="stroke: rgb(0, 0, 0); stroke-opacity: 0.05; stroke-width: 1px;"/></g><g class="layer-between"><g class="shapelayer"/><g class="imagelayer"/></g><path class="xlines-below"/><path class="ylines-below"/><g class="overlines-below"/><g class="xaxislayer-below"/><g class="yaxislayer-below"/><g class="overaxes-below"/><g class="overplot"><g class="xy" transform="translate(60,50)" clip-path="url(#clip9359ffxyplot)"><g class="scatterlayer mlayer"><g class="trace scatter traceb30f38" style="stroke-miterlimit: 2; opacity: 1;"><g class="fills"/><g class="errorbars"/><g class="lines"><path class="js-line" d="M0,385L122.44,384.43L125.94,382.53L129.44,382.49L132.94,381.62L178.41,381.4L181.91,381.09L202.9,380.65L206.4,379.96L209.9,380.69L213.4,380.63L216.89,380.18L220.39,378.52L227.39,379.44L230.89,379.08L237.88,379.73L241.38,379.48L258.87,378.89L262.37,378.29L265.87,378.98L269.37,377.89L272.87,378.77L276.37,378.59L279.86,378.02L283.36,378.21L286.86,378.43L290.36,377.2L293.86,377.67L297.35,377.18L318.34,376.55L321.84,376.62L332.34,375.62L335.84,375.3L346.33,374.24L349.83,374.09L360.32,373.34L363.82,373.54L367.32,373.68L370.82,372.24L377.82,372.66L381.31,371.26L388.31,371.48L391.81,370.76L395.31,369.3L398.81,369.93L409.3,367.45L412.8,367.66L419.8,367.05L423.29,365.8L433.79,364.62L437.29,363.16L444.28,361.24L447.78,360.75L461.77,358.94L465.27,356.66L468.77,356.9L472.27,355.66L475.77,355.03L479.27,353.16L482.76,353.47L486.26,350.19L489.76,350.85L493.26,349.8L500.26,347.77L503.75,345.47L507.25,342.87L510.75,343.89L521.25,338.95L524.74,333.83L535.24,330.8L538.74,328.85L542.24,326.38L545.73,325.87L549.23,323.13L552.73,321.57L556.23,321L559.73,319.07L563.23,317.65L566.72,315.06L570.22,310.63L573.72,310.67L577.22,306.57L580.72,304.61L584.22,301.11L587.71,299.14L591.21,298.75L594.71,293.44L598.21,293.31L601.71,290.39L605.2,285.74L608.7,283.05L612.2,281.25L615.7,278.26L619.2,274.69L622.7,269.61L626.19,270.08L629.69,265.5L640.19,252.72L643.69,251.58L647.18,247.29L650.68,245.2L661.18,235.41L664.68,233.53L668.17,225.51L671.67,221.33L678.67,213.23L682.17,211.65L689.16,199.44L692.66,197.22L696.16,194.18L699.66,192.28L703.16,189.21L706.66,184.4L710.15,181.17L713.65,175.99L717.15,174.9L720.65,166.86L724.15,166.52L727.65,161.54L731.14,158.43L734.64,154.14L741.64,146.87L745.14,141.78L748.63,137.31L752.13,134.98L759.13,130.89L762.63,129.23L766.13,121.99L769.62,118.54L776.62,113.15L780.12,108.06L783.62,103.58L787.12,102.52L790.61,99.32L794.11,97.38L797.61,95.33L801.11,89.93L804.61,91.52L808.11,87.73L811.6,83.41L815.1,81.56L818.6,78.92L822.1,79.66L825.6,77.05L829.1,79.16L832.59,74.63L836.09,71.87L839.59,64.07L843.09,64.42L846.59,62.26L850.09,65.82L853.58,61.75L857.08,62.43L860.58,59.75L864.08,62.82L867.58,57.56L871.08,56.16L874.57,56.77L878.07,58.62L881.57,60.37L885.07,57.08L888.57,54L892.06,54.66L895.56,56.35L899.06,53.75L902.56,54.46L906.06,54.23L909.56,53.76L913.05,56.16L920.05,56.69L923.55,56.06L927.05,55.95L930.55,57.89L934.04,61.9L937.54,59.32L941.04,62.05" style="vector-effect: none; fill: none; stroke: rgb(124, 181, 236); stroke-opacity: 1; stroke-width: 2px; opacity: 1;"/></g><g class="points"/><g class="text"/></g><g class="trace scatter traceb80e1a" style="stroke-miterlimit: 2; opacity: 1;"><g class="fills"/><g class="errorbars"/><g class="lines"><path class="js-line" d="M0,385L122.44,384.47L125.94,381.09L136.43,379.93L139.93,379.52L143.43,379.87L146.93,379.32L157.42,380.35L160.92,380.14L164.42,379.31L167.92,379.41L178.41,379.34L181.91,379.54L202.9,379.19L206.4,378.21L216.89,379.35L220.39,377.65L227.39,377.8L230.89,378.05L237.88,378.08L241.38,377.2L248.38,378.11L251.88,376.79L255.38,377.31L258.87,376.91L262.37,376.42L265.87,377.13L279.86,376.55L283.36,377.23L290.36,376.67L293.86,376.58L297.35,375.54L300.85,376.19L304.35,374.9L307.85,375.91L311.35,375.32L314.85,375.73L318.34,374.79L321.84,374.86L325.34,373.82L328.84,374.86L332.34,374.96L335.84,373.36L363.82,371.29L367.32,371.76L370.82,370.38L374.32,370.74L377.82,369.2L381.31,370.34L388.31,369.17L391.81,369.83L395.31,368.28L398.81,368.65L405.8,366.69L409.3,365.82L419.8,365.3L423.29,364.32L426.79,362.91L430.29,363.21L433.79,362.2L437.29,362.19L440.78,361.36L444.28,359.55L447.78,359.96L451.28,357.31L454.78,358.43L458.28,358.61L461.77,356L465.27,356.4L472.27,354.15L475.77,352.19L479.27,350.01L482.76,350.77L486.26,350.76L489.76,349.9L493.26,347.54L496.76,347.24L500.26,344.37L503.75,343.91L507.25,341.19L510.75,341.34L514.25,341.4L517.75,338.81L521.25,336.93L524.74,330.88L535.24,329.29L538.74,325.88L549.23,323.21L552.73,320.38L556.23,315.25L559.73,315.12L563.23,311.87L566.72,310.2L570.22,309.68L573.72,305.57L577.22,304.25L580.72,302.03L584.22,302.99L587.71,297.91L591.21,293.7L594.71,291.56L598.21,291.46L601.71,287.69L608.7,280.93L612.2,277.92L615.7,277.63L619.2,271.68L626.19,266.94L629.69,266.09L633.19,259.51L636.69,258.98L643.69,250.32L647.18,247.16L650.68,241.84L654.18,239.52L657.68,239.49L661.18,235.87L668.17,228.1L671.67,225.6L675.17,221.62L678.67,214.82L682.17,212.73L685.67,209.02L692.66,204.04L696.16,199.27L699.66,193.66L703.16,190.34L706.66,189.31L710.15,183.11L713.65,181L717.15,175L720.65,174.79L724.15,168.23L727.65,163.04L731.14,163.36L734.64,159.69L738.14,153.95L741.64,153.37L745.14,150.2L748.63,141.99L752.13,139.7L755.63,136.83L759.13,136.74L762.63,133.39L766.13,127.89L769.62,129.45L773.12,124.78L780.12,113.11L783.62,113.86L790.61,107.4L794.11,107.95L801.11,99.13L804.61,97.4L811.6,93.47L815.1,89.03L822.1,81.61L825.6,81.9L829.1,81.53L832.59,75.16L839.59,70.5L843.09,72.11L850.09,72.85L853.58,65.06L857.08,65.63L860.58,60.29L864.08,63.37L867.58,64.54L871.08,62.83L874.57,60.05L878.07,58.27L881.57,58.23L885.07,57.04L888.57,58.41L895.56,53.17L899.06,54.55L902.56,49.48L906.06,55.29L909.56,49.93L913.05,54.42L916.55,50.68L920.05,57.9L923.55,51.44L927.05,50.58L930.55,57.24L934.04,52.89L937.54,54.48L941.04,59.37" style="vector-effect: none; fill: none; stroke: rgb(67, 67, 72); stroke-opacity: 1; stroke-width: 2px; opacity: 1;"/></g><g class="points"/><g class="text"/></g><g class="trace scatter tracee0d22c" style="stroke-miterlimit: 2; opacity: 1;"><g class="fills"/><g class="errorbars"/><g class="lines"><path class="js-line" d="M0,385L122.44,384.49L125.94,382.76L139.93,382.01L143.43,381.88L157.42,380.93L160.92,380.85L178.41,379.28L181.91,379.88L185.41,379.04L188.91,379.14L195.9,377.72L199.4,378.23L213.4,376.6L216.89,376.59L223.89,374.19L227.39,375.04L241.38,373.99L244.88,373.3L251.88,371.87L255.38,371.18L272.87,368.92L276.37,369.24L290.36,366.42L293.86,366.58L300.85,364.31L304.35,364.95L307.85,362.97L311.35,363.18L314.85,362.15L318.34,360.13L325.34,360.62L328.84,358.63L332.34,356.77L335.84,356.85L339.33,355.16L342.83,355.56L360.32,350.29L363.82,349.64L367.32,347.05L370.82,346.56L374.32,345.91L377.82,344.35L381.31,341.59L384.81,341.72L391.81,338.49L395.31,337.74L398.81,336.24L402.3,333.22L405.8,332.48L409.3,330.22L412.8,329.87L416.3,328.73L423.29,324.61L426.79,324.01L430.29,320.87L433.79,319L437.29,318.92L440.78,316.18L447.78,312.91L451.28,310.24L454.78,306.74L458.28,305.95L468.77,299.29L472.27,295.8L475.77,296.93L479.27,290.77L482.76,292.07L486.26,289.68L489.76,288.59L493.26,284.06L496.76,282.81L500.26,280.33L503.75,275.8L507.25,273.65L514.25,268.42L517.75,267.46L521.25,265.74L524.74,257.61L535.24,252.09L538.74,248.6L542.24,248.12L545.73,245.17L549.23,241.11L552.73,239.08L556.23,235.77L559.73,233.74L563.23,232.43L566.72,227.42L573.72,220.11L577.22,218.61L580.72,216.02L584.22,215.11L591.21,208.03L594.71,207.16L598.21,203.58L601.71,202.92L605.2,199.85L608.7,195.51L615.7,193.75L619.2,193.12L622.7,187.36L626.19,187.71L633.19,186.61L636.69,184.52L640.19,180.48L643.69,179.81L650.68,176.82L654.18,172.54L661.18,170.91L664.68,168.05L668.17,168.74L671.67,166.11L675.17,165.93L678.67,167.47L682.17,163.99L685.67,166.12L689.16,163.45L692.66,164.5L696.16,162.59L699.66,162.47L706.66,163.31L710.15,159.29L713.65,158.89L717.15,157.47L720.65,159.8L724.15,158.91L727.65,160.37L731.14,159.37L734.64,162.66L738.14,157.91L745.14,160.22L748.63,161.43L752.13,163.61L755.63,161.29L759.13,160.44L762.63,162.08L766.13,165.91L769.62,165.37L773.12,168.77L776.62,167.18L780.12,170L783.62,168.66L787.12,169.38L790.61,168.2L797.61,175.61L801.11,174.79L804.61,175L808.11,177.65L811.6,177.78L815.1,179.13L825.6,183.53L829.1,183.62L832.59,184L836.09,189.71L839.59,190.31L843.09,192.21L846.59,195.14L850.09,194.25L853.58,197.25L857.08,197.57L860.58,197.62L864.08,199.7L867.58,202.11L871.08,205.97L874.57,207.32L878.07,209.6L881.57,207.9L885.07,214.23L888.57,214.12L892.06,216.72L895.56,217.47L899.06,220.71L902.56,220.77L906.06,223.3L909.56,225.36L913.05,224.64L916.55,229.35L920.05,229.54L923.55,230.94L927.05,233.98L930.55,236.28L934.04,237.21L937.54,242.17L941.04,242.11" style="vector-effect: none; fill: none; stroke: rgb(144, 237, 125); stroke-opacity: 1; stroke-width: 2px; opacity: 1;"/></g><g class="points"/><g class="text"/></g><g class="trace scatter trace300d2f" style="stroke-miterlimit: 2; opacity: 1;"><g class="fills"/><g class="errorbars"/><g class="lines"><path class="js-line" d="M0,385L122.44,384.27L125.94,379.5L132.94,378.94L136.43,378.6L157.42,378.37L160.92,378.4L178.41,377.84L181.91,378.57L202.9,377.56L206.4,376.74L209.9,377.6L213.4,377.52L220.39,377.08L223.89,376L230.89,377.56L234.39,376.8L237.88,377.09L241.38,376.34L244.88,375.88L248.38,376.52L272.87,375.49L276.37,374.42L279.86,375.75L283.36,374.73L286.86,375.24L290.36,374.8L297.35,374.08L300.85,374.4L307.85,373.21L311.35,373.76L314.85,372.96L318.34,373.36L325.34,373.3L328.84,372.17L332.34,371.84L335.84,372.31L342.83,370.52L346.33,370.15L360.32,369.54L363.82,368.8L370.82,367.31L374.32,368.2L377.82,367.48L381.31,365.68L384.81,366.53L388.31,365.21L398.81,364.5L402.3,362.88L405.8,362.77L409.3,361.53L416.3,360.92L419.8,360.54L433.79,357.41L437.29,355.8L444.28,353.3L447.78,353.41L451.28,351.38L454.78,351.67L458.28,349.12L461.77,347.99L468.77,347.58L472.27,345.62L475.77,343.99L479.27,344.12L482.76,342.8L486.26,339.57L489.76,339.12L493.26,337.67L500.26,334.99L503.75,333.16L507.25,332.73L510.75,330.49L517.75,327.83L521.25,326.4L524.74,320.23L528.24,317.62L535.24,316.88L538.74,312.55L542.24,310.4L545.73,310.86L549.23,307.62L552.73,305.42L556.23,303.66L559.73,302.8L566.72,295.44L570.22,293.44L573.72,291.88L577.22,285.58L580.72,285.88L584.22,284.1L587.71,280.04L591.21,278.47L594.71,276.53L598.21,269.48L601.71,267.68L605.2,265.04L608.7,261.25L612.2,259.36L615.7,258.49L619.2,251.12L622.7,252.11L626.19,249L636.69,238.51L640.19,236.45L647.18,228.25L650.68,224.85L654.18,219.4L657.68,217.29L661.18,216.48L664.68,211.28L668.17,209.71L671.67,205.41L675.17,202.11L678.67,197.2L682.17,195.71L685.67,191.6L692.66,187.33L696.16,182.63L699.66,176.23L703.16,174.42L706.66,172.65L710.15,168.4L713.65,163.95L717.15,163.83L724.15,158.29L727.65,152.82L731.14,151.42L734.64,146.16L741.64,143.87L745.14,143.18L748.63,139.03L752.13,132.27L755.63,131.76L759.13,129.14L762.63,132.91L766.13,126.7L769.62,121.65L773.12,125.45L776.62,120.59L780.12,119.67L783.62,115.96L787.12,114.47L790.61,114.09L794.11,112.51L797.61,108.27L801.11,107.78L804.61,107.49L808.11,103.43L811.6,104.01L815.1,108.26L818.6,103.44L822.1,102.38L825.6,104.57L829.1,102.57L836.09,99.06L839.59,96.25L843.09,98.71L846.59,98.68L850.09,95.33L853.58,95.22L857.08,97.96L860.58,95.69L867.58,96.94L871.08,95.9L874.57,97.16L878.07,99.86L881.57,93.44L885.07,97.82L888.57,96.72L892.06,97.09L895.56,98.88L899.06,99.66L902.56,103.8L906.06,100.42L913.05,102.45L916.55,104.9L920.05,103.62L923.55,105.9L927.05,104.09L930.55,108.08L934.04,109.4L937.54,112.96L941.04,109.12" style="vector-effect: none; fill: none; stroke: rgb(247, 163, 92); stroke-opacity: 1; stroke-width: 2px; opacity: 1;"/></g><g class="points"/><g class="text"/></g><g class="trace scatter tracef1503c" style="stroke-miterlimit: 2; opacity: 1;"><g class="fills"/><g class="errorbars"/><g class="lines"><path class="js-line" d="M0,385L122.44,384.39L125.94,382.92L157.42,382.18L160.92,382.77L167.92,381.8L171.42,382.05L178.41,381.73L181.91,381.44L195.9,380.94L199.4,381.25L206.4,380.01L209.9,380.37L216.89,380.53L220.39,379.49L223.89,378.43L227.39,380.06L230.89,379.52L234.39,379.75L255.38,378.78L258.87,377.94L265.87,378.55L269.37,377.94L283.36,377.89L286.86,376.97L293.86,377.42L297.35,376.23L321.84,375.07L325.34,374.51L335.84,373.79L339.33,372.8L342.83,372.68L346.33,371.74L353.33,371.89L356.83,371.58L363.82,370.32L367.32,369.39L374.32,369.07L377.82,368.74L381.31,368.53L384.81,369.34L398.81,365.47L402.3,366.03L405.8,364.13L409.3,364.81L416.3,364.02L419.8,363.64L423.29,360.8L426.79,361.84L437.29,360.28L440.78,357.82L451.28,356.89L454.78,355.34L458.28,353.69L461.77,356.04L465.27,353.31L468.77,353.17L475.77,349.63L479.27,349.2L482.76,348.23L486.26,345.8L489.76,346.07L493.26,345.01L503.75,340.25L507.25,340.02L514.25,338.01L517.75,335.53L521.25,334.16L524.74,328.74L528.24,327.48L531.74,328.47L538.74,324.32L542.24,323.67L545.73,322.45L549.23,318.16L552.73,317.49L556.23,315.57L559.73,311.4L563.23,313.09L566.72,311.19L570.22,308.31L573.72,307.52L577.22,302.04L580.72,300.96L584.22,298.49L591.21,292.56L594.71,290.99L598.21,287.6L601.71,287.17L608.7,281.26L612.2,279.14L619.2,270.87L622.7,271.59L626.19,266.63L629.69,267.16L636.69,255.82L640.19,253.25L643.69,252.12L647.18,249.41L650.68,247.32L654.18,240.17L661.18,236.06L664.68,232.16L668.17,226.49L671.67,224.19L685.67,208.83L689.16,206.96L692.66,199.49L696.16,202.84L703.16,189.98L706.66,188.22L710.15,186.86L713.65,186.84L717.15,174.14L720.65,175.67L727.65,164.46L731.14,161.46L734.64,163.99L738.14,157.4L741.64,154.63L745.14,147.43L748.63,142.56L752.13,144.08L755.63,137.98L759.13,136.22L762.63,131.76L766.13,129.35L769.62,121.14L773.12,124.95L776.62,119.69L780.12,120.66L783.62,114.91L787.12,107.17L790.61,110.69L794.11,102.48L797.61,97.29L801.11,99.41L804.61,95.94L808.11,94.92L811.6,93.25L815.1,83.98L818.6,83.24L822.1,84.32L825.6,80.2L829.1,84.5L832.59,76.92L836.09,76.02L839.59,76.36L843.09,70.38L846.59,67.81L850.09,70L857.08,66.28L860.58,63.17L864.08,64.67L867.58,61.05L871.08,65.92L874.57,58.32L878.07,57.68L881.57,59.99L885.07,58.83L888.57,58.67L892.06,57.05L895.56,59.11L899.06,54.41L902.56,56.35L906.06,57.5L909.56,59.78L913.05,51.21L916.55,53.13L920.05,53.69L923.55,55.31L927.05,55.9L930.55,53.37L934.04,53.35L937.54,62.64L941.04,55.29" style="vector-effect: none; fill: none; stroke: rgb(128, 133, 233); stroke-opacity: 1; stroke-width: 2px; opacity: 1;"/></g><g class="points"/><g class="text"/></g><g class="trace scatter tracec219e3" style="stroke-miterlimit: 2; opacity: 1;"><g class="fills"/><g class="errorbars"/><g class="lines"><path class="js-line" d="M0,385L122.44,384.44L125.94,383.99L132.94,383.8L136.43,383.7L139.93,383.14L143.43,383.35L160.92,383.44L164.42,383.07L174.91,382.83L178.41,382.57L195.9,382.37L199.4,382.11L202.9,382.22L206.4,381.14L209.9,382L213.4,381.56L220.39,380.98L223.89,380.15L227.39,381.47L230.89,381.56L251.88,379.94L255.38,381L262.37,379.7L265.87,380.66L272.87,380L276.37,379.63L279.86,380.1L283.36,379.75L290.36,379.44L293.86,378.9L318.34,378.48L321.84,377.98L328.84,377.93L332.34,377.21L335.84,377.66L339.33,376.95L342.83,376L346.33,375.94L356.83,375.59L360.32,374.43L370.82,374.59L374.32,372.92L377.82,373.51L381.31,372.78L402.3,370.8L405.8,371.14L409.3,369.02L412.8,368.78L419.8,368.61L423.29,367.7L433.79,366.93L437.29,365.72L440.78,364.98L444.28,362.66L447.78,363.88L451.28,363.39L458.28,360.97L461.77,361.56L468.77,358.93L472.27,358.22L475.77,357.85L479.27,356.15L493.26,352.02L496.76,352.25L507.25,346.4L510.75,345.5L514.25,345.85L517.75,342.99L521.25,343.52L524.74,338.37L528.24,336.09L531.74,336.46L535.24,334.09L538.74,333.72L542.24,332.33L545.73,329.71L552.73,325.61L556.23,326.96L559.73,322.67L563.23,322.09L570.22,314.98L573.72,312.97L577.22,311.07L580.72,307.83L584.22,306.14L587.71,306.26L591.21,301.48L594.71,300.15L598.21,296.57L601.71,297.37L605.2,290.13L608.7,290.13L615.7,280.95L619.2,280.44L622.7,277.6L626.19,272.86L629.69,272.02L633.19,268.97L636.69,265.18L640.19,259.27L643.69,255.57L647.18,254.83L650.68,251.43L654.18,246.13L657.68,246.92L661.18,241.55L664.68,233.24L668.17,233.15L671.67,228.59L675.17,227.98L678.67,219.91L682.17,217.21L685.67,212.19L689.16,208.94L696.16,201.13L699.66,197.18L703.16,194.27L706.66,189.33L710.15,181.7L713.65,183.16L717.15,178.23L720.65,174.79L724.15,172.54L727.65,162.47L731.14,163.13L734.64,159.35L738.14,151.62L741.64,149.09L745.14,146.13L748.63,144.86L752.13,139.21L755.63,130.55L759.13,131.27L762.63,123.32L766.13,121.71L769.62,118.89L773.12,121.17L776.62,111.32L780.12,108.24L783.62,101.52L787.12,103.5L790.61,94.66L794.11,93.92L797.61,92.17L801.11,92.2L804.61,81.18L808.11,87.61L811.6,82.05L815.1,76.91L818.6,76.56L822.1,76.06L825.6,67.56L829.1,67.93L832.59,65.68L836.09,59.26L839.59,59.71L843.09,64.14L846.59,54.23L850.09,49.55L853.58,51.26L857.08,49.25L860.58,44.96L864.08,44.51L867.58,50.31L871.08,45.38L874.57,45.81L878.07,42.7L881.57,40.61L885.07,35.23L888.57,39.13L892.06,41.25L895.56,36.05L899.06,37.12L902.56,43.6L906.06,35.69L909.56,38.29L913.05,40L916.55,35.4L927.05,37.76L930.55,33.48L934.04,33.65L937.54,40.41L941.04,37.6" style="vector-effect: none; fill: none; stroke: rgb(241, 92, 128); stroke-opacity: 1; stroke-width: 2px; opacity: 1;"/></g><g class="points"/><g class="text"/></g><g class="trace scatter trace04ca64" style="stroke-miterlimit: 2; opacity: 1;"><g class="fills"/><g class="errorbars"/><g class="lines"><path class="js-line" d="M0,385L104.95,385L108.45,384.17L122.44,383.42L125.94,382.15L136.43,379.69L139.93,380.36L160.92,377.19L164.42,377.92L171.42,377.4L174.91,375.37L181.91,375.46L185.41,374.75L199.4,374.04L202.9,372.33L206.4,372.24L209.9,373.06L213.4,371.39L216.89,371.88L223.89,367.66L227.39,369.35L234.39,369.55L237.88,368.84L241.38,367.6L244.88,368.24L248.38,366.94L251.88,367.43L255.38,366.29L258.87,367.45L262.37,365.05L265.87,364.54L272.87,364.43L276.37,364.52L286.86,363.81L290.36,361.67L297.35,362.55L300.85,360.71L304.35,360.04L307.85,360.24L311.35,359.85L314.85,357.73L318.34,359.32L321.84,358.87L328.84,356.92L332.34,356.6L339.33,354.8L342.83,355.46L346.33,354.07L349.83,354.2L353.33,352.62L356.83,352.98L360.32,352.43L363.82,350.71L367.32,351.34L370.82,349.77L374.32,347.78L377.82,349.07L381.31,345.96L384.81,346.84L388.31,346.09L391.81,344.23L398.81,343.7L402.3,344.79L405.8,340.57L409.3,341.73L412.8,339.01L416.3,340.38L419.8,338.11L423.29,337.72L426.79,338.9L430.29,336.97L433.79,336.06L437.29,332.61L440.78,331.99L444.28,329.36L451.28,330.53L454.78,328.5L458.28,329.04L461.77,326.23L465.27,325.99L468.77,323.23L472.27,321.1L475.77,321.46L482.76,317.52L486.26,318.14L489.76,315.38L493.26,313.95L496.76,312.58L500.26,309.95L503.75,306.91L507.25,309.69L510.75,305.36L514.25,305.79L517.75,304.36L521.25,304L524.74,297.92L528.24,295.76L531.74,295.45L535.24,292.97L538.74,289.93L542.24,289.14L545.73,286.36L549.23,286.42L552.73,284.76L556.23,286.06L559.73,280.9L563.23,280.05L570.22,277.26L573.72,272.53L577.22,271.72L580.72,266.99L584.22,261.83L587.71,261.88L591.21,263.8L594.71,263.2L601.71,254.04L605.2,256.59L608.7,249.87L612.2,250.43L615.7,247.77L619.2,243.32L622.7,241.59L626.19,240.71L629.69,236.09L633.19,235.34L640.19,229.39L643.69,229.49L647.18,225.24L650.68,226.05L657.68,218.69L661.18,221.47L664.68,216.5L668.17,214.99L671.67,210.32L675.17,210.34L678.67,209.01L682.17,203.38L685.67,206.13L689.16,201.7L699.66,196.66L703.16,190.54L706.66,190.5L710.15,188.94L713.65,189.18L717.15,182.22L720.65,183.76L724.15,181.15L727.65,180.57L731.14,177.7L734.64,174.92L738.14,174.21L741.64,168.71L745.14,174.86L752.13,161.78L755.63,164.76L759.13,160L762.63,158.7L766.13,160.77L769.62,156.69L773.12,158.19L776.62,158.61L780.12,155.19L783.62,153.18L787.12,151.68L790.61,148.47L794.11,149L797.61,142.93L801.11,142.88L804.61,146.27L808.11,140.81L811.6,139.18L815.1,142.97L818.6,134.54L822.1,141L825.6,136.14L829.1,137.02L832.59,132.61L836.09,135.65L839.59,132.99L843.09,130.96L846.59,130.28L850.09,129.08L853.58,132.01L857.08,127.71L860.58,128.61L864.08,125.95L867.58,124.63L871.08,127.75L874.57,124.97L878.07,122.92L881.57,128.69L885.07,120.03L888.57,123.96L892.06,125.38L895.56,123.94L899.06,126.75L902.56,122.14L909.56,126.51L913.05,121.85L916.55,121.97L920.05,124.31L923.55,124.07L927.05,122.96L930.55,121.35L934.04,123.62L937.54,125.38L941.04,125.29L944.54,385L948.04,385L1018,384.98" style="vector-effect: none; fill: none; stroke: rgb(228, 211, 84); stroke-opacity: 1; stroke-width: 2px; opacity: 1;"/></g><g class="points"/><g class="text"/></g><g class="trace scatter trace7af159" style="stroke-miterlimit: 2; opacity: 1;"><g class="fills"/><g class="errorbars"/><g class="lines"><path class="js-line" d="M0,385L104.95,385L108.45,384.21L115.44,383.94L118.94,384.09L122.44,384.02L125.94,381.53L129.44,380.63L132.94,381.13L136.43,380.51L139.93,380.98L150.43,380.22L153.92,380.19L174.91,379.16L178.41,378.76L181.91,379.38L185.41,378.47L188.91,378.84L192.41,378.39L199.4,377.3L202.9,377.89L206.4,377.05L209.9,377.35L213.4,376.62L216.89,377.76L223.89,374.16L227.39,376.14L234.39,376.33L237.88,375.74L244.88,374.56L248.38,374.89L251.88,374.37L255.38,375.18L258.87,373.93L262.37,374.08L265.87,374.29L269.37,372.67L272.87,373.81L276.37,372.69L283.36,372.79L286.86,373.5L290.36,371.71L293.86,371.06L297.35,371.15L300.85,372.27L304.35,370.42L307.85,370.23L314.85,368.73L318.34,369.02L325.34,369.05L328.84,367.63L332.34,369.36L335.84,366.9L339.33,367.94L342.83,365.95L346.33,364.72L349.83,366.11L360.32,366.09L363.82,364.32L370.82,361.76L374.32,362.1L377.82,362.99L381.31,361.62L384.81,362.56L388.31,360.83L398.81,358.64L402.3,359.5L405.8,357.36L409.3,356.31L412.8,357.48L416.3,355.88L423.29,355.71L426.79,353.44L430.29,351.86L433.79,352.47L454.78,349.3L458.28,347.66L461.77,349.39L465.27,346.85L468.77,346.66L472.27,345.15L475.77,342.29L479.27,342.84L486.26,339.7L489.76,341.53L493.26,338.92L496.76,338.93L500.26,336.2L503.75,335.29L510.75,331.66L514.25,333.04L521.25,329.59L524.74,324.11L531.74,322.97L535.24,321.53L542.24,321.99L545.73,316.25L549.23,315.17L552.73,315.44L559.73,313.4L563.23,310.43L566.72,309.07L570.22,304.19L577.22,299.96L580.72,297.84L584.22,298.43L587.71,296.41L591.21,296.61L594.71,293.58L598.21,290.37L601.71,289.08L605.2,286.51L608.7,285.53L615.7,280.02L619.2,277.21L622.7,274.13L626.19,273.19L629.69,268.35L633.19,266.79L636.69,264.73L640.19,261.73L643.69,257.09L647.18,257.05L657.68,246.51L661.18,248.07L668.17,237.89L671.67,235.73L675.17,231.76L678.67,229.9L682.17,230.97L685.67,223.15L689.16,219.4L692.66,221.77L699.66,214.91L703.16,213.04L706.66,203.49L710.15,203.8L713.65,202.88L717.15,196.71L720.65,189.78L724.15,192.42L731.14,180.9L734.64,177.69L738.14,177.94L741.64,171.85L745.14,163.63L748.63,165.19L752.13,162.88L755.63,157.64L759.13,154.44L762.63,156.08L766.13,148.13L769.62,146.06L776.62,143.31L780.12,136.84L783.62,132.35L787.12,129.56L790.61,129.08L794.11,124.84L797.61,123.76L801.11,117.99L804.61,118.16L808.11,110.73L811.6,103.58L815.1,98.96L818.6,99.88L822.1,96.67L825.6,98.11L829.1,93.09L832.59,89.21L836.09,87.62L843.09,78.08L846.59,77.18L850.09,74.41L853.58,73.94L857.08,69.01L860.58,68.88L864.08,61.16L867.58,63.39L871.08,60.52L874.57,52.86L878.07,56.9L881.57,54.97L885.07,49.62L888.57,47.66L892.06,47.33L895.56,43.11L899.06,39.68L902.56,43.53L906.06,33.44L909.56,36.31L913.05,30.42L916.55,28.13L920.05,31.17L923.55,26.45L927.05,19.25L930.55,22.99L934.04,28.78L937.54,20.77L941.04,24.55" style="vector-effect: none; fill: none; stroke: rgb(43, 144, 143); stroke-opacity: 1; stroke-width: 2px; opacity: 1;"/></g><g class="points"/><g class="text"/></g><g class="trace scatter trace0298b8" style="stroke-miterlimit: 2; opacity: 1;"><g class="fills"/><g class="errorbars"/><g class="lines"><path class="js-line" d="M0,385L122.44,384.69L125.94,383.91L129.44,383.18L132.94,383.69L139.93,383.34L143.43,383.37L150.43,382.81L153.92,382.95L164.42,383.19L167.92,382.73L192.41,382.74L195.9,382.7L206.4,381.53L209.9,382.37L216.89,382.43L220.39,380.67L223.89,380.21L227.39,381.67L234.39,381.4L237.88,381.44L244.88,381.25L248.38,381.23L251.88,380.62L255.38,381.11L262.37,379.82L265.87,380.67L279.86,379.71L283.36,380.1L293.86,379.72L297.35,378.92L304.35,379.61L307.85,379L318.34,378.57L321.84,377.65L332.34,377.82L335.84,376.53L346.33,376.77L349.83,376.09L356.83,376.2L360.32,375.46L363.82,376.02L367.32,375.33L374.32,373.74L377.82,374.74L381.31,373.74L384.81,373.7L402.3,371.47L405.8,370.55L412.8,370.79L416.3,369.76L419.8,369.74L423.29,368.85L430.29,367.79L433.79,368.04L437.29,366.27L440.78,366.06L451.28,364.6L454.78,362.95L458.28,363.05L461.77,360.5L465.27,360.58L468.77,359.47L472.27,359.41L475.77,358.57L479.27,358L482.76,358.65L486.26,355.06L489.76,354.76L500.26,351.89L503.75,350.15L507.25,349.32L510.75,347.46L517.75,346.8L521.25,343.21L528.24,340.29L531.74,339.35L535.24,339.21L538.74,335.74L542.24,334.36L545.73,332.04L552.73,327.66L556.23,327.65L559.73,324.74L563.23,322.88L566.72,319.75L570.22,318.9L573.72,318.21L577.22,315.03L591.21,304.02L594.71,302.31L601.71,296.2L605.2,295.32L608.7,291.11L612.2,289.33L619.2,282.23L622.7,277.33L626.19,275.02L629.69,273.81L636.69,267.81L640.19,263.2L647.18,254.47L650.68,252.99L654.18,251.2L657.68,245.79L664.68,233.1L668.17,232.5L671.67,228.3L675.17,226.13L678.67,220.76L682.17,219.94L685.67,212.72L689.16,209.59L692.66,205.14L696.16,202.64L706.66,187.61L710.15,187.53L717.15,175.25L720.65,172.35L727.65,162.87L731.14,159.81L734.64,153.34L738.14,149.03L741.64,147.65L745.14,142.61L748.63,141.29L752.13,133.04L755.63,127.06L759.13,128.18L762.63,122.85L766.13,121.66L769.62,112.66L773.12,112.21L776.62,106.84L780.12,104.96L790.61,94.98L794.11,94.74L797.61,88.39L801.11,83.7L804.61,80.05L808.11,79.01L811.6,72.69L815.1,74.57L818.6,68.16L822.1,63.99L825.6,62.46L829.1,62.41L832.59,58.75L836.09,56.17L839.59,60.06L843.09,53.13L846.59,56.49L850.09,54.51L853.58,46.64L857.08,48.85L860.58,41.34L864.08,43.97L871.08,41.45L874.57,38.82L878.07,36.25L881.57,39.79L885.07,37.37L888.57,43.9L892.06,35.49L895.56,36.44L899.06,37.44L902.56,39.6L906.06,33.87L909.56,35.25L916.55,39.71L920.05,36.92L923.55,38.12L927.05,36.59L930.55,43.64L934.04,37.39L937.54,44.63L941.04,42.43L944.54,385L948.04,385L1025,384.99" style="vector-effect: none; fill: none; stroke: rgb(244, 91, 91); stroke-opacity: 1; stroke-width: 2px; opacity: 1;"/></g><g class="points"/><g class="text"/></g><g class="trace scatter trace3803db" style="stroke-miterlimit: 2; opacity: 1;"><g class="fills"/><g class="errorbars"/><g class="lines"><path class="js-line" d="M0,385L122.44,384.29L125.94,382.58L157.42,381.43L160.92,381.36L167.92,380.99L171.42,380.8L178.41,380.28L181.91,380.7L195.9,379.53L199.4,379.92L209.9,378.97L213.4,379.27L223.89,377.23L227.39,377.74L248.38,377.08L251.88,375.94L258.87,376.17L262.37,375.36L265.87,375.84L269.37,375.28L272.87,374.41L276.37,374.9L297.35,372.37L300.85,372.84L311.35,370.82L314.85,370.94L325.34,369.38L328.84,369.52L335.84,367.84L339.33,367.81L346.33,365.88L349.83,366.56L353.33,365.91L356.83,364.47L363.82,364.19L367.32,362.5L370.82,362.55L374.32,361.52L381.31,361.42L384.81,359.8L391.81,358.38L395.31,357.61L402.3,356.05L405.8,354.66L409.3,354.78L412.8,352.76L419.8,352.82L423.29,350.68L433.79,348.69L437.29,346.78L447.78,344.72L451.28,343.6L454.78,341.01L458.28,340.77L461.77,340.18L465.27,338.4L468.77,337.45L472.27,335.17L475.77,333.94L479.27,331.57L482.76,331.44L486.26,330.07L489.76,327.67L493.26,328.74L496.76,324.81L500.26,322.86L503.75,323.05L507.25,319.08L514.25,318.37L517.75,315.63L521.25,314.26L524.74,306.18L528.24,306.87L531.74,306.17L535.24,305.34L538.74,301.85L552.73,292.32L556.23,289.2L559.73,286.63L563.23,287.41L570.22,278.98L573.72,277.98L577.22,275.57L580.72,271.01L584.22,270.28L587.71,266.17L594.71,263.97L598.21,258.54L601.71,255.76L605.2,255.15L612.2,250.08L615.7,248.27L622.7,237.63L626.19,237.24L629.69,236.06L633.19,228.52L640.19,226.55L643.69,221.01L647.18,218.43L650.68,214.46L654.18,212.3L657.68,208.66L664.68,203.16L668.17,199.36L678.67,188.92L682.17,188.16L689.16,179.98L692.66,178.62L696.16,175.05L699.66,175.01L703.16,174L706.66,164.32L710.15,164.85L713.65,163.42L717.15,158.51L720.65,159.99L724.15,157.19L727.65,150.31L731.14,151.67L734.64,150.3L738.14,145.41L741.64,143.85L745.14,143.12L748.63,136.52L752.13,139.61L755.63,135.37L759.13,133.37L762.63,129.27L766.13,129.51L769.62,128.02L776.62,126.11L780.12,124.34L783.62,124.5L787.12,122.61L790.61,118.28L794.11,119.11L797.61,121.76L801.11,119.96L804.61,115.09L808.11,117.92L811.6,116.2L815.1,119.45L818.6,122.2L822.1,114.83L825.6,117.21L829.1,112.55L832.59,117.13L836.09,117.08L839.59,114.67L843.09,117.11L846.59,117.65L850.09,115.32L853.58,118.7L857.08,116.87L860.58,119.62L864.08,117.74L867.58,119.69L871.08,118.73L881.57,119.73L885.07,117.52L888.57,122.43L892.06,124.7L899.06,124.52L902.56,127.44L906.06,127.54L909.56,128.76L913.05,129.39L916.55,132.46L930.55,139.37L934.04,141.57L937.54,137.79L941.04,144.24" style="vector-effect: none; fill: none; stroke: rgb(145, 232, 225); stroke-opacity: 1; stroke-width: 2px; opacity: 1;"/></g><g class="points"/><g class="text"/></g></g></g></g><g class="zerolinelayer-above"/><path class="xlines-above crisp" d="M0,0" style="fill: none;"/><path class="ylines-above crisp" d="M0,0" style="fill: none;"/><g class="overlines-above"/><g class="xaxislayer-above"><g class="xtick"><text text-anchor="middle" x="0" y="451" transform="translate(231.42,0)" style="font-family: 'Lucida Grande', 'Open Sans', verdana, arial, sans-serif; font-size: 10px; fill: rgb(0, 0, 0); fill-opacity: 1; white-space: pre;">50</text></g><g class="xtick"><text text-anchor="middle" x="0" y="451" style="font-family: 'Lucida Grande', 'Open Sans', verdana, arial, sans-serif; font-size: 10px; fill: rgb(0, 0, 0); fill-opacity: 1; white-space: pre;" transform="translate(406.33,0)">100</text></g><g class="xtick"><text text-anchor="middle" x="0" y="451" style="font-family: 'Lucida Grande', 'Open Sans', verdana, arial, sans-serif; font-size: 10px; fill: rgb(0, 0, 0); fill-opacity: 1; white-space: pre;" transform="translate(581.25,0)">150</text></g><g class="xtick"><text text-anchor="middle" x="0" y="451" style="font-family: 'Lucida Grande', 'Open Sans', verdana, arial, sans-serif; font-size: 10px; fill: rgb(0, 0, 0); fill-opacity: 1; white-space: pre;" transform="translate(756.16,0)">200</text></g><g class="xtick"><text text-anchor="middle" x="0" y="451" style="font-family: 'Lucida Grande', 'Open Sans', verdana, arial, sans-serif; font-size: 10px; fill: rgb(0, 0, 0); fill-opacity: 1; white-space: pre;" transform="translate(931.08,0)">250</text></g></g><g class="yaxislayer-above"><g class="ytick"><text text-anchor="end" x="54" y="3.5" transform="translate(0,435)" style="font-family: 'Lucida Grande', 'Open Sans', verdana, arial, sans-serif; font-size: 10px; fill: rgb(0, 0, 0); fill-opacity: 1; white-space: pre;">0%</text></g><g class="ytick"><text text-anchor="end" x="54" y="3.5" style="font-family: 'Lucida Grande', 'Open Sans', verdana, arial, sans-serif; font-size: 10px; fill: rgb(0, 0, 0); fill-opacity: 1; white-space: pre;" transform="translate(0,380.55)">0.2%</text></g><g class="ytick"><text text-anchor="end" x="54" y="3.5" style="font-family: 'Lucida Grande', 'Open Sans', verdana, arial, sans-serif; font-size: 10px; fill: rgb(0, 0, 0); fill-opacity: 1; white-space: pre;" transform="translate(0,326.1)">0.4%</text></g><g class="ytick"><text text-anchor="end" x="54" y="3.5" style="font-family: 'Lucida Grande', 'Open Sans', verdana, arial, sans-serif; font-size: 10px; fill: rgb(0, 0, 0); fill-opacity: 1; white-space: pre;" transform="translate(0,271.65)">0.6%</text></g><g class="ytick"><text text-anchor="end" x="54" y="3.5" style="font-family: 'Lucida Grande', 'Open Sans', verdana, arial, sans-serif; font-size: 10px; fill: rgb(0, 0, 0); fill-opacity: 1; white-space: pre;" transform="translate(0,217.2)">0.8%</text></g><g class="ytick"><text text-anchor="end" x="54" y="3.5" style="font-family: 'Lucida Grande', 'Open Sans', verdana, arial, sans-serif; font-size: 10px; fill: rgb(0, 0, 0); fill-opacity: 1; white-space: pre;" transform="translate(0,162.75)">1%</text></g><g class="ytick"><text text-anchor="end" x="54" y="3.5" style="font-family: 'Lucida Grande', 'Open Sans', verdana, arial, sans-serif; font-size: 10px; fill: rgb(0, 0, 0); fill-opacity: 1; white-space: pre;" transform="translate(0,108.3)">1.2%</text></g><g class="ytick"><text text-anchor="end" x="54" y="3.5" style="font-family: 'Lucida Grande', 'Open Sans', verdana, arial, sans-serif; font-size: 10px; fill: rgb(0, 0, 0); fill-opacity: 1; white-space: pre;" transform="translate(0,53.85)">1.4%</text></g></g><g class="overaxes-above"/></g></g><g class="polarlayer"/><g class="smithlayer"/><g class="ternarylayer"/><g class="geolayer"/><g class="funnelarealayer"/><g class="pielayer"/><g class="iciclelayer"/><g class="treemaplayer"/><g class="sunburstlayer"/><g class="glimages"/><defs id="topdefs-9359ff"><g class="clips"/></defs><g class="layer-above"><g class="imagelayer"/><g class="shapelayer"/></g><g class="infolayer"><g class="g-gtitle"><text class="gtitle" x="550" y="25" text-anchor="middle" dy="0em" style="opacity: 1; font-family: 'Lucida Grande', 'Open Sans', verdana, arial, sans-serif; font-size: 20px; fill: rgb(68, 68, 68); fill-opacity: 1; white-space: pre;"><tspan class="line" dy="0em" x="550" y="25">Fastp: Insert Size Distribution</tspan><tspan class="line" dy="1.3em" x="550" y="25">​<tspan style="font-size:70%" dy="-0.6em">10 lines</tspan><tspan dy="0.42em">​</tspan></tspan></text></g><g class="g-xtitle"><text class="xtitle" x="572.5" y="487" text-anchor="middle" style="opacity: 0.3; font-family: 'Lucida Grande', 'Open Sans', verdana, arial, sans-serif; font-size: 14px; fill: rgb(0, 0, 0); fill-opacity: 1; white-space: pre;">Insert size</text></g><g class="g-ytitle"><text class="ytitle" transform="rotate(-90,22,242.5)" x="22" y="242.5" text-anchor="middle" style="opacity: 0.3; font-family: 'Lucida Grande', 'Open Sans', verdana, arial, sans-serif; font-size: 14px; fill: rgb(0, 0, 0); fill-opacity: 1; white-space: pre;">Read percent</text></g></g></svg>