<svg class="main-svg" xmlns="http://www.w3.org/2000/svg" xmlns:xlink="http://www.w3.org/1999/xlink" width="2200" height="1000" style="" viewBox="0 0 1100 500"><rect x="0" y="0" width="1100" height="500" style="fill: rgb(255, 255, 255); fill-opacity: 1;"/><defs id="defs-8f86dc"><g class="clips"><clipPath id="clip8f86dcxyplot" class="plotclip"><rect width="1025" height="385"/></clipPath><clipPath class="axesclip" id="clip8f86dcx"><rect x="60" y="0" width="1025" height="500"/></clipPath><clipPath class="axesclip" id="clip8f86dcy"><rect x="0" y="50" width="1100" height="385"/></clipPath><clipPath class="axesclip" id="clip8f86dcxy"><rect x="60" y="50" width="1025" height="385"/></clipPath></g><g class="gradients"/><g class="patterns"/></defs><g class="bglayer"/><g class="layer-below"><g class="imagelayer"/><g class="shapelayer"/></g><g class="cartesianlayer"><g class="subplot xy"><g class="layer-subplot"><g class="shapelayer"/><g class="imagelayer"/></g><g class="minor-gridlayer"><g class="x"/><g class="y"/></g><g class="gridlayer"><g class="x"><path class="xgrid crisp" transform="translate(190.7,0)" d="M0,50v385" style="stroke: rgb(0, 0, 0); stroke-opacity: 0.05; stroke-width: 1px;"/><path class="xgrid crisp" transform="translate(328.29,0)" d="M0,50v385" style="stroke: rgb(0, 0, 0); stroke-opacity: 0.05; stroke-width: 1px;"/><path class="xgrid crisp" transform="translate(465.87,0)" d="M0,50v385" style="stroke: rgb(0, 0, 0); stroke-opacity: 0.05; stroke-width: 1px;"/><path class="xgrid crisp" transform="translate(603.46,0)" d="M0,50v385" style="stroke: rgb(0, 0, 0); stroke-opacity: 0.05; stroke-width: 1px;"/><path class="xgrid crisp" transform="translate(741.04,0)" d="M0,50v385" style="stroke: rgb(0, 0, 0); stroke-opacity: 0.05; stroke-width: 1px;"/><path class="xgrid crisp" transform="translate(878.62,0)" d="M0,50v385" style="stroke: rgb(0, 0, 0); stroke-opacity: 0.05; stroke-width: 1px;"/><path class="xgrid crisp" transform="translate(1016.21,0)" d="M0,50v385" style="stroke: rgb(0, 0, 0); stroke-opacity: 0.05; stroke-width: 1px;"/></g><g class="y"><path class="ygrid crisp" transform="translate(0,358)" d="M60,0h1025" style="stroke: rgb(0, 0, 0); stroke-opacity: 0.05; stroke-width: 1px;"/><path class="ygrid crisp" transform="translate(0,281)" d="M60,0h1025" style="stroke: rgb(0, 0, 0); stroke-opacity: 0.05; stroke-width: 1px;"/><path class="ygrid crisp" transform="translate(0,204)" d="M60,0h1025" style="stroke: rgb(0, 0, 0); stroke-opacity: 0.05; stroke-width: 1px;"/><path class="ygrid crisp" transform="translate(0,127)" d="M60,0h1025" style="stroke: rgb(0, 0, 0); stroke-opacity: 0.05; stroke-width: 1px;"/></g></g><g class="zerolinelayer"><path class="yzl zl crisp" transform="translate(0,435)" d="M60,0h1025" style="stroke: rgb(0, 0, 0); stroke-opacity: 0.05; stroke-width: 1px;"/></g><g class="layer-between"><g class="shapelayer"/><g class="imagelayer"/></g><path class="xlines-below"/><path class="ylines-below"/><g class="overlines-below"/><g class="xaxislayer-below"/><g class="yaxislayer-below"/><g class="overaxes-below"/><g class="overplot"><g class="xy" transform="translate(60,50)" clip-path="url(#clip8f86dcxyplot)"><g class="scatterlayer mlayer"><g class="trace scatter trace5ea32b" style="stroke-miterlimit: 2; opacity: 1;"><g class="fills"/><g class="errorbars"/><g class="lines"><path class="js-line" d="M0,114.74L6.88,192.11L13.76,178.4L20.64,169.92L27.52,174.01L34.4,183.41L41.28,182.19L48.15,171.57L55.03,176.55L61.91,184.92L68.79,153.66L75.67,161.2L82.55,170.7L89.43,176.77L96.31,175.8L103.19,172.56L110.07,174.31L123.83,171.08L130.7,174.73L137.58,174.26L144.46,172.43L151.34,175.41L158.22,174.95L165.1,172.68L171.98,175.46L178.86,174.88L185.74,172.61L192.62,174.98L199.5,174.61L206.38,172.66L213.26,175.67L220.13,175.01L227.01,173.12L233.89,175.52L240.77,174.71L247.65,172.36L254.53,175.25L261.41,174.46L268.29,172.53L275.17,175.2L282.05,174.63L288.93,172.87L295.81,175.39L302.68,174.79L309.56,172.58L316.44,175.3L323.32,174.67L330.2,172.33L337.08,175.15L343.96,174.3L350.84,172.48L357.72,175.14L364.6,174.56L371.48,172.52L378.36,175.28L385.23,174.56L392.11,172.45L398.99,175.09L405.87,174.43L412.75,172.32L419.63,175.21L426.51,174.56L433.39,172.68L440.27,175.21L447.15,174.62L454.03,172.29L460.91,174.99L467.79,174.74L474.66,172.45L481.54,175.23L488.42,174.62L495.3,172.56L502.18,175.17L509.06,174.52L515.94,172.33L522.82,175.14L529.7,174.33L536.58,172.37L543.46,175.2L550.34,174.72L557.21,172.61L564.09,175.29L570.97,174.46L577.85,172.39L584.73,174.85L591.61,174.26L598.49,172.34L605.37,174.88L612.25,174.72L619.13,172.43L626.01,175.49L632.89,174.58L639.77,172.43L646.64,175.18L653.52,174.32L660.4,172.26L667.28,174.87L674.16,174.2L681.04,172.35L687.92,175.09L694.8,174.53L701.68,172.44L708.56,174.98L715.44,174.31L722.32,172.44L729.19,174.83L736.07,174.21L742.95,172.16L749.83,174.92L756.71,174.32L763.59,172.51L770.47,175.05L777.35,174.32L784.23,172.41L791.11,174.89L797.99,174.22L804.87,172.28L811.74,174.7L818.62,174.37L825.5,172.76L832.38,175.12L839.26,174.57L846.14,172.63L853.02,175.68L859.9,174.33L866.78,172.22L873.66,174.86L880.54,174.22L887.42,172.58L894.3,174.93L901.17,174.4L908.05,172.61L914.93,175.02L921.81,174.45L928.69,172.55L935.57,174.86L942.45,174.28L949.33,172.56L956.21,175.13L963.09,174.59L969.97,172.6L976.85,175.08L983.72,174.27L990.6,172.46L997.48,174.92L1004.36,174.18L1011.24,172.65L1018.12,175.01L1025,174.44" style="vector-effect: none; fill: none; stroke: rgb(124, 181, 236); stroke-opacity: 1; stroke-width: 2px; opacity: 1;"/></g><g class="points"/><g class="text"/></g><g class="trace scatter trace4ee1e7" style="stroke-miterlimit: 2; opacity: 1;"><g class="fills"/><g class="errorbars"/><g class="lines"><path class="js-line" d="M0,111.15L6.88,190.22L13.76,175.45L20.64,168.05L27.52,171.72L34.4,180.73L41.28,179.42L48.15,169.5L55.03,173.8L61.91,181.21L68.79,151.19L75.67,158.45L82.55,167.13L89.43,173.43L96.31,172.54L103.19,169.18L110.07,171.28L116.95,170L123.83,167.91L130.7,171.71L137.58,171.22L144.46,169.23L151.34,172.57L158.22,172.07L165.1,169.54L171.98,172.62L178.86,172.02L185.74,169.41L192.62,171.85L199.5,171.76L206.38,169.48L213.26,172.68L220.13,172.08L227.01,170.06L233.89,172.8L240.77,171.89L247.65,169.39L254.53,172.34L261.41,171.56L268.29,169.43L275.17,172.36L282.05,171.76L288.93,169.76L295.81,172.48L302.68,171.98L309.56,169.61L316.44,172.52L323.32,171.86L330.2,169.21L337.08,172.31L343.96,171.46L350.84,169.4L357.72,172.34L364.6,171.9L371.48,169.62L378.36,172.43L385.23,171.86L392.11,169.45L398.99,172.12L405.87,171.62L412.75,169.1L419.63,172.39L426.51,172.03L433.39,169.76L440.27,172.58L447.15,171.96L454.03,169.34L460.91,172.24L467.79,171.82L474.66,169.42L481.54,172.38L488.42,171.93L495.3,169.69L502.18,172.49L509.06,171.83L515.94,169.39L522.82,172.31L529.7,171.73L536.58,169.32L543.46,172.48L550.34,171.94L557.21,169.76L564.09,172.75L570.97,171.82L577.85,169.55L584.73,172.13L591.61,171.44L598.49,169.42L605.37,172.15L612.25,172.14L619.13,169.64L626.01,172.85L632.89,171.98L639.77,169.56L646.64,172.44L653.52,171.71L660.4,169.31L667.28,172.21L674.16,171.49L681.04,169.4L687.92,172.34L694.8,171.93L701.68,169.56L708.56,172.32L715.44,171.83L722.32,169.59L729.19,172.11L736.07,171.45L742.95,169.21L749.83,172.12L756.71,171.51L763.59,169.71L770.47,172.35L777.35,171.75L784.23,169.42L791.11,172.21L797.99,171.36L804.87,169.28L811.74,171.87L818.62,171.61L825.5,169.83L832.38,172.48L839.26,171.93L846.14,169.78L853.02,172.94L859.9,171.76L866.78,169.25L873.66,172.18L880.54,171.44L887.42,169.88L894.3,172.22L901.17,171.79L908.05,169.68L914.93,172.39L921.81,171.61L928.69,169.63L935.57,172.06L942.45,171.58L949.33,169.66L956.21,172.45L963.09,171.87L969.97,169.78L976.85,172.26L983.72,171.48L990.6,169.61L997.48,172.23L1004.36,171.53L1011.24,169.72L1018.12,172.08L1025,171.7" style="vector-effect: none; fill: none; stroke: rgb(67, 67, 72); stroke-opacity: 1; stroke-width: 2px; opacity: 1;"/></g><g class="points"/><g class="text"/></g><g class="trace scatter tracedffd72" style="stroke-miterlimit: 2; opacity: 1;"><g class="fills"/><g class="errorbars"/><g class="lines"><path class="js-line" d="M0,119.48L6.88,206.39L13.76,190.91L20.64,182.7L27.52,185.03L34.4,195.65L41.28,194.83L48.15,183.38L55.03,187.58L61.91,197.49L68.79,164.36L75.67,172.91L82.55,182.94L89.43,188.37L96.31,187.4L103.19,184.54L110.07,185.76L116.95,184.79L123.83,183.01L130.7,186L137.58,185.72L144.46,184.38L151.34,187L158.22,186.97L165.1,184.75L171.98,187.05L178.86,186.71L185.74,184.48L192.62,186.25L199.5,186.27L206.38,184.49L213.26,187.16L220.13,186.75L227.01,185.21L233.89,187.31L240.77,186.71L247.65,184.67L254.53,186.98L261.41,186.41L268.29,184.55L275.17,186.77L282.05,186.59L288.93,184.93L295.81,187.01L302.68,186.82L309.56,185.02L316.44,187.17L323.32,186.73L330.2,184.45L337.08,186.97L343.96,186.24L350.84,184.77L357.72,186.91L364.6,186.86L371.48,184.87L378.36,187.09L385.23,186.65L392.11,184.91L398.99,186.71L405.87,186.6L412.75,184.51L419.63,187.05L426.51,186.87L433.39,185.11L440.27,187.1L447.15,186.81L454.03,184.71L460.91,186.97L467.79,186.82L474.66,184.69L481.54,186.98L488.42,186.79L495.3,184.96L502.18,187.01L509.06,186.67L515.94,184.74L522.82,186.89L529.7,186.53L536.58,184.6L543.46,187.1L550.34,186.73L557.21,184.92L564.09,187.27L570.97,186.48L577.85,184.77L584.73,186.62L591.61,186.29L598.49,184.74L605.37,186.65L612.25,186.9L619.13,184.83L626.01,187.31L632.89,186.7L639.77,184.64L646.64,186.95L653.52,186.38L660.4,184.45L667.28,186.55L674.16,186.21L681.04,184.4L687.92,186.68L694.8,186.63L701.68,184.64L708.56,186.61L715.44,186.26L722.32,184.72L729.19,186.46L736.07,186.01L742.95,184.26L749.83,186.48L756.71,186.23L763.59,184.69L770.47,186.58L777.35,186.22L784.23,184.43L791.11,186.4L797.99,185.73L804.87,184.13L811.74,186.04L818.62,185.96L825.5,184.63L832.38,186.55L839.26,186.37L846.14,184.51L853.02,186.99L859.9,185.9L866.78,183.91L873.66,186.03L880.54,185.58L887.42,184.38L894.3,185.99L901.17,185.73L908.05,184.19L914.93,186.03L921.81,185.56L928.69,184L935.57,185.62L942.45,185.34L949.33,183.76L956.21,185.76L963.09,185.36L969.97,183.83L976.85,185.39L983.72,184.92L990.6,183.36L997.48,185.14L1004.36,184.55L1011.24,183.35L1018.12,184.69L1025,184.5" style="vector-effect: none; fill: none; stroke: rgb(144, 237, 125); stroke-opacity: 1; stroke-width: 2px; opacity: 1;"/></g><g class="points"/><g class="text"/></g><g class="trace scatter trace4a9e0f" style="stroke-miterlimit: 2; opacity: 1;"><g class="fills"/><g class="errorbars"/><g class="lines"><path class="js-line" d="M0,112.67L6.88,189.91L13.76,175.85L20.64,168.63L27.52,172.77L34.4,180.88L41.28,179.3L48.15,169.3L55.03,173.35L61.91,182.34L68.79,152.21L75.67,159.44L82.55,168.2L89.43,174.29L96.31,173.16L103.19,170.23L110.07,172.19L123.83,168.73L130.7,172.43L144.46,170.3L151.34,173.43L158.22,172.93L165.1,170.75L171.98,173.48L178.86,172.66L185.74,170.42L192.62,172.58L199.5,172.46L206.38,170.47L213.26,173.55L220.13,172.97L227.01,171.27L233.89,173.93L240.77,172.7L247.65,170.57L254.53,173.27L261.41,172.08L268.29,170.51L275.17,173.22L282.05,172.52L288.93,170.92L295.81,173.36L302.68,172.83L309.56,170.69L316.44,173.38L323.32,172.55L330.2,170.21L337.08,173.24L343.96,172.02L350.84,170.68L357.72,173.33L364.6,172.63L371.48,170.77L378.36,173.32L385.23,172.5L392.11,170.53L398.99,172.64L405.87,172.19L412.75,170.19L419.63,173.43L426.51,172.97L433.39,171.15L440.27,173.63L447.15,172.77L454.03,170.39L460.91,173.02L467.79,172.46L474.66,170.48L481.54,173.15L488.42,172.7L495.3,170.96L502.18,173.49L509.06,172.68L515.94,170.46L522.82,173.03L529.7,172.29L536.58,170.43L543.46,173.48L550.34,172.79L557.21,170.97L564.09,173.77L577.85,170.8L584.73,173.05L598.49,170.64L605.37,172.92L612.25,172.72L619.13,170.8L626.01,173.79L632.89,172.81L639.77,170.79L646.64,173.37L653.52,172.33L660.4,170.39L667.28,172.99L674.16,172.16L681.04,170.56L687.92,173.23L694.8,172.72L701.68,170.86L708.56,173.25L715.44,172.42L722.32,170.87L729.19,172.89L736.07,172.19L742.95,170.22L749.83,173.01L756.71,172.23L763.59,171L770.47,173.32L777.35,172.43L784.23,170.58L791.11,173.03L797.99,171.85L804.87,170.39L811.74,172.61L818.62,172.41L825.5,171.05L832.38,173.59L839.26,172.99L846.14,171.13L853.02,174L866.78,170.36L873.66,173.03L887.42,171.14L894.3,173.31L901.17,172.74L908.05,171.22L914.93,173.51L921.81,172.46L928.69,170.87L935.57,173.08L942.45,172.59L949.33,170.95L956.21,173.75L963.09,172.91L969.97,171.31L976.85,173.51L990.6,170.94L997.48,173.18L1011.24,171.12L1018.12,173.26L1025,172.86" style="vector-effect: none; fill: none; stroke: rgb(247, 163, 92); stroke-opacity: 1; stroke-width: 2px; opacity: 1;"/></g><g class="points"/><g class="text"/></g><g class="trace scatter trace11f3e6" style="stroke-miterlimit: 2; opacity: 1;"><g class="fills"/><g class="errorbars"/><g class="lines"><path class="js-line" d="M0,113.42L6.88,194.02L13.76,178.34L20.64,169.88L27.52,173.53L34.4,182.64L41.28,181.33L48.15,170.9L55.03,175.57L61.91,184.15L68.79,153.16L75.67,160.12L82.55,169.71L89.43,175.56L96.31,174.37L103.19,171.32L110.07,173.15L123.83,170.14L130.7,173.63L137.58,173.17L144.46,171.39L151.34,174.65L158.22,174.07L165.1,171.69L171.98,174.53L178.86,173.74L185.74,171.53L192.62,174.03L199.5,173.52L206.38,171.67L213.26,174.84L220.13,173.93L227.01,172.15L233.89,174.66L240.77,173.77L247.65,171.6L254.53,174.4L261.41,173.44L268.29,171.54L275.17,174.38L282.05,173.63L288.93,171.92L295.81,174.52L302.68,173.82L309.56,171.76L316.44,174.51L323.32,173.77L330.2,171.57L337.08,174.41L343.96,173.47L350.84,171.67L357.72,174.38L364.6,173.66L371.48,171.54L378.36,174.46L385.23,173.77L392.11,171.55L398.99,174.44L405.87,173.66L412.75,171.55L419.63,174.48L426.51,173.69L433.39,171.77L440.27,174.49L447.15,173.66L454.03,171.73L460.91,174.38L467.79,173.99L474.66,171.75L481.54,174.47L488.42,173.79L495.3,171.76L502.18,174.43L509.06,173.57L515.94,171.62L522.82,174.48L529.7,173.68L536.58,171.67L543.46,174.66L550.34,173.79L557.21,171.9L564.09,174.66L570.97,173.74L577.85,171.68L584.73,174.23L591.61,173.49L598.49,171.71L605.37,174.28L612.25,174.05L619.13,171.82L626.01,174.83L632.89,173.89L639.77,171.79L646.64,174.52L653.52,173.56L660.4,171.61L667.28,174.37L674.16,173.57L681.04,171.85L687.92,174.53L694.8,173.92L701.68,171.88L708.56,174.54L715.44,173.73L722.32,172.01L729.19,174.45L736.07,173.58L742.95,171.57L749.83,174.38L756.71,173.62L763.59,171.96L770.47,174.43L777.35,173.69L784.23,171.85L791.11,174.54L797.99,173.7L804.87,171.7L811.74,174.27L818.62,173.62L825.5,172.22L832.38,174.57L839.26,173.91L846.14,172.05L853.02,175.27L859.9,173.67L866.78,171.72L873.66,174.52L887.42,172.08L894.3,174.45L901.17,173.69L908.05,172.15L914.93,174.57L921.81,173.77L928.69,172.09L935.57,174.51L942.45,173.77L949.33,172.01L956.21,174.6L963.09,173.86L969.97,172.1L976.85,174.53L983.72,173.77L990.6,172.09L997.48,174.55L1004.36,173.77L1011.24,172.15L1018.12,174.52L1025,173.78" style="vector-effect: none; fill: none; stroke: rgb(128, 133, 233); stroke-opacity: 1; stroke-width: 2px; opacity: 1;"/></g><g class="points"/><g class="text"/></g><g class="trace scatter tracec0fa2e" style="stroke-miterlimit: 2; opacity: 1;"><g class="fills"/><g class="errorbars"/><g class="lines"><path class="js-line" d="M0,117.82L6.88,201.09L13.76,185.79L20.64,177.33L27.52,180.38L34.4,190.55L41.28,189.53L48.15,178.28L55.03,182.77L61.91,191.4L68.79,160.08L75.67,167.16L82.55,176.89L89.43,182.62L96.31,181.64L103.19,178.75L110.07,180.31L123.83,177.69L130.7,180.89L137.58,180.59L144.46,178.72L151.34,181.64L158.22,181.22L165.1,178.9L171.98,181.64L178.86,180.98L185.74,178.96L192.62,181.26L199.5,180.77L206.38,178.98L213.26,181.91L220.13,181.27L227.01,179.36L233.89,181.75L240.77,180.96L247.65,178.85L254.53,181.58L261.41,180.85L268.29,178.84L275.17,181.47L282.05,180.87L288.93,179.29L295.81,181.66L302.68,181.06L309.56,179.11L316.44,181.7L323.32,181L330.2,178.83L337.08,181.53L343.96,180.7L350.84,178.8L357.72,181.29L364.6,180.97L371.48,178.97L378.36,181.61L385.23,181L392.11,178.95L398.99,181.52L405.87,180.91L412.75,178.95L419.63,181.57L426.51,180.86L433.39,179.02L440.27,181.49L447.15,180.88L454.03,178.96L460.91,181.43L467.79,181.3L474.66,179.03L481.54,181.64L488.42,180.96L495.3,178.99L502.18,181.45L509.06,180.81L515.94,178.82L522.82,181.56L529.7,180.9L536.58,179.07L543.46,181.51L550.34,180.95L557.21,179.02L564.09,181.69L570.97,180.9L577.85,178.96L584.73,181.19L591.61,180.7L598.49,178.91L605.37,181.35L612.25,181.33L619.13,178.91L626.01,181.78L632.89,180.94L639.77,178.87L646.64,181.45L653.52,180.88L660.4,178.86L667.28,181.34L674.16,180.66L681.04,178.89L687.92,181.43L694.8,180.9L701.68,179L708.56,181.39L715.44,180.89L722.32,179.03L729.19,181.26L736.07,180.61L742.95,178.72L749.83,181.32L756.71,180.65L763.59,179.09L770.47,181.43L777.35,180.68L784.23,179L791.11,181.3L797.99,180.61L804.87,178.84L811.74,181.12L818.62,180.67L825.5,179.16L832.38,181.3L839.26,180.82L846.14,179.04L853.02,181.99L859.9,180.77L866.78,178.7L873.66,181.25L880.54,180.52L887.42,178.93L894.3,181.22L901.17,180.69L908.05,179.01L914.93,181.3L921.81,180.69L928.69,178.99L935.57,181.2L942.45,180.65L949.33,178.84L956.21,181.22L963.09,180.62L969.97,178.96L976.85,181.12L983.72,180.43L990.6,178.86L997.48,181.15L1011.24,178.88L1018.12,180.97L1025,180.45" style="vector-effect: none; fill: none; stroke: rgb(241, 92, 128); stroke-opacity: 1; stroke-width: 2px; opacity: 1;"/></g><g class="points"/><g class="text"/></g><g class="trace scatter trace231513" style="stroke-miterlimit: 2; opacity: 1;"><g class="fills"/><g class="errorbars"/><g class="lines"><path class="js-line" d="M0,93.95L6.88,173L13.76,156.89L20.64,149.77L27.52,153.97L34.4,162.54L41.28,161.07L48.15,152.83L55.03,156.94L61.91,162.88L68.79,135.67L89.43,155.48L96.31,154.73L103.19,151L110.07,153.26L116.95,152.15L123.83,149.87L130.7,153.68L137.58,153.4L144.46,151.13L151.34,154.67L158.22,154.2L165.1,151.4L171.98,154.58L178.86,153.87L185.74,151.14L192.62,153.81L199.5,153.59L206.38,151.07L213.26,154.44L220.13,154.09L227.01,151.72L233.89,154.73L240.77,153.66L247.65,150.96L254.53,154.13L261.41,153.41L268.29,150.94L275.17,154.19L282.05,153.48L288.93,151.34L295.81,154.08L302.68,153.72L309.56,151.2L316.44,154.3L323.32,153.68L330.2,150.77L337.08,153.89L343.96,153.08L350.84,150.77L357.72,153.86L364.6,153.53L371.48,151.11L378.36,154.18L385.23,153.5L392.11,150.98L398.99,153.93L405.87,153.42L412.75,150.67L419.63,154.01L426.51,153.41L433.39,151.08L440.27,153.96L447.15,153.31L454.03,150.8L460.91,153.84L467.79,153.72L474.66,150.8L481.54,154.06L488.42,153.54L495.3,150.91L502.18,153.84L509.06,153.37L515.94,150.75L522.82,153.95L529.7,153.38L536.58,150.93L543.46,154.16L550.34,153.66L557.21,151.12L564.09,154.17L570.97,153.47L577.85,150.79L584.73,153.57L591.61,153.07L598.49,150.66L605.37,153.73L612.25,153.64L619.13,150.9L626.01,154.24L632.89,153.49L639.77,150.81L646.64,153.75L653.52,153.2L660.4,150.59L667.28,153.64L674.16,152.95L681.04,150.64L687.92,153.76L694.8,153.28L701.68,150.82L708.56,153.72L715.44,153.19L722.32,150.84L729.19,153.51L736.07,153.01L742.95,150.62L749.83,153.64L756.71,153.03L763.59,150.83L770.47,153.72L777.35,153.26L784.23,150.88L791.11,153.61L797.99,153.02L804.87,150.6L811.74,153.55L818.62,153.03L825.5,151.16L832.38,153.79L839.26,153.31L846.14,150.98L853.02,154.54L859.9,153.26L866.78,150.66L873.66,153.62L880.54,153.06L887.42,150.88L894.3,153.67L901.17,153.18L908.05,150.87L914.93,153.74L921.81,153.14L928.69,150.92L935.57,153.51L942.45,153.15L949.33,150.76L956.21,153.81L963.09,153.12L969.97,150.88L976.85,153.51L983.72,152.86L990.6,150.85L997.48,153.54L1004.36,152.89L1011.24,150.68L1018.12,153.27L1025,152.9" style="vector-effect: none; fill: none; stroke: rgb(228, 211, 84); stroke-opacity: 1; stroke-width: 2px; opacity: 1;"/></g><g class="points"/><g class="text"/></g><g class="trace scatter tracee39212" style="stroke-miterlimit: 2; opacity: 1;"><g class="fills"/><g class="errorbars"/><g class="lines"><path class="js-line" d="M0,102.48L6.88,180.43L13.76,164L20.64,157.31L27.52,161.42L34.4,169.09L41.28,166.79L48.15,158.79L55.03,163.02L61.91,169.23L68.79,142.21L82.55,155.28L89.43,161.67L96.31,160.64L103.19,157.21L110.07,160.11L116.95,158.85L123.83,156.36L130.7,160.44L137.58,159.88L144.46,157.33L151.34,161.27L158.22,160.58L165.1,157.64L171.98,161.25L178.86,160.44L185.74,157.69L192.62,160.75L199.5,160.25L206.38,157.65L213.26,161.38L220.13,160.42L227.01,157.97L233.89,161.29L240.77,160.28L247.65,157.43L254.53,161L261.41,160.18L268.29,157.37L275.17,160.94L282.05,160.11L288.93,157.83L295.81,161.05L302.68,160.3L309.56,157.55L316.44,161.03L323.32,160.23L330.2,157.27L337.08,160.93L343.96,159.81L350.84,157.36L357.72,160.86L364.6,160.07L371.48,157.52L378.36,160.95L385.23,160.15L392.11,157.5L398.99,160.8L405.87,159.99L412.75,157.32L419.63,160.85L426.51,160.22L433.39,157.57L440.27,160.88L447.15,160.08L454.03,157.18L460.91,160.7L467.79,160.3L474.66,157.41L481.54,160.93L488.42,160.18L495.3,157.43L502.18,160.72L509.06,159.92L515.94,157.22L522.82,160.83L529.7,159.95L536.58,157.47L543.46,160.88L550.34,160.24L557.21,157.64L564.09,160.97L570.97,160L577.85,157.44L584.73,160.53L591.61,159.81L598.49,157.33L605.37,160.54L612.25,160.4L619.13,157.48L626.01,161.25L632.89,160.2L639.77,157.37L646.64,160.8L653.52,159.86L660.4,157.22L667.28,160.51L674.16,159.7L681.04,157.34L687.92,160.77L694.8,160.06L701.68,157.41L708.56,160.72L715.44,159.85L722.32,157.43L729.19,160.54L736.07,159.76L742.95,157.16L749.83,160.56L756.71,159.7L763.59,157.53L770.47,160.73L777.35,159.98L784.23,157.34L791.11,160.54L797.99,159.64L804.87,157.27L811.74,160.35L818.62,159.75L825.5,157.76L832.38,160.76L839.26,160.06L846.14,157.48L853.02,161.4L859.9,159.84L866.78,157.29L873.66,160.65L880.54,159.74L887.42,157.63L894.3,160.67L901.17,159.95L908.05,157.65L914.93,160.74L921.81,159.93L928.69,157.55L935.57,160.62L942.45,159.93L949.33,157.56L956.21,160.79L963.09,160.01L969.97,157.58L976.85,160.66L983.72,159.76L990.6,157.65L997.48,160.62L1004.36,159.69L1011.24,157.61L1018.12,160.55L1025,159.9" style="vector-effect: none; fill: none; stroke: rgb(43, 144, 143); stroke-opacity: 1; stroke-width: 2px; opacity: 1;"/></g><g class="points"/><g class="text"/></g><g class="trace scatter trace3ca85f" style="stroke-miterlimit: 2; opacity: 1;"><g class="fills"/><g class="errorbars"/><g class="lines"><path class="js-line" d="M0,116.02L6.88,199.32L13.76,184.02L20.64,175.35L27.52,178.78L34.4,188.72L41.28,187.63L48.15,176.41L55.03,181.02L61.91,189.96L68.79,158.52L75.67,165.42L82.55,175.46L89.43,181.04L96.31,179.97L103.19,177.18L110.07,178.64L123.83,176.03L130.7,179.32L137.58,179.07L144.46,177.31L151.34,180.19L158.22,179.72L165.1,177.47L171.98,180.05L178.86,179.37L185.74,177.36L192.62,179.63L199.5,179.21L206.38,177.53L213.26,180.36L220.13,179.67L227.01,178.05L233.89,180.15L240.77,179.46L247.65,177.44L254.53,180.05L261.41,179.23L268.29,177.47L275.17,179.99L282.05,179.39L288.93,177.83L295.81,180.19L302.68,179.5L309.56,177.69L316.44,180.19L323.32,179.51L330.2,177.4L337.08,179.98L343.96,179.21L350.84,177.49L357.72,179.95L364.6,179.46L371.48,177.58L378.36,180.16L385.23,179.48L392.11,177.66L398.99,180.14L405.87,179.49L412.75,177.48L419.63,179.99L426.51,179.46L433.39,177.67L440.27,180.13L447.15,179.45L454.03,177.56L460.91,180.18L467.79,179.81L474.66,177.65L481.54,180.23L488.42,179.59L495.3,177.65L502.18,180.11L509.06,179.39L515.94,177.5L522.82,180.14L529.7,179.39L536.58,177.69L543.46,180.22L550.34,179.71L557.21,177.82L564.09,180.23L570.97,179.57L577.85,177.75L584.73,179.91L591.61,179.39L598.49,177.61L605.37,180.03L612.25,179.98L619.13,177.85L626.01,180.46L632.89,179.65L639.77,177.64L646.64,180.25L653.52,179.59L660.4,177.49L667.28,179.92L674.16,179.37L681.04,177.7L687.92,180.21L694.8,179.66L701.68,177.8L708.56,180.17L715.44,179.48L722.32,177.71L729.19,180L736.07,179.45L742.95,177.58L749.83,179.98L756.71,179.35L763.59,177.85L770.47,180.1L777.35,179.49L784.23,177.73L791.11,180.02L797.99,179.48L804.87,177.59L811.74,179.84L818.62,179.4L825.5,177.91L832.38,180.1L839.26,179.59L846.14,177.84L853.02,180.71L859.9,179.52L866.78,177.59L873.66,180.01L880.54,179.36L887.42,177.84L894.3,179.94L901.17,179.46L908.05,177.8L914.93,180.1L921.81,179.46L928.69,177.86L935.57,180.03L942.45,179.49L949.33,177.76L956.21,180.06L963.09,179.48L969.97,177.7L976.85,179.97L983.72,179.32L990.6,177.62L997.48,180L1004.36,179.25L1011.24,177.72L1018.12,179.79L1025,179.28" style="vector-effect: none; fill: none; stroke: rgb(244, 91, 91); stroke-opacity: 1; stroke-width: 2px; opacity: 1;"/></g><g class="points"/><g class="text"/></g><g class="trace scatter traceec228c" style="stroke-miterlimit: 2; opacity: 1;"><g class="fills"/><g class="errorbars"/><g class="lines"><path class="js-line" d="M0,106.85L6.88,183.87L13.76,168.76L20.64,160.2L27.52,164.67L34.4,172.44L41.28,170.38L48.15,161.6L55.03,166.38L61.91,174.59L68.79,146.02L75.67,152.08L82.55,160.34L89.43,166.45L96.31,164.96L103.19,161.55L110.07,164.12L123.83,160.47L130.7,164.78L137.58,164.07L144.46,161.82L151.34,165.55L158.22,164.86L165.1,162.19L171.98,165.53L178.86,164.63L185.74,161.98L192.62,165.14L199.5,164.44L206.38,162.15L213.26,165.8L220.13,164.89L227.01,162.67L233.89,165.86L240.77,164.55L247.65,162.05L254.53,165.48L261.41,164.31L268.29,162.08L275.17,165.46L282.05,164.46L288.93,162.45L295.81,165.62L302.68,164.73L309.56,162.24L316.44,165.63L323.32,164.53L330.2,162L337.08,165.36L343.96,164.31L350.84,162.01L357.72,165.41L364.6,164.46L371.48,162.12L378.36,165.49L385.23,164.52L392.11,162.09L398.99,165.34L405.87,164.42L412.75,161.92L419.63,165.35L426.51,164.47L433.39,162.28L440.27,165.46L447.15,164.51L454.03,161.92L460.91,165.31L467.79,164.78L474.66,162.07L481.54,165.44L488.42,164.64L495.3,162.2L502.18,165.39L509.06,164.51L515.94,162.01L522.82,165.33L529.7,164.36L536.58,162.08L543.46,165.55L550.34,164.68L557.21,162.31L564.09,165.57L570.97,164.41L577.85,162.23L584.73,165.23L591.61,164.29L598.49,162.02L605.37,165.33L612.25,164.8L619.13,162.3L626.01,165.8L632.89,164.71L639.77,162.18L646.64,165.57L653.52,164.31L660.4,161.94L667.28,165.2L674.16,164.19L681.04,162.09L687.92,165.38L694.8,164.61L701.68,162.28L708.56,165.36L715.44,164.38L722.32,162.31L729.19,165.22L736.07,164.24L742.95,162L749.83,165.24L756.71,164.27L763.59,162.38L770.47,165.38L777.35,164.52L784.23,162.23L791.11,165.33L797.99,164.19L804.87,162.06L811.74,165.09L818.62,164.41L825.5,162.68L832.38,165.53L839.26,164.72L846.14,162.51L853.02,166.24L859.9,164.55L866.78,162.14L873.66,165.36L880.54,164.39L887.42,162.47L894.3,165.35L901.17,164.56L908.05,162.62L914.93,165.51L921.81,164.54L928.69,162.51L935.57,165.39L942.45,164.5L949.33,162.41L956.21,165.57L963.09,164.65L969.97,162.58L976.85,165.43L983.72,164.54L990.6,162.61L997.48,165.44L1004.36,164.42L1011.24,162.55L1018.12,165.4L1025,164.57" style="vector-effect: none; fill: none; stroke: rgb(145, 232, 225); stroke-opacity: 1; stroke-width: 2px; opacity: 1;"/></g><g class="points"/><g class="text"/></g></g></g></g><g class="zerolinelayer-above"/><path class="xlines-above crisp" d="M0,0" style="fill: none;"/><path class="ylines-above crisp" d="M0,0" style="fill: none;"/><g class="overlines-above"/><g class="xaxislayer-above"><g class="xtick"><text text-anchor="middle" x="0" y="451" transform="translate(190.7,0)" style="font-family: 'Lucida Grande', 'Open Sans', verdana, arial, sans-serif; font-size: 10px; fill: rgb(0, 0, 0); fill-opacity: 1; white-space: pre;">20</text></g><g class="xtick"><text text-anchor="middle" x="0" y="451" style="font-family: 'Lucida Grande', 'Open Sans', verdana, arial, sans-serif; font-size: 10px; fill: rgb(0, 0, 0); fill-opacity: 1; white-space: pre;" transform="translate(328.29,0)">40</text></g><g class="xtick"><text text-anchor="middle" x="0" y="451" style="font-family: 'Lucida Grande', 'Open Sans', verdana, arial, sans-serif; font-size: 10px; fill: rgb(0, 0, 0); fill-opacity: 1; white-space: pre;" transform="translate(465.87,0)">60</text></g><g class="xtick"><text text-anchor="middle" x="0" y="451" style="font-family: 'Lucida Grande', 'Open Sans', verdana, arial, sans-serif; font-size: 10px; fill: rgb(0, 0, 0); fill-opacity: 1; white-space: pre;" transform="translate(603.46,0)">80</text></g><g class="xtick"><text text-anchor="middle" x="0" y="451" style="font-family: 'Lucida Grande', 'Open Sans', verdana, arial, sans-serif; font-size: 10px; fill: rgb(0, 0, 0); fill-opacity: 1; white-space: pre;" transform="translate(741.04,0)">100</text></g><g class="xtick"><text text-anchor="middle" x="0" y="451" style="font-family: 'Lucida Grande', 'Open Sans', verdana, arial, sans-serif; font-size: 10px; fill: rgb(0, 0, 0); fill-opacity: 1; white-space: pre;" transform="translate(878.62,0)">120</text></g><g class="xtick"><text text-anchor="middle" x="0" y="451" style="font-family: 'Lucida Grande', 'Open Sans', verdana, arial, sans-serif; font-size: 10px; fill: rgb(0, 0, 0); fill-opacity: 1; white-space: pre;" transform="translate(1016.21,0)">140</text></g></g><g class="yaxislayer-above"><g class="ytick"><text text-anchor="end" x="54" y="3.5" transform="translate(0,435)" style="font-family: 'Lucida Grande', 'Open Sans', verdana, arial, sans-serif; font-size: 10px; fill: rgb(0, 0, 0); fill-opacity: 1; white-space: pre;">0%</text></g><g class="ytick"><text text-anchor="end" x="54" y="3.5" style="font-family: 'Lucida Grande', 'Open Sans', verdana, arial, sans-serif; font-size: 10px; fill: rgb(0, 0, 0); fill-opacity: 1; white-space: pre;" transform="translate(0,358)">20%</text></g><g class="ytick"><text text-anchor="end" x="54" y="3.5" style="font-family: 'Lucida Grande', 'Open Sans', verdana, arial, sans-serif; font-size: 10px; fill: rgb(0, 0, 0); fill-opacity: 1; white-space: pre;" transform="translate(0,281)">40%</text></g><g class="ytick"><text text-anchor="end" x="54" y="3.5" style="font-family: 'Lucida Grande', 'Open Sans', verdana, arial, sans-serif; font-size: 10px; fill: rgb(0, 0, 0); fill-opacity: 1; white-space: pre;" transform="translate(0,204)">60%</text></g><g class="ytick"><text text-anchor="end" x="54" y="3.5" style="font-family: 'Lucida Grande', 'Open Sans', verdana, arial, sans-serif; font-size: 10px; fill: rgb(0, 0, 0); fill-opacity: 1; white-space: pre;" transform="translate(0,127)">80%</text></g><g class="ytick"><text text-anchor="end" x="54" y="3.5" style="font-family: 'Lucida Grande', 'Open Sans', verdana, arial, sans-serif; font-size: 10px; fill: rgb(0, 0, 0); fill-opacity: 1; white-space: pre;" transform="translate(0,50)">100%</text></g></g><g class="overaxes-above"/></g></g><g class="polarlayer"/><g class="smithlayer"/><g class="ternarylayer"/><g class="geolayer"/><g class="funnelarealayer"/><g class="pielayer"/><g class="iciclelayer"/><g class="treemaplayer"/><g class="sunburstlayer"/><g class="glimages"/><defs id="topdefs-8f86dc"><g class="clips"/></defs><g class="layer-above"><g class="imagelayer"/><g class="shapelayer"/></g><g class="infolayer"><g class="g-gtitle"><text class="gtitle" x="550" y="25" text-anchor="middle" dy="0em" style="opacity: 1; font-family: 'Lucida Grande', 'Open Sans', verdana, arial, sans-serif; font-size: 20px; fill: rgb(68, 68, 68); fill-opacity: 1; white-space: pre;"><tspan class="line" dy="0em" x="550" y="25">Fastp: Read GC Content</tspan><tspan class="line" dy="1.3em" x="550" y="25">​<tspan style="font-size:70%" dy="-0.6em">Read 2: Before filtering, 10 lines</tspan><tspan dy="0.42em">​</tspan></tspan></text></g><g class="g-xtitle"><text class="xtitle" x="572.5" y="487" text-anchor="middle" style="opacity: 0.3; font-family: 'Lucida Grande', 'Open Sans', verdana, arial, sans-serif; font-size: 14px; fill: rgb(0, 0, 0); fill-opacity: 1; white-space: pre;">Read Position</text></g><g class="g-ytitle"><text class="ytitle" transform="rotate(-90,22,242.5)" x="22" y="242.5" text-anchor="middle" style="opacity: 0.3; font-family: 'Lucida Grande', 'Open Sans', verdana, arial, sans-serif; font-size: 14px; fill: rgb(0, 0, 0); fill-opacity: 1; white-space: pre;">R2 Before filtering: Base Content Percent</text></g></g></svg>