<svg class="main-svg" xmlns="http://www.w3.org/2000/svg" xmlns:xlink="http://www.w3.org/1999/xlink" width="2200" height="1000" style="" viewBox="0 0 1100 500"><rect x="0" y="0" width="1100" height="500" style="fill: rgb(255, 255, 255); fill-opacity: 1;"/><defs id="defs-e67d90"><g class="clips"><clipPath id="clipe67d90xyplot" class="plotclip"><rect width="1014" height="385"/></clipPath><clipPath class="axesclip" id="clipe67d90x"><rect x="60" y="0" width="1014" height="500"/></clipPath><clipPath class="axesclip" id="clipe67d90y"><rect x="0" y="50" width="1100" height="385"/></clipPath><clipPath class="axesclip" id="clipe67d90xy"><rect x="60" y="50" width="1014" height="385"/></clipPath></g><g class="gradients"/><g class="patterns"/></defs><g class="bglayer"/><g class="layer-below"><g class="imagelayer"/><g class="shapelayer"/></g><g class="cartesianlayer"><g class="subplot xy"><g class="layer-subplot"><g class="shapelayer"/><g class="imagelayer"/></g><g class="minor-gridlayer"><g class="x"/><g class="y"/></g><g class="gridlayer"><g class="x"><path class="xgrid crisp" transform="translate(262.8,0)" d="M0,50v385" style="stroke: rgb(0, 0, 0); stroke-opacity: 0.05; stroke-width: 1px;"/><path class="xgrid crisp" transform="translate(465.6,0)" d="M0,50v385" style="stroke: rgb(0, 0, 0); stroke-opacity: 0.05; stroke-width: 1px;"/><path class="xgrid crisp" transform="translate(668.4,0)" d="M0,50v385" style="stroke: rgb(0, 0, 0); stroke-opacity: 0.05; stroke-width: 1px;"/><path class="xgrid crisp" transform="translate(871.2,0)" d="M0,50v385" style="stroke: rgb(0, 0, 0); stroke-opacity: 0.05; stroke-width: 1px;"/></g><g class="y"><path class="ygrid crisp" transform="translate(0,375.71)" d="M60,0h1014" style="stroke: rgb(0, 0, 0); stroke-opacity: 0.05; stroke-width: 1px;"/><path class="ygrid crisp" transform="translate(0,316.41)" d="M60,0h1014" style="stroke: rgb(0, 0, 0); stroke-opacity: 0.05; stroke-width: 1px;"/><path class="ygrid crisp" transform="translate(0,257.12)" d="M60,0h1014" style="stroke: rgb(0, 0, 0); stroke-opacity: 0.05; stroke-width: 1px;"/><path class="ygrid crisp" transform="translate(0,197.82)" d="M60,0h1014" style="stroke: rgb(0, 0, 0); stroke-opacity: 0.05; stroke-width: 1px;"/><path class="ygrid crisp" transform="translate(0,138.53)" d="M60,0h1014" style="stroke: rgb(0, 0, 0); stroke-opacity: 0.05; stroke-width: 1px;"/><path class="ygrid crisp" transform="translate(0,79.23)" d="M60,0h1014" style="stroke: rgb(0, 0, 0); stroke-opacity: 0.05; stroke-width: 1px;"/></g></g><g class="zerolinelayer"><path class="xzl zl crisp" transform="translate(60,0)" d="M0,50v385" style="stroke: rgb(0, 0, 0); stroke-opacity: 0.05; stroke-width: 1px;"/><path class="yzl zl crisp" transform="translate(0,435)" d="M60,0h1014" style="stroke: rgb(0, 0, 0); stroke-opacity: 0.05; stroke-width: 1px;"/></g><g class="layer-between"><g class="shapelayer"/><g class="imagelayer"/></g><path class="xlines-below"/><path class="ylines-below"/><g class="overlines-below"/><g class="xaxislayer-below"/><g class="yaxislayer-below"/><g class="overaxes-below"/><g class="overplot"><g class="xy" transform="translate(60,50)" clip-path="url(#clipe67d90xyplot)"><g class="scatterlayer mlayer"><g class="trace scatter tracecbac00" style="stroke-miterlimit: 2; opacity: 1;"><g class="fills"/><g class="errorbars"/><g class="lines"><path class="js-line" d="M0,385L202.8,384.3L212.94,384.02L253.5,381.83L263.64,380.94L294.06,376.98L304.2,375.15L314.34,372.74L324.48,369.37L344.76,360.21L354.9,354.6L375.18,343.84L385.32,340.46L395.46,337.66L405.6,333.18L415.74,326.09L425.88,316.42L436.02,304.67L446.16,290.88L456.3,274.96L466.44,257.27L486.72,218.05L496.86,197.77L517.14,157.15L527.28,139.95L537.42,125.47L547.56,114.31L557.7,106.93L567.84,102.78L577.98,102.07L588.12,104.63L598.26,111.11L608.4,123.64L618.54,142.17L628.68,163.67L669.24,252.03L679.38,272.77L689.52,292.09L699.66,309.25L709.8,324.61L719.94,337.52L730.08,348.26L740.22,357.06L750.36,364.19L760.5,369.94L770.64,374.36L780.78,377.71L801.06,381.75L811.2,382.85L841.62,384.49L851.76,384.67L932.88,384.99L943.02,384.99L1014,384.97" style="vector-effect: none; fill: none; stroke: rgb(92, 184, 92); stroke-opacity: 1; stroke-width: 2px; opacity: 1;"/></g><g class="points"/><g class="text"/></g><g class="trace scatter trace1eb235" style="stroke-miterlimit: 2; opacity: 1;"><g class="fills"/><g class="errorbars"/><g class="lines"><path class="js-line" d="M0,385L192.66,384.45L202.8,384.23L233.22,383.08L243.36,382.24L273.78,379.65L283.92,378.29L304.2,374.75L314.34,372.23L324.48,368.92L334.62,364.62L354.9,353.75L365.04,347.99L375.18,343.13L385.32,339.71L395.46,336.66L405.6,331.84L415.74,324.57L425.88,315.04L436.02,303.24L446.16,289.48L456.3,273.62L466.44,256.17L486.72,217.49L496.86,196.86L517.14,157.01L527.28,139.61L537.42,125.23L547.56,114.39L557.7,106.77L567.84,103.42L577.98,104.73L588.12,110.02L598.26,119.41L608.4,132.14L618.54,148.44L628.68,167.43L648.96,209.63L659.1,231.56L679.38,273.93L689.52,293.14L699.66,310.23L709.8,325.23L719.94,338.1L730.08,348.85L740.22,357.41L750.36,364.37L760.5,370.01L770.64,374.38L780.78,377.64L790.92,379.95L811.2,382.77L821.34,383.52L851.76,384.56L861.9,384.68L973.44,384.88L983.58,384.85L1003.86,384.11L1014,362.92" style="vector-effect: none; fill: none; stroke: rgb(92, 184, 92); stroke-opacity: 1; stroke-width: 2px; opacity: 1;"/></g><g class="points"/><g class="text"/></g><g class="trace scatter trace43d853" style="stroke-miterlimit: 2; opacity: 1;"><g class="fills"/><g class="errorbars"/><g class="lines"><path class="js-line" d="M0,385L202.8,384.27L212.94,383.98L243.36,382.42L253.5,381.66L283.92,378.27L294.06,376.63L314.34,371.64L324.48,367.65L334.62,362.34L344.76,356.16L365.04,342.59L375.18,337.95L385.32,336.49L395.46,336.84L405.6,335.66L415.74,331.84L425.88,325.98L436.02,318.28L446.16,308.85L456.3,297.28L466.44,283.78L476.58,268.75L486.72,251.64L496.86,232.7L537.42,148.75L547.56,130.63L557.7,114.82L567.84,102.15L577.98,93.86L588.12,91.54L598.26,94.56L608.4,102.75L618.54,116.28L628.68,134L648.96,177.4L659.1,200.97L689.52,274.43L699.66,296.24L709.8,315.44L719.94,331.44L730.08,344.45L740.22,354.77L750.36,362.87L760.5,369.29L770.64,374.11L780.78,377.57L801.06,381.8L811.2,382.97L841.62,384.53L851.76,384.71L943.02,384.99L953.16,384.99L1014,384.98" style="vector-effect: none; fill: none; stroke: rgb(240, 173, 78); stroke-opacity: 1; stroke-width: 2px; opacity: 1;"/></g><g class="points"/><g class="text"/></g><g class="trace scatter trace90596b" style="stroke-miterlimit: 2; opacity: 1;"><g class="fills"/><g class="errorbars"/><g class="lines"><path class="js-line" d="M0,385L192.66,384.48L202.8,384.24L233.22,383.03L243.36,382.2L273.78,379.55L283.92,378.17L304.2,374.27L314.34,371.42L324.48,367.37L334.62,362.01L365.04,342.24L375.18,337.6L385.32,336.12L395.46,336.21L405.6,334.83L415.74,330.85L425.88,324.83L436.02,317.13L446.16,307.5L456.3,296.01L466.44,282.61L476.58,267.3L486.72,250.44L496.86,231.52L537.42,148.16L547.56,130.1L557.7,114.08L567.84,101.51L577.98,94.17L588.12,91.98L598.26,94.98L608.4,103.47L618.54,117.15L628.68,135.52L638.82,157.33L648.96,181.72L679.38,257.66L689.52,280.53L699.66,301.01L709.8,318.75L719.94,333.76L730.08,345.97L740.22,355.78L750.36,363.46L760.5,369.48L770.64,374.2L780.78,377.63L790.92,380.07L811.2,382.85L821.34,383.58L851.76,384.6L861.9,384.71L993.72,384.74L1003.86,383.99L1014,358.84" style="vector-effect: none; fill: none; stroke: rgb(240, 173, 78); stroke-opacity: 1; stroke-width: 2px; opacity: 1;"/></g><g class="points"/><g class="text"/></g><g class="trace scatter trace92a489" style="stroke-miterlimit: 2; opacity: 1;"><g class="fills"/><g class="errorbars"/><g class="lines"><path class="js-line" d="M0,385L192.66,384.34L202.8,384.04L233.22,382.26L243.36,381.19L263.64,378.17L273.78,376.02L283.92,373.3L294.06,369.8L304.2,365.32L314.34,359.63L324.48,352.19L334.62,342.78L344.76,331.54L354.9,318.75L375.18,292.63L385.32,283.23L395.46,275.86L405.6,266.95L415.74,256.03L425.88,243.97L466.44,196.12L476.58,185.63L486.72,176.96L496.86,170.09L507,164.68L517.14,161.09L527.28,159.7L537.42,160.41L547.56,162.59L557.7,165.71L567.84,169.75L577.98,175.18L588.12,182.49L598.26,191.86L618.54,214.32L628.68,223.71L638.82,225.66L648.96,239.25L659.1,267.63L669.24,289.77L679.38,306.16L689.52,320.13L699.66,332.6L709.8,343.37L719.94,352.42L730.08,359.73L740.22,365.68L750.36,370.62L760.5,374.5L770.64,377.57L790.92,381.48L801.06,382.63L831.48,384.39L841.62,384.61L922.74,384.99L932.88,384.99L1014,384.97" style="vector-effect: none; fill: none; stroke: rgb(92, 184, 92); stroke-opacity: 1; stroke-width: 2px; opacity: 1;"/></g><g class="points"/><g class="text"/></g><g class="trace scatter trace3f314e" style="stroke-miterlimit: 2; opacity: 1;"><g class="fills"/><g class="errorbars"/><g class="lines"><path class="js-line" d="M0,385L192.66,384.29L202.8,383.96L233.22,382.03L243.36,380.56L263.64,377.66L273.78,375.43L294.06,369.13L304.2,364.52L314.34,358.72L324.48,351.22L334.62,341.7L344.76,330.44L375.18,291.83L385.32,282.32L395.46,274.69L405.6,265.96L425.88,243.23L436.02,231.39L466.44,195.41L476.58,185.15L486.72,176.95L496.86,169.94L507,164.5L517.14,160.71L527.28,159.09L537.42,160.05L547.56,162.09L557.7,165.14L567.84,169.41L577.98,175.03L588.12,182.44L598.26,191.85L608.4,202.94L618.54,216.04L638.82,245.66L648.96,261.46L669.24,292.81L679.38,307.32L699.66,332.83L709.8,343.44L719.94,352.38L730.08,359.79L740.22,365.72L750.36,370.51L760.5,374.41L770.64,377.43L790.92,381.3L801.06,382.48L831.48,384.22L841.62,384.44L912.6,384.86L922.74,384.87L993.72,384.74L1003.86,383.87L1014,347.8" style="vector-effect: none; fill: none; stroke: rgb(92, 184, 92); stroke-opacity: 1; stroke-width: 2px; opacity: 1;"/></g><g class="points"/><g class="text"/></g><g class="trace scatter trace471a99" style="stroke-miterlimit: 2; opacity: 1;"><g class="fills"/><g class="errorbars"/><g class="lines"><path class="js-line" d="M0,385L192.66,384.38L202.8,384.13L243.36,382.14L253.5,381.27L273.78,379.12L283.92,377.65L304.2,373.32L314.34,369.42L324.48,363.64L334.62,355.97L365.04,327.62L375.18,322.42L385.32,323.44L395.46,327.69L405.6,329.4L415.74,327.25L425.88,322.53L436.02,315.49L446.16,306.26L456.3,294.86L466.44,281.61L476.58,266.61L496.86,233.81L507,215.48L527.28,179.65L537.42,163.08L547.56,148.8L557.7,135.92L567.84,125.41L577.98,118.86L588.12,115.83L598.26,116.93L608.4,120.66L618.54,125.66L628.68,137.02L638.82,157.58L669.24,224.12L679.38,245.92L699.66,286.91L709.8,305.23L719.94,321.46L730.08,335.13L740.22,346.49L750.36,356.06L760.5,363.86L770.64,369.89L780.78,374.52L790.92,377.91L811.2,381.94L821.34,383.06L841.62,384.27L851.76,384.54L922.74,384.98L932.88,384.98L1014,384.96" style="vector-effect: none; fill: none; stroke: rgb(240, 173, 78); stroke-opacity: 1; stroke-width: 2px; opacity: 1;"/></g><g class="points"/><g class="text"/></g><g class="trace scatter tracee02f44" style="stroke-miterlimit: 2; opacity: 1;"><g class="fills"/><g class="errorbars"/><g class="lines"><path class="js-line" d="M0,385L192.66,384.36L202.8,384.13L233.22,382.76L243.36,381.89L273.78,379.01L283.92,377.54L294.06,375.64L304.2,372.94L314.34,368.99L324.48,363.21L334.62,355.41L344.76,346.1L354.9,336.21L365.04,327.47L375.18,322.43L385.32,323.01L395.46,326.92L405.6,328.59L415.74,326.25L425.88,321.33L436.02,314.13L446.16,304.96L456.3,293.85L466.44,280.61L486.72,249.67L496.86,232.7L527.28,178.56L537.42,162.43L547.56,148.35L557.7,135.77L567.84,125.41L577.98,119.08L588.12,116.73L598.26,118.28L608.4,123.97L618.54,133.86L628.68,147.39L638.82,163.75L648.96,182.59L659.1,203.47L689.52,267.95L699.66,288.12L709.8,306.22L719.94,322.06L730.08,335.83L740.22,347.14L750.36,356.48L760.5,364.19L770.64,370.24L780.78,374.74L790.92,378L801.06,380.32L821.34,382.95L831.48,383.69L861.9,384.6L872.04,384.7L983.58,384.85L993.72,384.78L1003.86,384.19L1014,364.86" style="vector-effect: none; fill: none; stroke: rgb(240, 173, 78); stroke-opacity: 1; stroke-width: 2px; opacity: 1;"/></g><g class="points"/><g class="text"/></g><g class="trace scatter traceb2a841" style="stroke-miterlimit: 2; opacity: 1;"><g class="fills"/><g class="errorbars"/><g class="lines"><path class="js-line" d="M0,385L202.8,384.38L212.94,384.11L253.5,382.09L263.64,381.38L294.06,378.02L304.2,376.5L324.48,371.71L334.62,368.31L354.9,359.35L365.04,353.96L385.32,344L395.46,339.12L405.6,332.68L415.74,324.21L425.88,313.93L436.02,302.02L446.16,288.46L456.3,273.2L476.58,238.18L486.72,219.92L517.14,162.28L527.28,145.74L537.42,130.99L547.56,119.08L557.7,110.28L567.84,104.13L577.98,101.93L588.12,104.42L598.26,110.91L608.4,120.77L618.54,134.13L628.68,151.24L638.82,173.13L648.96,198.24L669.24,247.69L679.38,270.08L689.52,290.52L699.66,309.01L709.8,325.12L719.94,338.56L730.08,349.4L740.22,357.89L750.36,364.78L760.5,370.25L770.64,374.48L780.78,377.69L801.06,381.72L811.2,382.83L841.62,384.45L851.76,384.67L943.02,384.99L953.16,384.99L1014,384.97" style="vector-effect: none; fill: none; stroke: rgb(92, 184, 92); stroke-opacity: 1; stroke-width: 2px; opacity: 1;"/></g><g class="points"/><g class="text"/></g><g class="trace scatter trace2efd24" style="stroke-miterlimit: 2; opacity: 1;"><g class="fills"/><g class="errorbars"/><g class="lines"><path class="js-line" d="M0,385L202.8,384.33L212.94,384.07L243.36,382.44L253.5,381.69L273.78,380.25L283.92,379.04L304.2,376.14L314.34,373.95L334.62,367.52L344.76,363.34L365.04,353.14L375.18,347.86L395.46,338.07L405.6,331.53L415.74,322.99L425.88,312.54L436.02,300.73L446.16,287.5L456.3,272.16L466.44,255.04L486.72,218.55L496.86,199.54L517.14,161.91L527.28,145.08L537.42,130.65L547.56,118.99L557.7,110.02L567.84,104.57L577.98,102.99L588.12,104.99L598.26,112.27L608.4,124.71L618.54,140.72L628.68,159.67L638.82,180.87L648.96,203.97L669.24,250.72L679.38,272.56L689.52,292.23L699.66,310.19L709.8,326.04L719.94,339.2L730.08,349.9L740.22,358.34L750.36,365.16L760.5,370.58L770.64,374.63L780.78,377.63L801.06,381.6L811.2,382.73L841.62,384.34L851.76,384.52L943.02,384.87L953.16,384.87L993.72,384.73L1003.86,383.97L1014,360.56" style="vector-effect: none; fill: none; stroke: rgb(92, 184, 92); stroke-opacity: 1; stroke-width: 2px; opacity: 1;"/></g><g class="points"/><g class="text"/></g><g class="trace scatter trace0c384d" style="stroke-miterlimit: 2; opacity: 1;"><g class="fills"/><g class="errorbars"/><g class="lines"><path class="js-line" d="M0,385L202.8,384.4L212.94,384.13L243.36,382.85L253.5,382.18L283.92,379.02L294.06,377.32L314.34,372.7L324.48,369.24L334.62,364.78L344.76,359.31L354.9,352.68L365.04,344.99L385.32,326.66L395.46,316.1L405.6,303.36L415.74,288.72L436.02,254.91L446.16,237.7L466.44,202.8L476.58,186.78L486.72,172.68L496.86,160.34L507,149.47L517.14,140.68L527.28,134.34L537.42,130.62L547.56,129.58L557.7,130.27L567.84,132.83L577.98,138.46L588.12,147.02L598.26,157.6L608.4,169.64L618.54,183.22L628.68,199.24L638.82,218.34L659.1,258.68L669.24,277.8L679.38,295.47L689.52,311.23L699.66,325.4L709.8,337.85L719.94,348.2L730.08,356.84L740.22,363.84L750.36,369.39L760.5,373.75L770.64,377.1L790.92,381.4L801.06,382.69L821.34,384.1L831.48,384.45L882.18,384.96L892.32,384.98L1014,384.99" style="vector-effect: none; fill: none; stroke: rgb(92, 184, 92); stroke-opacity: 1; stroke-width: 2px; opacity: 1;"/></g><g class="points"/><g class="text"/></g><g class="trace scatter tracea715a1" style="stroke-miterlimit: 2; opacity: 1;"><g class="fills"/><g class="errorbars"/><g class="lines"><path class="js-line" d="M0,385L202.8,384.35L212.94,384.1L243.36,382.53L253.5,381.78L273.78,380.02L283.92,378.63L304.2,374.94L314.34,372.15L334.62,364.15L344.76,358.64L354.9,352.01L365.04,344.09L385.32,325.94L395.46,315.19L405.6,302.46L415.74,287.85L436.02,254.57L446.16,237.22L466.44,202.58L476.58,186.54L486.72,172.52L496.86,160.32L507,149.46L517.14,140.74L527.28,134.78L537.42,131.25L547.56,129.65L557.7,130.41L567.84,133.35L577.98,138.62L588.12,147.43L598.26,158.9L608.4,172.26L618.54,188.04L638.82,223.86L648.96,242.61L669.24,279.54L679.38,296.73L689.52,312.32L699.66,326.19L709.8,338.4L719.94,348.84L730.08,357.23L740.22,363.94L750.36,369.38L760.5,373.66L770.64,377.11L780.78,379.6L801.06,382.58L811.2,383.41L841.62,384.54L851.76,384.68L953.16,384.9L963.3,384.89L1003.86,384.14L1014,366.02" style="vector-effect: none; fill: none; stroke: rgb(92, 184, 92); stroke-opacity: 1; stroke-width: 2px; opacity: 1;"/></g><g class="points"/><g class="text"/></g><g class="trace scatter trace4ffc19" style="stroke-miterlimit: 2; opacity: 1;"><g class="fills"/><g class="errorbars"/><g class="lines"><path class="js-line" d="M0,385L233.22,384.27L243.36,384.07L283.92,382.58L294.06,381.92L314.34,379.88L324.48,377.97L344.76,371.86L354.9,368L365.04,364.39L375.18,362.12L385.32,362.16L395.46,363.51L405.6,364.06L415.74,363.1L436.02,358.5L446.16,354.78L456.3,349.54L466.44,342.72L476.58,333.84L486.72,322.32L496.86,307.13L507,287.2L517.14,262.69L527.28,234.39L537.42,202.74L547.56,168.49L567.84,98.05L577.98,66.91L588.12,42.83L598.26,28.36L608.4,22.58L618.54,25.17L628.68,30.61L638.82,34.49L648.96,49.17L659.1,86.03L679.38,190L689.52,235.68L699.66,272.91L709.8,302.59L719.94,325.16L730.08,341.54L740.22,353.36L750.36,362.45L760.5,369.09L770.64,373.95L780.78,377.49L790.92,380.08L811.2,383L821.34,383.73L851.76,384.74L861.9,384.85L993.72,384.92L1003.86,384.91L1014,384.96" style="vector-effect: none; fill: none; stroke: rgb(240, 173, 78); stroke-opacity: 1; stroke-width: 2px; opacity: 1;"/></g><g class="points"/><g class="text"/></g><g class="trace scatter trace72fa61" style="stroke-miterlimit: 2; opacity: 1;"><g class="fills"/><g class="errorbars"/><g class="lines"><path class="js-line" d="M0,385L223.08,384.42L233.22,384.24L304.2,380.9L314.34,379.63L324.48,377.62L334.62,374.74L365.04,363.58L375.18,361.41L385.32,361.57L395.46,362.79L405.6,363.19L415.74,362.16L425.88,359.95L436.02,356.91L446.16,352.88L456.3,347.46L466.44,340.38L476.58,331.18L486.72,319.24L496.86,303.4L507,282.92L517.14,257.96L527.28,228.59L537.42,196.15L557.7,125.61L567.84,90.2L577.98,58.94L588.12,34.94L598.26,21.8L608.4,19.25L618.54,28.38L628.68,47.71L638.82,74.26L648.96,107.54L679.38,218.36L689.52,251.7L699.66,281.23L709.8,306.11L719.94,325.98L730.08,341.44L740.22,352.99L750.36,361.91L760.5,368.66L770.64,373.56L780.78,377.06L790.92,379.64L811.2,382.56L821.34,383.33L851.76,384.39L861.9,384.51L973.44,384.67L983.58,384.55L993.72,384.02L1003.86,380L1014,216.77" style="vector-effect: none; fill: none; stroke: rgb(217, 83, 79); stroke-opacity: 1; stroke-width: 2px; opacity: 1;"/></g><g class="points"/><g class="text"/></g><g class="trace scatter trace570312" style="stroke-miterlimit: 2; opacity: 1;"><g class="fills"/><g class="errorbars"/><g class="lines"><path class="js-line" d="M0,385L202.8,384.33L212.94,384.04L253.5,382.07L263.64,381.34L294.06,378.19L304.2,376.72L324.48,372.2L334.62,368.89L365.04,356.54L375.18,353.74L385.32,353.04L395.46,353.41L405.6,352.79L415.74,350.77L425.88,347.51L436.02,343.27L446.16,338.12L456.3,331.41L466.44,323.01L476.58,312.96L486.72,301.03L496.86,286.4L507,268.66L517.14,248.48L537.42,201.82L547.56,177L567.84,126.52L577.98,102.37L598.26,56.18L608.4,44.15L618.54,51.28L628.68,70.78L638.82,93.33L648.96,118L669.24,172.72L679.38,201.24L699.66,255.09L709.8,279.27L719.94,300.65L730.08,318.87L740.22,334L750.36,346.46L760.5,356.61L770.64,364.64L780.78,370.62L790.92,375.11L801.06,378.51L811.2,380.8L831.48,383.38L841.62,384.04L882.18,384.88L892.32,384.94L1014,384.98" style="vector-effect: none; fill: none; stroke: rgb(240, 173, 78); stroke-opacity: 1; stroke-width: 2px; opacity: 1;"/></g><g class="points"/><g class="text"/></g><g class="trace scatter trace7e603f" style="stroke-miterlimit: 2; opacity: 1;"><g class="fills"/><g class="errorbars"/><g class="lines"><path class="js-line" d="M0,385L202.8,384.3L212.94,384.02L243.36,382.38L253.5,381.69L273.78,380.29L283.92,379.19L304.2,376.52L314.34,374.5L334.62,368.43L344.76,364.42L365.04,356.07L375.18,353.32L385.32,352.38L395.46,352.48L405.6,351.73L415.74,349.53L425.88,346.11L436.02,341.64L446.16,336.1L456.3,329.32L466.44,320.79L476.58,310.44L486.72,298.14L496.86,283.3L507,265.69L517.14,245.6L537.42,199.05L547.56,173.84L567.84,124.19L577.98,103.01L588.12,86.88L598.26,76.53L608.4,72.26L618.54,75.52L628.68,85.28L638.82,101.2L648.96,122.58L659.1,147.52L699.66,256.6L709.8,280.38L719.94,301.43L730.08,319.64L740.22,334.62L750.36,346.9L760.5,356.86L770.64,364.78L780.78,370.76L790.92,375.17L801.06,378.45L811.2,380.64L831.48,383.14L841.62,383.79L882.18,384.62L892.32,384.68L983.58,384.68L993.72,384.4L1003.86,382.31L1014,314.7" style="vector-effect: none; fill: none; stroke: rgb(240, 173, 78); stroke-opacity: 1; stroke-width: 2px; opacity: 1;"/></g><g class="points"/><g class="text"/></g><g class="trace scatter trace70ff43" style="stroke-miterlimit: 2; opacity: 1;"><g class="fills"/><g class="errorbars"/><g class="lines"><path class="js-line" d="M0,385L202.8,384.45L212.94,384.22L253.5,382.41L263.64,381.65L283.92,379.27L294.06,377.6L314.34,372.77L324.48,369.12L334.62,364.45L344.76,358.65L354.9,351.48L365.04,343.32L385.32,325.36L395.46,315.52L405.6,304.29L415.74,291.07L446.16,246.81L456.3,231.34L476.58,201.14L486.72,187.79L507,164.05L517.14,154.21L527.28,146.59L537.42,140.63L547.56,136.13L557.7,132.95L567.84,131.46L577.98,132.87L588.12,137.03L598.26,144.85L608.4,155.63L618.54,168.89L628.68,184.55L638.82,201.87L648.96,223.51L659.1,247.39L669.24,268.85L679.38,288.48L689.52,306.53L699.66,322.44L709.8,336.02L719.94,347.18L730.08,356.15L740.22,363.22L750.36,368.81L760.5,373.22L770.64,376.65L780.78,379.19L801.06,382.38L811.2,383.31L841.62,384.6L851.76,384.77L943.02,384.99L953.16,384.99L1014,384.98" style="vector-effect: none; fill: none; stroke: rgb(92, 184, 92); stroke-opacity: 1; stroke-width: 2px; opacity: 1;"/></g><g class="points"/><g class="text"/></g><g class="trace scatter trace3b8084" style="stroke-miterlimit: 2; opacity: 1;"><g class="fills"/><g class="errorbars"/><g class="lines"><path class="js-line" d="M0,385L202.8,384.43L212.94,384.2L243.36,382.73L253.5,382.02L273.78,380.4L283.92,379.06L304.2,375.09L314.34,372.32L324.48,368.62L334.62,363.82L344.76,357.95L354.9,350.89L375.18,334.07L385.32,325.08L395.46,315.2L405.6,303.89L415.74,291L425.88,276.4L476.58,201.48L486.72,188.14L496.86,175.36L507,164.12L517.14,154.84L527.28,147.08L537.42,141.23L547.56,136.83L557.7,133.32L567.84,131.69L577.98,132.84L588.12,136.88L598.26,145.01L608.4,156.44L618.54,171.36L628.68,188.83L638.82,208.2L648.96,229.26L669.24,270.46L679.38,289.74L689.52,307.28L699.66,322.83L709.8,336.36L719.94,347.72L730.08,356.6L740.22,363.45L750.36,368.97L760.5,373.35L770.64,376.69L780.78,379.11L801.06,382.3L811.2,383.2L841.62,384.48L851.76,384.63L943.02,384.88L953.16,384.88L993.72,384.72L1003.86,384L1014,365.56" style="vector-effect: none; fill: none; stroke: rgb(92, 184, 92); stroke-opacity: 1; stroke-width: 2px; opacity: 1;"/></g><g class="points"/><g class="text"/></g><g class="trace scatter trace546dc3" style="stroke-miterlimit: 2; opacity: 1;"><g class="fills"/><g class="errorbars"/><g class="lines"><path class="js-line" d="M0,385L212.94,384.26L223.08,383.99L263.64,382.13L273.78,381.39L304.2,377.77L314.34,375.77L324.48,372.83L334.62,368.89L365.04,354.8L375.18,351.74L385.32,351.19L395.46,351.87L405.6,351.37L415.74,348.94L425.88,344.96L436.02,339.86L446.16,333.3L456.3,324.99L466.44,314.79L476.58,302.53L486.72,288.34L496.86,271.39L507,251.63L517.14,229.71L537.42,181.81L547.56,157L567.84,109.73L577.98,90.07L588.12,75.91L598.26,68L608.4,65.95L618.54,70.71L628.68,81.13L638.82,98.54L648.96,124.58L659.1,155.05L679.38,216.11L689.52,244.22L699.66,270.22L709.8,293.26L719.94,313L730.08,329.43L740.22,342.55L750.36,352.99L760.5,361.51L770.64,368.2L780.78,373.2L790.92,376.96L801.06,379.74L811.2,381.58L831.48,383.68L841.62,384.21L882.18,384.9L892.32,384.95L1014,384.97" style="vector-effect: none; fill: none; stroke: rgb(240, 173, 78); stroke-opacity: 1; stroke-width: 2px; opacity: 1;"/></g><g class="points"/><g class="text"/></g><g class="trace scatter trace9fdcf7" style="stroke-miterlimit: 2; opacity: 1;"><g class="fills"/><g class="errorbars"/><g class="lines"><path class="js-line" d="M0,385L202.8,384.45L212.94,384.22L243.36,382.98L253.5,382.44L273.78,381.29L283.92,380.36L304.2,377.58L314.34,375.52L324.48,372.51L334.62,368.55L365.04,354.54L375.18,351.56L385.32,350.85L395.46,351.27L405.6,350.6L415.74,348.23L425.88,344.16L436.02,338.8L446.16,332.18L456.3,323.9L466.44,313.71L476.58,301.38L486.72,287.05L496.86,270.19L507,250.54L517.14,228.52L537.42,180.86L547.56,156.1L567.84,108.22L577.98,89.72L588.12,75.93L598.26,68.3L608.4,67.71L618.54,74.7L628.68,88.81L638.82,108.33L648.96,132.8L659.1,160.41L689.52,246.2L699.66,271.63L709.8,294.36L719.94,313.93L730.08,330.16L740.22,343.08L750.36,353.44L760.5,361.74L770.64,368.33L780.78,373.32L790.92,376.99L801.06,379.65L821.34,382.69L831.48,383.54L861.9,384.57L872.04,384.69L983.58,384.83L993.72,384.73L1003.86,384.03L1014,360.86" style="vector-effect: none; fill: none; stroke: rgb(240, 173, 78); stroke-opacity: 1; stroke-width: 2px; opacity: 1;"/></g><g class="points"/><g class="text"/></g></g></g></g><g class="zerolinelayer-above"/><path class="xlines-above crisp" d="M0,0" style="fill: none;"/><path class="ylines-above crisp" d="M0,0" style="fill: none;"/><g class="overlines-above"/><g class="xaxislayer-above"><g class="xtick"><text text-anchor="middle" x="0" y="451" transform="translate(60,0)" style="font-family: 'Lucida Grande', 'Open Sans', verdana, arial, sans-serif; font-size: 10px; fill: rgb(0, 0, 0); fill-opacity: 1; white-space: pre;">0%</text></g><g class="xtick"><text text-anchor="middle" x="0" y="451" style="font-family: 'Lucida Grande', 'Open Sans', verdana, arial, sans-serif; font-size: 10px; fill: rgb(0, 0, 0); fill-opacity: 1; white-space: pre;" transform="translate(262.8,0)">20%</text></g><g class="xtick"><text text-anchor="middle" x="0" y="451" style="font-family: 'Lucida Grande', 'Open Sans', verdana, arial, sans-serif; font-size: 10px; fill: rgb(0, 0, 0); fill-opacity: 1; white-space: pre;" transform="translate(465.6,0)">40%</text></g><g class="xtick"><text text-anchor="middle" x="0" y="451" style="font-family: 'Lucida Grande', 'Open Sans', verdana, arial, sans-serif; font-size: 10px; fill: rgb(0, 0, 0); fill-opacity: 1; white-space: pre;" transform="translate(668.4,0)">60%</text></g><g class="xtick"><text text-anchor="middle" x="0" y="451" style="font-family: 'Lucida Grande', 'Open Sans', verdana, arial, sans-serif; font-size: 10px; fill: rgb(0, 0, 0); fill-opacity: 1; white-space: pre;" transform="translate(871.2,0)">80%</text></g><g class="xtick"><text text-anchor="middle" x="0" y="451" style="font-family: 'Lucida Grande', 'Open Sans', verdana, arial, sans-serif; font-size: 10px; fill: rgb(0, 0, 0); fill-opacity: 1; white-space: pre;" transform="translate(1074,0)">100%</text></g></g><g class="yaxislayer-above"><g class="ytick"><text text-anchor="end" x="54" y="3.5" transform="translate(0,435)" style="font-family: 'Lucida Grande', 'Open Sans', verdana, arial, sans-serif; font-size: 10px; fill: rgb(0, 0, 0); fill-opacity: 1; white-space: pre;">0%</text></g><g class="ytick"><text text-anchor="end" x="54" y="3.5" style="font-family: 'Lucida Grande', 'Open Sans', verdana, arial, sans-serif; font-size: 10px; fill: rgb(0, 0, 0); fill-opacity: 1; white-space: pre;" transform="translate(0,375.71)">1%</text></g><g class="ytick"><text text-anchor="end" x="54" y="3.5" style="font-family: 'Lucida Grande', 'Open Sans', verdana, arial, sans-serif; font-size: 10px; fill: rgb(0, 0, 0); fill-opacity: 1; white-space: pre;" transform="translate(0,316.41)">2%</text></g><g class="ytick"><text text-anchor="end" x="54" y="3.5" style="font-family: 'Lucida Grande', 'Open Sans', verdana, arial, sans-serif; font-size: 10px; fill: rgb(0, 0, 0); fill-opacity: 1; white-space: pre;" transform="translate(0,257.12)">3%</text></g><g class="ytick"><text text-anchor="end" x="54" y="3.5" style="font-family: 'Lucida Grande', 'Open Sans', verdana, arial, sans-serif; font-size: 10px; fill: rgb(0, 0, 0); fill-opacity: 1; white-space: pre;" transform="translate(0,197.82)">4%</text></g><g class="ytick"><text text-anchor="end" x="54" y="3.5" style="font-family: 'Lucida Grande', 'Open Sans', verdana, arial, sans-serif; font-size: 10px; fill: rgb(0, 0, 0); fill-opacity: 1; white-space: pre;" transform="translate(0,138.53)">5%</text></g><g class="ytick"><text text-anchor="end" x="54" y="3.5" style="font-family: 'Lucida Grande', 'Open Sans', verdana, arial, sans-serif; font-size: 10px; fill: rgb(0, 0, 0); fill-opacity: 1; white-space: pre;" transform="translate(0,79.23)">6%</text></g></g><g class="overaxes-above"/></g></g><g class="polarlayer"/><g class="smithlayer"/><g class="ternarylayer"/><g class="geolayer"/><g class="funnelarealayer"/><g class="pielayer"/><g class="iciclelayer"/><g class="treemaplayer"/><g class="sunburstlayer"/><g class="glimages"/><defs id="topdefs-e67d90"><g class="clips"/></defs><g class="layer-above"><g class="imagelayer"/><g class="shapelayer"/></g><g class="infolayer"><g class="g-gtitle"><text class="gtitle" x="550" y="25" text-anchor="middle" dy="0em" style="opacity: 1; font-family: 'Lucida Grande', 'Open Sans', verdana, arial, sans-serif; font-size: 20px; fill: rgb(68, 68, 68); fill-opacity: 1; white-space: pre;"><tspan class="line" dy="0em" x="550" y="25">FastQC: Per Sequence GC Content</tspan><tspan class="line" dy="1.3em" x="550" y="25">​<tspan style="font-size:70%" dy="-0.6em">Percentages, 20 lines</tspan><tspan dy="0.42em">​</tspan></tspan></text></g><g class="g-xtitle"><text class="xtitle" x="567" y="487" text-anchor="middle" style="opacity: 0.3; font-family: 'Lucida Grande', 'Open Sans', verdana, arial, sans-serif; font-size: 14px; fill: rgb(0, 0, 0); fill-opacity: 1; white-space: pre;">% GC</text></g><g class="g-ytitle"><text class="ytitle" transform="rotate(-90,22,242.5)" x="22" y="242.5" text-anchor="middle" style="opacity: 0.3; font-family: 'Lucida Grande', 'Open Sans', verdana, arial, sans-serif; font-size: 14px; fill: rgb(0, 0, 0); fill-opacity: 1; white-space: pre;">Percentage</text></g></g></svg>