<svg class="main-svg" xmlns="http://www.w3.org/2000/svg" xmlns:xlink="http://www.w3.org/1999/xlink" width="2200" height="1000" style="" viewBox="0 0 1100 500"><rect x="0" y="0" width="1100" height="500" style="fill: rgb(255, 255, 255); fill-opacity: 1;"/><defs id="defs-d9c32c"><g class="clips"><clipPath id="clipd9c32cxyplot" class="plotclip"><rect width="1025" height="385"/></clipPath><clipPath class="axesclip" id="clipd9c32cx"><rect x="60" y="0" width="1025" height="500"/></clipPath><clipPath class="axesclip" id="clipd9c32cy"><rect x="0" y="50" width="1100" height="385"/></clipPath><clipPath class="axesclip" id="clipd9c32cxy"><rect x="60" y="50" width="1025" height="385"/></clipPath></g><g class="gradients"/><g class="patterns"/></defs><g class="bglayer"/><g class="layer-below"><g class="imagelayer"/><g class="shapelayer"/></g><g class="cartesianlayer"><g class="subplot xy"><g class="layer-subplot"><g class="shapelayer"/><g class="imagelayer"/></g><g class="minor-gridlayer"><g class="x"/><g class="y"/></g><g class="gridlayer"><g class="x"><path class="xgrid crisp" transform="translate(190.7,0)" d="M0,50v385" style="stroke: rgb(0, 0, 0); stroke-opacity: 0.05; stroke-width: 1px;"/><path class="xgrid crisp" transform="translate(328.29,0)" d="M0,50v385" style="stroke: rgb(0, 0, 0); stroke-opacity: 0.05; stroke-width: 1px;"/><path class="xgrid crisp" transform="translate(465.87,0)" d="M0,50v385" style="stroke: rgb(0, 0, 0); stroke-opacity: 0.05; stroke-width: 1px;"/><path class="xgrid crisp" transform="translate(603.46,0)" d="M0,50v385" style="stroke: rgb(0, 0, 0); stroke-opacity: 0.05; stroke-width: 1px;"/><path class="xgrid crisp" transform="translate(741.04,0)" d="M0,50v385" style="stroke: rgb(0, 0, 0); stroke-opacity: 0.05; stroke-width: 1px;"/><path class="xgrid crisp" transform="translate(878.62,0)" d="M0,50v385" style="stroke: rgb(0, 0, 0); stroke-opacity: 0.05; stroke-width: 1px;"/><path class="xgrid crisp" transform="translate(1016.21,0)" d="M0,50v385" style="stroke: rgb(0, 0, 0); stroke-opacity: 0.05; stroke-width: 1px;"/></g><g class="y"><path class="ygrid crisp" transform="translate(0,358)" d="M60,0h1025" style="stroke: rgb(0, 0, 0); stroke-opacity: 0.05; stroke-width: 1px;"/><path class="ygrid crisp" transform="translate(0,281)" d="M60,0h1025" style="stroke: rgb(0, 0, 0); stroke-opacity: 0.05; stroke-width: 1px;"/><path class="ygrid crisp" transform="translate(0,204)" d="M60,0h1025" style="stroke: rgb(0, 0, 0); stroke-opacity: 0.05; stroke-width: 1px;"/><path class="ygrid crisp" transform="translate(0,127)" d="M60,0h1025" style="stroke: rgb(0, 0, 0); stroke-opacity: 0.05; stroke-width: 1px;"/></g></g><g class="zerolinelayer"><path class="yzl zl crisp" transform="translate(0,435)" d="M60,0h1025" style="stroke: rgb(0, 0, 0); stroke-opacity: 0.05; stroke-width: 1px;"/></g><g class="layer-between"><g class="shapelayer"/><g class="imagelayer"/></g><path class="xlines-below"/><path class="ylines-below"/><g class="overlines-below"/><g class="xaxislayer-below"/><g class="yaxislayer-below"/><g class="overaxes-below"/><g class="overplot"><g class="xy" transform="translate(60,50)" clip-path="url(#clipd9c32cxyplot)"><g class="scatterlayer mlayer"><g class="trace scatter tracebfa861" style="stroke-miterlimit: 2; opacity: 1;"><g class="fills"/><g class="errorbars"/><g class="lines"><path class="js-line" d="M0,112.24L6.88,194L13.76,180.29L20.64,170.83L27.52,173.8L34.4,184.04L41.28,185.12L48.15,173.55L55.03,176.38L61.91,187.11L68.79,152.56L75.67,160.48L82.55,172.54L89.43,176.64L96.31,177.76L103.19,172.48L110.07,174.37L116.95,175.1L123.83,171.06L130.7,176.73L137.58,174.09L144.46,174.13L151.34,177.37L158.22,174.82L165.1,174.6L171.98,175.49L178.86,174.85L192.62,175.15L199.5,176.8L206.38,172.67L213.26,177.49L220.13,175.03L227.01,174.82L233.89,177.74L240.77,176.84L247.65,172.6L254.53,175.47L261.41,176.63L268.29,174.72L275.17,177.3L282.05,176.74L288.93,174.56L295.81,175.44L302.68,176.77L309.56,173.14L316.44,175.65L323.32,176.74L330.2,172.88L337.08,176.26L350.84,173.23L357.72,175.42L371.48,174.6L378.36,176.5L385.23,176.73L392.11,174.68L398.99,176.83L405.87,176.71L412.75,174.39L419.63,177.1L426.51,176.85L433.39,174.8L440.27,177.37L447.15,175.15L454.03,174.28L460.91,177.29L467.79,176.57L474.66,174.74L481.54,177.2L488.42,175.26L495.3,172.81L502.18,175.43L509.06,174.71L515.94,172.54L522.82,175.25L529.7,174.73L536.58,172.63L543.46,175.52L550.34,174.89L557.21,172.96L564.09,175.64L570.97,174.75L577.85,172.62L584.73,175.21L591.61,174.62L598.49,172.75L605.37,175.33L612.25,174.79L619.13,172.75L626.01,175.64L632.89,174.9L639.77,172.82L646.64,175.46L653.52,174.64L660.4,172.51L667.28,175.23L674.16,174.64L681.04,172.76L687.92,175.39L694.8,174.92L701.68,172.89L708.56,175.55L715.44,174.89L722.32,172.94L729.19,175.58L736.07,174.63L742.95,172.61L749.83,175.45L756.71,174.78L763.59,173.06L770.47,175.54L777.35,174.99L784.23,172.72L791.11,175.36L797.99,174.62L804.87,172.8L811.74,175.11L818.62,174.76L825.5,172.97L832.38,175.64L839.26,175.18L846.14,173.16L853.02,175.66L859.9,174.88L866.78,172.79L873.66,175.26L880.54,174.84L887.42,172.99L894.3,175.43L901.17,174.95L908.05,173.16L914.93,175.64L921.81,175L928.69,173.06L935.57,175.4L942.45,174.89L949.33,173.03L956.21,175.6L963.09,174.97L969.97,173.15L976.85,175.54L983.72,174.83L990.6,173.07L997.48,175.44L1004.36,174.82L1011.24,173.15L1018.12,175.44L1025,175" style="vector-effect: none; fill: none; stroke: rgb(124, 181, 236); stroke-opacity: 1; stroke-width: 2px; opacity: 1;"/></g><g class="points"/><g class="text"/></g><g class="trace scatter trace3c743b" style="stroke-miterlimit: 2; opacity: 1;"><g class="fills"/><g class="errorbars"/><g class="lines"><path class="js-line" d="M0,109.29L6.88,192.39L13.76,177.87L20.64,168.84L27.52,171.76L34.4,181.52L41.28,182.87L48.15,172.17L55.03,174.04L61.91,184.07L68.79,150.75L75.67,158.08L82.55,169.47L89.43,173.29L96.31,175.14L103.19,169.16L110.07,171.52L116.95,172.71L123.83,168.04L130.7,174.17L137.58,171.11L144.46,171.61L151.34,175.04L158.22,172.19L165.1,171.99L171.98,172.78L178.86,172.16L192.62,172.29L199.5,174.43L206.38,169.47L213.26,175.14L227.01,169.82L233.89,175.49L240.77,174.54L247.65,169.6L254.53,172.77L261.41,171.81L268.29,169.61L275.17,172.55L282.05,174.46L288.93,171.95L295.81,172.79L302.68,174.69L309.56,169.85L316.44,172.86L323.32,172.31L330.2,169.7L337.08,172.89L343.96,171.82L350.84,169.76L357.72,173.23L371.48,171.08L378.36,174.22L385.23,174.41L392.11,172.14L398.99,174.68L405.87,174.43L412.75,171.37L419.63,174.78L426.51,174.7L433.39,172.41L440.27,175L447.15,172.82L454.03,170.71L460.91,174.37L467.79,173.77L474.66,171.45L481.54,174.12L488.42,172.52L495.3,169.97L502.18,172.77L509.06,172.11L515.94,169.68L522.82,172.49L529.7,172.08L536.58,169.59L543.46,172.8L550.34,172.38L557.21,170.13L564.09,173.01L570.97,172.24L577.85,169.8L584.73,172.53L591.61,171.95L598.49,169.77L605.37,172.59L612.25,172.16L619.13,169.81L626.01,172.98L632.89,172.37L639.77,169.98L646.64,172.69L653.52,172.03L660.4,169.6L667.28,172.44L674.16,171.77L681.04,169.68L687.92,172.66L694.8,172.33L701.68,169.9L708.56,172.75L715.44,172.13L722.32,169.89L729.19,172.72L736.07,171.82L742.95,169.58L749.83,172.52L756.71,171.88L763.59,170.05L770.47,172.74L777.35,172.27L784.23,169.65L791.11,172.48L797.99,171.66L804.87,169.51L811.74,172.26L818.62,171.85L825.5,169.76L832.38,172.88L839.26,172.41L846.14,170.14L853.02,172.67L859.9,172.01L866.78,169.55L873.66,172.4L880.54,171.88L887.42,169.87L894.3,172.58L901.17,172.02L908.05,169.87L914.93,172.63L921.81,172.01L928.69,169.85L935.57,172.31L942.45,171.8L949.33,169.8L956.21,172.6L963.09,172.08L969.97,169.93L976.85,172.52L983.72,171.9L990.6,169.74L997.48,172.32L1004.36,171.65L1011.24,169.75L1018.12,172.31L1025,171.79" style="vector-effect: none; fill: none; stroke: rgb(67, 67, 72); stroke-opacity: 1; stroke-width: 2px; opacity: 1;"/></g><g class="points"/><g class="text"/></g><g class="trace scatter trace440938" style="stroke-miterlimit: 2; opacity: 1;"><g class="fills"/><g class="errorbars"/><g class="lines"><path class="js-line" d="M0,116.89L6.88,210.41L13.76,194.66L20.64,183.64L27.52,184.91L34.4,196.22L41.28,199.8L48.15,187.56L55.03,187.57L61.91,201.91L68.79,163.68L75.67,172.33L82.55,187.03L89.43,188.16L96.31,191.51L103.19,184.4L110.07,185.89L116.95,189.1L123.83,183.09L130.7,190.33L137.58,185.69L151.34,190.99L158.22,186.96L165.1,188.88L171.98,187.27L178.86,186.74L185.74,188.7L192.62,186.62L199.5,190.72L206.38,184.52L213.26,191.16L220.13,186.81L227.01,184.9L233.89,187.45L240.77,191.02L254.53,187.21L261.41,186.64L268.29,188.7L275.17,186.93L282.05,190.85L288.93,188.73L295.81,187.35L302.68,190.99L309.56,187.79L316.44,187.64L323.32,191.18L330.2,188.82L337.08,191.24L343.96,186.54L350.84,185.16L357.72,187.18L364.6,187.23L371.48,189.08L378.36,187.63L385.23,191.12L398.99,187.38L405.87,190.97L412.75,185.4L419.63,187.66L426.51,191.21L433.39,189.43L440.27,188.42L447.15,190.65L454.03,189.08L460.91,191.43L467.79,190.91L474.66,188.97L481.54,190.83L488.42,187.34L495.3,185.28L502.18,187.33L509.06,186.98L515.94,184.87L522.82,187.11L529.7,186.77L536.58,184.87L543.46,187.4L550.34,187.07L557.21,185.31L564.09,187.56L570.97,186.93L577.85,185.07L584.73,187.14L591.61,186.67L598.49,184.93L605.37,186.96L612.25,186.95L619.13,185.07L626.01,187.42L632.89,187L639.77,185.21L646.64,187.33L653.52,186.8L660.4,184.78L667.28,186.97L674.16,186.57L681.04,184.98L687.92,187.17L694.8,187.02L701.68,185.12L708.56,187.3L715.44,186.93L722.32,185.23L729.19,187.33L736.07,186.69L742.95,184.68L749.83,187.05L756.71,186.79L763.59,185.31L770.47,187.22L777.35,187L784.23,184.97L791.11,187.03L797.99,186.39L804.87,184.88L811.74,186.69L818.62,186.66L825.5,185.03L832.38,187.28L839.26,187.13L846.14,185.45L853.02,187.18L859.9,186.7L866.78,184.63L873.66,186.75L880.54,186.46L887.42,184.98L894.3,186.8L901.17,186.53L908.05,184.91L914.93,186.82L921.81,186.39L928.69,184.75L935.57,186.39L942.45,186.2L949.33,184.55L956.21,186.53L963.09,186.29L969.97,184.62L976.85,186.3L983.72,186.01L990.6,184.34L997.48,186.1L1004.36,185.66L1011.24,184.24L1018.12,185.95L1025,185.61" style="vector-effect: none; fill: none; stroke: rgb(144, 237, 125); stroke-opacity: 1; stroke-width: 2px; opacity: 1;"/></g><g class="points"/><g class="text"/></g><g class="trace scatter trace24e345" style="stroke-miterlimit: 2; opacity: 1;"><g class="fills"/><g class="errorbars"/><g class="lines"><path class="js-line" d="M0,110.5L6.88,191.57L13.76,177.52L20.64,169.26L27.52,172.23L34.4,181.53L41.28,181.77L48.15,171.18L55.03,173.33L61.91,184.46L68.79,151.53L75.67,158.92L82.55,169.91L89.43,174.04L96.31,174.93L103.19,170.2L110.07,172.33L116.95,172.51L123.83,168.76L130.7,174.28L137.58,171.36L144.46,171.99L151.34,175.14L158.22,172.79L165.1,172.55L171.98,173.54L178.86,172.79L185.74,172.32L192.62,172.75L199.5,174.42L206.38,170.43L213.26,175.26L220.13,172.93L227.01,171.02L233.89,175.77L240.77,172.89L247.65,172.61L254.53,175.37L261.41,172.32L268.29,172.44L275.17,175.09L282.05,174.54L288.93,172.4L302.68,174.77L309.56,171.78L316.44,173.69L323.32,174.59L330.2,172.23L337.08,175.17L343.96,172.24L350.84,170.93L357.72,173.48L364.6,172.84L371.48,172.58L378.36,173.61L385.23,174.46L392.11,172.52L405.87,174.17L412.75,170.68L419.63,173.76L426.51,174.93L433.39,173.14L440.27,174.48L447.15,174.48L454.03,172.39L460.91,175.14L467.79,174.1L474.66,172.44L481.54,175.07L495.3,171.28L502.18,173.79L509.06,172.94L515.94,170.75L522.82,173.29L529.7,172.64L536.58,170.58L543.46,173.66L550.34,172.98L557.21,171.3L564.09,174.09L570.97,172.81L577.85,171.1L584.73,173.45L598.49,170.92L605.37,173.18L612.25,172.81L619.13,171.05L626.01,173.99L632.89,173.01L639.77,171.22L646.64,173.72L653.52,172.66L660.4,170.71L667.28,173.23L674.16,172.36L681.04,170.89L687.92,173.51L694.8,173.13L701.68,171.21L708.56,173.67L715.44,172.9L722.32,171.24L729.19,173.66L736.07,172.55L742.95,170.55L749.83,173.44L756.71,172.56L763.59,171.38L770.47,173.72L777.35,173.06L784.23,170.92L791.11,173.57L797.99,172.24L804.87,170.82L811.74,172.96L818.62,172.86L825.5,171.07L832.38,174.08L839.26,173.43L846.14,171.67L853.02,173.87L859.9,172.92L866.78,170.75L873.66,173.44L880.54,172.7L887.42,171.42L894.3,173.76L901.17,173.16L908.05,171.65L914.93,173.97L921.81,173L928.69,171.26L935.57,173.52L942.45,172.85L949.33,171.21L956.21,174.02L963.09,173.25L969.97,171.67L976.85,173.93L983.72,173.01L990.6,171.25L997.48,173.48L1004.36,172.78L1011.24,171.52L1018.12,173.7L1025,173.31" style="vector-effect: none; fill: none; stroke: rgb(247, 163, 92); stroke-opacity: 1; stroke-width: 2px; opacity: 1;"/></g><g class="points"/><g class="text"/></g><g class="trace scatter tracec0c7fd" style="stroke-miterlimit: 2; opacity: 1;"><g class="fills"/><g class="errorbars"/><g class="lines"><path class="js-line" d="M0,110.78L6.88,196.24L13.76,180.63L20.64,170.71L27.52,173.54L34.4,183.43L41.28,184.29L48.15,173.21L55.03,175.61L61.91,186.78L68.79,152.33L75.67,159.6L82.55,171.81L89.43,175.32L96.31,176.56L103.19,171.25L110.07,173.22L116.95,174.18L123.83,170.17L130.7,175.97L137.58,173.11L144.46,173.5L151.34,176.74L158.22,173.94L165.1,173.85L171.98,174.55L178.86,173.87L192.62,174.32L199.5,176.01L206.38,171.7L213.26,176.93L220.13,174L227.01,171.9L233.89,177.03L240.77,176.11L247.65,171.8L254.53,177L261.41,175.97L268.29,171.7L275.17,176.63L282.05,176.02L288.93,173.81L295.81,174.67L302.68,176.09L309.56,172.15L316.44,174.83L323.32,174.42L330.2,171.86L337.08,175.18L350.84,172L357.72,174.94L371.48,173.4L378.36,176.27L385.23,176.18L392.11,174.22L398.99,176.81L405.87,176.14L412.75,173.65L419.63,176.56L426.51,176.15L433.39,174.1L440.27,176.66L447.15,174.17L454.03,173.21L460.91,176.73L467.79,175.93L474.66,173.82L481.54,176.27L488.42,174.29L495.3,172L502.18,174.65L509.06,174.05L515.94,171.84L522.82,174.58L529.7,174.03L536.58,171.93L543.46,174.78L550.34,174.12L557.21,172.16L564.09,174.89L570.97,174.08L577.85,172L584.73,174.62L591.61,173.86L598.49,172.04L605.37,174.66L612.25,174.05L619.13,172.06L626.01,175.09L632.89,174.24L639.77,172.16L646.64,174.8L653.52,174.01L660.4,171.83L667.28,174.68L674.16,173.84L681.04,172.05L687.92,174.77L694.8,174.2L701.68,172.09L708.56,175.04L715.44,174.17L722.32,172.2L729.19,175.02L736.07,173.86L742.95,172.01L749.83,174.67L756.71,174.01L763.59,172.36L770.47,174.9L777.35,174.37L784.23,172.19L791.11,174.86L797.99,174L804.87,172.02L811.74,174.63L818.62,174.04L825.5,172.18L832.38,174.96L839.26,174.35L846.14,172.55L853.02,175.08L859.9,174.21L866.78,172.17L873.66,174.81L880.54,174.22L887.42,172.19L894.3,174.79L901.17,174.17L908.05,172.39L914.93,174.91L921.81,174.28L928.69,172.36L935.57,174.83L942.45,174.11L949.33,172.29L956.21,174.93L963.09,174.2L969.97,172.38L976.85,174.86L983.72,174.22L990.6,172.25L997.48,174.67L1004.36,174.07L1011.24,172.3L1018.12,174.76L1025,174.11" style="vector-effect: none; fill: none; stroke: rgb(128, 133, 233); stroke-opacity: 1; stroke-width: 2px; opacity: 1;"/></g><g class="points"/><g class="text"/></g><g class="trace scatter tracee17e32" style="stroke-miterlimit: 2; opacity: 1;"><g class="fills"/><g class="errorbars"/><g class="lines"><path class="js-line" d="M0,115.49L6.88,202.83L13.76,187.8L20.64,178.41L27.52,180.26L34.4,191.18L41.28,191.89L48.15,179.96L55.03,182.87L61.91,193.25L68.79,159.38L75.67,166.66L82.55,178.31L89.43,182.59L96.31,183.3L103.19,178.8L110.07,180.53L116.95,181.08L123.83,177.83L130.7,182.68L137.58,180.61L144.46,180.28L151.34,183.3L158.22,181.22L165.1,180.55L171.98,181.91L178.86,181.23L185.74,180.72L192.62,181.6L199.5,182.67L206.38,179.13L213.26,183.46L220.13,181.28L227.01,179.29L233.89,183.59L240.77,182.85L247.65,179.25L254.53,182.03L261.41,181.21L268.29,180.67L275.17,181.69L282.05,182.62L288.93,180.62L302.68,182.84L309.56,180.51L316.44,182.12L323.32,182.59L330.2,179.84L337.08,182.88L350.84,179.51L357.72,181.78L371.48,180.6L378.36,182.56L385.23,182.87L392.11,180.83L398.99,182.89L405.87,182.87L412.75,180.45L419.63,182.79L426.51,182.63L433.39,180.76L440.27,183.17L447.15,181.54L454.03,180.65L460.91,183.43L467.79,182.7L474.66,180.8L481.54,183.3L488.42,181.59L495.3,179.37L502.18,181.84L509.06,181.25L515.94,179.23L522.82,181.72L529.7,181.22L536.58,179.37L543.46,181.98L550.34,181.49L557.21,179.62L564.09,182.03L570.97,181.26L577.85,179.27L584.73,181.73L591.61,181.06L598.49,179.31L605.37,181.84L612.25,181.39L619.13,179.41L626.01,182.13L632.89,181.44L639.77,179.39L646.64,181.82L653.52,181.23L660.4,179.22L667.28,181.71L674.16,181.09L681.04,179.38L687.92,181.86L694.8,181.42L701.68,179.43L708.56,181.97L715.44,181.36L722.32,179.36L729.19,182.03L736.07,181.21L742.95,179.36L749.83,181.77L756.71,181.27L763.59,179.51L770.47,181.99L777.35,181.43L784.23,179.38L791.11,181.91L797.99,181.19L804.87,179.4L811.74,181.68L818.62,181.14L825.5,179.46L832.38,182.01L839.26,181.47L846.14,179.61L853.02,182.01L859.9,181.33L866.78,179.35L873.66,181.85L880.54,181.34L887.42,179.44L894.3,181.76L901.17,181.23L908.05,179.53L914.93,181.84L921.81,181.26L928.69,179.53L935.57,181.84L942.45,181.21L949.33,179.4L956.21,181.76L963.09,181.2L969.97,179.55L976.85,181.78L983.72,181.21L990.6,179.39L997.48,181.79L1004.36,181.1L1011.24,179.39L1018.12,181.56L1025,181.13" style="vector-effect: none; fill: none; stroke: rgb(241, 92, 128); stroke-opacity: 1; stroke-width: 2px; opacity: 1;"/></g><g class="points"/><g class="text"/></g><g class="trace scatter tracebc2747" style="stroke-miterlimit: 2; opacity: 1;"><g class="fills"/><g class="errorbars"/><g class="lines"><path class="js-line" d="M0,91.48L6.88,193.65L13.76,177.66L20.64,150.66L27.52,153.94L34.4,163.3L41.28,182.69L48.15,173.76L55.03,157.12L61.91,183.82L68.79,134.87L75.67,141.64L82.55,170.12L89.43,155.41L96.31,175.11L103.19,150.83L110.07,153.55L116.95,172.8L123.83,150.09L130.7,174.03L137.58,153.64L144.46,171.7L151.34,175.04L158.22,154.59L165.1,171.78L171.98,154.8L178.86,154.31L185.74,171.35L192.62,154.46L199.5,173.98L206.38,151.42L213.26,174.55L220.13,154.15L227.01,151.86L233.89,175.36L240.77,174.34L247.65,151.27L254.53,154.43L261.41,153.59L268.29,151.39L275.17,174.56L282.05,174.25L288.93,171.23L295.81,155.07L302.68,173.99L309.56,153.85L316.44,154.68L323.32,156.12L330.2,151.67L337.08,156.57L343.96,153.91L350.84,152.88L357.72,158.82L364.6,155.59L371.48,163.67L378.36,169.28L385.23,173.62L392.11,171.71L398.99,173.73L405.87,173.8L412.75,169.19L426.51,173.62L433.39,171.74L440.27,173.46L447.15,158.27L454.03,161.55L460.91,171.64L467.79,172.27L474.66,167.74L481.54,167.54L488.42,156.15L495.3,151.52L502.18,154.39L509.06,153.66L515.94,150.86L522.82,153.95L529.7,153.5L536.58,150.94L543.46,154.29L550.34,153.66L557.21,151.18L564.09,154.29L570.97,153.65L577.85,150.8L584.73,153.95L591.61,153.33L598.49,150.88L605.37,154.06L612.25,153.62L619.13,151.09L626.01,154.34L632.89,153.75L639.77,151.12L646.64,154.08L653.52,153.36L660.4,150.65L667.28,153.92L674.16,153.18L681.04,150.96L687.92,154.05L694.8,153.61L701.68,151.14L708.56,154.23L715.44,153.73L722.32,151.16L729.19,154.34L736.07,153.41L742.95,150.86L749.83,154.12L756.71,153.49L763.59,151.18L770.47,154.18L777.35,153.81L784.23,151.12L791.11,154.11L797.99,153.38L804.87,150.8L811.74,153.97L818.62,153.47L825.5,151.14L832.38,154.26L839.26,153.92L846.14,151.44L853.02,154.31L859.9,153.72L866.78,151.03L873.66,153.99L880.54,153.71L887.42,151.11L894.3,153.99L901.17,153.44L908.05,151.3L914.93,154.13L921.81,153.57L928.69,151.29L935.57,153.98L942.45,153.45L949.33,151.04L956.21,154.03L963.09,153.39L969.97,151.16L976.85,153.86L983.72,153.31L990.6,151.03L997.48,153.75L1004.36,153.22L1011.24,150.96L1018.12,153.75L1025,153.27" style="vector-effect: none; fill: none; stroke: rgb(228, 211, 84); stroke-opacity: 1; stroke-width: 2px; opacity: 1;"/></g><g class="points"/><g class="text"/></g><g class="trace scatter tracea1dc42" style="stroke-miterlimit: 2; opacity: 1;"><g class="fills"/><g class="errorbars"/><g class="lines"><path class="js-line" d="M0,99.65L6.88,188.34L13.76,172.04L20.64,158.82L27.52,161.74L34.4,170.47L41.28,175.25L48.15,166.58L55.03,163.33L61.91,177.31L68.79,141.36L75.67,147.78L82.55,162.78L89.43,161.55L96.31,168.46L103.19,157.22L110.07,160.28L116.95,166.55L123.83,156.42L130.7,168.1L137.58,160.05L144.46,164.88L151.34,168.73L158.22,160.77L165.1,165.11L171.98,161.44L178.86,160.72L185.74,165.25L192.62,161.22L199.5,168.09L206.38,157.7L213.26,168.73L220.13,160.69L227.01,157.95L233.89,169.01L240.77,168.16L247.65,165.18L254.53,161.51L261.41,160.7L268.29,165.27L275.17,168.71L282.05,168.07L288.93,164.97L295.81,161.53L302.68,168.04L309.56,162.88L316.44,161.55L323.32,167.4L330.2,161.64L337.08,167.2L343.96,160.64L350.84,159.39L357.72,161.38L364.6,161.25L371.48,164.8L378.36,163.48L385.23,167.76L392.11,165.11L398.99,164.75L405.87,167.73L412.75,163.33L419.63,164.55L426.51,167.87L433.39,165.22L440.27,167.95L447.15,162.75L454.03,164.84L460.91,168.68L467.79,167.76L474.66,164.82L481.54,167.55L488.42,161.61L495.3,157.89L502.18,161.35L509.06,160.45L515.94,157.53L522.82,161.04L529.7,160.42L536.58,157.68L543.46,161.41L550.34,160.68L557.21,157.98L564.09,161.47L570.97,160.54L577.85,157.72L584.73,161.17L591.61,160.36L598.49,157.75L605.37,161.19L612.25,160.64L619.13,157.81L626.01,161.58L632.89,160.68L639.77,157.98L646.64,161.3L653.52,160.55L660.4,157.59L667.28,161.09L674.16,160.28L681.04,157.89L687.92,161.36L694.8,160.77L701.68,158.01L708.56,161.47L715.44,160.69L722.32,158.03L729.19,161.51L736.07,160.48L742.95,157.76L749.83,161.28L756.71,160.56L763.59,158.06L770.47,161.42L777.35,160.84L784.23,157.96L791.11,161.42L797.99,160.47L804.87,157.77L811.74,161.11L818.62,160.57L825.5,157.96L832.38,161.5L839.26,160.89L846.14,158.35L853.02,161.55L859.9,160.77L866.78,157.92L873.66,161.37L880.54,160.69L887.42,158.23L894.3,161.36L901.17,160.74L908.05,158.33L914.93,161.52L921.81,160.77L928.69,158.27L935.57,161.39L942.45,160.77L949.33,158.24L956.21,161.57L963.09,160.86L969.97,158.42L976.85,161.57L983.72,160.73L990.6,158.27L997.48,161.49L1004.36,160.73L1011.24,158.34L1018.12,161.39L1025,160.87" style="vector-effect: none; fill: none; stroke: rgb(43, 144, 143); stroke-opacity: 1; stroke-width: 2px; opacity: 1;"/></g><g class="points"/><g class="text"/></g><g class="trace scatter traceb7694e" style="stroke-miterlimit: 2; opacity: 1;"><g class="fills"/><g class="errorbars"/><g class="lines"><path class="js-line" d="M0,114.22L6.88,200.61L13.76,185.66L20.64,176.9L27.52,179.19L34.4,189.82L41.28,189.98L48.15,178.23L55.03,181.46L61.91,191.97L68.79,158.34L75.67,165.37L82.55,176.94L89.43,181.21L96.31,181.65L103.19,177.57L110.07,179.13L116.95,179.33L123.83,176.5L130.7,180.94L137.58,179.18L144.46,178.77L151.34,181.64L158.22,180.02L165.1,179.19L171.98,180.59L178.86,179.89L185.74,179.12L192.62,180.17L199.5,180.89L206.38,177.86L213.26,181.77L220.13,180.04L227.01,178.02L233.89,181.92L240.77,181.14L247.65,178.1L254.53,180.68L261.41,181.13L268.29,179.1L275.17,180.43L282.05,181.03L288.93,179.08L295.81,180.64L302.68,181.2L309.56,178.33L316.44,180.79L323.32,181.08L330.2,179.18L337.08,181.69L343.96,179.84L350.84,178.08L357.72,180.49L371.48,179.26L378.36,180.87L385.23,181.24L392.11,179.5L398.99,180.98L405.87,181.35L412.75,178.37L419.63,180.89L426.51,181.18L433.39,179.34L440.27,181.15L447.15,180.74L454.03,179.43L460.91,181.95L467.79,181.32L474.66,179.42L481.54,181.9L488.42,180.2L495.3,178.21L502.18,180.63L509.06,180L515.94,178.09L522.82,180.57L529.7,179.94L536.58,178.24L543.46,180.81L550.34,180.14L557.21,178.45L564.09,180.89L570.97,180.14L577.85,178.15L584.73,180.53L591.61,179.93L598.49,178.19L605.37,180.64L612.25,180.13L619.13,178.29L626.01,180.86L632.89,180.17L639.77,178.31L646.64,180.74L653.52,180.04L660.4,178.16L667.28,180.57L674.16,179.98L681.04,178.29L687.92,180.72L694.8,180.26L701.68,178.4L708.56,180.87L715.44,180.23L722.32,178.47L729.19,180.98L736.07,179.95L742.95,178.27L749.83,180.74L756.71,180.13L763.59,178.43L770.47,180.78L777.35,180.39L784.23,178.22L791.11,180.73L797.99,180.05L804.87,178.22L811.74,180.52L818.62,180.04L825.5,178.34L832.38,180.77L839.26,180.25L846.14,178.58L853.02,180.92L859.9,180.18L866.78,178.33L873.66,180.62L880.54,180.18L887.42,178.38L894.3,180.72L901.17,180.17L908.05,178.49L914.93,180.7L921.81,180.08L928.69,178.44L935.57,180.75L942.45,180.12L949.33,178.36L956.21,180.69L963.09,180.09L969.97,178.42L976.85,180.66L983.72,180.08L990.6,178.38L997.48,180.7L1004.36,180.09L1011.24,178.41L1018.12,180.6L1025,180.02" style="vector-effect: none; fill: none; stroke: rgb(244, 91, 91); stroke-opacity: 1; stroke-width: 2px; opacity: 1;"/></g><g class="points"/><g class="text"/></g><g class="trace scatter trace8437d3" style="stroke-miterlimit: 2; opacity: 1;"><g class="fills"/><g class="errorbars"/><g class="lines"><path class="js-line" d="M0,104.61L6.88,186.69L13.76,171.13L20.64,161.44L27.52,164.67L34.4,173.45L41.28,173.03L48.15,163.66L55.03,166.41L61.91,176.93L68.79,145.27L75.67,151.63L82.55,162.18L89.43,166.35L96.31,167.16L103.19,161.52L110.07,164.23L116.95,164.91L123.83,160.48L130.7,166.78L137.58,163.97L144.46,163.85L151.34,167.58L158.22,164.83L165.1,164.26L171.98,165.7L178.86,164.78L185.74,164.22L192.62,165.39L199.5,166.81L206.38,162.18L213.26,167.8L220.13,165.05L227.01,162.57L233.89,166.11L247.65,164.3L254.53,165.83L268.29,164.25L275.17,165.74L282.05,166.82L288.93,164.18L302.68,166.96L309.56,163.88L316.44,165.92L323.32,166.89L330.2,163.77L337.08,167.41L350.84,162.67L357.72,165.76L371.48,164.24L378.36,166.25L385.23,166.83L392.11,164.44L398.99,166.42L405.87,166.82L412.75,163.5L419.63,166.57L426.51,166.95L433.39,164.49L440.27,167.49L447.15,165.82L454.03,164.22L460.91,167.74L467.79,166.74L474.66,164.32L481.54,167.59L488.42,165.21L495.3,162.56L502.18,165.87L509.06,165.02L515.94,162.29L522.82,165.59L529.7,164.86L536.58,162.27L543.46,165.85L550.34,165.11L557.21,162.67L564.09,166.13L570.97,165.02L577.85,162.42L584.73,165.62L591.61,164.69L598.49,162.4L605.37,165.63L612.25,164.93L619.13,162.53L626.01,166.09L632.89,165.15L639.77,162.67L646.64,165.95L653.52,164.8L660.4,162.32L667.28,165.68L674.16,164.77L681.04,162.49L687.92,165.79L694.8,165.15L701.68,162.69L708.56,165.95L715.44,165.1L722.32,162.81L729.19,166.2L736.07,164.9L742.95,162.45L749.83,165.81L756.71,164.9L763.59,162.81L770.47,165.9L777.35,165.28L784.23,162.65L791.11,165.98L797.99,164.77L804.87,162.58L811.74,165.59L818.62,164.93L825.5,162.75L832.38,166.16L839.26,165.31L846.14,163.23L853.02,166.15L859.9,165.17L866.78,162.72L873.66,165.88L880.54,165.14L887.42,162.99L894.3,166.08L901.17,165.2L908.05,163.05L914.93,166.22L921.81,165.3L928.69,163.04L935.57,165.93L942.45,165.15L949.33,163.03L956.21,166.16L963.09,165.26L969.97,163.15L976.85,166.13L983.72,165.13L990.6,163.07L997.48,166L1004.36,165.09L1011.24,163.08L1018.12,165.92L1025,165.21" style="vector-effect: none; fill: none; stroke: rgb(145, 232, 225); stroke-opacity: 1; stroke-width: 2px; opacity: 1;"/></g><g class="points"/><g class="text"/></g></g></g></g><g class="zerolinelayer-above"/><path class="xlines-above crisp" d="M0,0" style="fill: none;"/><path class="ylines-above crisp" d="M0,0" style="fill: none;"/><g class="overlines-above"/><g class="xaxislayer-above"><g class="xtick"><text text-anchor="middle" x="0" y="451" transform="translate(190.7,0)" style="font-family: 'Lucida Grande', 'Open Sans', verdana, arial, sans-serif; font-size: 10px; fill: rgb(0, 0, 0); fill-opacity: 1; white-space: pre;">20</text></g><g class="xtick"><text text-anchor="middle" x="0" y="451" style="font-family: 'Lucida Grande', 'Open Sans', verdana, arial, sans-serif; font-size: 10px; fill: rgb(0, 0, 0); fill-opacity: 1; white-space: pre;" transform="translate(328.29,0)">40</text></g><g class="xtick"><text text-anchor="middle" x="0" y="451" style="font-family: 'Lucida Grande', 'Open Sans', verdana, arial, sans-serif; font-size: 10px; fill: rgb(0, 0, 0); fill-opacity: 1; white-space: pre;" transform="translate(465.87,0)">60</text></g><g class="xtick"><text text-anchor="middle" x="0" y="451" style="font-family: 'Lucida Grande', 'Open Sans', verdana, arial, sans-serif; font-size: 10px; fill: rgb(0, 0, 0); fill-opacity: 1; white-space: pre;" transform="translate(603.46,0)">80</text></g><g class="xtick"><text text-anchor="middle" x="0" y="451" style="font-family: 'Lucida Grande', 'Open Sans', verdana, arial, sans-serif; font-size: 10px; fill: rgb(0, 0, 0); fill-opacity: 1; white-space: pre;" transform="translate(741.04,0)">100</text></g><g class="xtick"><text text-anchor="middle" x="0" y="451" style="font-family: 'Lucida Grande', 'Open Sans', verdana, arial, sans-serif; font-size: 10px; fill: rgb(0, 0, 0); fill-opacity: 1; white-space: pre;" transform="translate(878.62,0)">120</text></g><g class="xtick"><text text-anchor="middle" x="0" y="451" style="font-family: 'Lucida Grande', 'Open Sans', verdana, arial, sans-serif; font-size: 10px; fill: rgb(0, 0, 0); fill-opacity: 1; white-space: pre;" transform="translate(1016.21,0)">140</text></g></g><g class="yaxislayer-above"><g class="ytick"><text text-anchor="end" x="54" y="3.5" transform="translate(0,435)" style="font-family: 'Lucida Grande', 'Open Sans', verdana, arial, sans-serif; font-size: 10px; fill: rgb(0, 0, 0); fill-opacity: 1; white-space: pre;">0%</text></g><g class="ytick"><text text-anchor="end" x="54" y="3.5" style="font-family: 'Lucida Grande', 'Open Sans', verdana, arial, sans-serif; font-size: 10px; fill: rgb(0, 0, 0); fill-opacity: 1; white-space: pre;" transform="translate(0,358)">20%</text></g><g class="ytick"><text text-anchor="end" x="54" y="3.5" style="font-family: 'Lucida Grande', 'Open Sans', verdana, arial, sans-serif; font-size: 10px; fill: rgb(0, 0, 0); fill-opacity: 1; white-space: pre;" transform="translate(0,281)">40%</text></g><g class="ytick"><text text-anchor="end" x="54" y="3.5" style="font-family: 'Lucida Grande', 'Open Sans', verdana, arial, sans-serif; font-size: 10px; fill: rgb(0, 0, 0); fill-opacity: 1; white-space: pre;" transform="translate(0,204)">60%</text></g><g class="ytick"><text text-anchor="end" x="54" y="3.5" style="font-family: 'Lucida Grande', 'Open Sans', verdana, arial, sans-serif; font-size: 10px; fill: rgb(0, 0, 0); fill-opacity: 1; white-space: pre;" transform="translate(0,127)">80%</text></g><g class="ytick"><text text-anchor="end" x="54" y="3.5" style="font-family: 'Lucida Grande', 'Open Sans', verdana, arial, sans-serif; font-size: 10px; fill: rgb(0, 0, 0); fill-opacity: 1; white-space: pre;" transform="translate(0,50)">100%</text></g></g><g class="overaxes-above"/></g></g><g class="polarlayer"/><g class="smithlayer"/><g class="ternarylayer"/><g class="geolayer"/><g class="funnelarealayer"/><g class="pielayer"/><g class="iciclelayer"/><g class="treemaplayer"/><g class="sunburstlayer"/><g class="glimages"/><defs id="topdefs-d9c32c"><g class="clips"/></defs><g class="layer-above"><g class="imagelayer"/><g class="shapelayer"/></g><g class="infolayer"><g class="g-gtitle"><text class="gtitle" x="550" y="25" text-anchor="middle" dy="0em" style="opacity: 1; font-family: 'Lucida Grande', 'Open Sans', verdana, arial, sans-serif; font-size: 20px; fill: rgb(68, 68, 68); fill-opacity: 1; white-space: pre;"><tspan class="line" dy="0em" x="550" y="25">Fastp: Read GC Content</tspan><tspan class="line" dy="1.3em" x="550" y="25">​<tspan style="font-size:70%" dy="-0.6em">Read 1: Before filtering, 10 lines</tspan><tspan dy="0.42em">​</tspan></tspan></text></g><g class="g-xtitle"><text class="xtitle" x="572.5" y="487" text-anchor="middle" style="opacity: 0.3; font-family: 'Lucida Grande', 'Open Sans', verdana, arial, sans-serif; font-size: 14px; fill: rgb(0, 0, 0); fill-opacity: 1; white-space: pre;">Read Position</text></g><g class="g-ytitle"><text class="ytitle" transform="rotate(-90,22,242.5)" x="22" y="242.5" text-anchor="middle" style="opacity: 0.3; font-family: 'Lucida Grande', 'Open Sans', verdana, arial, sans-serif; font-size: 14px; fill: rgb(0, 0, 0); fill-opacity: 1; white-space: pre;">R1 Before filtering: Base Content Percent</text></g></g></svg>