<svg class="main-svg" xmlns="http://www.w3.org/2000/svg" xmlns:xlink="http://www.w3.org/1999/xlink" width="2200" height="1000" style="" viewBox="0 0 1100 500"><rect x="0" y="0" width="1100" height="500" style="fill: rgb(255, 255, 255); fill-opacity: 1;"/><defs id="defs-1e8160"><g class="clips"><clipPath id="clip1e8160xyplot" class="plotclip"><rect width="1014" height="385"/></clipPath><clipPath class="axesclip" id="clip1e8160x"><rect x="60" y="0" width="1014" height="500"/></clipPath><clipPath class="axesclip" id="clip1e8160y"><rect x="0" y="50" width="1100" height="385"/></clipPath><clipPath class="axesclip" id="clip1e8160xy"><rect x="60" y="50" width="1014" height="385"/></clipPath></g><g class="gradients"/><g class="patterns"/></defs><g class="bglayer"/><g class="layer-below"><g class="imagelayer"/><g class="shapelayer"/></g><g class="cartesianlayer"><g class="subplot xy"><g class="layer-subplot"><g class="shapelayer"/><g class="imagelayer"/></g><g class="minor-gridlayer"><g class="x"/><g class="y"/></g><g class="gridlayer"><g class="x"><path class="xgrid crisp" transform="translate(262.8,0)" d="M0,50v385" style="stroke: rgb(0, 0, 0); stroke-opacity: 0.05; stroke-width: 1px;"/><path class="xgrid crisp" transform="translate(465.6,0)" d="M0,50v385" style="stroke: rgb(0, 0, 0); stroke-opacity: 0.05; stroke-width: 1px;"/><path class="xgrid crisp" transform="translate(668.4,0)" d="M0,50v385" style="stroke: rgb(0, 0, 0); stroke-opacity: 0.05; stroke-width: 1px;"/><path class="xgrid crisp" transform="translate(871.2,0)" d="M0,50v385" style="stroke: rgb(0, 0, 0); stroke-opacity: 0.05; stroke-width: 1px;"/></g><g class="y"><path class="ygrid crisp" transform="translate(0,378.5)" d="M60,0h1014" style="stroke: rgb(0, 0, 0); stroke-opacity: 0.05; stroke-width: 1px;"/><path class="ygrid crisp" transform="translate(0,321.99)" d="M60,0h1014" style="stroke: rgb(0, 0, 0); stroke-opacity: 0.05; stroke-width: 1px;"/><path class="ygrid crisp" transform="translate(0,265.49)" d="M60,0h1014" style="stroke: rgb(0, 0, 0); stroke-opacity: 0.05; stroke-width: 1px;"/><path class="ygrid crisp" transform="translate(0,208.98)" d="M60,0h1014" style="stroke: rgb(0, 0, 0); stroke-opacity: 0.05; stroke-width: 1px;"/><path class="ygrid crisp" transform="translate(0,152.48000000000002)" d="M60,0h1014" style="stroke: rgb(0, 0, 0); stroke-opacity: 0.05; stroke-width: 1px;"/><path class="ygrid crisp" transform="translate(0,95.97999999999999)" d="M60,0h1014" style="stroke: rgb(0, 0, 0); stroke-opacity: 0.05; stroke-width: 1px;"/></g></g><g class="zerolinelayer"><path class="xzl zl crisp" transform="translate(60,0)" d="M0,50v385" style="stroke: rgb(0, 0, 0); stroke-opacity: 0.05; stroke-width: 1px;"/><path class="yzl zl crisp" transform="translate(0,435)" d="M60,0h1014" style="stroke: rgb(0, 0, 0); stroke-opacity: 0.05; stroke-width: 1px;"/></g><g class="layer-between"><g class="shapelayer"/><g class="imagelayer"/></g><path class="xlines-below"/><path class="ylines-below"/><g class="overlines-below"/><g class="xaxislayer-below"/><g class="yaxislayer-below"/><g class="overaxes-below"/><g class="overplot"><g class="xy" transform="translate(60,50)" clip-path="url(#clip1e8160xyplot)"><g class="scatterlayer mlayer"><g class="trace scatter trace8849db" style="stroke-miterlimit: 2; opacity: 1;"><g class="fills"/><g class="errorbars"/><g class="lines"><path class="js-line" d="M0,385L202.8,384.46L212.94,384.24L243.36,382.98L253.5,382.28L283.92,379.72L294.06,378.42L314.34,375.2L324.48,373.15L344.76,368.15L354.9,365.11L375.18,357.7L385.32,353.16L395.46,347.73L405.6,341.16L415.74,333.08L425.88,322.99L436.02,311.31L446.16,297.91L456.3,282.52L466.44,265.54L486.72,227.71L496.86,207.99L517.14,167.97L527.28,150.5L537.42,135.53L547.56,123.65L557.7,115.36L567.84,110.59L577.98,109.93L588.12,113.71L598.26,121.62L608.4,133.12L618.54,148.11L628.68,166.31L648.96,208.05L659.1,230.09L679.38,272.13L689.52,291.46L699.66,308.7L709.8,324.18L719.94,337.23L730.08,348.09L740.22,356.97L750.36,364.19L760.5,370.01L770.64,374.44L780.78,377.81L790.92,380.21L811.2,382.97L821.34,383.72L851.76,384.73L861.9,384.83L983.58,384.98L993.72,384.95L1014,384.97" style="vector-effect: none; fill: none; stroke: rgb(92, 184, 92); stroke-opacity: 1; stroke-width: 2px; opacity: 1;"/></g><g class="points"/><g class="text"/></g><g class="trace scatter trace1e211a" style="stroke-miterlimit: 2; opacity: 1;"><g class="fills"/><g class="errorbars"/><g class="lines"><path class="js-line" d="M0,385L202.8,384.41L212.94,384.21L243.36,382.79L253.5,382.02L283.92,379.41L294.06,378.21L314.34,374.82L324.48,372.78L344.76,367.57L354.9,364.41L375.18,356.95L385.32,352.27L395.46,346.77L405.6,340.02L415.74,331.72L425.88,321.81L436.02,310.13L446.16,296.71L456.3,281.48L466.44,264.72L486.72,227.34L496.86,207.25L517.14,167.94L527.28,150.41L537.42,135.59L547.56,123.96L557.7,115.41L567.84,110.97L577.98,111.02L588.12,114.97L598.26,123.04L608.4,134.6L618.54,149.99L628.68,168.25L648.96,209.61L659.1,231.4L679.38,273.69L689.52,292.85L699.66,310.02L709.8,325.14L719.94,338.11L730.08,348.96L740.22,357.62L750.36,364.64L760.5,370.29L770.64,374.66L780.78,377.93L790.92,380.25L811.2,383.05L821.34,383.78L851.76,384.73L861.9,384.83L993.72,384.89L1003.86,384.64L1014,378.25" style="vector-effect: none; fill: none; stroke: rgb(92, 184, 92); stroke-opacity: 1; stroke-width: 2px; opacity: 1;"/></g><g class="points"/><g class="text"/></g><g class="trace scatter trace30423c" style="stroke-miterlimit: 2; opacity: 1;"><g class="fills"/><g class="errorbars"/><g class="lines"><path class="js-line" d="M0,385L202.8,384.45L212.94,384.22L243.36,382.93L253.5,382.25L283.92,379.65L294.06,378.32L324.48,372.87L334.62,370.48L365.04,361.76L375.18,358.37L395.46,350.35L405.6,345.49L415.74,339.5L425.88,332.29L436.02,324.02L446.16,314.42L456.3,302.84L466.44,289.47L476.58,274.53L486.72,257.43L496.86,238.46L507,217.76L537.42,153.84L547.56,135.41L557.7,119.23L567.84,106.17L577.98,97.45L588.12,94.58L598.26,97.11L608.4,104.85L618.54,117.95L628.68,135.61L638.82,157.13L648.96,181.08L679.38,256.78L689.52,279.6L699.66,300.16L709.8,318.14L719.94,333.18L730.08,345.51L740.22,355.38L750.36,363.27L760.5,369.57L770.64,374.31L780.78,377.74L790.92,380.21L811.2,383.06L821.34,383.8L851.76,384.75L861.9,384.85L1003.86,384.96L1014,384.98" style="vector-effect: none; fill: none; stroke: rgb(92, 184, 92); stroke-opacity: 1; stroke-width: 2px; opacity: 1;"/></g><g class="points"/><g class="text"/></g><g class="trace scatter tracebf3ac6" style="stroke-miterlimit: 2; opacity: 1;"><g class="fills"/><g class="errorbars"/><g class="lines"><path class="js-line" d="M0,385L202.8,384.45L212.94,384.21L243.36,382.8L253.5,382.07L283.92,379.48L294.06,378.15L314.34,374.86L324.48,372.66L354.9,364.61L365.04,361.49L385.32,354.09L395.46,349.76L405.6,344.76L415.74,338.73L425.88,331.45L436.02,323.08L446.16,313.28L456.3,301.92L466.44,288.67L476.58,273.45L486.72,256.69L496.86,237.83L517.14,195.75L527.28,174.23L537.42,153.97L547.56,135.66L557.7,119.2L567.84,106.17L577.98,98.33L588.12,95.54L598.26,97.93L608.4,105.84L618.54,119.05L628.68,137L638.82,158.48L648.96,182.61L679.38,258.22L689.52,280.98L699.66,301.4L709.8,319.13L719.94,334.14L730.08,346.37L740.22,356.2L750.36,363.86L760.5,369.84L770.64,374.54L780.78,377.95L790.92,380.37L811.2,383.11L821.34,383.82L851.76,384.75L861.9,384.85L993.72,384.88L1003.86,384.6L1014,377.56" style="vector-effect: none; fill: none; stroke: rgb(240, 173, 78); stroke-opacity: 1; stroke-width: 2px; opacity: 1;"/></g><g class="points"/><g class="text"/></g><g class="trace scatter trace32ae89" style="stroke-miterlimit: 2; opacity: 1;"><g class="fills"/><g class="errorbars"/><g class="lines"><path class="js-line" d="M0,385L202.8,384.46L212.94,384.22L243.36,382.66L253.5,381.69L273.78,379.25L283.92,377.41L304.2,371.71L314.34,367.78L324.48,362.92L334.62,357.2L344.76,350.48L354.9,342.6L365.04,333.93L375.18,324.27L395.46,302.8L405.6,290.95L456.3,228.96L466.44,217.26L476.58,206.22L486.72,196.42L507,179.08L517.14,172.12L527.28,166.63L537.42,163.14L547.56,161.02L557.7,159.85L567.84,159.92L577.98,161.89L588.12,166.22L598.26,173.55L608.4,183.63L618.54,196L638.82,225.63L648.96,242.98L679.38,294.63L689.52,309.94L699.66,324.03L709.8,336.42L719.94,346.91L730.08,355.45L740.22,362.45L750.36,368.24L760.5,372.77L770.64,376.33L780.78,379.04L790.92,380.93L811.2,383.27L821.34,383.92L861.9,384.85L872.04,384.91L1014,384.96" style="vector-effect: none; fill: none; stroke: rgb(92, 184, 92); stroke-opacity: 1; stroke-width: 2px; opacity: 1;"/></g><g class="points"/><g class="text"/></g><g class="trace scatter trace0db8cc" style="stroke-miterlimit: 2; opacity: 1;"><g class="fills"/><g class="errorbars"/><g class="lines"><path class="js-line" d="M0,385L202.8,384.42L212.94,384.18L233.22,383.3L243.36,382.18L273.78,378.78L283.92,376.91L294.06,374.56L304.2,371.26L314.34,367.23L324.48,362.31L334.62,356.48L344.76,349.74L365.04,333.25L375.18,323.81L395.46,302.1L405.6,290.31L446.16,240.85L456.3,228.79L476.58,206.25L486.72,196.85L507,179.73L517.14,172.58L527.28,166.96L537.42,163.62L547.56,161.27L557.7,160.08L567.84,160.46L577.98,162.66L588.12,167.19L598.26,174.46L608.4,184.16L618.54,196.67L638.82,227.3L648.96,244.46L679.38,295.77L689.52,310.77L699.66,324.74L709.8,336.96L719.94,347.27L730.08,355.9L740.22,362.86L750.36,368.44L760.5,373L770.64,376.48L790.92,380.97L801.06,382.34L821.34,383.92L831.48,384.34L882.18,384.92L892.32,384.94L1003.86,384.61L1014,378.28" style="vector-effect: none; fill: none; stroke: rgb(92, 184, 92); stroke-opacity: 1; stroke-width: 2px; opacity: 1;"/></g><g class="points"/><g class="text"/></g><g class="trace scatter tracea92599" style="stroke-miterlimit: 2; opacity: 1;"><g class="fills"/><g class="errorbars"/><g class="lines"><path class="js-line" d="M0,385L212.94,384.26L223.08,384L253.5,382.4L263.64,381.76L294.06,378.95L304.2,377.53L334.62,371.4L344.76,368.69L375.18,359.37L385.32,355.81L395.46,351.75L405.6,346.74L415.74,340.63L425.88,333.14L436.02,324.57L446.16,314.8L456.3,303.04L466.44,289.55L486.72,258.03L496.86,240.58L537.42,165.82L547.56,150.13L557.7,135.76L567.84,123.82L577.98,115.92L588.12,111.68L598.26,112.2L608.4,116.89L618.54,125.4L628.68,138.08L638.82,154.4L648.96,173.62L669.24,217.57L679.38,240.13L699.66,282.6L709.8,301.74L719.94,318.72L730.08,333.07L740.22,345.04L750.36,355.11L760.5,363.24L770.64,369.49L780.78,374.3L790.92,377.83L811.2,382.01L821.34,383.15L841.62,384.36L851.76,384.6L922.74,384.98L932.88,384.98L1014,384.96" style="vector-effect: none; fill: none; stroke: rgb(92, 184, 92); stroke-opacity: 1; stroke-width: 2px; opacity: 1;"/></g><g class="points"/><g class="text"/></g><g class="trace scatter trace6fab19" style="stroke-miterlimit: 2; opacity: 1;"><g class="fills"/><g class="errorbars"/><g class="lines"><path class="js-line" d="M0,385L212.94,384.25L223.08,383.98L253.5,382.29L263.64,381.72L294.06,378.84L304.2,377.35L324.48,373.39L334.62,371.08L365.04,362.45L375.18,359.08L395.46,351.02L405.6,345.97L415.74,339.65L425.88,332.21L436.02,323.54L446.16,313.66L456.3,302.25L466.44,288.74L486.72,257.24L496.86,239.64L537.42,165.34L547.56,150.04L557.7,136.03L567.84,124.13L577.98,116.26L588.12,112.53L598.26,112.82L608.4,117.45L618.54,126.65L628.68,139.7L638.82,155.96L648.96,175.11L669.24,219.13L679.38,241.43L699.66,284.17L709.8,303.05L719.94,319.66L730.08,334.08L740.22,345.94L750.36,355.74L760.5,363.82L770.64,370.08L780.78,374.74L790.92,378.12L811.2,382.13L821.34,383.19L841.62,384.36L851.76,384.61L922.74,384.95L932.88,384.94L1003.86,384.67L1014,378.28" style="vector-effect: none; fill: none; stroke: rgb(92, 184, 92); stroke-opacity: 1; stroke-width: 2px; opacity: 1;"/></g><g class="points"/><g class="text"/></g><g class="trace scatter trace306bae" style="stroke-miterlimit: 2; opacity: 1;"><g class="fills"/><g class="errorbars"/><g class="lines"><path class="js-line" d="M0,385L212.94,384.25L223.08,383.93L253.5,382.33L263.64,381.72L294.06,379.01L304.2,377.74L324.48,374.27L334.62,372.13L354.9,366.42L365.04,362.64L385.32,352.82L395.46,346.52L405.6,339.1L415.74,330.28L425.88,319.95L436.02,308.38L446.16,295.36L456.3,280.68L476.58,247.04L486.72,229.35L517.14,173.23L527.28,156.83L537.42,141.84L547.56,129.41L557.7,119.96L567.84,113.08L577.98,109.93L588.12,111.5L598.26,117.53L608.4,127.85L618.54,142.67L628.68,160.55L638.82,181.15L648.96,203.93L669.24,249.87L679.38,271.39L689.52,291.24L699.66,309.39L709.8,325.35L719.94,338.74L730.08,349.61L740.22,358.11L750.36,364.97L760.5,370.44L770.64,374.62L780.78,377.8L801.06,381.83L811.2,382.95L841.62,384.53L851.76,384.72L953.16,384.99L963.3,384.99L1014,384.97" style="vector-effect: none; fill: none; stroke: rgb(92, 184, 92); stroke-opacity: 1; stroke-width: 2px; opacity: 1;"/></g><g class="points"/><g class="text"/></g><g class="trace scatter tracec8557c" style="stroke-miterlimit: 2; opacity: 1;"><g class="fills"/><g class="errorbars"/><g class="lines"><path class="js-line" d="M0,385L202.8,384.45L212.94,384.23L243.36,382.8L253.5,382.05L283.92,379.82L294.06,378.76L314.34,375.82L324.48,373.86L344.76,368.98L354.9,365.86L375.18,357.32L385.32,351.94L395.46,345.6L405.6,338.16L415.74,329.29L425.88,318.92L436.02,307.43L446.16,294.63L456.3,279.95L466.44,263.66L486.72,228.54L496.86,210.2L517.14,173.37L527.28,156.62L537.42,141.95L547.56,129.83L557.7,120.06L567.84,113.66L577.98,111.06L588.12,111.82L598.26,117.88L608.4,129.22L618.54,144.11L628.68,162.19L638.82,182.8L648.96,205.45L669.24,251.52L679.38,273.17L689.52,292.69L699.66,310.58L709.8,326.41L719.94,339.58L730.08,350.32L740.22,358.81L750.36,365.6L760.5,370.97L770.64,375.01L780.78,377.97L801.06,381.89L811.2,383L841.62,384.55L851.76,384.71L943.02,384.95L953.16,384.94L1003.86,384.59L1014,377.57" style="vector-effect: none; fill: none; stroke: rgb(92, 184, 92); stroke-opacity: 1; stroke-width: 2px; opacity: 1;"/></g><g class="points"/><g class="text"/></g><g class="trace scatter trace3ac91c" style="stroke-miterlimit: 2; opacity: 1;"><g class="fills"/><g class="errorbars"/><g class="lines"><path class="js-line" d="M0,385L212.94,384.43L223.08,384.21L253.5,382.8L263.64,382.16L283.92,380.52L294.06,379.11L314.34,375.27L324.48,372.57L344.76,365L354.9,359.86L365.04,353.55L375.18,345.58L385.32,336.31L395.46,325.42L405.6,312.56L415.74,298.19L456.3,232.78L466.44,216.42L476.58,201.26L486.72,187.75L507,164.29L517.14,154.68L527.28,147.08L537.42,141.95L547.56,139.17L557.7,137.92L567.84,138.49L577.98,142.23L588.12,149.22L598.26,158.91L608.4,171.19L618.54,185.93L628.68,202.55L638.82,220.79L669.24,276.86L679.38,294.33L689.52,310.04L699.66,324.29L709.8,336.93L719.94,347.48L730.08,356.34L740.22,363.52L750.36,369.19L760.5,373.64L770.64,377.04L780.78,379.58L801.06,382.72L811.2,383.59L841.62,384.7L851.76,384.83L963.3,384.99L973.44,384.99L1014,384.99" style="vector-effect: none; fill: none; stroke: rgb(92, 184, 92); stroke-opacity: 1; stroke-width: 2px; opacity: 1;"/></g><g class="points"/><g class="text"/></g><g class="trace scatter trace90305c" style="stroke-miterlimit: 2; opacity: 1;"><g class="fills"/><g class="errorbars"/><g class="lines"><path class="js-line" d="M0,385L212.94,384.42L223.08,384.22L253.5,382.57L263.64,382.01L294.06,378.85L304.2,377.15L324.48,372.04L334.62,368.68L344.76,364.47L354.9,359.31L365.04,352.88L375.18,344.98L385.32,335.72L395.46,324.56L405.6,311.72L415.74,297.4L436.02,265.35L446.16,248.87L476.58,201.09L486.72,187.7L507,164.36L517.14,154.93L527.28,147.84L537.42,142.76L547.56,139.31L557.7,138.18L567.84,139.19L577.98,142.62L588.12,149.76L598.26,159.81L608.4,172.02L618.54,186.97L638.82,222.02L648.96,240.7L679.38,295.3L689.52,311.08L699.66,325.15L709.8,337.59L719.94,348.3L730.08,356.93L740.22,363.8L750.36,369.38L760.5,373.75L770.64,377.24L790.92,381.52L801.06,382.77L821.34,384.11L831.48,384.46L882.18,384.95L892.32,384.96L1003.86,384.62L1014,377.82" style="vector-effect: none; fill: none; stroke: rgb(92, 184, 92); stroke-opacity: 1; stroke-width: 2px; opacity: 1;"/></g><g class="points"/><g class="text"/></g><g class="trace scatter tracebc2738" style="stroke-miterlimit: 2; opacity: 1;"><g class="fills"/><g class="errorbars"/><g class="lines"><path class="js-line" d="M0,385L233.22,384.33L243.36,384.05L304.2,381.49L314.34,380.74L344.76,377.56L354.9,376.28L395.46,370.56L405.6,368.71L425.88,363.43L436.02,360.02L446.16,355.74L456.3,350.03L466.44,342.82L476.58,333.59L486.72,321.75L496.86,306.15L507,285.72L517.14,260.73L527.28,231.86L537.42,199.55L567.84,93.3L577.98,61.63L588.12,37.13L598.26,23.02L608.4,19.25L618.54,27.39L628.68,45.81L638.82,71.57L648.96,104.38L659.1,140.97L679.38,215.18L689.52,249.01L699.66,278.85L709.8,304.51L719.94,325.25L730.08,340.96L740.22,352.7L750.36,361.88L760.5,368.6L770.64,373.56L780.78,377.23L790.92,379.93L811.2,382.95L821.34,383.71L851.76,384.74L861.9,384.85L993.72,384.94L1003.86,384.93L1014,384.95" style="vector-effect: none; fill: none; stroke: rgb(240, 173, 78); stroke-opacity: 1; stroke-width: 2px; opacity: 1;"/></g><g class="points"/><g class="text"/></g><g class="trace scatter trace49cb6d" style="stroke-miterlimit: 2; opacity: 1;"><g class="fills"/><g class="errorbars"/><g class="lines"><path class="js-line" d="M0,385L233.22,384.32L243.36,383.88L304.2,381.45L314.34,380.69L344.76,377.45L354.9,376.09L395.46,370.24L405.6,368.3L425.88,362.9L436.02,359.28L446.16,354.76L456.3,348.95L466.44,341.62L476.58,332.36L486.72,320.37L496.86,304.49L507,284.12L517.14,259.28L527.28,229.97L537.42,197.76L557.7,127.65L567.84,92.5L577.98,61.29L588.12,37.21L598.26,23.9L608.4,21.03L618.54,29.73L628.68,48.6L638.82,74.75L648.96,107.79L679.38,218.24L689.52,251.49L699.66,281.01L709.8,306.01L719.94,326.07L730.08,341.64L740.22,353.28L750.36,362.29L760.5,369.03L770.64,373.95L780.78,377.49L790.92,380.08L811.2,382.97L821.34,383.73L851.76,384.73L861.9,384.83L993.72,384.86L1003.86,384.48L1014,373.33" style="vector-effect: none; fill: none; stroke: rgb(240, 173, 78); stroke-opacity: 1; stroke-width: 2px; opacity: 1;"/></g><g class="points"/><g class="text"/></g><g class="trace scatter trace5bd356" style="stroke-miterlimit: 2; opacity: 1;"><g class="fills"/><g class="errorbars"/><g class="lines"><path class="js-line" d="M0,385L202.8,384.38L212.94,384.11L253.5,382.05L263.64,381.38L294.06,378.7L304.2,377.47L334.62,372.87L344.76,370.98L385.32,362.48L395.46,360.07L415.74,354.02L425.88,349.9L446.16,340.01L456.3,333.27L466.44,324.92L476.58,315.03L486.72,303.26L496.86,288.84L507,271.42L517.14,251.53L537.42,205.47L547.56,180.97L567.84,131.6L577.98,109.94L588.12,93.08L598.26,82.25L608.4,77.38L618.54,79.92L628.68,89.25L638.82,104.35L648.96,125.09L659.1,149.57L699.66,256.65L709.8,280.38L719.94,301.54L730.08,319.57L740.22,334.54L750.36,346.84L760.5,356.87L770.64,364.82L780.78,370.75L790.92,375.21L801.06,378.56L811.2,380.85L831.48,383.41L841.62,384.07L882.18,384.89L892.32,384.94L1014,384.97" style="vector-effect: none; fill: none; stroke: rgb(240, 173, 78); stroke-opacity: 1; stroke-width: 2px; opacity: 1;"/></g><g class="points"/><g class="text"/></g><g class="trace scatter trace03d33a" style="stroke-miterlimit: 2; opacity: 1;"><g class="fills"/><g class="errorbars"/><g class="lines"><path class="js-line" d="M0,385L202.8,384.37L212.94,384.11L243.36,382.57L253.5,381.81L283.92,379.53L294.06,378.62L324.48,374.33L334.62,372.6L375.18,364.45L385.32,362.02L405.6,356.57L415.74,353.17L436.02,344.34L446.16,338.72L456.3,331.96L466.44,323.61L476.58,313.51L486.72,301.45L496.86,286.91L507,269.67L517.14,250L527.28,227.98L547.56,179.57L557.7,154.62L567.84,130.77L577.98,109.87L588.12,93.93L598.26,83.67L608.4,79.38L618.54,82.34L628.68,91.74L638.82,107.21L648.96,128L659.1,152.33L699.66,259.12L709.8,282.42L719.94,303.15L730.08,321.08L740.22,335.82L750.36,347.87L760.5,357.64L770.64,365.47L780.78,371.36L790.92,375.68L801.06,378.91L811.2,381.08L831.48,383.49L841.62,384.12L882.18,384.87L892.32,384.91L993.72,384.85L1003.86,384.39L1014,371.9" style="vector-effect: none; fill: none; stroke: rgb(240, 173, 78); stroke-opacity: 1; stroke-width: 2px; opacity: 1;"/></g><g class="points"/><g class="text"/></g><g class="trace scatter tracea7ff67" style="stroke-miterlimit: 2; opacity: 1;"><g class="fills"/><g class="errorbars"/><g class="lines"><path class="js-line" d="M0,385L223.08,384.25L233.22,383.98L273.78,381.59L283.92,380.59L304.2,377.44L314.34,375.21L334.62,368.8L344.76,364.44L354.9,359.04L365.04,352.51L375.18,344.77L385.32,335.74L395.46,325.42L405.6,313.91L425.88,286.59L436.02,272.42L486.72,201.19L496.86,188.7L507,176.79L517.14,166.17L527.28,157.47L537.42,150.18L547.56,144.29L557.7,139.66L567.84,136.72L577.98,136.76L588.12,139.74L598.26,146.73L608.4,157.09L618.54,170.91L628.68,188.12L638.82,207.11L679.38,288.29L689.52,306.28L699.66,322.22L709.8,335.88L719.94,347.07L730.08,356.09L740.22,363.21L750.36,368.82L760.5,373.24L770.64,376.69L790.92,381.07L801.06,382.41L821.34,383.95L831.48,384.36L882.18,384.96L892.32,384.97L1014,384.97" style="vector-effect: none; fill: none; stroke: rgb(92, 184, 92); stroke-opacity: 1; stroke-width: 2px; opacity: 1;"/></g><g class="points"/><g class="text"/></g><g class="trace scatter tracef11919" style="stroke-miterlimit: 2; opacity: 1;"><g class="fills"/><g class="errorbars"/><g class="lines"><path class="js-line" d="M0,385L212.94,384.46L223.08,384.23L253.5,382.68L263.64,382.17L294.06,379.01L304.2,377.16L324.48,372L334.62,368.36L344.76,363.9L354.9,358.47L365.04,351.97L375.18,344.28L385.32,335.39L395.46,325.07L415.74,300.81L425.88,286.64L476.58,214.68L486.72,201.55L496.86,188.6L507,176.9L517.14,166.77L527.28,157.97L537.42,150.87L547.56,145.12L557.7,140.21L567.84,137.19L577.98,137.01L588.12,139.83L598.26,146.95L608.4,157.56L618.54,171.88L628.68,188.94L638.82,208.04L648.96,228.97L669.24,270.18L679.38,289.49L689.52,307.07L699.66,322.73L709.8,336.38L719.94,347.79L730.08,356.7L740.22,363.61L750.36,369.15L760.5,373.54L770.64,376.88L780.78,379.3L801.06,382.49L811.2,383.38L841.62,384.63L851.76,384.77L943.02,384.96L953.16,384.95L1003.86,384.56L1014,375.63" style="vector-effect: none; fill: none; stroke: rgb(92, 184, 92); stroke-opacity: 1; stroke-width: 2px; opacity: 1;"/></g><g class="points"/><g class="text"/></g><g class="trace scatter trace073e5b" style="stroke-miterlimit: 2; opacity: 1;"><g class="fills"/><g class="errorbars"/><g class="lines"><path class="js-line" d="M0,385L212.94,384.39L223.08,384.18L263.64,382.46L273.78,381.89L304.2,379.13L314.34,377.89L344.76,372.9L354.9,370.88L385.32,364.17L395.46,361.4L415.74,354.27L425.88,349.36L436.02,343.79L446.16,337.12L456.3,328.86L466.44,318.87L476.58,306.88L486.72,292.86L496.86,276.19L507,256.82L527.28,212.24L537.42,188.04L557.7,139.63L567.84,116.85L577.98,97.4L588.12,83.27L598.26,75.25L608.4,73.4L618.54,79.42L628.68,92.54L638.82,111.64L648.96,135.81L669.24,191.32L679.38,219.67L699.66,272.14L709.8,294.68L719.94,314.09L730.08,330.29L740.22,343.25L750.36,353.58L760.5,361.97L770.64,368.53L780.78,373.45L790.92,377.16L801.06,379.9L811.2,381.71L831.48,383.76L841.62,384.28L892.32,384.96L902.46,384.97L1014,384.97" style="vector-effect: none; fill: none; stroke: rgb(240, 173, 78); stroke-opacity: 1; stroke-width: 2px; opacity: 1;"/></g><g class="points"/><g class="text"/></g><g class="trace scatter tracec5208f" style="stroke-miterlimit: 2; opacity: 1;"><g class="fills"/><g class="errorbars"/><g class="lines"><path class="js-line" d="M0,385L212.94,384.37L223.08,384.17L263.64,382.37L273.78,381.73L304.2,378.98L314.34,377.76L344.76,372.8L354.9,370.76L385.32,363.72L395.46,360.81L415.74,353.65L425.88,348.69L436.02,342.95L446.16,336.23L456.3,328L466.44,317.96L476.58,305.88L486.72,291.82L496.86,275.31L507,256.01L527.28,211.4L537.42,187.41L567.84,115.74L577.98,97.32L588.12,83.51L598.26,75.73L608.4,74.81L618.54,81.34L628.68,94.83L638.82,113.78L648.96,137.76L659.1,164.72L689.52,248.76L699.66,273.7L709.8,296.06L719.94,315.33L730.08,331.33L740.22,344.11L750.36,354.31L760.5,362.46L770.64,368.91L780.78,373.81L790.92,377.44L801.06,380.04L821.34,382.99L831.48,383.8L861.9,384.75L872.04,384.84L993.72,384.88L1003.86,384.61L1014,376.52" style="vector-effect: none; fill: none; stroke: rgb(240, 173, 78); stroke-opacity: 1; stroke-width: 2px; opacity: 1;"/></g><g class="points"/><g class="text"/></g></g></g></g><g class="zerolinelayer-above"/><path class="xlines-above crisp" d="M0,0" style="fill: none;"/><path class="ylines-above crisp" d="M0,0" style="fill: none;"/><g class="overlines-above"/><g class="xaxislayer-above"><g class="xtick"><text text-anchor="middle" x="0" y="451" transform="translate(60,0)" style="font-family: 'Lucida Grande', 'Open Sans', verdana, arial, sans-serif; font-size: 10px; fill: rgb(0, 0, 0); fill-opacity: 1; white-space: pre;">0%</text></g><g class="xtick"><text text-anchor="middle" x="0" y="451" style="font-family: 'Lucida Grande', 'Open Sans', verdana, arial, sans-serif; font-size: 10px; fill: rgb(0, 0, 0); fill-opacity: 1; white-space: pre;" transform="translate(262.8,0)">20%</text></g><g class="xtick"><text text-anchor="middle" x="0" y="451" style="font-family: 'Lucida Grande', 'Open Sans', verdana, arial, sans-serif; font-size: 10px; fill: rgb(0, 0, 0); fill-opacity: 1; white-space: pre;" transform="translate(465.6,0)">40%</text></g><g class="xtick"><text text-anchor="middle" x="0" y="451" style="font-family: 'Lucida Grande', 'Open Sans', verdana, arial, sans-serif; font-size: 10px; fill: rgb(0, 0, 0); fill-opacity: 1; white-space: pre;" transform="translate(668.4,0)">60%</text></g><g class="xtick"><text text-anchor="middle" x="0" y="451" style="font-family: 'Lucida Grande', 'Open Sans', verdana, arial, sans-serif; font-size: 10px; fill: rgb(0, 0, 0); fill-opacity: 1; white-space: pre;" transform="translate(871.2,0)">80%</text></g><g class="xtick"><text text-anchor="middle" x="0" y="451" style="font-family: 'Lucida Grande', 'Open Sans', verdana, arial, sans-serif; font-size: 10px; fill: rgb(0, 0, 0); fill-opacity: 1; white-space: pre;" transform="translate(1074,0)">100%</text></g></g><g class="yaxislayer-above"><g class="ytick"><text text-anchor="end" x="54" y="3.5" transform="translate(0,435)" style="font-family: 'Lucida Grande', 'Open Sans', verdana, arial, sans-serif; font-size: 10px; fill: rgb(0, 0, 0); fill-opacity: 1; white-space: pre;">0%</text></g><g class="ytick"><text text-anchor="end" x="54" y="3.5" style="font-family: 'Lucida Grande', 'Open Sans', verdana, arial, sans-serif; font-size: 10px; fill: rgb(0, 0, 0); fill-opacity: 1; white-space: pre;" transform="translate(0,378.5)">1%</text></g><g class="ytick"><text text-anchor="end" x="54" y="3.5" style="font-family: 'Lucida Grande', 'Open Sans', verdana, arial, sans-serif; font-size: 10px; fill: rgb(0, 0, 0); fill-opacity: 1; white-space: pre;" transform="translate(0,321.99)">2%</text></g><g class="ytick"><text text-anchor="end" x="54" y="3.5" style="font-family: 'Lucida Grande', 'Open Sans', verdana, arial, sans-serif; font-size: 10px; fill: rgb(0, 0, 0); fill-opacity: 1; white-space: pre;" transform="translate(0,265.49)">3%</text></g><g class="ytick"><text text-anchor="end" x="54" y="3.5" style="font-family: 'Lucida Grande', 'Open Sans', verdana, arial, sans-serif; font-size: 10px; fill: rgb(0, 0, 0); fill-opacity: 1; white-space: pre;" transform="translate(0,208.98)">4%</text></g><g class="ytick"><text text-anchor="end" x="54" y="3.5" style="font-family: 'Lucida Grande', 'Open Sans', verdana, arial, sans-serif; font-size: 10px; fill: rgb(0, 0, 0); fill-opacity: 1; white-space: pre;" transform="translate(0,152.48000000000002)">5%</text></g><g class="ytick"><text text-anchor="end" x="54" y="3.5" style="font-family: 'Lucida Grande', 'Open Sans', verdana, arial, sans-serif; font-size: 10px; fill: rgb(0, 0, 0); fill-opacity: 1; white-space: pre;" transform="translate(0,95.97999999999999)">6%</text></g></g><g class="overaxes-above"/></g></g><g class="polarlayer"/><g class="smithlayer"/><g class="ternarylayer"/><g class="geolayer"/><g class="funnelarealayer"/><g class="pielayer"/><g class="iciclelayer"/><g class="treemaplayer"/><g class="sunburstlayer"/><g class="glimages"/><defs id="topdefs-1e8160"><g class="clips"/></defs><g class="layer-above"><g class="imagelayer"/><g class="shapelayer"/></g><g class="infolayer"><g class="g-gtitle"><text class="gtitle" x="550" y="25" text-anchor="middle" dy="0em" style="opacity: 1; font-family: 'Lucida Grande', 'Open Sans', verdana, arial, sans-serif; font-size: 20px; fill: rgb(68, 68, 68); fill-opacity: 1; white-space: pre;"><tspan class="line" dy="0em" x="550" y="25">FastQC: Per Sequence GC Content</tspan><tspan class="line" dy="1.3em" x="550" y="25">​<tspan style="font-size:70%" dy="-0.6em">Percentages, 20 lines</tspan><tspan dy="0.42em">​</tspan></tspan></text></g><g class="g-xtitle"><text class="xtitle" x="567" y="487" text-anchor="middle" style="opacity: 0.3; font-family: 'Lucida Grande', 'Open Sans', verdana, arial, sans-serif; font-size: 14px; fill: rgb(0, 0, 0); fill-opacity: 1; white-space: pre;">% GC</text></g><g class="g-ytitle"><text class="ytitle" transform="rotate(-90,22,242.5)" x="22" y="242.5" text-anchor="middle" style="opacity: 0.3; font-family: 'Lucida Grande', 'Open Sans', verdana, arial, sans-serif; font-size: 14px; fill: rgb(0, 0, 0); fill-opacity: 1; white-space: pre;">Percentage</text></g></g></svg>