<svg class="main-svg" xmlns="http://www.w3.org/2000/svg" xmlns:xlink="http://www.w3.org/1999/xlink" width="2200" height="1000" style="" viewBox="0 0 1100 500"><rect x="0" y="0" width="1100" height="500" style="fill: rgb(255, 255, 255); fill-opacity: 1;"/><defs id="defs-abd231"><g class="clips"><clipPath id="clipabd231xyplot" class="plotclip"><rect width="1014" height="385"/></clipPath><clipPath class="axesclip" id="clipabd231x"><rect x="60" y="0" width="1014" height="500"/></clipPath><clipPath class="axesclip" id="clipabd231y"><rect x="0" y="50" width="1100" height="385"/></clipPath><clipPath class="axesclip" id="clipabd231xy"><rect x="60" y="50" width="1014" height="385"/></clipPath></g><g class="gradients"/><g class="patterns"/></defs><g class="bglayer"/><g class="layer-below"><g class="imagelayer"/><g class="shapelayer"/></g><g class="cartesianlayer"><g class="subplot xy"><g class="layer-subplot"><g class="shapelayer"/><g class="imagelayer"/></g><g class="minor-gridlayer"><g class="x"/><g class="y"/></g><g class="gridlayer"><g class="x"><path class="xgrid crisp" transform="translate(262.8,0)" d="M0,50v385" style="stroke: rgb(0, 0, 0); stroke-opacity: 0.05; stroke-width: 1px;"/><path class="xgrid crisp" transform="translate(465.6,0)" d="M0,50v385" style="stroke: rgb(0, 0, 0); stroke-opacity: 0.05; stroke-width: 1px;"/><path class="xgrid crisp" transform="translate(668.4,0)" d="M0,50v385" style="stroke: rgb(0, 0, 0); stroke-opacity: 0.05; stroke-width: 1px;"/><path class="xgrid crisp" transform="translate(871.2,0)" d="M0,50v385" style="stroke: rgb(0, 0, 0); stroke-opacity: 0.05; stroke-width: 1px;"/></g><g class="y"><path class="ygrid crisp" transform="translate(0,382.02)" d="M60,0h1014" style="stroke: rgb(0, 0, 0); stroke-opacity: 0.05; stroke-width: 1px;"/><path class="ygrid crisp" transform="translate(0,329.04)" d="M60,0h1014" style="stroke: rgb(0, 0, 0); stroke-opacity: 0.05; stroke-width: 1px;"/><path class="ygrid crisp" transform="translate(0,276.07)" d="M60,0h1014" style="stroke: rgb(0, 0, 0); stroke-opacity: 0.05; stroke-width: 1px;"/><path class="ygrid crisp" transform="translate(0,223.09)" d="M60,0h1014" style="stroke: rgb(0, 0, 0); stroke-opacity: 0.05; stroke-width: 1px;"/><path class="ygrid crisp" transform="translate(0,170.11)" d="M60,0h1014" style="stroke: rgb(0, 0, 0); stroke-opacity: 0.05; stroke-width: 1px;"/><path class="ygrid crisp" transform="translate(0,117.13)" d="M60,0h1014" style="stroke: rgb(0, 0, 0); stroke-opacity: 0.05; stroke-width: 1px;"/><path class="ygrid crisp" transform="translate(0,64.15)" d="M60,0h1014" style="stroke: rgb(0, 0, 0); stroke-opacity: 0.05; stroke-width: 1px;"/></g></g><g class="zerolinelayer"><path class="xzl zl crisp" transform="translate(60,0)" d="M0,50v385" style="stroke: rgb(0, 0, 0); stroke-opacity: 0.05; stroke-width: 1px;"/><path class="yzl zl crisp" transform="translate(0,435)" d="M60,0h1014" style="stroke: rgb(0, 0, 0); stroke-opacity: 0.05; stroke-width: 1px;"/></g><g class="layer-between"><g class="shapelayer"/><g class="imagelayer"/></g><path class="xlines-below"/><path class="ylines-below"/><g class="overlines-below"/><g class="xaxislayer-below"/><g class="yaxislayer-below"/><g class="overaxes-below"/><g class="overplot"><g class="xy" transform="translate(60,50)" clip-path="url(#clipabd231xyplot)"><g class="scatterlayer mlayer"><g class="trace scatter traced91de2" style="stroke-miterlimit: 2; opacity: 1;"><g class="fills"/><g class="errorbars"/><g class="lines"><path class="js-line" d="M0,385L192.66,384.46L202.8,384.24L243.36,382.39L253.5,381.6L283.92,378.09L294.06,376.4L314.34,371.84L324.48,368.23L334.62,363.73L344.76,358.4L375.18,340.83L385.32,337.2L395.46,334.2L405.6,329.39L415.74,321.79L425.88,311.41L436.02,298.8L446.16,284L456.3,266.91L466.44,247.93L486.72,205.85L496.86,184.09L517.14,140.5L527.28,122.04L537.42,106.5L547.56,94.53L557.7,86.6L567.84,82.15L577.98,81.39L588.12,84.13L598.26,91.09L608.4,104.54L618.54,124.42L628.68,147.5L669.24,242.31L679.38,264.57L689.52,285.3L699.66,303.71L709.8,320.2L719.94,334.05L730.08,345.57L740.22,355.01L750.36,362.66L760.5,368.84L770.64,373.58L780.78,377.18L790.92,379.74L801.06,381.51L821.34,383.51L831.48,384.12L872.04,384.87L882.18,384.93L1014,384.97" style="vector-effect: none; fill: none; stroke: rgb(92, 184, 92); stroke-opacity: 1; stroke-width: 2px; opacity: 1;"/></g><g class="points"/><g class="text"/></g><g class="trace scatter trace28abf8" style="stroke-miterlimit: 2; opacity: 1;"><g class="fills"/><g class="errorbars"/><g class="lines"><path class="js-line" d="M0,385L192.66,384.41L202.8,384.17L233.22,382.94L243.36,382.05L273.78,379.28L283.92,377.82L304.2,374.04L314.34,371.34L324.48,367.8L334.62,363.21L354.9,351.58L365.04,345.43L375.18,340.23L385.32,336.57L395.46,333.31L405.6,328.16L415.74,320.38L425.88,310.2L436.02,297.58L446.16,282.87L456.3,265.91L466.44,247.25L486.72,205.89L496.86,183.83L517.14,141.22L527.28,122.62L537.42,107.25L547.56,95.65L557.7,87.5L567.84,83.92L577.98,85.32L588.12,90.98L598.26,101.02L608.4,114.63L618.54,132.05L628.68,152.36L648.96,197.49L659.1,220.94L679.38,266.24L689.52,286.78L699.66,305.06L709.8,321.09L719.94,334.85L730.08,346.35L740.22,355.5L750.36,362.94L760.5,368.97L770.64,373.64L780.78,377.13L790.92,379.6L811.2,382.62L821.34,383.42L851.76,384.53L861.9,384.65L963.3,384.87L973.44,384.87L1003.86,384.05L1014,361.39" style="vector-effect: none; fill: none; stroke: rgb(92, 184, 92); stroke-opacity: 1; stroke-width: 2px; opacity: 1;"/></g><g class="points"/><g class="text"/></g><g class="trace scatter tracef892c6" style="stroke-miterlimit: 2; opacity: 1;"><g class="fills"/><g class="errorbars"/><g class="lines"><path class="js-line" d="M0,385L202.8,384.26L212.94,383.95L243.36,382.36L253.5,381.58L283.92,378.11L294.06,376.43L314.34,371.33L324.48,367.25L334.62,361.82L344.76,355.49L365.04,341.61L375.18,336.86L385.32,335.37L395.46,335.73L405.6,334.52L415.74,330.61L425.88,324.62L436.02,316.73L446.16,307.09L456.3,295.25L466.44,281.43L476.58,266.06L486.72,248.55L496.86,229.17L537.42,143.27L547.56,124.74L557.7,108.56L567.84,95.6L577.98,87.11L588.12,84.74L598.26,87.83L608.4,96.21L618.54,110.06L628.68,128.19L648.96,172.59L659.1,196.71L689.52,271.87L699.66,294.18L709.8,313.83L719.94,330.2L730.08,343.51L740.22,354.07L750.36,362.36L760.5,368.93L770.64,373.86L780.78,377.4L790.92,379.96L801.06,381.73L821.34,383.68L831.48,384.19L872.04,384.89L882.18,384.94L1014,384.98" style="vector-effect: none; fill: none; stroke: rgb(240, 173, 78); stroke-opacity: 1; stroke-width: 2px; opacity: 1;"/></g><g class="points"/><g class="text"/></g><g class="trace scatter trace792472" style="stroke-miterlimit: 2; opacity: 1;"><g class="fills"/><g class="errorbars"/><g class="lines"><path class="js-line" d="M0,385L192.66,384.47L202.8,384.22L233.22,382.99L243.36,382.15L273.78,379.45L283.92,378.04L304.2,374.06L314.34,371.17L324.48,367.04L334.62,361.58L365.04,341.44L375.18,336.71L385.32,335.2L395.46,335.3L405.6,333.89L415.74,329.83L425.88,323.7L436.02,315.85L446.16,306.04L456.3,294.34L466.44,280.68L476.58,265.09L486.72,247.9L496.86,228.63L537.42,143.7L547.56,125.31L557.7,108.98L567.84,96.17L577.98,88.69L588.12,86.46L598.26,89.52L608.4,98.18L618.54,112.11L628.68,130.83L638.82,153.05L648.96,177.9L679.38,255.26L689.52,278.57L699.66,299.43L709.8,317.51L719.94,332.79L730.08,345.23L740.22,355.23L750.36,363.06L760.5,369.18L770.64,373.99L780.78,377.49L790.92,379.97L811.2,382.81L821.34,383.55L851.76,384.59L861.9,384.7L983.58,384.85L993.72,384.74L1003.86,383.97L1014,358.35" style="vector-effect: none; fill: none; stroke: rgb(240, 173, 78); stroke-opacity: 1; stroke-width: 2px; opacity: 1;"/></g><g class="points"/><g class="text"/></g><g class="trace scatter traceb1e7a3" style="stroke-miterlimit: 2; opacity: 1;"><g class="fills"/><g class="errorbars"/><g class="lines"><path class="js-line" d="M0,385L192.66,384.28L202.8,383.95L233.22,382.01L243.36,380.85L263.64,377.56L273.78,375.22L283.92,372.26L294.06,368.44L304.2,363.57L314.34,357.36L324.48,349.26L334.62,339.01L344.76,326.76L354.9,312.83L375.18,284.38L385.32,274.14L395.46,266.12L405.6,256.41L415.74,244.51L425.88,231.37L466.44,179.25L476.58,167.82L486.72,158.38L496.86,150.9L507,145L517.14,141.1L527.28,139.57L537.42,140.35L547.56,142.73L557.7,146.12L567.84,150.52L577.98,156.44L588.12,164.41L598.26,174.61L618.54,199.07L628.68,209.3L638.82,211.43L648.96,226.24L659.1,257.14L669.24,281.26L679.38,299.12L689.52,314.33L699.66,327.92L709.8,339.66L719.94,349.51L730.08,357.48L740.22,363.95L750.36,369.34L760.5,373.57L770.64,376.91L780.78,379.43L790.92,381.16L811.2,383.32L821.34,383.92L861.9,384.83L872.04,384.9L1014,384.97" style="vector-effect: none; fill: none; stroke: rgb(92, 184, 92); stroke-opacity: 1; stroke-width: 2px; opacity: 1;"/></g><g class="points"/><g class="text"/></g><g class="trace scatter tracec4670a" style="stroke-miterlimit: 2; opacity: 1;"><g class="fills"/><g class="errorbars"/><g class="lines"><path class="js-line" d="M0,385L182.52,384.47L192.66,384.23L223.08,382.74L233.22,381.78L263.64,377.05L273.78,374.64L294.06,367.82L304.2,362.83L314.34,356.55L324.48,348.43L334.62,338.12L344.76,325.92L375.18,284.13L385.32,273.83L395.46,265.57L405.6,256.12L425.88,231.5L436.02,218.69L466.44,179.74L476.58,168.62L486.72,159.74L496.86,152.15L507,146.27L517.14,142.17L527.28,140.41L537.42,141.45L547.56,143.66L557.7,146.96L567.84,151.58L577.98,157.67L588.12,165.69L598.26,175.88L608.4,187.89L618.54,202.07L638.82,234.13L648.96,251.25L669.24,285.19L679.38,300.89L699.66,328.51L709.8,340.01L719.94,349.68L730.08,357.7L740.22,364.13L750.36,369.31L760.5,373.53L770.64,376.8L790.92,381L801.06,382.27L831.48,384.15L841.62,384.4L912.6,384.84L922.74,384.86L993.72,384.72L1003.86,383.78L1014,344.72" style="vector-effect: none; fill: none; stroke: rgb(92, 184, 92); stroke-opacity: 1; stroke-width: 2px; opacity: 1;"/></g><g class="points"/><g class="text"/></g><g class="trace scatter trace45084f" style="stroke-miterlimit: 2; opacity: 1;"><g class="fills"/><g class="errorbars"/><g class="lines"><path class="js-line" d="M0,385L192.66,384.27L202.8,383.97L233.22,382.45L243.36,381.62L273.78,378.04L283.92,376.31L294.06,374.18L304.2,371.19L314.34,366.57L324.48,359.74L334.62,350.66L344.76,339.53L365.04,317.15L375.18,310.99L385.32,312.2L395.46,317.22L405.6,319.24L415.74,316.71L425.88,311.12L436.02,302.8L446.16,291.88L456.3,278.39L466.44,262.73L476.58,245L496.86,206.2L507,184.53L527.28,142.15L537.42,122.56L547.56,105.67L557.7,90.43L567.84,78.01L577.98,70.26L588.12,66.68L598.26,67.98L608.4,72.39L618.54,78.3L628.68,91.73L638.82,116.05L669.24,194.74L679.38,220.53L699.66,269L709.8,290.67L719.94,309.86L730.08,326.03L740.22,339.46L750.36,350.78L760.5,360L770.64,367.14L780.78,372.61L790.92,376.61L801.06,379.41L811.2,381.38L831.48,383.59L841.62,384.14L882.18,384.88L892.32,384.94L1014,384.96" style="vector-effect: none; fill: none; stroke: rgb(240, 173, 78); stroke-opacity: 1; stroke-width: 2px; opacity: 1;"/></g><g class="points"/><g class="text"/></g><g class="trace scatter tracee4e285" style="stroke-miterlimit: 2; opacity: 1;"><g class="fills"/><g class="errorbars"/><g class="lines"><path class="js-line" d="M0,385L192.66,384.25L202.8,383.97L233.22,382.36L243.36,381.33L273.78,377.94L283.92,376.2L294.06,373.97L304.2,370.79L314.34,366.13L324.48,359.31L334.62,350.12L344.76,339.15L354.9,327.49L365.04,317.19L375.18,311.24L385.32,311.92L395.46,316.54L405.6,318.51L415.74,315.75L425.88,309.95L436.02,301.47L446.16,290.65L456.3,277.56L466.44,261.95L486.72,225.48L496.86,205.47L527.28,141.66L537.42,122.65L547.56,106.05L557.7,91.22L567.84,79.01L577.98,71.55L588.12,68.78L598.26,70.6L608.4,77.31L618.54,88.97L628.68,104.92L638.82,124.2L648.96,146.41L659.1,171.03L689.52,247.03L699.66,270.8L709.8,292.13L719.94,310.81L730.08,327.04L740.22,340.38L750.36,351.38L760.5,360.48L770.64,367.6L780.78,372.91L790.92,376.75L801.06,379.48L821.34,382.58L831.48,383.45L861.9,384.53L872.04,384.65L973.44,384.85L983.58,384.82L1003.86,384.04L1014,361.26" style="vector-effect: none; fill: none; stroke: rgb(240, 173, 78); stroke-opacity: 1; stroke-width: 2px; opacity: 1;"/></g><g class="points"/><g class="text"/></g><g class="trace scatter trace2e5a3c" style="stroke-miterlimit: 2; opacity: 1;"><g class="fills"/><g class="errorbars"/><g class="lines"><path class="js-line" d="M0,385L202.8,384.47L212.94,384.24L263.64,381.9L273.78,381.14L304.2,377.74L314.34,376.01L334.62,370.74L344.76,367.24L365.04,358.48L375.18,353.97L395.46,345.81L405.6,340.31L415.74,333.07L425.88,324.29L436.02,314.12L446.16,302.53L456.3,289.5L466.44,275.01L496.86,227.36L507,210.42L517.14,194.75L527.28,180.62L537.42,168.02L547.56,157.85L557.7,150.33L567.84,145.07L577.98,143.2L588.12,145.32L598.26,150.86L608.4,159.29L618.54,170.7L628.68,185.32L638.82,204.01L648.96,225.47L669.24,267.71L679.38,286.83L689.52,304.29L699.66,320.09L709.8,333.85L719.94,345.33L730.08,354.59L740.22,361.84L750.36,367.73L760.5,372.4L770.64,376.01L780.78,378.75L801.06,382.2L811.2,383.15L841.62,384.53L851.76,384.72L953.16,384.99L963.3,384.99L1014,384.98" style="vector-effect: none; fill: none; stroke: rgb(92, 184, 92); stroke-opacity: 1; stroke-width: 2px; opacity: 1;"/></g><g class="points"/><g class="text"/></g><g class="trace scatter trace736fe7" style="stroke-miterlimit: 2; opacity: 1;"><g class="fills"/><g class="errorbars"/><g class="lines"><path class="js-line" d="M0,385L202.8,384.43L212.94,384.21L243.36,382.82L253.5,382.18L273.78,380.96L283.92,379.93L304.2,377.46L314.34,375.6L334.62,370.13L344.76,366.57L365.04,357.9L375.18,353.4L395.46,345.07L405.6,339.51L415.74,332.24L425.88,323.35L436.02,313.3L446.16,302.05L456.3,288.99L466.44,274.42L496.86,227.21L507,210.88L527.28,180.86L537.42,168.59L547.56,158.67L557.7,151.04L567.84,146.4L577.98,145.05L588.12,146.76L598.26,152.95L608.4,163.54L618.54,177.16L628.68,193.29L638.82,211.32L679.38,289.33L689.52,306.07L699.66,321.35L709.8,334.83L719.94,346.03L730.08,355.13L740.22,362.32L750.36,368.12L760.5,372.73L770.64,376.18L790.92,380.67L801.06,382.1L821.34,383.69L831.48,384.16L882.18,384.83L892.32,384.85L993.72,384.77L1003.86,384.13L1014,364.2" style="vector-effect: none; fill: none; stroke: rgb(92, 184, 92); stroke-opacity: 1; stroke-width: 2px; opacity: 1;"/></g><g class="points"/><g class="text"/></g><g class="trace scatter trace4c50e9" style="stroke-miterlimit: 2; opacity: 1;"><g class="fills"/><g class="errorbars"/><g class="lines"><path class="js-line" d="M0,385L202.8,384.44L212.94,384.18L253.5,382.33L263.64,381.55L283.92,379.34L294.06,377.73L314.34,373.36L324.48,370.09L334.62,365.87L344.76,360.7L354.9,354.42L365.04,347.15L385.32,329.81L395.46,319.83L405.6,307.77L415.74,293.92L436.02,261.93L446.16,245.66L466.44,212.64L476.58,197.49L486.72,184.15L496.86,172.47L507,162.19L517.14,153.87L527.28,147.88L537.42,144.36L547.56,143.37L557.7,144.03L567.84,146.44L577.98,151.78L588.12,159.87L598.26,169.88L608.4,181.27L618.54,194.12L628.68,209.27L638.82,227.34L659.1,265.51L669.24,283.59L679.38,300.3L689.52,315.22L699.66,328.62L709.8,340.4L719.94,350.19L730.08,358.36L740.22,364.98L750.36,370.24L760.5,374.36L770.64,377.53L790.92,381.59L801.06,382.82L821.34,384.15L831.48,384.48L892.32,384.98L902.46,384.99L1014,384.99" style="vector-effect: none; fill: none; stroke: rgb(92, 184, 92); stroke-opacity: 1; stroke-width: 2px; opacity: 1;"/></g><g class="points"/><g class="text"/></g><g class="trace scatter tracee2e8d7" style="stroke-miterlimit: 2; opacity: 1;"><g class="fills"/><g class="errorbars"/><g class="lines"><path class="js-line" d="M0,385L202.8,384.38L212.94,384.15L243.36,382.67L253.5,381.96L273.78,380.31L283.92,379L304.2,375.51L314.34,372.88L334.62,365.33L344.76,360.14L354.9,353.89L365.04,346.42L385.32,329.3L395.46,319.16L405.6,307.15L415.74,293.38L436.02,261.99L446.16,245.63L466.44,212.96L476.58,197.83L486.72,184.61L496.86,173.11L507,162.87L517.14,154.64L527.28,149.02L537.42,145.69L547.56,144.18L557.7,144.9L567.84,147.67L577.98,152.64L588.12,160.95L598.26,171.76L608.4,184.37L618.54,199.24L638.82,233.03L648.96,250.72L669.24,285.54L679.38,301.75L689.52,316.45L699.66,329.54L709.8,341.06L719.94,350.89L730.08,358.81L740.22,365.14L750.36,370.27L760.5,374.31L770.64,377.56L780.78,379.91L801.06,382.72L811.2,383.5L841.62,384.56L851.76,384.7L963.3,384.9L973.44,384.89L1003.86,384.19L1014,367.1" style="vector-effect: none; fill: none; stroke: rgb(92, 184, 92); stroke-opacity: 1; stroke-width: 2px; opacity: 1;"/></g><g class="points"/><g class="text"/></g><g class="trace scatter trace5f0da5" style="stroke-miterlimit: 2; opacity: 1;"><g class="fills"/><g class="errorbars"/><g class="lines"><path class="js-line" d="M0,385L243.36,384.29L253.5,384.08L294.06,382.64L304.2,382L324.48,379.61L334.62,377.55L365.04,369.18L375.18,367.44L385.32,367.47L395.46,368.51L405.6,368.93L415.74,368.2L436.02,364.66L446.16,361.81L456.3,357.79L466.44,352.55L476.58,345.74L486.72,336.9L496.86,325.24L507,309.95L517.14,291.14L527.28,269.42L537.42,245.13L547.56,218.85L567.84,164.79L577.98,140.89L588.12,122.41L598.26,111.31L608.4,106.87L618.54,108.86L628.68,113.03L638.82,116.01L648.96,127.28L659.1,155.56L679.38,235.35L689.52,270.41L699.66,298.98L709.8,321.75L719.94,339.07L730.08,351.65L740.22,360.72L750.36,367.69L760.5,372.79L770.64,376.52L790.92,381.22L801.06,382.62L831.48,384.43L841.62,384.66L912.6,384.99L922.74,384.99L1014,384.97" style="vector-effect: none; fill: none; stroke: rgb(240, 173, 78); stroke-opacity: 1; stroke-width: 2px; opacity: 1;"/></g><g class="points"/><g class="text"/></g><g class="trace scatter tracedc98fa" style="stroke-miterlimit: 2; opacity: 1;"><g class="fills"/><g class="errorbars"/><g class="lines"><path class="js-line" d="M0,385L233.22,384.43L243.36,384.09L294.06,382.57L304.2,381.94L324.48,379.49L334.62,377.34L365.04,369.01L375.18,367.39L385.32,367.5L395.46,368.41L405.6,368.71L415.74,367.94L436.02,364.02L446.16,361.01L456.3,356.97L466.44,351.68L476.58,344.81L486.72,335.89L496.86,324.07L507,308.77L517.14,290.13L527.28,268.2L547.56,218.37L557.7,191.29L567.84,164.85L577.98,141.51L588.12,123.58L598.26,113.77L608.4,111.87L618.54,118.69L628.68,133.12L638.82,152.95L648.96,177.8L659.1,205.46L679.38,260.56L689.52,285.46L699.66,307.51L709.8,326.09L719.94,340.92L730.08,352.47L740.22,361.1L750.36,367.76L760.5,372.8L770.64,376.45L790.92,381L801.06,382.34L831.48,384.17L841.62,384.41L922.74,384.82L932.88,384.82L993.72,384.27L1003.86,381.26L1014,259.37" style="vector-effect: none; fill: none; stroke: rgb(217, 83, 79); stroke-opacity: 1; stroke-width: 2px; opacity: 1;"/></g><g class="points"/><g class="text"/></g><g class="trace scatter tracefabd69" style="stroke-miterlimit: 2; opacity: 1;"><g class="fills"/><g class="errorbars"/><g class="lines"><path class="js-line" d="M0,385L202.8,384.28L212.94,383.97L253.5,381.85L263.64,381.08L294.06,377.69L304.2,376.11L324.48,371.26L334.62,367.71L365.04,354.46L375.18,351.45L385.32,350.71L395.46,351.1L405.6,350.43L415.74,348.26L425.88,344.77L436.02,340.22L446.16,334.69L456.3,327.49L466.44,318.48L476.58,307.7L486.72,294.9L496.86,279.2L507,260.16L517.14,238.51L537.42,188.44L547.56,161.81L567.84,107.64L577.98,81.72L598.26,32.16L608.4,19.25L618.54,26.9L628.68,47.82L638.82,72.02L648.96,98.49L669.24,157.21L679.38,187.81L699.66,245.6L709.8,271.54L719.94,294.49L730.08,314.03L740.22,330.27L750.36,343.64L760.5,354.54L770.64,363.15L780.78,369.57L790.92,374.39L801.06,378.03L811.2,380.49L831.48,383.26L841.62,383.97L882.18,384.88L892.32,384.94L1014,384.97" style="vector-effect: none; fill: none; stroke: rgb(240, 173, 78); stroke-opacity: 1; stroke-width: 2px; opacity: 1;"/></g><g class="points"/><g class="text"/></g><g class="trace scatter tracec08ac8" style="stroke-miterlimit: 2; opacity: 1;"><g class="fills"/><g class="errorbars"/><g class="lines"><path class="js-line" d="M0,385L202.8,384.26L212.94,383.96L243.36,382.22L253.5,381.48L273.78,380.01L283.92,378.84L304.2,376L314.34,373.86L324.48,371.05L334.62,367.42L365.04,354.31L375.18,351.39L385.32,350.4L395.46,350.5L405.6,349.7L415.74,347.37L425.88,343.74L436.02,339L446.16,333.13L456.3,325.93L466.44,316.88L476.58,305.9L486.72,292.85L496.86,277.11L507,258.42L517.14,237.11L537.42,187.72L547.56,160.99L567.84,108.31L577.98,85.84L588.12,68.73L598.26,57.74L608.4,53.22L618.54,56.68L628.68,67.03L638.82,83.92L648.96,106.6L659.1,133.06L699.66,248.78L709.8,274.01L719.94,296.34L730.08,315.66L740.22,331.55L750.36,344.58L760.5,355.15L770.64,363.55L780.78,369.9L790.92,374.57L801.06,378.05L811.2,380.37L831.48,383.02L841.62,383.71L882.18,384.6L892.32,384.66L983.58,384.66L993.72,384.36L1003.86,382.15L1014,310.42" style="vector-effect: none; fill: none; stroke: rgb(240, 173, 78); stroke-opacity: 1; stroke-width: 2px; opacity: 1;"/></g><g class="points"/><g class="text"/></g><g class="trace scatter tracea46f17" style="stroke-miterlimit: 2; opacity: 1;"><g class="fills"/><g class="errorbars"/><g class="lines"><path class="js-line" d="M0,385L202.8,384.4L212.94,384.14L253.5,382.15L263.64,381.32L283.92,378.71L294.06,376.88L314.34,371.58L324.48,367.57L334.62,362.45L344.76,356.08L354.9,348.21L365.04,339.25L385.32,319.54L395.46,308.74L405.6,296.42L415.74,281.9L446.16,233.33L456.3,216.35L476.58,183.2L486.72,168.54L507,142.49L517.14,131.69L527.28,123.33L537.42,116.78L547.56,111.84L557.7,108.36L567.84,106.71L577.98,108.26L588.12,112.83L598.26,121.41L608.4,133.25L618.54,147.8L628.68,164.98L638.82,184L648.96,207.75L659.1,233.96L669.24,257.51L679.38,279.06L689.52,298.87L699.66,316.33L709.8,331.24L719.94,343.48L730.08,353.33L740.22,361.1L750.36,367.23L760.5,372.07L770.64,375.84L780.78,378.62L801.06,382.13L811.2,383.14L841.62,384.56L851.76,384.74L943.02,384.99L953.16,384.99L1014,384.97" style="vector-effect: none; fill: none; stroke: rgb(92, 184, 92); stroke-opacity: 1; stroke-width: 2px; opacity: 1;"/></g><g class="points"/><g class="text"/></g><g class="trace scatter trace8824b0" style="stroke-miterlimit: 2; opacity: 1;"><g class="fills"/><g class="errorbars"/><g class="lines"><path class="js-line" d="M0,385L202.8,384.37L212.94,384.12L243.36,382.51L253.5,381.74L273.78,379.96L283.92,378.5L304.2,374.15L314.34,371.12L324.48,367.07L334.62,361.83L344.76,355.4L354.9,347.68L375.18,329.28L385.32,319.44L395.46,308.62L405.6,296.25L415.74,282.15L425.88,266.18L476.58,184.2L486.72,169.61L496.86,155.62L507,143.33L517.14,133.17L527.28,124.67L537.42,118.28L547.56,113.47L557.7,109.62L567.84,107.84L577.98,109.1L588.12,113.52L598.26,122.42L608.4,134.92L618.54,151.24L628.68,170.36L638.82,191.55L648.96,214.6L669.24,259.68L679.38,280.77L689.52,299.96L699.66,316.98L709.8,331.78L719.94,344.21L730.08,353.92L740.22,361.42L750.36,367.46L760.5,372.25L770.64,375.9L780.78,378.56L801.06,382.04L811.2,383.03L841.62,384.43L851.76,384.6L943.02,384.87L953.16,384.87L993.72,384.7L1003.86,383.9L1014,363.73" style="vector-effect: none; fill: none; stroke: rgb(92, 184, 92); stroke-opacity: 1; stroke-width: 2px; opacity: 1;"/></g><g class="points"/><g class="text"/></g><g class="trace scatter trace4a3141" style="stroke-miterlimit: 2; opacity: 1;"><g class="fills"/><g class="errorbars"/><g class="lines"><path class="js-line" d="M0,385L202.8,384.41L212.94,384.22L253.5,382.57L263.64,381.97L294.06,378.92L304.2,377.35L314.34,375.23L324.48,372.13L344.76,363.05L354.9,357.88L365.04,353.06L375.18,349.82L385.32,349.25L395.46,349.96L405.6,349.44L415.74,346.86L425.88,342.66L436.02,337.26L446.16,330.32L456.3,321.53L466.44,310.75L476.58,297.78L486.72,282.77L496.86,264.85L507,243.94L517.14,220.77L537.42,170.11L547.56,143.87L567.84,93.87L577.98,73.08L588.12,58.11L598.26,49.75L608.4,47.58L618.54,52.6L628.68,63.62L638.82,82.04L648.96,109.58L659.1,141.81L679.38,206.39L689.52,236.11L699.66,263.6L709.8,287.98L719.94,308.85L730.08,326.23L740.22,340.11L750.36,351.14L760.5,360.15L770.64,367.23L780.78,372.52L790.92,376.5L801.06,379.43L811.2,381.38L831.48,383.6L841.62,384.17L882.18,384.9L892.32,384.95L1014,384.97" style="vector-effect: none; fill: none; stroke: rgb(240, 173, 78); stroke-opacity: 1; stroke-width: 2px; opacity: 1;"/></g><g class="points"/><g class="text"/></g><g class="trace scatter trace9d7a28" style="stroke-miterlimit: 2; opacity: 1;"><g class="fills"/><g class="errorbars"/><g class="lines"><path class="js-line" d="M0,385L202.8,384.42L212.94,384.18L243.36,382.87L253.5,382.3L273.78,381.1L283.92,380.11L304.2,377.18L314.34,375.02L324.48,371.84L334.62,367.67L365.04,352.91L375.18,349.78L385.32,349.02L395.46,349.47L405.6,348.76L415.74,346.26L425.88,341.98L436.02,336.33L446.16,329.36L456.3,320.64L466.44,309.9L476.58,296.91L486.72,281.82L496.86,264.06L507,243.36L517.14,220.15L537.42,169.95L547.56,143.87L567.84,93.43L577.98,73.94L588.12,59.41L598.26,51.37L608.4,50.75L618.54,58.12L628.68,72.98L638.82,93.54L648.96,119.33L659.1,148.41L689.52,238.78L699.66,265.57L709.8,289.52L719.94,310.14L730.08,327.23L740.22,340.84L750.36,351.75L760.5,360.5L770.64,367.44L780.78,372.69L790.92,376.57L801.06,379.36L821.34,382.57L831.48,383.46L861.9,384.55L872.04,384.68L983.58,384.82L993.72,384.72L1003.86,383.98L1014,359.57" style="vector-effect: none; fill: none; stroke: rgb(240, 173, 78); stroke-opacity: 1; stroke-width: 2px; opacity: 1;"/></g><g class="points"/><g class="text"/></g></g></g></g><g class="zerolinelayer-above"/><path class="xlines-above crisp" d="M0,0" style="fill: none;"/><path class="ylines-above crisp" d="M0,0" style="fill: none;"/><g class="overlines-above"/><g class="xaxislayer-above"><g class="xtick"><text text-anchor="middle" x="0" y="451" transform="translate(60,0)" style="font-family: 'Lucida Grande', 'Open Sans', verdana, arial, sans-serif; font-size: 10px; fill: rgb(0, 0, 0); fill-opacity: 1; white-space: pre;">0%</text></g><g class="xtick"><text text-anchor="middle" x="0" y="451" style="font-family: 'Lucida Grande', 'Open Sans', verdana, arial, sans-serif; font-size: 10px; fill: rgb(0, 0, 0); fill-opacity: 1; white-space: pre;" transform="translate(262.8,0)">20%</text></g><g class="xtick"><text text-anchor="middle" x="0" y="451" style="font-family: 'Lucida Grande', 'Open Sans', verdana, arial, sans-serif; font-size: 10px; fill: rgb(0, 0, 0); fill-opacity: 1; white-space: pre;" transform="translate(465.6,0)">40%</text></g><g class="xtick"><text text-anchor="middle" x="0" y="451" style="font-family: 'Lucida Grande', 'Open Sans', verdana, arial, sans-serif; font-size: 10px; fill: rgb(0, 0, 0); fill-opacity: 1; white-space: pre;" transform="translate(668.4,0)">60%</text></g><g class="xtick"><text text-anchor="middle" x="0" y="451" style="font-family: 'Lucida Grande', 'Open Sans', verdana, arial, sans-serif; font-size: 10px; fill: rgb(0, 0, 0); fill-opacity: 1; white-space: pre;" transform="translate(871.2,0)">80%</text></g><g class="xtick"><text text-anchor="middle" x="0" y="451" style="font-family: 'Lucida Grande', 'Open Sans', verdana, arial, sans-serif; font-size: 10px; fill: rgb(0, 0, 0); fill-opacity: 1; white-space: pre;" transform="translate(1074,0)">100%</text></g></g><g class="yaxislayer-above"><g class="ytick"><text text-anchor="end" x="54" y="3.5" transform="translate(0,435)" style="font-family: 'Lucida Grande', 'Open Sans', verdana, arial, sans-serif; font-size: 10px; fill: rgb(0, 0, 0); fill-opacity: 1; white-space: pre;">0</text></g><g class="ytick"><text text-anchor="end" x="54" y="3.5" style="font-family: 'Lucida Grande', 'Open Sans', verdana, arial, sans-serif; font-size: 10px; fill: rgb(0, 0, 0); fill-opacity: 1; white-space: pre;" transform="translate(0,382.02)">0.2M</text></g><g class="ytick"><text text-anchor="end" x="54" y="3.5" style="font-family: 'Lucida Grande', 'Open Sans', verdana, arial, sans-serif; font-size: 10px; fill: rgb(0, 0, 0); fill-opacity: 1; white-space: pre;" transform="translate(0,329.04)">0.4M</text></g><g class="ytick"><text text-anchor="end" x="54" y="3.5" style="font-family: 'Lucida Grande', 'Open Sans', verdana, arial, sans-serif; font-size: 10px; fill: rgb(0, 0, 0); fill-opacity: 1; white-space: pre;" transform="translate(0,276.07)">0.6M</text></g><g class="ytick"><text text-anchor="end" x="54" y="3.5" style="font-family: 'Lucida Grande', 'Open Sans', verdana, arial, sans-serif; font-size: 10px; fill: rgb(0, 0, 0); fill-opacity: 1; white-space: pre;" transform="translate(0,223.09)">0.8M</text></g><g class="ytick"><text text-anchor="end" x="54" y="3.5" style="font-family: 'Lucida Grande', 'Open Sans', verdana, arial, sans-serif; font-size: 10px; fill: rgb(0, 0, 0); fill-opacity: 1; white-space: pre;" transform="translate(0,170.11)">1M</text></g><g class="ytick"><text text-anchor="end" x="54" y="3.5" style="font-family: 'Lucida Grande', 'Open Sans', verdana, arial, sans-serif; font-size: 10px; fill: rgb(0, 0, 0); fill-opacity: 1; white-space: pre;" transform="translate(0,117.13)">1.2M</text></g><g class="ytick"><text text-anchor="end" x="54" y="3.5" style="font-family: 'Lucida Grande', 'Open Sans', verdana, arial, sans-serif; font-size: 10px; fill: rgb(0, 0, 0); fill-opacity: 1; white-space: pre;" transform="translate(0,64.15)">1.4M</text></g></g><g class="overaxes-above"/></g></g><g class="polarlayer"/><g class="smithlayer"/><g class="ternarylayer"/><g class="geolayer"/><g class="funnelarealayer"/><g class="pielayer"/><g class="iciclelayer"/><g class="treemaplayer"/><g class="sunburstlayer"/><g class="glimages"/><defs id="topdefs-abd231"><g class="clips"/></defs><g class="layer-above"><g class="imagelayer"/><g class="shapelayer"/></g><g class="infolayer"><g class="g-gtitle"><text class="gtitle" x="550" y="25" text-anchor="middle" dy="0em" style="opacity: 1; font-family: 'Lucida Grande', 'Open Sans', verdana, arial, sans-serif; font-size: 20px; fill: rgb(68, 68, 68); fill-opacity: 1; white-space: pre;"><tspan class="line" dy="0em" x="550" y="25">FastQC: Per Sequence GC Content</tspan><tspan class="line" dy="1.3em" x="550" y="25">​<tspan style="font-size:70%" dy="-0.6em">Counts, 20 lines</tspan><tspan dy="0.42em">​</tspan></tspan></text></g><g class="g-xtitle"><text class="xtitle" x="567" y="487" text-anchor="middle" style="opacity: 0.3; font-family: 'Lucida Grande', 'Open Sans', verdana, arial, sans-serif; font-size: 14px; fill: rgb(0, 0, 0); fill-opacity: 1; white-space: pre;">% GC</text></g><g class="g-ytitle"><text class="ytitle" transform="rotate(-90,22,242.5)" x="22" y="242.5" text-anchor="middle" style="opacity: 0.3; font-family: 'Lucida Grande', 'Open Sans', verdana, arial, sans-serif; font-size: 14px; fill: rgb(0, 0, 0); fill-opacity: 1; white-space: pre;">Count</text></g></g></svg>