<svg class="main-svg" xmlns="http://www.w3.org/2000/svg" xmlns:xlink="http://www.w3.org/1999/xlink" width="2200" height="1000" style="" viewBox="0 0 1100 500"><rect x="0" y="0" width="1100" height="500" style="fill: rgb(255, 255, 255); fill-opacity: 1;"/><defs id="defs-8e7a75"><g class="clips"><clipPath id="clip8e7a75xyplot" class="plotclip"><rect width="1025" height="385"/></clipPath><clipPath class="axesclip" id="clip8e7a75x"><rect x="60" y="0" width="1025" height="500"/></clipPath><clipPath class="axesclip" id="clip8e7a75y"><rect x="0" y="50" width="1100" height="385"/></clipPath><clipPath class="axesclip" id="clip8e7a75xy"><rect x="60" y="50" width="1025" height="385"/></clipPath></g><g class="gradients"/><g class="patterns"/></defs><g class="bglayer"/><g class="layer-below"><g class="imagelayer"/><g class="shapelayer"/></g><g class="cartesianlayer"><g class="subplot xy"><g class="layer-subplot"><g class="shapelayer"/><g class="imagelayer"/></g><g class="minor-gridlayer"><g class="x"/><g class="y"/></g><g class="gridlayer"><g class="x"><path class="xgrid crisp" transform="translate(190.7,0)" d="M0,50v385" style="stroke: rgb(0, 0, 0); stroke-opacity: 0.05; stroke-width: 1px;"/><path class="xgrid crisp" transform="translate(328.29,0)" d="M0,50v385" style="stroke: rgb(0, 0, 0); stroke-opacity: 0.05; stroke-width: 1px;"/><path class="xgrid crisp" transform="translate(465.87,0)" d="M0,50v385" style="stroke: rgb(0, 0, 0); stroke-opacity: 0.05; stroke-width: 1px;"/><path class="xgrid crisp" transform="translate(603.46,0)" d="M0,50v385" style="stroke: rgb(0, 0, 0); stroke-opacity: 0.05; stroke-width: 1px;"/><path class="xgrid crisp" transform="translate(741.04,0)" d="M0,50v385" style="stroke: rgb(0, 0, 0); stroke-opacity: 0.05; stroke-width: 1px;"/><path class="xgrid crisp" transform="translate(878.62,0)" d="M0,50v385" style="stroke: rgb(0, 0, 0); stroke-opacity: 0.05; stroke-width: 1px;"/><path class="xgrid crisp" transform="translate(1016.21,0)" d="M0,50v385" style="stroke: rgb(0, 0, 0); stroke-opacity: 0.05; stroke-width: 1px;"/></g><g class="y"><path class="ygrid crisp" transform="translate(0,389.76)" d="M60,0h1025" style="stroke: rgb(0, 0, 0); stroke-opacity: 0.05; stroke-width: 1px;"/><path class="ygrid crisp" transform="translate(0,344.53)" d="M60,0h1025" style="stroke: rgb(0, 0, 0); stroke-opacity: 0.05; stroke-width: 1px;"/><path class="ygrid crisp" transform="translate(0,299.28999999999996)" d="M60,0h1025" style="stroke: rgb(0, 0, 0); stroke-opacity: 0.05; stroke-width: 1px;"/><path class="ygrid crisp" transform="translate(0,254.05)" d="M60,0h1025" style="stroke: rgb(0, 0, 0); stroke-opacity: 0.05; stroke-width: 1px;"/><path class="ygrid crisp" transform="translate(0,208.81)" d="M60,0h1025" style="stroke: rgb(0, 0, 0); stroke-opacity: 0.05; stroke-width: 1px;"/><path class="ygrid crisp" transform="translate(0,163.57999999999998)" d="M60,0h1025" style="stroke: rgb(0, 0, 0); stroke-opacity: 0.05; stroke-width: 1px;"/><path class="ygrid crisp" transform="translate(0,118.34)" d="M60,0h1025" style="stroke: rgb(0, 0, 0); stroke-opacity: 0.05; stroke-width: 1px;"/><path class="ygrid crisp" transform="translate(0,73.1)" d="M60,0h1025" style="stroke: rgb(0, 0, 0); stroke-opacity: 0.05; stroke-width: 1px;"/></g></g><g class="zerolinelayer"><path class="yzl zl crisp" transform="translate(0,435)" d="M60,0h1025" style="stroke: rgb(0, 0, 0); stroke-opacity: 0.05; stroke-width: 1px;"/></g><g class="layer-between"><g class="shapelayer"/><g class="imagelayer"/></g><path class="xlines-below"/><path class="ylines-below"/><g class="overlines-below"/><g class="xaxislayer-below"/><g class="yaxislayer-below"/><g class="overaxes-below"/><g class="overplot"><g class="xy" transform="translate(60,50)" clip-path="url(#clip8e7a75xyplot)"><g class="scatterlayer mlayer"><g class="trace scatter trace32747e" style="stroke-miterlimit: 2; opacity: 1;"><g class="fills"/><g class="errorbars"/><g class="lines"><path class="js-line" d="M0,21.95L6.88,22.03L13.76,21.34L27.52,20.68L34.4,20.32L41.28,20.95L48.15,20.82L55.03,20.44L61.91,20.93L82.55,20.49L89.43,20.71L110.07,20.66L116.95,20.34L144.46,20.32L151.34,20.26L282.05,20.27L288.93,21.59L295.81,20.43L302.68,20.28L343.96,20.36L350.84,20.37L405.87,20.24L412.75,20.43L440.27,20.25L447.15,20.26L460.91,20.34L467.79,21.15L474.66,20.29L481.54,20.43L515.94,20.53L522.82,20.79L543.46,20.51L550.34,20.49L605.37,20.68L612.25,21.34L619.13,20.75L626.01,21.4L653.52,20.82L660.4,20.84L687.92,21.37L694.8,21.03L818.62,21.75L825.5,22.44L839.26,22.04L846.14,22.01L853.02,23.13L859.9,21.91L949.33,22.46L956.21,22.74L990.6,22.77L997.48,22.91L1018.12,22.65L1025,22.86" style="vector-effect: none; fill: none; stroke: rgb(124, 181, 236); stroke-opacity: 1; stroke-width: 2px; opacity: 1;"/></g><g class="points"/><g class="text"/></g><g class="trace scatter trace18a880" style="stroke-miterlimit: 2; opacity: 1;"><g class="fills"/><g class="errorbars"/><g class="lines"><path class="js-line" d="M0,22.76L6.88,22.76L13.76,21.66L34.4,20.25L41.28,20.91L192.62,19.89L199.5,20.1L220.13,19.86L227.01,20.46L240.77,20.17L247.65,20.08L282.05,20L288.93,21.36L295.81,20.13L302.68,20.05L392.11,20.05L398.99,20.12L460.91,20.24L467.79,21.06L474.66,20.2L481.54,20.34L515.94,20.44L522.82,20.7L543.46,20.41L550.34,20.39L605.37,20.58L612.25,21.24L619.13,20.65L626.01,21.29L653.52,20.7L660.4,20.69L687.92,21.24L694.8,20.92L818.62,21.53L825.5,22.19L839.26,21.8L846.14,21.78L853.02,22.85L859.9,21.65L949.33,22.26L956.21,22.54L990.6,22.57L997.48,22.72L1025,22.69" style="vector-effect: none; fill: none; stroke: rgb(67, 67, 72); stroke-opacity: 1; stroke-width: 2px; opacity: 1;"/></g><g class="points"/><g class="text"/></g><g class="trace scatter trace8b21af" style="stroke-miterlimit: 2; opacity: 1;"><g class="fills"/><g class="errorbars"/><g class="lines"><path class="js-line" d="M0,20.6L13.76,20.37L20.64,20.37L41.28,20.04L48.15,20.06L68.79,19.89L75.67,20.11L89.43,19.97L96.31,20.17L220.13,19.31L227.01,19.92L240.77,19.48L247.65,19.55L282.05,20.01L288.93,21.05L295.81,19.73L302.68,19.73L330.2,19.64L337.08,19.82L385.23,19.61L392.11,19.58L460.91,19.79L467.79,20.63L474.66,19.75L481.54,19.88L515.94,20.04L522.82,20.31L536.58,20.06L543.46,20.05L605.37,20.32L612.25,20.98L619.13,20.41L626.01,21.05L653.52,20.55L660.4,20.57L687.92,21.21L694.8,20.9L818.62,22.29L825.5,23.06L839.26,22.73L846.14,22.78L853.02,23.94L859.9,22.76L949.33,24.06L956.21,24.4L983.72,24.65L990.6,24.77L1011.24,24.94L1018.12,24.92L1025,25.22" style="vector-effect: none; fill: none; stroke: rgb(144, 237, 125); stroke-opacity: 1; stroke-width: 2px; opacity: 1;"/></g><g class="points"/><g class="text"/></g><g class="trace scatter trace19ed2c" style="stroke-miterlimit: 2; opacity: 1;"><g class="fills"/><g class="errorbars"/><g class="lines"><path class="js-line" d="M0,21.26L6.88,21.42L13.76,20.61L41.28,20.39L48.15,20.39L55.03,19.96L61.91,20.33L82.55,19.99L89.43,20.2L130.7,20.3L137.58,20.02L206.38,19.77L213.26,19.91L220.13,19.69L227.01,20.34L247.65,19.99L254.53,19.94L282.05,19.96L288.93,21.16L295.81,19.92L302.68,19.91L405.87,20.04L412.75,20.23L440.27,20.08L447.15,20.07L460.91,20.18L467.79,21.01L474.66,20.14L481.54,20.27L515.94,20.39L522.82,20.66L536.58,20.39L543.46,20.38L605.37,20.59L612.25,21.25L619.13,20.66L626.01,21.3L653.52,20.73L660.4,20.75L687.92,21.32L694.8,20.99L818.62,21.72L825.5,22.42L839.26,22.03L846.14,22.01L853.02,23.15L859.9,21.92L949.33,22.58L956.21,22.88L990.6,22.95L997.48,23.1L1025,23.09" style="vector-effect: none; fill: none; stroke: rgb(247, 163, 92); stroke-opacity: 1; stroke-width: 2px; opacity: 1;"/></g><g class="points"/><g class="text"/></g><g class="trace scatter trace149adb" style="stroke-miterlimit: 2; opacity: 1;"><g class="fills"/><g class="errorbars"/><g class="lines"><path class="js-line" d="M0,24.67L27.52,22.23L34.4,21.87L48.15,22.46L55.03,22.1L61.91,22.62L68.79,22.21L158.22,22.01L165.1,21.62L185.74,21.96L192.62,21.73L227.01,22.3L233.89,21.86L275.17,21.98L282.05,21.91L288.93,23.16L295.81,21.89L460.91,22.08L467.79,22.87L474.66,22.03L481.54,22.16L515.94,22.27L522.82,22.53L536.58,22.27L543.46,22.24L605.37,22.42L612.25,23.06L619.13,22.52L626.01,23.12L653.52,22.57L660.4,22.57L687.92,23.12L694.8,22.78L818.62,23.55L825.5,24.23L839.26,23.85L846.14,23.82L853.02,24.91L859.9,23.72L976.85,24.53L983.72,24.67L1025,24.77" style="vector-effect: none; fill: none; stroke: rgb(128, 133, 233); stroke-opacity: 1; stroke-width: 2px; opacity: 1;"/></g><g class="points"/><g class="text"/></g><g class="trace scatter trace7a2c18" style="stroke-miterlimit: 2; opacity: 1;"><g class="fills"/><g class="errorbars"/><g class="lines"><path class="js-line" d="M0,22.85L13.76,21.79L20.64,21.4L34.4,20.49L41.28,21.13L96.31,20.85L103.19,21.02L123.83,20.63L130.7,20.75L171.98,20.35L178.86,20.34L282.05,20.46L288.93,21.72L295.81,20.46L302.68,20.38L364.6,20.31L371.48,20.28L454.03,20.38L460.91,20.4L467.79,21.19L474.66,20.35L522.82,20.85L529.7,20.51L598.49,20.67L605.37,20.72L612.25,21.37L619.13,20.8L626.01,21.43L632.89,21.13L653.52,20.84L660.4,20.84L687.92,21.37L694.8,21.05L818.62,21.68L825.5,22.34L839.26,21.94L846.14,21.91L853.02,22.97L859.9,21.79L949.33,22.3L956.21,22.58L1004.36,22.52L1011.24,22.59L1025,22.67" style="vector-effect: none; fill: none; stroke: rgb(241, 92, 128); stroke-opacity: 1; stroke-width: 2px; opacity: 1;"/></g><g class="points"/><g class="text"/></g><g class="trace scatter trace7f9fa0" style="stroke-miterlimit: 2; opacity: 1;"><g class="fills"/><g class="errorbars"/><g class="lines"><path class="js-line" d="M0,24.91L6.88,24.4L13.76,23.05L20.64,23.38L27.52,22.22L34.4,21.6L41.28,22.91L48.15,24.08L55.03,23.37L61.91,25.18L68.79,24.31L75.67,25.55L82.55,24.39L89.43,24.19L96.31,25.54L103.19,23.73L110.07,23.58L116.95,22.21L123.83,22.74L137.58,22.25L144.46,21.77L165.1,21.21L171.98,22.14L178.86,22.12L185.74,23.06L213.26,21.34L220.13,21.38L240.77,24.4L247.65,23.29L261.41,22.77L268.29,21.97L282.05,21.12L288.93,22.38L295.81,21.09L302.68,21.05L330.2,21.11L337.08,21.42L350.84,21.71L357.72,21.32L460.91,21.29L467.79,22.34L474.66,21.28L481.54,21.36L509.06,21.48L515.94,21.52L536.58,21.41L543.46,21.37L605.37,21.67L612.25,22.32L619.13,21.74L626.01,22.43L653.52,21.85L660.4,21.86L687.92,22.48L694.8,22.21L791.11,23.77L797.99,23.9L846.14,25.52L853.02,26.66L859.9,25.65L866.78,25.84L942.45,27.64L949.33,27.78L963.09,28.03L969.97,27.89L997.48,28.94L1004.36,28.73L1025,29.17" style="vector-effect: none; fill: none; stroke: rgb(228, 211, 84); stroke-opacity: 1; stroke-width: 2px; opacity: 1;"/></g><g class="points"/><g class="text"/></g><g class="trace scatter trace9cd700" style="stroke-miterlimit: 2; opacity: 1;"><g class="fills"/><g class="errorbars"/><g class="lines"><path class="js-line" d="M0,28.74L6.88,28.39L13.76,26.47L34.4,24.74L41.28,25.87L48.15,26.43L55.03,25.75L61.91,26.55L68.79,25.96L96.31,26.44L103.19,26.15L123.83,25.47L130.7,25.71L165.1,24.5L171.98,25.01L240.77,24.84L247.65,25.06L282.05,24.77L288.93,26.06L295.81,24.85L302.68,24.65L330.2,24.54L337.08,24.9L350.84,25.01L357.72,24.68L460.91,24.59L467.79,25.49L474.66,24.56L481.54,24.68L515.94,24.82L522.82,25.05L536.58,24.74L543.46,24.72L605.37,24.92L612.25,25.57L619.13,25.01L626.01,25.67L653.52,25.08L660.4,25.07L687.92,25.65L694.8,25.32L818.62,26.39L825.5,27.11L839.26,26.82L846.14,26.84L853.02,27.92L859.9,26.77L1025,28.3" style="vector-effect: none; fill: none; stroke: rgb(43, 144, 143); stroke-opacity: 1; stroke-width: 2px; opacity: 1;"/></g><g class="points"/><g class="text"/></g><g class="trace scatter trace638cef" style="stroke-miterlimit: 2; opacity: 1;"><g class="fills"/><g class="errorbars"/><g class="lines"><path class="js-line" d="M0,24.28L6.88,23.91L13.76,22.68L34.4,21.12L41.28,21.65L82.55,21.05L89.43,21.29L137.58,21.01L144.46,20.99L220.13,20.65L227.01,21.25L240.77,20.85L247.65,20.88L282.05,20.74L288.93,22.1L295.81,20.81L302.68,20.79L447.15,20.85L454.03,20.9L460.91,20.94L467.79,21.74L474.66,20.88L481.54,21.02L515.94,21.12L522.82,21.38L543.46,21.08L550.34,21.07L605.37,21.23L612.25,21.87L619.13,21.3L626.01,21.94L653.52,21.34L660.4,21.33L687.92,21.88L694.8,21.53L818.62,22.12L825.5,22.79L839.26,22.37L846.14,22.34L853.02,23.43L859.9,22.2L949.33,22.69L956.21,22.97L1004.36,22.9L1011.24,22.97L1025,23.03" style="vector-effect: none; fill: none; stroke: rgb(244, 91, 91); stroke-opacity: 1; stroke-width: 2px; opacity: 1;"/></g><g class="points"/><g class="text"/></g><g class="trace scatter trace955833" style="stroke-miterlimit: 2; opacity: 1;"><g class="fills"/><g class="errorbars"/><g class="lines"><path class="js-line" d="M0,22.34L6.88,22.11L13.76,21.03L34.4,20.14L41.28,20.84L89.43,20.62L96.31,20.69L110.07,20.64L116.95,20.39L144.46,20.43L151.34,20.29L282.05,20.57L288.93,21.81L295.81,20.58L302.68,20.47L330.2,20.32L337.08,20.49L460.91,20.45L467.79,21.31L474.66,20.44L481.54,20.57L509.06,20.55L515.94,20.68L529.7,20.59L536.58,20.67L605.37,20.85L612.25,21.51L619.13,20.93L626.01,21.59L653.52,21L660.4,21.01L687.92,21.58L694.8,21.24L818.62,22L825.5,22.7L839.26,22.31L846.14,22.27L853.02,23.42L859.9,22.19L949.33,22.9L956.21,23.18L990.6,23.28L997.48,23.45L1018.12,23.23L1025,23.45" style="vector-effect: none; fill: none; stroke: rgb(145, 232, 225); stroke-opacity: 1; stroke-width: 2px; opacity: 1;"/></g><g class="points"/><g class="text"/></g></g></g></g><g class="zerolinelayer-above"/><path class="xlines-above crisp" d="M0,0" style="fill: none;"/><path class="ylines-above crisp" d="M0,0" style="fill: none;"/><g class="overlines-above"/><g class="xaxislayer-above"><g class="xtick"><text text-anchor="middle" x="0" y="451" transform="translate(190.7,0)" style="font-family: 'Lucida Grande', 'Open Sans', verdana, arial, sans-serif; font-size: 10px; fill: rgb(0, 0, 0); fill-opacity: 1; white-space: pre;">20</text></g><g class="xtick"><text text-anchor="middle" x="0" y="451" style="font-family: 'Lucida Grande', 'Open Sans', verdana, arial, sans-serif; font-size: 10px; fill: rgb(0, 0, 0); fill-opacity: 1; white-space: pre;" transform="translate(328.29,0)">40</text></g><g class="xtick"><text text-anchor="middle" x="0" y="451" style="font-family: 'Lucida Grande', 'Open Sans', verdana, arial, sans-serif; font-size: 10px; fill: rgb(0, 0, 0); fill-opacity: 1; white-space: pre;" transform="translate(465.87,0)">60</text></g><g class="xtick"><text text-anchor="middle" x="0" y="451" style="font-family: 'Lucida Grande', 'Open Sans', verdana, arial, sans-serif; font-size: 10px; fill: rgb(0, 0, 0); fill-opacity: 1; white-space: pre;" transform="translate(603.46,0)">80</text></g><g class="xtick"><text text-anchor="middle" x="0" y="451" style="font-family: 'Lucida Grande', 'Open Sans', verdana, arial, sans-serif; font-size: 10px; fill: rgb(0, 0, 0); fill-opacity: 1; white-space: pre;" transform="translate(741.04,0)">100</text></g><g class="xtick"><text text-anchor="middle" x="0" y="451" style="font-family: 'Lucida Grande', 'Open Sans', verdana, arial, sans-serif; font-size: 10px; fill: rgb(0, 0, 0); fill-opacity: 1; white-space: pre;" transform="translate(878.62,0)">120</text></g><g class="xtick"><text text-anchor="middle" x="0" y="451" style="font-family: 'Lucida Grande', 'Open Sans', verdana, arial, sans-serif; font-size: 10px; fill: rgb(0, 0, 0); fill-opacity: 1; white-space: pre;" transform="translate(1016.21,0)">140</text></g></g><g class="yaxislayer-above"><g class="ytick"><text text-anchor="end" x="54" y="3.5" transform="translate(0,435)" style="font-family: 'Lucida Grande', 'Open Sans', verdana, arial, sans-serif; font-size: 10px; fill: rgb(0, 0, 0); fill-opacity: 1; white-space: pre;">0</text></g><g class="ytick"><text text-anchor="end" x="54" y="3.5" style="font-family: 'Lucida Grande', 'Open Sans', verdana, arial, sans-serif; font-size: 10px; fill: rgb(0, 0, 0); fill-opacity: 1; white-space: pre;" transform="translate(0,389.76)">5</text></g><g class="ytick"><text text-anchor="end" x="54" y="3.5" style="font-family: 'Lucida Grande', 'Open Sans', verdana, arial, sans-serif; font-size: 10px; fill: rgb(0, 0, 0); fill-opacity: 1; white-space: pre;" transform="translate(0,344.53)">10</text></g><g class="ytick"><text text-anchor="end" x="54" y="3.5" style="font-family: 'Lucida Grande', 'Open Sans', verdana, arial, sans-serif; font-size: 10px; fill: rgb(0, 0, 0); fill-opacity: 1; white-space: pre;" transform="translate(0,299.28999999999996)">15</text></g><g class="ytick"><text text-anchor="end" x="54" y="3.5" style="font-family: 'Lucida Grande', 'Open Sans', verdana, arial, sans-serif; font-size: 10px; fill: rgb(0, 0, 0); fill-opacity: 1; white-space: pre;" transform="translate(0,254.05)">20</text></g><g class="ytick"><text text-anchor="end" x="54" y="3.5" style="font-family: 'Lucida Grande', 'Open Sans', verdana, arial, sans-serif; font-size: 10px; fill: rgb(0, 0, 0); fill-opacity: 1; white-space: pre;" transform="translate(0,208.81)">25</text></g><g class="ytick"><text text-anchor="end" x="54" y="3.5" style="font-family: 'Lucida Grande', 'Open Sans', verdana, arial, sans-serif; font-size: 10px; fill: rgb(0, 0, 0); fill-opacity: 1; white-space: pre;" transform="translate(0,163.57999999999998)">30</text></g><g class="ytick"><text text-anchor="end" x="54" y="3.5" style="font-family: 'Lucida Grande', 'Open Sans', verdana, arial, sans-serif; font-size: 10px; fill: rgb(0, 0, 0); fill-opacity: 1; white-space: pre;" transform="translate(0,118.34)">35</text></g><g class="ytick"><text text-anchor="end" x="54" y="3.5" style="font-family: 'Lucida Grande', 'Open Sans', verdana, arial, sans-serif; font-size: 10px; fill: rgb(0, 0, 0); fill-opacity: 1; white-space: pre;" transform="translate(0,73.1)">40</text></g></g><g class="overaxes-above"/></g></g><g class="polarlayer"/><g class="smithlayer"/><g class="ternarylayer"/><g class="geolayer"/><g class="funnelarealayer"/><g class="pielayer"/><g class="iciclelayer"/><g class="treemaplayer"/><g class="sunburstlayer"/><g class="glimages"/><defs id="topdefs-8e7a75"><g class="clips"/></defs><g class="layer-above"><g class="imagelayer"/><g class="shapelayer"/></g><g class="infolayer"><g class="g-gtitle"><text class="gtitle" x="550" y="25" text-anchor="middle" dy="0em" style="opacity: 1; font-family: 'Lucida Grande', 'Open Sans', verdana, arial, sans-serif; font-size: 20px; fill: rgb(68, 68, 68); fill-opacity: 1; white-space: pre;"><tspan class="line" dy="0em" x="550" y="25">Fastp: Sequence Quality</tspan><tspan class="line" dy="1.3em" x="550" y="25">​<tspan style="font-size:70%" dy="-0.6em">Read 2: Before filtering, 10 lines</tspan><tspan dy="0.42em">​</tspan></tspan></text></g><g class="g-xtitle"><text class="xtitle" x="572.5" y="487" text-anchor="middle" style="opacity: 0.3; font-family: 'Lucida Grande', 'Open Sans', verdana, arial, sans-serif; font-size: 14px; fill: rgb(0, 0, 0); fill-opacity: 1; white-space: pre;">Read Position</text></g><g class="g-ytitle"><text class="ytitle" transform="rotate(-90,22,242.5)" x="22" y="242.5" text-anchor="middle" style="opacity: 0.3; font-family: 'Lucida Grande', 'Open Sans', verdana, arial, sans-serif; font-size: 14px; fill: rgb(0, 0, 0); fill-opacity: 1; white-space: pre;">R2 Before filtering: Sequence Quality</text></g></g></svg>