<svg class="main-svg" xmlns="http://www.w3.org/2000/svg" xmlns:xlink="http://www.w3.org/1999/xlink" width="2200" height="1000" style="" viewBox="0 0 1100 500"><rect x="0" y="0" width="1100" height="500" style="fill: rgb(255, 255, 255); fill-opacity: 1;"/><defs id="defs-1f001c"><g class="clips"><clipPath id="clip1f001cxyplot" class="plotclip"><rect width="1025" height="385"/></clipPath><clipPath class="axesclip" id="clip1f001cx"><rect x="60" y="0" width="1025" height="500"/></clipPath><clipPath class="axesclip" id="clip1f001cy"><rect x="0" y="50" width="1100" height="385"/></clipPath><clipPath class="axesclip" id="clip1f001cxy"><rect x="60" y="50" width="1025" height="385"/></clipPath></g><g class="gradients"/><g class="patterns"/></defs><g class="bglayer"/><g class="layer-below"><g class="imagelayer"/><g class="shapelayer"/></g><g class="cartesianlayer"><g class="subplot xy"><g class="layer-subplot"><g class="shapelayer"/><g class="imagelayer"/></g><g class="minor-gridlayer"><g class="x"/><g class="y"/></g><g class="gridlayer"><g class="x"><path class="xgrid crisp" transform="translate(190.7,0)" d="M0,50v385" style="stroke: rgb(0, 0, 0); stroke-opacity: 0.05; stroke-width: 1px;"/><path class="xgrid crisp" transform="translate(328.29,0)" d="M0,50v385" style="stroke: rgb(0, 0, 0); stroke-opacity: 0.05; stroke-width: 1px;"/><path class="xgrid crisp" transform="translate(465.87,0)" d="M0,50v385" style="stroke: rgb(0, 0, 0); stroke-opacity: 0.05; stroke-width: 1px;"/><path class="xgrid crisp" transform="translate(603.46,0)" d="M0,50v385" style="stroke: rgb(0, 0, 0); stroke-opacity: 0.05; stroke-width: 1px;"/><path class="xgrid crisp" transform="translate(741.04,0)" d="M0,50v385" style="stroke: rgb(0, 0, 0); stroke-opacity: 0.05; stroke-width: 1px;"/><path class="xgrid crisp" transform="translate(878.62,0)" d="M0,50v385" style="stroke: rgb(0, 0, 0); stroke-opacity: 0.05; stroke-width: 1px;"/><path class="xgrid crisp" transform="translate(1016.21,0)" d="M0,50v385" style="stroke: rgb(0, 0, 0); stroke-opacity: 0.05; stroke-width: 1px;"/></g><g class="y"><path class="ygrid crisp" transform="translate(0,358)" d="M60,0h1025" style="stroke: rgb(0, 0, 0); stroke-opacity: 0.05; stroke-width: 1px;"/><path class="ygrid crisp" transform="translate(0,281)" d="M60,0h1025" style="stroke: rgb(0, 0, 0); stroke-opacity: 0.05; stroke-width: 1px;"/><path class="ygrid crisp" transform="translate(0,204)" d="M60,0h1025" style="stroke: rgb(0, 0, 0); stroke-opacity: 0.05; stroke-width: 1px;"/><path class="ygrid crisp" transform="translate(0,127)" d="M60,0h1025" style="stroke: rgb(0, 0, 0); stroke-opacity: 0.05; stroke-width: 1px;"/></g></g><g class="zerolinelayer"><path class="yzl zl crisp" transform="translate(0,435)" d="M60,0h1025" style="stroke: rgb(0, 0, 0); stroke-opacity: 0.05; stroke-width: 1px;"/></g><g class="layer-between"><g class="shapelayer"/><g class="imagelayer"/></g><path class="xlines-below"/><path class="ylines-below"/><g class="overlines-below"/><g class="xaxislayer-below"/><g class="yaxislayer-below"/><g class="overaxes-below"/><g class="overplot"><g class="xy" transform="translate(60,50)" clip-path="url(#clip1f001cxyplot)"><g class="scatterlayer mlayer"><g class="trace scatter traced2b058" style="stroke-miterlimit: 2; opacity: 1;"><g class="fills"/><g class="errorbars"/><g class="lines"><path class="js-line" d="M0,115.48L6.88,193.33L13.76,179.59L20.64,171.05L27.52,175.15L34.4,184.64L41.28,183.38L48.15,172.7L55.03,177.75L61.91,186.11L68.79,154.66L75.67,162.25L82.55,171.82L89.43,177.87L96.31,176.94L103.19,173.7L110.07,175.44L123.83,172.16L130.7,175.9L137.58,175.39L144.46,173.53L151.34,176.54L158.22,176.06L165.1,173.81L171.98,176.61L178.86,176L185.74,173.7L192.62,176.09L199.5,175.75L206.38,173.75L213.26,176.8L220.13,176.13L227.01,174.21L233.89,176.66L240.77,175.84L247.65,173.47L254.53,176.36L261.41,175.56L268.29,173.61L275.17,176.28L282.05,175.72L288.93,173.9L295.81,176.44L302.68,175.84L309.56,173.63L316.44,176.36L323.32,175.69L330.2,173.36L337.08,176.17L343.96,175.34L350.84,173.48L357.72,176.18L364.6,175.56L371.48,173.49L378.36,176.28L385.23,175.56L392.11,173.44L398.99,176.09L405.87,175.43L412.75,173.27L419.63,176.18L426.51,175.5L433.39,173.57L440.27,176.16L447.15,175.58L454.03,173.24L460.91,175.97L467.79,175.69L474.66,173.41L481.54,176.18L488.42,175.54L495.3,173.45L502.18,176.08L509.06,175.42L515.94,173.23L522.82,176.04L529.7,175.24L536.58,173.26L543.46,176.07L550.34,175.59L557.21,173.48L564.09,176.14L570.97,175.32L577.85,173.21L584.73,175.73L591.61,175.16L598.49,173.18L605.37,175.76L612.25,175.53L619.13,173.22L626.01,176.27L632.89,175.38L639.77,173.2L646.64,175.97L653.52,175.14L660.4,173.04L667.28,175.68L674.16,175.01L681.04,173.11L687.92,175.87L694.8,175.29L701.68,173.18L708.56,175.77L715.44,175.06L722.32,173.16L729.19,175.63L736.07,174.96L742.95,172.9L749.83,175.66L756.71,175.08L763.59,173.2L770.47,175.79L777.35,175.04L784.23,173.09L791.11,175.63L797.99,174.98L804.87,172.96L811.74,175.46L818.62,175.05L825.5,173.4L832.38,175.77L839.26,175.19L846.14,173.22L853.02,176.32L859.9,174.99L866.78,172.89L873.66,175.54L880.54,174.86L887.42,173.13L894.3,175.54L901.17,174.99L908.05,173.13L914.93,175.62L921.81,175.06L928.69,173.13L935.57,175.51L942.45,174.9L949.33,173.12L956.21,175.68L963.09,175.15L969.97,173.1L976.85,175.64L983.72,174.9L990.6,172.9L997.48,175.4L1004.36,175.04L1011.24,173.03L1018.12,175.57L1025,175.21" style="vector-effect: none; fill: none; stroke: rgb(124, 181, 236); stroke-opacity: 1; stroke-width: 2px; opacity: 1;"/></g><g class="points"/><g class="text"/></g><g class="trace scatter trace75a3e8" style="stroke-miterlimit: 2; opacity: 1;"><g class="fills"/><g class="errorbars"/><g class="lines"><path class="js-line" d="M0,111.98L6.88,191.65L13.76,176.83L20.64,169.35L27.52,173.03L34.4,182.15L41.28,180.77L48.15,170.8L55.03,175.15L61.91,182.55L68.79,152.34L75.67,159.64L82.55,168.4L89.43,174.69L96.31,173.83L103.19,170.46L110.07,172.57L116.95,171.29L123.83,169.13L130.7,173.03L137.58,172.5L144.46,170.48L151.34,173.85L158.22,173.33L165.1,170.81L171.98,173.94L178.86,173.3L185.74,170.65L192.62,173.11L199.5,173.06L206.38,170.72L213.26,173.98L220.13,173.37L227.01,171.31L233.89,174.1L240.77,173.18L247.65,170.64L254.53,173.6L261.41,172.83L268.29,170.66L275.17,173.59L282.05,173.01L288.93,170.92L295.81,173.68L302.68,173.18L309.56,170.8L316.44,173.71L323.32,173.03L330.2,170.36L337.08,173.46L343.96,172.66L350.84,170.53L357.72,173.5L364.6,173.02L371.48,170.7L378.36,173.55L385.23,172.98L392.11,170.55L398.99,173.26L405.87,172.75L412.75,170.17L419.63,173.48L426.51,173.06L433.39,170.75L440.27,173.63L447.15,173.01L454.03,170.39L460.91,173.31L467.79,172.9L474.66,170.47L481.54,173.43L488.42,172.94L495.3,170.66L502.18,173.49L509.06,172.82L515.94,170.39L522.82,173.32L529.7,172.73L536.58,170.29L543.46,173.44L550.34,172.89L557.21,170.68L564.09,173.66L570.97,172.76L577.85,170.42L584.73,173.1L591.61,172.41L598.49,170.32L605.37,173.12L612.25,173.03L619.13,170.48L626.01,173.69L632.89,172.83L639.77,170.39L646.64,173.29L653.52,172.58L660.4,170.14L667.28,173.08L674.16,172.38L681.04,170.22L687.92,173.19L694.8,172.74L701.68,170.33L708.56,173.17L715.44,172.63L722.32,170.33L729.19,172.99L736.07,172.27L742.95,170.02L749.83,172.91L756.71,172.32L763.59,170.42L770.47,173.13L777.35,172.51L784.23,170.15L791.11,173L797.99,172.22L804.87,170.02L811.74,172.71L818.62,172.33L825.5,170.5L832.38,173.15L839.26,172.54L846.14,170.38L853.02,173.64L859.9,172.46L866.78,169.97L873.66,172.9L880.54,172.14L887.42,170.44L894.3,172.87L901.17,172.43L908.05,170.2L914.93,173.02L921.81,172.26L928.69,170.23L935.57,172.77L942.45,172.24L949.33,170.23L956.21,173L963.09,172.45L969.97,170.28L976.85,172.84L983.72,172.15L990.6,170.07L997.48,172.76L1004.36,172.45L1011.24,170.1L1018.12,172.68L1025,172.49" style="vector-effect: none; fill: none; stroke: rgb(67, 67, 72); stroke-opacity: 1; stroke-width: 2px; opacity: 1;"/></g><g class="points"/><g class="text"/></g><g class="trace scatter tracef2799a" style="stroke-miterlimit: 2; opacity: 1;"><g class="fills"/><g class="errorbars"/><g class="lines"><path class="js-line" d="M0,120.87L6.88,208.84L13.76,193.24L20.64,184.92L27.52,187.27L34.4,198.03L41.28,197.17L48.15,185.58L55.03,189.86L61.91,199.85L68.79,166.33L75.67,174.97L82.55,185.15L89.43,190.58L96.31,189.64L103.19,186.76L110.07,187.99L116.95,187.03L123.83,185.18L130.7,188.25L137.58,187.95L144.46,186.57L151.34,189.23L158.22,189.18L165.1,186.96L171.98,189.31L178.86,188.92L185.74,186.65L192.62,188.46L199.5,188.5L206.38,186.66L213.26,189.39L220.13,188.98L227.01,187.39L233.89,189.56L240.77,188.93L247.65,186.88L254.53,189.2L261.41,188.6L268.29,186.72L275.17,188.94L282.05,188.79L288.93,187.07L295.81,189.18L302.68,188.98L309.56,187.18L316.44,189.35L323.32,188.86L330.2,186.58L337.08,189.11L343.96,188.39L350.84,186.88L357.72,189.07L364.6,188.97L371.48,186.95L378.36,189.2L385.23,188.76L392.11,187.02L398.99,188.85L405.87,188.74L412.75,186.6L419.63,189.17L426.51,188.95L433.39,187.15L440.27,189.21L447.15,188.92L454.03,186.81L460.91,189.1L467.79,188.95L474.66,186.81L481.54,189.11L488.42,188.9L495.3,187.02L502.18,189.1L509.06,188.75L515.94,186.83L522.82,189.01L529.7,188.66L536.58,186.7L543.46,189.2L550.34,188.85L557.21,187L564.09,189.36L570.97,188.6L577.85,186.84L584.73,188.78L591.61,188.46L598.49,186.85L605.37,188.83L612.25,189.03L619.13,186.9L626.01,189.41L632.89,188.83L639.77,186.74L646.64,189.08L653.52,188.54L660.4,186.56L667.28,188.72L674.16,188.41L681.04,186.53L687.92,188.89L694.8,188.83L701.68,186.78L708.56,188.86L715.44,188.49L722.32,186.86L729.19,188.78L736.07,188.28L742.95,186.47L749.83,188.78L756.71,188.54L763.59,186.91L770.47,188.92L777.35,188.55L784.23,186.68L791.11,188.79L797.99,188.12L804.87,186.41L811.74,188.49L818.62,188.34L825.5,186.95L832.38,188.99L839.26,188.77L846.14,186.83L853.02,189.48L859.9,188.43L866.78,186.36L873.66,188.64L880.54,188.19L887.42,186.83L894.3,188.68L901.17,188.44L908.05,186.76L914.93,188.79L921.81,188.37L928.69,186.72L935.57,188.59L942.45,188.29L949.33,186.59L956.21,188.8L963.09,188.44L969.97,186.8L976.85,188.65L983.72,188.26L990.6,186.44L997.48,188.5L1004.36,188.32L1011.24,186.57L1018.12,188.36L1025,188.41" style="vector-effect: none; fill: none; stroke: rgb(144, 237, 125); stroke-opacity: 1; stroke-width: 2px; opacity: 1;"/></g><g class="points"/><g class="text"/></g><g class="trace scatter tracee5f784" style="stroke-miterlimit: 2; opacity: 1;"><g class="fills"/><g class="errorbars"/><g class="lines"><path class="js-line" d="M0,113.28L6.88,190.96L13.76,176.89L20.64,169.62L27.52,173.76L34.4,181.96L41.28,180.33L48.15,170.29L55.03,174.4L61.91,183.38L68.79,153.1L75.67,160.37L82.55,169.19L89.43,175.26L96.31,174.16L103.19,171.23L110.07,173.19L123.83,169.68L130.7,173.45L144.46,171.26L151.34,174.42L158.22,173.9L165.1,171.74L171.98,174.49L178.86,173.64L185.74,171.37L192.62,173.56L199.5,173.46L206.38,171.42L213.26,174.56L220.13,173.95L227.01,172.24L233.89,174.94L240.77,173.7L247.65,171.55L254.53,174.25L261.41,173.04L268.29,171.43L275.17,174.13L282.05,173.46L288.93,171.8L295.81,174.26L302.68,173.7L309.56,171.55L316.44,174.26L323.32,173.38L330.2,171.05L337.08,174.07L343.96,172.88L350.84,171.46L357.72,174.15L364.6,173.4L371.48,171.52L378.36,174.09L385.23,173.26L392.11,171.27L398.99,173.43L405.87,172.94L412.75,170.91L419.63,174.15L426.51,173.6L433.39,171.74L440.27,174.27L447.15,173.39L454.03,171.06L460.91,173.72L467.79,173.16L474.66,171.15L481.54,173.81L488.42,173.29L495.3,171.49L502.18,174.05L509.06,173.21L515.94,171.04L522.82,173.62L529.7,172.85L536.58,171L543.46,173.99L550.34,173.27L557.21,171.43L564.09,174.21L577.85,171.21L584.73,173.56L591.61,172.75L598.49,171.09L605.37,173.45L612.25,173.14L619.13,171.15L626.01,174.14L632.89,173.17L639.77,171.13L646.64,173.73L653.52,172.73L660.4,170.74L667.28,173.38L674.16,172.56L681.04,170.9L687.92,173.57L694.8,173L701.68,171.12L708.56,173.6L722.32,171.06L729.19,173.26L736.07,172.46L742.95,170.49L749.83,173.28L756.71,172.5L763.59,171.12L770.47,173.56L777.35,172.64L784.23,170.75L791.11,173.29L797.99,172.17L804.87,170.56L811.74,172.9L818.62,172.52L825.5,171.09L832.38,173.61L839.26,172.97L846.14,171.07L853.02,174.08L866.78,170.47L873.66,173.14L887.42,171L894.3,173.28L901.17,172.65L908.05,171.03L914.93,173.43L921.81,172.4L928.69,170.75L935.57,173.08L942.45,172.49L949.33,170.77L956.21,173.51L963.09,172.67L969.97,170.97L976.85,173.27L983.72,172.38L990.6,170.58L997.48,172.94L1004.36,172.46L1011.24,170.64L1018.12,173.03L1025,172.72" style="vector-effect: none; fill: none; stroke: rgb(247, 163, 92); stroke-opacity: 1; stroke-width: 2px; opacity: 1;"/></g><g class="points"/><g class="text"/></g><g class="trace scatter tracec80935" style="stroke-miterlimit: 2; opacity: 1;"><g class="fills"/><g class="errorbars"/><g class="lines"><path class="js-line" d="M0,114.21L6.88,195.58L13.76,179.83L20.64,171.23L27.52,174.89L34.4,184.14L41.28,182.76L48.15,172.29L55.03,177.05L61.91,185.59L68.79,154.34L75.67,161.37L82.55,171.04L89.43,176.9L96.31,175.74L103.19,172.67L110.07,174.51L123.83,171.41L130.7,175.02L137.58,174.52L144.46,172.68L151.34,176L158.22,175.39L165.1,173.03L171.98,175.9L178.86,175.07L185.74,172.81L192.62,175.36L199.5,174.87L206.38,172.94L213.26,176.2L220.13,175.27L227.01,173.43L233.89,176.03L240.77,175.1L247.65,172.9L254.53,175.72L261.41,174.73L268.29,172.8L275.17,175.65L282.05,174.93L288.93,173.17L295.81,175.76L302.68,175.1L309.56,173.01L316.44,175.8L323.32,175L330.2,172.8L337.08,175.65L343.96,174.74L350.84,172.9L357.72,175.63L364.6,174.87L371.48,172.72L378.36,175.68L385.23,174.99L392.11,172.74L398.99,175.64L405.87,174.88L412.75,172.7L419.63,175.68L426.51,174.84L433.39,172.88L440.27,175.67L447.15,174.82L454.03,172.87L460.91,175.57L467.79,175.16L474.66,172.89L481.54,175.63L488.42,174.91L495.3,172.86L502.18,175.56L509.06,174.69L515.94,172.72L522.82,175.58L529.7,174.8L536.58,172.75L543.46,175.76L550.34,174.86L557.21,172.97L564.09,175.72L570.97,174.82L577.85,172.7L584.73,175.33L591.61,174.58L598.49,172.73L605.37,175.35L612.25,175.08L619.13,172.81L626.01,175.82L632.89,174.91L639.77,172.78L646.64,175.53L653.52,174.58L660.4,172.58L667.28,175.37L674.16,174.58L681.04,172.78L687.92,175.5L694.8,174.9L701.68,172.82L708.56,175.53L715.44,174.69L722.32,172.9L729.19,175.45L736.07,174.51L742.95,172.49L749.83,175.31L756.71,174.58L763.59,172.86L770.47,175.38L777.35,174.61L784.23,172.72L791.11,175.47L797.99,174.62L804.87,172.51L811.74,175.2L818.62,174.48L825.5,173.04L832.38,175.41L839.26,174.71L846.14,172.81L853.02,176.09L859.9,174.5L866.78,172.51L873.66,175.37L887.42,172.77L894.3,175.27L901.17,174.46L908.05,172.84L914.93,175.33L921.81,174.54L928.69,172.8L935.57,175.32L942.45,174.52L949.33,172.69L956.21,175.33L963.09,174.57L969.97,172.73L976.85,175.27L983.72,174.52L990.6,172.67L997.48,175.17L1004.36,174.74L1011.24,172.65L1018.12,175.24L1025,174.68" style="vector-effect: none; fill: none; stroke: rgb(128, 133, 233); stroke-opacity: 1; stroke-width: 2px; opacity: 1;"/></g><g class="points"/><g class="text"/></g><g class="trace scatter tracea56d03" style="stroke-miterlimit: 2; opacity: 1;"><g class="fills"/><g class="errorbars"/><g class="lines"><path class="js-line" d="M0,118.48L6.88,202.18L13.76,186.85L20.64,178.31L27.52,181.37L34.4,191.63L41.28,190.56L48.15,179.27L55.03,183.81L61.91,192.42L68.79,160.94L75.67,168.06L82.55,177.87L89.43,183.56L96.31,182.61L103.19,179.72L110.07,181.28L116.95,180.35L123.83,178.61L130.7,181.89L137.58,181.55L144.46,179.67L151.34,182.6L158.22,182.16L165.1,179.87L171.98,182.63L178.86,181.94L185.74,179.9L192.62,182.21L199.5,181.75L206.38,179.9L213.26,182.89L220.13,182.23L227.01,180.3L233.89,182.72L240.77,181.92L247.65,179.8L254.53,182.53L261.41,181.79L268.29,179.77L275.17,182.4L282.05,181.83L288.93,180.2L295.81,182.57L302.68,181.98L309.56,180.03L316.44,182.62L323.32,181.89L330.2,179.74L337.08,182.43L343.96,181.61L350.84,179.69L357.72,182.21L364.6,181.85L371.48,179.82L378.36,182.49L385.23,181.87L392.11,179.82L398.99,182.39L405.87,181.8L412.75,179.79L419.63,182.45L426.51,181.7L433.39,179.84L440.27,182.35L447.15,181.73L454.03,179.8L460.91,182.29L467.79,182.16L474.66,179.9L481.54,182.49L488.42,181.8L495.3,179.81L502.18,182.28L509.06,181.65L515.94,179.66L522.82,182.39L529.7,181.74L536.58,179.89L543.46,182.33L550.34,181.78L557.21,179.84L564.09,182.52L570.97,181.72L577.85,179.76L584.73,182.05L591.61,181.56L598.49,179.74L605.37,182.21L612.25,182.13L619.13,179.71L626.01,182.56L632.89,181.75L639.77,179.68L646.64,182.25L653.52,181.7L660.4,179.66L667.28,182.15L674.16,181.49L681.04,179.68L687.92,182.24L694.8,181.72L701.68,179.81L708.56,182.23L715.44,181.7L722.32,179.81L729.19,182.12L736.07,181.43L742.95,179.54L749.83,182.14L756.71,181.48L763.59,179.92L770.47,182.28L777.35,181.52L784.23,179.8L791.11,182.15L797.99,181.47L804.87,179.65L811.74,182L818.62,181.49L825.5,179.97L832.38,182.13L839.26,181.64L846.14,179.83L853.02,182.81L859.9,181.6L866.78,179.55L873.66,182.1L880.54,181.37L887.42,179.71L894.3,182.07L901.17,181.56L908.05,179.81L914.93,182.15L921.81,181.56L928.69,179.83L935.57,182.12L942.45,181.55L949.33,179.74L956.21,182.08L963.09,181.51L969.97,179.83L976.85,182.04L983.72,181.42L990.6,179.65L997.48,181.97L1004.36,181.67L1011.24,179.64L1018.12,181.95L1025,181.71" style="vector-effect: none; fill: none; stroke: rgb(241, 92, 128); stroke-opacity: 1; stroke-width: 2px; opacity: 1;"/></g><g class="points"/><g class="text"/></g><g class="trace scatter traceb7a228" style="stroke-miterlimit: 2; opacity: 1;"><g class="fills"/><g class="errorbars"/><g class="lines"><path class="js-line" d="M0,99.27L6.88,182.89L13.76,165.91L20.64,158.34L27.52,162.76L34.4,171.86L41.28,170.22L48.15,161.49L55.03,165.86L61.91,171.98L68.79,143.28L75.67,150.14L82.55,158.24L89.43,164.12L96.31,163.34L103.19,159.49L110.07,161.91L116.95,160.76L123.83,158.27L130.7,162.38L137.58,162.05L144.46,159.62L151.34,163.39L158.22,162.87L165.1,159.93L171.98,163.26L178.86,162.42L185.74,159.49L192.62,162.34L199.5,162.18L206.38,159.48L213.26,163.1L220.13,162.74L227.01,160.22L233.89,163.45L240.77,162.3L247.65,159.46L254.53,162.76L261.41,161.95L268.29,159.31L275.17,162.73L282.05,162.05L288.93,159.7L295.81,162.66L302.68,162.25L309.56,159.59L316.44,162.87L323.32,162.2L330.2,159.14L337.08,162.41L343.96,161.59L350.84,159.1L357.72,162.38L364.6,161.97L371.48,159.37L378.36,162.62L385.23,161.89L392.11,159.23L398.99,162.35L405.87,161.82L412.75,158.86L419.63,162.45L426.51,161.75L433.39,159.26L440.27,162.35L447.15,161.66L454.03,159L460.91,162.26L467.79,162.05L474.66,159L481.54,162.45L488.42,161.87L495.3,159.06L502.18,162.13L509.06,161.59L515.94,158.78L522.82,162.13L529.7,161.55L536.58,158.88L543.46,162.31L550.34,161.79L557.21,159.09L564.09,162.31L570.97,161.59L577.85,158.72L584.73,161.75L591.61,161.19L598.49,158.62L605.37,161.9L612.25,161.72L619.13,158.84L626.01,162.36L632.89,161.63L639.77,158.75L646.64,161.87L653.52,161.3L660.4,158.48L667.28,161.76L674.16,161.02L681.04,158.5L687.92,161.85L694.8,161.34L701.68,158.68L708.56,161.81L715.44,161.17L722.32,158.62L729.19,161.56L736.07,160.97L742.95,158.36L749.83,161.6L756.71,160.94L763.59,158.5L770.47,161.69L777.35,161.12L784.23,158.53L791.11,161.52L797.99,160.87L804.87,158.19L811.74,161.44L818.62,160.81L825.5,158.7L832.38,161.59L839.26,161.06L846.14,158.49L853.02,162.29L859.9,161.01L866.78,158.19L873.66,161.42L880.54,160.79L887.42,158.32L894.3,161.44L901.17,160.9L908.05,158.3L914.93,161.48L921.81,160.91L928.69,158.37L935.57,161.33L942.45,160.91L949.33,158.25L956.21,161.6L963.09,160.87L969.97,158.33L976.85,161.34L983.72,160.7L990.6,158.29L997.48,161.32L1004.36,160.98L1011.24,158.1L1018.12,161.19L1025,161.03" style="vector-effect: none; fill: none; stroke: rgb(228, 211, 84); stroke-opacity: 1; stroke-width: 2px; opacity: 1;"/></g><g class="points"/><g class="text"/></g><g class="trace scatter trace710c65" style="stroke-miterlimit: 2; opacity: 1;"><g class="fills"/><g class="errorbars"/><g class="lines"><path class="js-line" d="M0,104.54L6.88,184.53L13.76,167.77L20.64,160.81L27.52,164.99L34.4,172.89L41.28,170.49L48.15,162.36L55.03,166.76L61.91,172.88L68.79,145.25L75.67,151.4L82.55,158.6L89.43,165.11L96.31,164.07L103.19,160.6L110.07,163.6L116.95,162.34L123.83,159.68L130.7,163.98L137.58,163.34L144.46,160.66L151.34,164.75L158.22,164.02L165.1,161.02L171.98,164.75L178.86,163.86L185.74,160.96L192.62,164.17L199.5,163.7L206.38,160.94L213.26,164.86L220.13,163.87L227.01,161.29L233.89,164.78L240.77,163.72L247.65,160.77L254.53,164.46L261.41,163.59L268.29,160.67L275.17,164.32L282.05,163.5L288.93,161.08L295.81,164.35L302.68,163.63L309.56,160.79L316.44,164.39L323.32,163.52L330.2,160.49L337.08,164.24L343.96,163.11L350.84,160.54L357.72,164.17L364.6,163.3L371.48,160.65L378.36,164.2L385.23,163.36L392.11,160.63L398.99,164.04L405.87,163.21L412.75,160.4L419.63,164.08L426.51,163.38L433.39,160.6L440.27,164.07L447.15,163.23L454.03,160.26L460.91,163.91L467.79,163.45L474.66,160.5L481.54,164.12L488.42,163.3L495.3,160.45L502.18,163.85L509.06,163.01L515.94,160.23L522.82,163.89L529.7,163.01L536.58,160.4L543.46,163.9L550.34,163.23L557.21,160.56L564.09,163.97L570.97,162.99L577.85,160.33L584.73,163.58L591.61,162.83L598.49,160.23L605.37,163.59L612.25,163.35L619.13,160.32L626.01,164.18L632.89,163.15L639.77,160.23L646.64,163.76L653.52,162.8L660.4,160.05L667.28,163.44L674.16,162.64L681.04,160.14L687.92,163.68L694.8,162.94L701.68,160.21L708.56,163.65L715.44,162.72L722.32,160.17L729.19,163.45L736.07,162.6L742.95,159.92L749.83,163.42L756.71,162.54L763.59,160.23L770.47,163.62L777.35,162.8L784.23,160.03L791.11,163.39L797.99,162.47L804.87,159.91L811.74,163.23L818.62,162.49L825.5,160.38L832.38,163.49L839.26,162.73L846.14,160.03L853.02,164.07L859.9,162.53L866.78,159.89L873.66,163.38L880.54,162.41L887.42,160.08L894.3,163.33L901.17,162.55L908.05,160.09L914.93,163.34L921.81,162.56L928.69,160.05L935.57,163.3L942.45,162.53L949.33,160.02L956.21,163.34L963.09,162.57L969.97,160.01L976.85,163.26L983.72,162.38L990.6,160.01L997.48,163.17L1004.36,162.54L1011.24,159.92L1018.12,163.18L1025,162.7" style="vector-effect: none; fill: none; stroke: rgb(43, 144, 143); stroke-opacity: 1; stroke-width: 2px; opacity: 1;"/></g><g class="points"/><g class="text"/></g><g class="trace scatter trace597191" style="stroke-miterlimit: 2; opacity: 1;"><g class="fills"/><g class="errorbars"/><g class="lines"><path class="js-line" d="M0,116.6L6.88,200.3L13.76,185L20.64,176.26L27.52,179.69L34.4,189.7L41.28,188.55L48.15,177.31L55.03,181.97L61.91,190.9L68.79,159.34L75.67,166.26L82.55,176.35L89.43,181.9L96.31,180.87L103.19,178.06L110.07,179.53L123.83,176.87L130.7,180.24L137.58,179.95L144.46,178.16L151.34,181.06L158.22,180.58L165.1,178.35L171.98,180.96L178.86,180.25L185.74,178.2L192.62,180.5L199.5,180.11L206.38,178.37L213.26,181.24L220.13,180.54L227.01,178.9L233.89,181.05L240.77,180.33L247.65,178.3L254.53,180.91L261.41,180.09L268.29,178.3L275.17,180.83L282.05,180.25L288.93,178.64L295.81,181.01L302.68,180.32L309.56,178.51L316.44,181.01L323.32,180.31L330.2,178.2L337.08,180.78L343.96,180.04L350.84,178.28L357.72,180.76L364.6,180.23L371.48,178.35L378.36,180.93L385.23,180.25L392.11,178.43L398.99,180.92L405.87,180.28L412.75,178.21L419.63,180.77L426.51,180.21L433.39,178.39L440.27,180.89L447.15,180.19L454.03,178.3L460.91,180.94L467.79,180.56L474.66,178.41L481.54,180.97L488.42,180.32L495.3,178.36L502.18,180.83L509.06,180.11L515.94,178.24L522.82,180.87L529.7,180.12L536.58,178.4L543.46,180.94L550.34,180.42L557.21,178.53L564.09,180.93L570.97,180.29L577.85,178.44L584.73,180.66L591.61,180.13L598.49,178.32L605.37,180.76L612.25,180.64L619.13,178.52L626.01,181.11L632.89,180.32L639.77,178.32L646.64,180.93L653.52,180.27L660.4,178.17L667.28,180.61L674.16,180.07L681.04,178.36L687.92,180.87L694.8,180.34L701.68,178.46L708.56,180.86L715.44,180.14L722.32,178.36L729.19,180.7L736.07,180.13L742.95,178.26L749.83,180.65L756.71,180.03L763.59,178.51L770.47,180.79L777.35,180.17L784.23,178.4L791.11,180.71L797.99,180.18L804.87,178.24L811.74,180.55L818.62,180.08L825.5,178.55L832.38,180.76L839.26,180.24L846.14,178.46L853.02,181.36L859.9,180.19L866.78,178.25L873.66,180.68L880.54,180.01L887.42,178.45L894.3,180.6L901.17,180.11L908.05,178.41L914.93,180.74L921.81,180.14L928.69,178.5L935.57,180.74L942.45,180.19L949.33,178.43L956.21,180.71L963.09,180.16L969.97,178.34L976.85,180.67L983.72,180.09L990.6,178.22L997.48,180.65L1004.36,180.27L1011.24,178.35L1018.12,180.57L1025,180.28" style="vector-effect: none; fill: none; stroke: rgb(244, 91, 91); stroke-opacity: 1; stroke-width: 2px; opacity: 1;"/></g><g class="points"/><g class="text"/></g><g class="trace scatter traceff0a6d" style="stroke-miterlimit: 2; opacity: 1;"><g class="fills"/><g class="errorbars"/><g class="lines"><path class="js-line" d="M0,107.52L6.88,185.05L13.76,169.9L20.64,161.25L27.52,165.74L34.4,173.59L41.28,171.47L48.15,162.66L55.03,167.5L61.91,175.7L68.79,146.96L75.67,153.06L82.55,161.38L89.43,167.47L96.31,166.01L103.19,162.59L110.07,165.17L116.95,163.72L123.83,161.45L130.7,165.87L137.58,165.13L144.46,162.83L151.34,166.6L158.22,165.88L165.1,163.23L171.98,166.62L178.86,165.66L185.74,162.99L192.62,166.19L199.5,165.51L206.38,163.16L213.26,166.88L220.13,165.94L227.01,163.69L233.89,166.92L240.77,165.61L247.65,163.09L254.53,166.53L261.41,165.34L268.29,163.08L275.17,166.47L282.05,165.5L288.93,163.41L295.81,166.61L302.68,165.71L309.56,163.2L316.44,166.62L323.32,165.49L330.2,162.93L337.08,166.3L343.96,165.26L350.84,162.93L357.72,166.36L364.6,165.37L371.48,163L378.36,166.4L385.23,165.42L392.11,162.97L398.99,166.25L405.87,165.32L412.75,162.76L419.63,166.24L426.51,165.3L433.39,163.07L440.27,166.3L447.15,165.34L454.03,162.73L460.91,166.17L467.79,165.62L474.66,162.91L481.54,166.27L488.42,165.44L495.3,162.96L502.18,166.19L509.06,165.28L515.94,162.78L522.82,166.1L529.7,165.13L536.58,162.82L543.46,166.3L550.34,165.4L557.21,163.01L564.09,166.29L570.97,165.13L577.85,162.89L584.73,165.98L591.61,165.04L598.49,162.7L605.37,166.06L612.25,165.47L619.13,162.93L626.01,166.43L632.89,165.35L639.77,162.8L646.64,166.2L653.52,164.96L660.4,162.54L667.28,165.85L674.16,164.82L681.04,162.66L687.92,165.99L694.8,165.19L701.68,162.82L708.56,165.97L715.44,164.94L722.32,162.79L729.19,165.83L736.07,164.8L742.95,162.5L749.83,165.77L756.71,164.81L763.59,162.83L770.47,165.91L777.35,165L784.23,162.66L791.11,165.85L797.99,164.7L804.87,162.45L811.74,165.6L818.62,164.81L825.5,163L832.38,165.92L839.26,165.05L846.14,162.79L853.02,166.63L866.78,162.44L873.66,165.74L880.54,164.7L887.42,162.63L894.3,165.67L901.17,164.84L908.05,162.77L914.93,165.79L921.81,164.8L928.69,162.67L935.57,165.7L942.45,164.73L949.33,162.55L956.21,165.77L963.09,164.83L969.97,162.65L976.85,165.63L983.72,164.77L990.6,162.61L997.48,165.54L1004.36,164.84L1011.24,162.44L1018.12,165.59L1025,164.94" style="vector-effect: none; fill: none; stroke: rgb(145, 232, 225); stroke-opacity: 1; stroke-width: 2px; opacity: 1;"/></g><g class="points"/><g class="text"/></g></g></g></g><g class="zerolinelayer-above"/><path class="xlines-above crisp" d="M0,0" style="fill: none;"/><path class="ylines-above crisp" d="M0,0" style="fill: none;"/><g class="overlines-above"/><g class="xaxislayer-above"><g class="xtick"><text text-anchor="middle" x="0" y="451" transform="translate(190.7,0)" style="font-family: 'Lucida Grande', 'Open Sans', verdana, arial, sans-serif; font-size: 10px; fill: rgb(0, 0, 0); fill-opacity: 1; white-space: pre;">20</text></g><g class="xtick"><text text-anchor="middle" x="0" y="451" style="font-family: 'Lucida Grande', 'Open Sans', verdana, arial, sans-serif; font-size: 10px; fill: rgb(0, 0, 0); fill-opacity: 1; white-space: pre;" transform="translate(328.29,0)">40</text></g><g class="xtick"><text text-anchor="middle" x="0" y="451" style="font-family: 'Lucida Grande', 'Open Sans', verdana, arial, sans-serif; font-size: 10px; fill: rgb(0, 0, 0); fill-opacity: 1; white-space: pre;" transform="translate(465.87,0)">60</text></g><g class="xtick"><text text-anchor="middle" x="0" y="451" style="font-family: 'Lucida Grande', 'Open Sans', verdana, arial, sans-serif; font-size: 10px; fill: rgb(0, 0, 0); fill-opacity: 1; white-space: pre;" transform="translate(603.46,0)">80</text></g><g class="xtick"><text text-anchor="middle" x="0" y="451" style="font-family: 'Lucida Grande', 'Open Sans', verdana, arial, sans-serif; font-size: 10px; fill: rgb(0, 0, 0); fill-opacity: 1; white-space: pre;" transform="translate(741.04,0)">100</text></g><g class="xtick"><text text-anchor="middle" x="0" y="451" style="font-family: 'Lucida Grande', 'Open Sans', verdana, arial, sans-serif; font-size: 10px; fill: rgb(0, 0, 0); fill-opacity: 1; white-space: pre;" transform="translate(878.62,0)">120</text></g><g class="xtick"><text text-anchor="middle" x="0" y="451" style="font-family: 'Lucida Grande', 'Open Sans', verdana, arial, sans-serif; font-size: 10px; fill: rgb(0, 0, 0); fill-opacity: 1; white-space: pre;" transform="translate(1016.21,0)">140</text></g></g><g class="yaxislayer-above"><g class="ytick"><text text-anchor="end" x="54" y="3.5" transform="translate(0,435)" style="font-family: 'Lucida Grande', 'Open Sans', verdana, arial, sans-serif; font-size: 10px; fill: rgb(0, 0, 0); fill-opacity: 1; white-space: pre;">0%</text></g><g class="ytick"><text text-anchor="end" x="54" y="3.5" style="font-family: 'Lucida Grande', 'Open Sans', verdana, arial, sans-serif; font-size: 10px; fill: rgb(0, 0, 0); fill-opacity: 1; white-space: pre;" transform="translate(0,358)">20%</text></g><g class="ytick"><text text-anchor="end" x="54" y="3.5" style="font-family: 'Lucida Grande', 'Open Sans', verdana, arial, sans-serif; font-size: 10px; fill: rgb(0, 0, 0); fill-opacity: 1; white-space: pre;" transform="translate(0,281)">40%</text></g><g class="ytick"><text text-anchor="end" x="54" y="3.5" style="font-family: 'Lucida Grande', 'Open Sans', verdana, arial, sans-serif; font-size: 10px; fill: rgb(0, 0, 0); fill-opacity: 1; white-space: pre;" transform="translate(0,204)">60%</text></g><g class="ytick"><text text-anchor="end" x="54" y="3.5" style="font-family: 'Lucida Grande', 'Open Sans', verdana, arial, sans-serif; font-size: 10px; fill: rgb(0, 0, 0); fill-opacity: 1; white-space: pre;" transform="translate(0,127)">80%</text></g><g class="ytick"><text text-anchor="end" x="54" y="3.5" style="font-family: 'Lucida Grande', 'Open Sans', verdana, arial, sans-serif; font-size: 10px; fill: rgb(0, 0, 0); fill-opacity: 1; white-space: pre;" transform="translate(0,50)">100%</text></g></g><g class="overaxes-above"/></g></g><g class="polarlayer"/><g class="smithlayer"/><g class="ternarylayer"/><g class="geolayer"/><g class="funnelarealayer"/><g class="pielayer"/><g class="iciclelayer"/><g class="treemaplayer"/><g class="sunburstlayer"/><g class="glimages"/><defs id="topdefs-1f001c"><g class="clips"/></defs><g class="layer-above"><g class="imagelayer"/><g class="shapelayer"/></g><g class="infolayer"><g class="g-gtitle"><text class="gtitle" x="550" y="25" text-anchor="middle" dy="0em" style="opacity: 1; font-family: 'Lucida Grande', 'Open Sans', verdana, arial, sans-serif; font-size: 20px; fill: rgb(68, 68, 68); fill-opacity: 1; white-space: pre;"><tspan class="line" dy="0em" x="550" y="25">Fastp: Read GC Content</tspan><tspan class="line" dy="1.3em" x="550" y="25">​<tspan style="font-size:70%" dy="-0.6em">Read 2: After filtering, 10 lines</tspan><tspan dy="0.42em">​</tspan></tspan></text></g><g class="g-xtitle"><text class="xtitle" x="572.5" y="487" text-anchor="middle" style="opacity: 0.3; font-family: 'Lucida Grande', 'Open Sans', verdana, arial, sans-serif; font-size: 14px; fill: rgb(0, 0, 0); fill-opacity: 1; white-space: pre;">Read Position</text></g><g class="g-ytitle"><text class="ytitle" transform="rotate(-90,22,242.5)" x="22" y="242.5" text-anchor="middle" style="opacity: 0.3; font-family: 'Lucida Grande', 'Open Sans', verdana, arial, sans-serif; font-size: 14px; fill: rgb(0, 0, 0); fill-opacity: 1; white-space: pre;">R2 After filtering: Base Content Percent</text></g></g></svg>