<svg class="main-svg" xmlns="http://www.w3.org/2000/svg" xmlns:xlink="http://www.w3.org/1999/xlink" width="2200" height="1000" style="" viewBox="0 0 1100 500"><rect x="0" y="0" width="1100" height="500" style="fill: rgb(255, 255, 255); fill-opacity: 1;"/><defs id="defs-2e2484"><g class="clips"><clipPath id="clip2e2484xyplot" class="plotclip"><rect width="1025" height="385"/></clipPath><clipPath class="axesclip" id="clip2e2484x"><rect x="60" y="0" width="1025" height="500"/></clipPath><clipPath class="axesclip" id="clip2e2484y"><rect x="0" y="50" width="1100" height="385"/></clipPath><clipPath class="axesclip" id="clip2e2484xy"><rect x="60" y="50" width="1025" height="385"/></clipPath></g><g class="gradients"/><g class="patterns"/></defs><g class="bglayer"/><g class="layer-below"><g class="imagelayer"/><g class="shapelayer"/></g><g class="cartesianlayer"><g class="subplot xy"><g class="layer-subplot"><g class="shapelayer"/><g class="imagelayer"/></g><g class="minor-gridlayer"><g class="x"/><g class="y"/></g><g class="gridlayer"><g class="x"><path class="xgrid crisp" transform="translate(190.7,0)" d="M0,50v385" style="stroke: rgb(0, 0, 0); stroke-opacity: 0.05; stroke-width: 1px;"/><path class="xgrid crisp" transform="translate(328.29,0)" d="M0,50v385" style="stroke: rgb(0, 0, 0); stroke-opacity: 0.05; stroke-width: 1px;"/><path class="xgrid crisp" transform="translate(465.87,0)" d="M0,50v385" style="stroke: rgb(0, 0, 0); stroke-opacity: 0.05; stroke-width: 1px;"/><path class="xgrid crisp" transform="translate(603.46,0)" d="M0,50v385" style="stroke: rgb(0, 0, 0); stroke-opacity: 0.05; stroke-width: 1px;"/><path class="xgrid crisp" transform="translate(741.04,0)" d="M0,50v385" style="stroke: rgb(0, 0, 0); stroke-opacity: 0.05; stroke-width: 1px;"/><path class="xgrid crisp" transform="translate(878.62,0)" d="M0,50v385" style="stroke: rgb(0, 0, 0); stroke-opacity: 0.05; stroke-width: 1px;"/><path class="xgrid crisp" transform="translate(1016.21,0)" d="M0,50v385" style="stroke: rgb(0, 0, 0); stroke-opacity: 0.05; stroke-width: 1px;"/></g><g class="y"><path class="ygrid crisp" transform="translate(0,389.96)" d="M60,0h1025" style="stroke: rgb(0, 0, 0); stroke-opacity: 0.05; stroke-width: 1px;"/><path class="ygrid crisp" transform="translate(0,344.92)" d="M60,0h1025" style="stroke: rgb(0, 0, 0); stroke-opacity: 0.05; stroke-width: 1px;"/><path class="ygrid crisp" transform="translate(0,299.88)" d="M60,0h1025" style="stroke: rgb(0, 0, 0); stroke-opacity: 0.05; stroke-width: 1px;"/><path class="ygrid crisp" transform="translate(0,254.83)" d="M60,0h1025" style="stroke: rgb(0, 0, 0); stroke-opacity: 0.05; stroke-width: 1px;"/><path class="ygrid crisp" transform="translate(0,209.79)" d="M60,0h1025" style="stroke: rgb(0, 0, 0); stroke-opacity: 0.05; stroke-width: 1px;"/><path class="ygrid crisp" transform="translate(0,164.75)" d="M60,0h1025" style="stroke: rgb(0, 0, 0); stroke-opacity: 0.05; stroke-width: 1px;"/><path class="ygrid crisp" transform="translate(0,119.71)" d="M60,0h1025" style="stroke: rgb(0, 0, 0); stroke-opacity: 0.05; stroke-width: 1px;"/><path class="ygrid crisp" transform="translate(0,74.67)" d="M60,0h1025" style="stroke: rgb(0, 0, 0); stroke-opacity: 0.05; stroke-width: 1px;"/></g></g><g class="zerolinelayer"><path class="yzl zl crisp" transform="translate(0,435)" d="M60,0h1025" style="stroke: rgb(0, 0, 0); stroke-opacity: 0.05; stroke-width: 1px;"/></g><g class="layer-between"><g class="shapelayer"/><g class="imagelayer"/></g><path class="xlines-below"/><path class="ylines-below"/><g class="overlines-below"/><g class="xaxislayer-below"/><g class="yaxislayer-below"/><g class="overaxes-below"/><g class="overplot"><g class="xy" transform="translate(60,50)" clip-path="url(#clip2e2484xyplot)"><g class="scatterlayer mlayer"><g class="trace scatter traceb6a8ec" style="stroke-miterlimit: 2; opacity: 1;"><g class="fills"/><g class="errorbars"/><g class="lines"><path class="js-line" d="M0,22.29L13.76,21.43L20.64,21.25L34.4,20.3L41.28,20.79L68.79,20.19L75.67,20.06L158.22,19.98L165.1,19.66L185.74,19.83L192.62,19.63L213.26,19.94L220.13,19.7L227.01,20.28L233.89,19.81L282.05,19.79L288.93,21.02L295.81,19.86L302.68,19.79L460.91,19.91L467.79,20.68L474.66,19.87L481.54,19.99L515.94,20.08L522.82,20.34L543.46,20.05L550.34,20.06L605.37,20.19L612.25,20.84L619.13,20.25L626.01,20.85L653.52,20.27L660.4,20.29L687.92,20.76L694.8,20.42L846.14,20.93L853.02,22.07L859.9,20.8L866.78,20.78L921.81,21.08L928.69,20.99L1025,20.84" style="vector-effect: none; fill: none; stroke: rgb(124, 181, 236); stroke-opacity: 1; stroke-width: 2px; opacity: 1;"/></g><g class="points"/><g class="text"/></g><g class="trace scatter trace91fbd6" style="stroke-miterlimit: 2; opacity: 1;"><g class="fills"/><g class="errorbars"/><g class="lines"><path class="js-line" d="M0,23.08L6.88,22.95L13.76,21.77L34.4,20.28L41.28,20.82L75.67,20.02L82.55,19.96L110.07,20.19L116.95,20.04L158.22,19.97L165.1,19.64L185.74,19.77L192.62,19.58L213.26,19.89L220.13,19.67L227.01,20.22L233.89,19.78L282.05,19.77L288.93,21.01L295.81,19.85L302.68,19.77L460.91,19.89L467.79,20.67L474.66,19.88L481.54,20L515.94,20.09L522.82,20.33L543.46,20.05L550.34,20.06L605.37,20.19L612.25,20.84L619.13,20.24L626.01,20.84L653.52,20.25L660.4,20.24L687.92,20.74L694.8,20.42L846.14,20.94L853.02,22.05L859.9,20.8L866.78,20.79L928.69,21L935.57,20.99L997.48,21.11L1004.36,20.75L1025,20.87" style="vector-effect: none; fill: none; stroke: rgb(67, 67, 72); stroke-opacity: 1; stroke-width: 2px; opacity: 1;"/></g><g class="points"/><g class="text"/></g><g class="trace scatter trace07a6ee" style="stroke-miterlimit: 2; opacity: 1;"><g class="fills"/><g class="errorbars"/><g class="lines"><path class="js-line" d="M0,21.17L13.76,20.72L20.64,20.52L55.03,19.63L61.91,19.81L89.43,19.66L96.31,19.63L110.07,19.63L116.95,19.54L158.22,19.5L165.1,19.25L185.74,19.42L192.62,19.25L213.26,19.57L220.13,19.33L227.01,19.93L233.89,19.43L282.05,19.46L288.93,20.64L295.81,19.51L302.68,19.48L440.27,19.62L447.15,19.62L460.91,19.68L467.79,20.48L474.66,19.66L481.54,19.77L515.94,19.89L522.82,20.15L543.46,19.88L550.34,19.88L605.37,20.04L612.25,20.69L619.13,20.11L626.01,20.69L653.52,20.14L660.4,20.15L687.92,20.66L694.8,20.32L846.14,20.89L853.02,22.05L859.9,20.77L866.78,20.77L928.69,21L935.57,20.99L997.48,21.11L1004.36,20.72L1025,20.87" style="vector-effect: none; fill: none; stroke: rgb(144, 237, 125); stroke-opacity: 1; stroke-width: 2px; opacity: 1;"/></g><g class="points"/><g class="text"/></g><g class="trace scatter trace11a9da" style="stroke-miterlimit: 2; opacity: 1;"><g class="fills"/><g class="errorbars"/><g class="lines"><path class="js-line" d="M0,21.73L6.88,21.79L13.76,20.91L55.03,19.88L61.91,20.13L82.55,19.81L89.43,20L220.13,19.61L227.01,20.19L240.77,19.69L247.65,19.67L282.05,19.71L288.93,20.89L295.81,19.78L302.68,19.73L460.91,19.89L467.79,20.69L474.66,19.86L481.54,19.98L515.94,20.09L522.82,20.34L536.58,20.07L543.46,20.05L605.37,20.22L612.25,20.86L619.13,20.27L626.01,20.86L653.52,20.29L660.4,20.3L687.92,20.8L694.8,20.46L846.14,20.97L853.02,22.13L859.9,20.86L866.78,20.84L921.81,21.14L928.69,21.04L1025,20.88" style="vector-effect: none; fill: none; stroke: rgb(247, 163, 92); stroke-opacity: 1; stroke-width: 2px; opacity: 1;"/></g><g class="points"/><g class="text"/></g><g class="trace scatter traced38185" style="stroke-miterlimit: 2; opacity: 1;"><g class="fills"/><g class="errorbars"/><g class="lines"><path class="js-line" d="M0,23.96L13.76,21.83L20.64,21.61L34.4,20.48L41.28,20.97L75.67,20.23L82.55,20.25L110.07,20.48L116.95,20.3L158.22,20.21L165.1,19.87L185.74,20.02L192.62,19.81L213.26,20.12L220.13,19.9L227.01,20.47L233.89,20.01L282.05,19.98L288.93,21.23L295.81,20.05L302.68,19.98L460.91,20.08L467.79,20.85L474.66,20.05L481.54,20.16L515.94,20.27L522.82,20.52L543.46,20.22L550.34,20.25L605.37,20.38L612.25,21.02L619.13,20.45L626.01,21.03L653.52,20.47L660.4,20.48L687.92,20.96L694.8,20.61L791.11,20.86L797.99,20.87L832.38,21.19L839.26,21.24L846.14,21.15L853.02,22.28L859.9,21.04L866.78,21.03L928.69,21.23L935.57,21.24L997.48,21.32L1004.36,20.94L1025,21.07" style="vector-effect: none; fill: none; stroke: rgb(128, 133, 233); stroke-opacity: 1; stroke-width: 2px; opacity: 1;"/></g><g class="points"/><g class="text"/></g><g class="trace scatter traceda9004" style="stroke-miterlimit: 2; opacity: 1;"><g class="fills"/><g class="errorbars"/><g class="lines"><path class="js-line" d="M0,23.08L13.76,21.79L20.64,21.3L34.4,20.42L41.28,20.94L82.55,20.13L89.43,20.34L158.22,20.15L165.1,19.8L185.74,19.95L192.62,19.74L213.26,20.05L220.13,19.82L227.01,20.38L233.89,19.92L282.05,19.89L288.93,21.14L295.81,19.96L302.68,19.9L454.03,19.96L460.91,19.98L467.79,20.74L474.66,19.94L522.82,20.4L529.7,20.08L612.25,20.91L619.13,20.32L626.01,20.92L632.89,20.62L653.52,20.34L660.4,20.35L687.92,20.82L694.8,20.5L846.14,21.04L853.02,22.12L859.9,20.89L866.78,20.88L921.81,21.19L928.69,21.09L1025,20.93" style="vector-effect: none; fill: none; stroke: rgb(241, 92, 128); stroke-opacity: 1; stroke-width: 2px; opacity: 1;"/></g><g class="points"/><g class="text"/></g><g class="trace scatter tracea1f6e9" style="stroke-miterlimit: 2; opacity: 1;"><g class="fills"/><g class="errorbars"/><g class="lines"><path class="js-line" d="M0,25.16L27.52,21.43L34.4,21.11L41.28,21.65L48.15,21.39L55.03,20.98L61.91,21.35L82.55,20.87L89.43,21.1L158.22,20.81L165.1,20.43L185.74,20.62L192.62,20.36L213.26,20.67L220.13,20.43L227.01,21.03L233.89,20.57L282.05,20.5L288.93,21.78L295.81,20.59L302.68,20.52L398.99,20.55L405.87,20.54L433.39,20.57L440.27,20.53L460.91,20.59L467.79,21.43L474.66,20.58L481.54,20.69L515.94,20.79L522.82,21.03L543.46,20.75L550.34,20.75L605.37,20.92L612.25,21.57L619.13,20.98L626.01,21.61L653.52,20.99L660.4,20.99L687.92,21.49L694.8,21.16L846.14,21.74L853.02,22.9L859.9,21.62L866.78,21.62L921.81,21.95L928.69,21.86L1025,21.7" style="vector-effect: none; fill: none; stroke: rgb(228, 211, 84); stroke-opacity: 1; stroke-width: 2px; opacity: 1;"/></g><g class="points"/><g class="text"/></g><g class="trace scatter tracedf4d74" style="stroke-miterlimit: 2; opacity: 1;"><g class="fills"/><g class="errorbars"/><g class="lines"><path class="js-line" d="M0,26.8L6.88,25.84L13.76,23.69L34.4,21.58L41.28,22.25L82.55,21.21L89.43,21.53L206.38,20.83L213.26,20.93L220.13,20.72L227.01,21.28L240.77,20.81L247.65,20.79L282.05,20.78L288.93,22L295.81,20.79L302.68,20.7L405.87,20.68L412.75,20.85L447.15,20.66L454.03,20.7L460.91,20.71L467.79,21.55L474.66,20.69L481.54,20.8L515.94,20.9L522.82,21.15L543.46,20.85L550.34,20.85L605.37,21L612.25,21.64L619.13,21.06L626.01,21.69L653.52,21.07L660.4,21.07L687.92,21.57L694.8,21.22L839.26,21.87L846.14,21.79L853.02,22.9L859.9,21.64L1025,21.57" style="vector-effect: none; fill: none; stroke: rgb(43, 144, 143); stroke-opacity: 1; stroke-width: 2px; opacity: 1;"/></g><g class="points"/><g class="text"/></g><g class="trace scatter trace856014" style="stroke-miterlimit: 2; opacity: 1;"><g class="fills"/><g class="errorbars"/><g class="lines"><path class="js-line" d="M0,24.34L6.88,23.86L13.76,22.52L34.4,20.92L41.28,21.33L68.79,20.69L75.67,20.6L220.13,20.18L227.01,20.75L240.77,20.29L247.65,20.26L282.05,20.27L288.93,21.54L295.81,20.32L302.68,20.28L405.87,20.29L412.75,20.44L447.15,20.28L454.03,20.31L467.79,21.12L474.66,20.3L522.82,20.77L529.7,20.43L612.25,21.25L619.13,20.67L626.01,21.28L632.89,20.99L653.52,20.69L660.4,20.69L687.92,21.19L694.8,20.84L846.14,21.39L853.02,22.5L859.9,21.25L866.78,21.24L921.81,21.53L928.69,21.44L1025,21.22" style="vector-effect: none; fill: none; stroke: rgb(244, 91, 91); stroke-opacity: 1; stroke-width: 2px; opacity: 1;"/></g><g class="points"/><g class="text"/></g><g class="trace scatter tracec43319" style="stroke-miterlimit: 2; opacity: 1;"><g class="fills"/><g class="errorbars"/><g class="lines"><path class="js-line" d="M0,22.73L6.88,22.38L13.76,21.21L34.4,20.2L41.28,20.77L75.67,19.97L82.55,20.01L110.07,20.33L116.95,20.18L158.22,20.08L165.1,19.74L185.74,19.91L192.62,19.72L213.26,20.04L220.13,19.81L227.01,20.42L233.89,19.92L282.05,19.94L288.93,21.14L295.81,19.99L302.68,19.94L454.03,20.03L460.91,20.04L467.79,20.87L474.66,20.04L522.82,20.5L529.7,20.16L632.89,20.72L639.77,20.39L818.62,20.97L825.5,21.66L839.26,21.19L846.14,21.1L853.02,22.27L859.9,20.98L1025,21.04" style="vector-effect: none; fill: none; stroke: rgb(145, 232, 225); stroke-opacity: 1; stroke-width: 2px; opacity: 1;"/></g><g class="points"/><g class="text"/></g></g></g></g><g class="zerolinelayer-above"/><path class="xlines-above crisp" d="M0,0" style="fill: none;"/><path class="ylines-above crisp" d="M0,0" style="fill: none;"/><g class="overlines-above"/><g class="xaxislayer-above"><g class="xtick"><text text-anchor="middle" x="0" y="451" transform="translate(190.7,0)" style="font-family: 'Lucida Grande', 'Open Sans', verdana, arial, sans-serif; font-size: 10px; fill: rgb(0, 0, 0); fill-opacity: 1; white-space: pre;">20</text></g><g class="xtick"><text text-anchor="middle" x="0" y="451" style="font-family: 'Lucida Grande', 'Open Sans', verdana, arial, sans-serif; font-size: 10px; fill: rgb(0, 0, 0); fill-opacity: 1; white-space: pre;" transform="translate(328.29,0)">40</text></g><g class="xtick"><text text-anchor="middle" x="0" y="451" style="font-family: 'Lucida Grande', 'Open Sans', verdana, arial, sans-serif; font-size: 10px; fill: rgb(0, 0, 0); fill-opacity: 1; white-space: pre;" transform="translate(465.87,0)">60</text></g><g class="xtick"><text text-anchor="middle" x="0" y="451" style="font-family: 'Lucida Grande', 'Open Sans', verdana, arial, sans-serif; font-size: 10px; fill: rgb(0, 0, 0); fill-opacity: 1; white-space: pre;" transform="translate(603.46,0)">80</text></g><g class="xtick"><text text-anchor="middle" x="0" y="451" style="font-family: 'Lucida Grande', 'Open Sans', verdana, arial, sans-serif; font-size: 10px; fill: rgb(0, 0, 0); fill-opacity: 1; white-space: pre;" transform="translate(741.04,0)">100</text></g><g class="xtick"><text text-anchor="middle" x="0" y="451" style="font-family: 'Lucida Grande', 'Open Sans', verdana, arial, sans-serif; font-size: 10px; fill: rgb(0, 0, 0); fill-opacity: 1; white-space: pre;" transform="translate(878.62,0)">120</text></g><g class="xtick"><text text-anchor="middle" x="0" y="451" style="font-family: 'Lucida Grande', 'Open Sans', verdana, arial, sans-serif; font-size: 10px; fill: rgb(0, 0, 0); fill-opacity: 1; white-space: pre;" transform="translate(1016.21,0)">140</text></g></g><g class="yaxislayer-above"><g class="ytick"><text text-anchor="end" x="54" y="3.5" transform="translate(0,435)" style="font-family: 'Lucida Grande', 'Open Sans', verdana, arial, sans-serif; font-size: 10px; fill: rgb(0, 0, 0); fill-opacity: 1; white-space: pre;">0</text></g><g class="ytick"><text text-anchor="end" x="54" y="3.5" style="font-family: 'Lucida Grande', 'Open Sans', verdana, arial, sans-serif; font-size: 10px; fill: rgb(0, 0, 0); fill-opacity: 1; white-space: pre;" transform="translate(0,389.96)">5</text></g><g class="ytick"><text text-anchor="end" x="54" y="3.5" style="font-family: 'Lucida Grande', 'Open Sans', verdana, arial, sans-serif; font-size: 10px; fill: rgb(0, 0, 0); fill-opacity: 1; white-space: pre;" transform="translate(0,344.92)">10</text></g><g class="ytick"><text text-anchor="end" x="54" y="3.5" style="font-family: 'Lucida Grande', 'Open Sans', verdana, arial, sans-serif; font-size: 10px; fill: rgb(0, 0, 0); fill-opacity: 1; white-space: pre;" transform="translate(0,299.88)">15</text></g><g class="ytick"><text text-anchor="end" x="54" y="3.5" style="font-family: 'Lucida Grande', 'Open Sans', verdana, arial, sans-serif; font-size: 10px; fill: rgb(0, 0, 0); fill-opacity: 1; white-space: pre;" transform="translate(0,254.83)">20</text></g><g class="ytick"><text text-anchor="end" x="54" y="3.5" style="font-family: 'Lucida Grande', 'Open Sans', verdana, arial, sans-serif; font-size: 10px; fill: rgb(0, 0, 0); fill-opacity: 1; white-space: pre;" transform="translate(0,209.79)">25</text></g><g class="ytick"><text text-anchor="end" x="54" y="3.5" style="font-family: 'Lucida Grande', 'Open Sans', verdana, arial, sans-serif; font-size: 10px; fill: rgb(0, 0, 0); fill-opacity: 1; white-space: pre;" transform="translate(0,164.75)">30</text></g><g class="ytick"><text text-anchor="end" x="54" y="3.5" style="font-family: 'Lucida Grande', 'Open Sans', verdana, arial, sans-serif; font-size: 10px; fill: rgb(0, 0, 0); fill-opacity: 1; white-space: pre;" transform="translate(0,119.71)">35</text></g><g class="ytick"><text text-anchor="end" x="54" y="3.5" style="font-family: 'Lucida Grande', 'Open Sans', verdana, arial, sans-serif; font-size: 10px; fill: rgb(0, 0, 0); fill-opacity: 1; white-space: pre;" transform="translate(0,74.67)">40</text></g></g><g class="overaxes-above"/></g></g><g class="polarlayer"/><g class="smithlayer"/><g class="ternarylayer"/><g class="geolayer"/><g class="funnelarealayer"/><g class="pielayer"/><g class="iciclelayer"/><g class="treemaplayer"/><g class="sunburstlayer"/><g class="glimages"/><defs id="topdefs-2e2484"><g class="clips"/></defs><g class="layer-above"><g class="imagelayer"/><g class="shapelayer"/></g><g class="infolayer"><g class="g-gtitle"><text class="gtitle" x="550" y="25" text-anchor="middle" dy="0em" style="opacity: 1; font-family: 'Lucida Grande', 'Open Sans', verdana, arial, sans-serif; font-size: 20px; fill: rgb(68, 68, 68); fill-opacity: 1; white-space: pre;"><tspan class="line" dy="0em" x="550" y="25">Fastp: Sequence Quality</tspan><tspan class="line" dy="1.3em" x="550" y="25">​<tspan style="font-size:70%" dy="-0.6em">Read 2: After filtering, 10 lines</tspan><tspan dy="0.42em">​</tspan></tspan></text></g><g class="g-xtitle"><text class="xtitle" x="572.5" y="487" text-anchor="middle" style="opacity: 0.3; font-family: 'Lucida Grande', 'Open Sans', verdana, arial, sans-serif; font-size: 14px; fill: rgb(0, 0, 0); fill-opacity: 1; white-space: pre;">Read Position</text></g><g class="g-ytitle"><text class="ytitle" transform="rotate(-90,22,242.5)" x="22" y="242.5" text-anchor="middle" style="opacity: 0.3; font-family: 'Lucida Grande', 'Open Sans', verdana, arial, sans-serif; font-size: 14px; fill: rgb(0, 0, 0); fill-opacity: 1; white-space: pre;">R2 After filtering: Sequence Quality</text></g></g></svg>