<svg class="main-svg" xmlns="http://www.w3.org/2000/svg" xmlns:xlink="http://www.w3.org/1999/xlink" width="2200" height="1000" style="" viewBox="0 0 1100 500"><rect x="0" y="0" width="1100" height="500" style="fill: rgb(255, 255, 255); fill-opacity: 1;"/><defs id="defs-e26664"><g class="clips"><clipPath id="clipe26664xyplot" class="plotclip"><rect width="1025" height="385"/></clipPath><clipPath class="axesclip" id="clipe26664x"><rect x="60" y="0" width="1025" height="500"/></clipPath><clipPath class="axesclip" id="clipe26664y"><rect x="0" y="50" width="1100" height="385"/></clipPath><clipPath class="axesclip" id="clipe26664xy"><rect x="60" y="50" width="1025" height="385"/></clipPath></g><g class="gradients"/><g class="patterns"/></defs><g class="bglayer"/><g class="layer-below"><g class="imagelayer"/><g class="shapelayer"/></g><g class="cartesianlayer"><g class="subplot xy"><g class="layer-subplot"><g class="shapelayer"/><g class="imagelayer"/></g><g class="minor-gridlayer"><g class="x"/><g class="y"/></g><g class="gridlayer"><g class="x"><path class="xgrid crisp" transform="translate(190.7,0)" d="M0,50v385" style="stroke: rgb(0, 0, 0); stroke-opacity: 0.05; stroke-width: 1px;"/><path class="xgrid crisp" transform="translate(328.29,0)" d="M0,50v385" style="stroke: rgb(0, 0, 0); stroke-opacity: 0.05; stroke-width: 1px;"/><path class="xgrid crisp" transform="translate(465.87,0)" d="M0,50v385" style="stroke: rgb(0, 0, 0); stroke-opacity: 0.05; stroke-width: 1px;"/><path class="xgrid crisp" transform="translate(603.46,0)" d="M0,50v385" style="stroke: rgb(0, 0, 0); stroke-opacity: 0.05; stroke-width: 1px;"/><path class="xgrid crisp" transform="translate(741.04,0)" d="M0,50v385" style="stroke: rgb(0, 0, 0); stroke-opacity: 0.05; stroke-width: 1px;"/><path class="xgrid crisp" transform="translate(878.62,0)" d="M0,50v385" style="stroke: rgb(0, 0, 0); stroke-opacity: 0.05; stroke-width: 1px;"/><path class="xgrid crisp" transform="translate(1016.21,0)" d="M0,50v385" style="stroke: rgb(0, 0, 0); stroke-opacity: 0.05; stroke-width: 1px;"/></g><g class="y"><path class="ygrid crisp" transform="translate(0,358)" d="M60,0h1025" style="stroke: rgb(0, 0, 0); stroke-opacity: 0.05; stroke-width: 1px;"/><path class="ygrid crisp" transform="translate(0,281)" d="M60,0h1025" style="stroke: rgb(0, 0, 0); stroke-opacity: 0.05; stroke-width: 1px;"/><path class="ygrid crisp" transform="translate(0,204)" d="M60,0h1025" style="stroke: rgb(0, 0, 0); stroke-opacity: 0.05; stroke-width: 1px;"/><path class="ygrid crisp" transform="translate(0,127)" d="M60,0h1025" style="stroke: rgb(0, 0, 0); stroke-opacity: 0.05; stroke-width: 1px;"/></g></g><g class="zerolinelayer"><path class="yzl zl crisp" transform="translate(0,435)" d="M60,0h1025" style="stroke: rgb(0, 0, 0); stroke-opacity: 0.05; stroke-width: 1px;"/></g><g class="layer-between"><g class="shapelayer"/><g class="imagelayer"/></g><path class="xlines-below"/><path class="ylines-below"/><g class="overlines-below"/><g class="xaxislayer-below"/><g class="yaxislayer-below"/><g class="overaxes-below"/><g class="overplot"><g class="xy" transform="translate(60,50)" clip-path="url(#clipe26664xyplot)"><g class="scatterlayer mlayer"><g class="trace scatter tracef2f859" style="stroke-miterlimit: 2; opacity: 1;"><g class="fills"/><g class="errorbars"/><g class="lines"><path class="js-line" d="M0,385L96.31,385L103.19,378.66L110.07,384.98L116.95,385L123.83,384.86L130.7,378.73L137.58,385L144.46,385L206.38,385L213.26,378.64L220.13,385L227.01,372.68L233.89,385L240.77,385L282.05,384.78L288.93,372.14L295.81,385L302.68,385L460.91,384.98L467.79,372.36L474.66,385L481.54,385L515.94,385L522.82,378.7L529.7,385L536.58,384.77L564.09,385L570.97,385L605.37,385L612.25,372.2L619.13,384.99L626.01,378.22L632.89,384.41L639.77,385L681.04,384.99L687.92,378.8L694.8,384.99L701.68,384.89L749.83,385L756.71,385L818.62,384.99L825.5,372.84L832.38,384.9L839.26,384.85L846.14,384.96L853.02,360.28L859.9,385L866.78,384.99L942.45,384.97L949.33,383.59L956.21,381.96L963.09,383.04L969.97,384.9L976.85,384.95L997.48,383.81L1004.36,385L1025,385" style="vector-effect: none; fill: none; stroke: rgb(124, 181, 236); stroke-opacity: 1; stroke-width: 2px; opacity: 1;"/></g><g class="points"/><g class="text"/></g><g class="trace scatter trace7828da" style="stroke-miterlimit: 2; opacity: 1;"><g class="fills"/><g class="errorbars"/><g class="lines"><path class="js-line" d="M0,385L96.31,385L103.19,378.68L110.07,384.98L116.95,385L123.83,384.88L130.7,378.89L137.58,385L144.46,385L206.38,385L213.26,378.76L220.13,385L227.01,373.14L233.89,385L240.77,385L282.05,384.78L288.93,372.03L295.81,385L302.68,385L460.91,384.99L467.79,372.83L474.66,385L481.54,385L515.94,385L522.82,378.65L529.7,385L536.58,384.79L557.21,385L564.09,385L605.37,385L612.25,372.26L619.13,384.99L626.01,378.35L632.89,384.42L639.77,385L681.04,384.99L687.92,379.05L694.8,384.99L701.68,384.89L749.83,385L756.71,385L818.62,384.99L825.5,373.28L832.38,384.89L839.26,384.86L846.14,384.96L853.02,361.15L859.9,385L866.78,385L942.45,384.98L949.33,383.62L956.21,381.98L963.09,383.05L969.97,384.91L976.85,384.93L997.48,383.83L1004.36,385L1025,385" style="vector-effect: none; fill: none; stroke: rgb(67, 67, 72); stroke-opacity: 1; stroke-width: 2px; opacity: 1;"/></g><g class="points"/><g class="text"/></g><g class="trace scatter trace339f26" style="stroke-miterlimit: 2; opacity: 1;"><g class="fills"/><g class="errorbars"/><g class="lines"><path class="js-line" d="M0,385L96.31,385L103.19,378.62L110.07,384.97L116.95,385L123.83,384.86L130.7,378.68L137.58,385L144.46,385L206.38,385L213.26,378.5L220.13,385L227.01,372.38L233.89,385L240.77,385L282.05,384.76L288.93,372.13L295.81,385L302.68,385L460.91,384.99L467.79,371.87L474.66,385L481.54,385L515.94,385L522.82,378.61L529.7,385L536.58,384.76L564.09,385L570.97,385L605.37,385L612.25,372.22L619.13,384.99L626.01,378.16L632.89,384.4L639.77,385L681.04,384.99L687.92,378.72L694.8,384.99L701.68,384.9L756.71,385L763.59,385L818.62,384.99L825.5,372.47L832.38,384.89L839.26,384.83L846.14,384.96L853.02,359.69L859.9,385L866.78,385L942.45,384.98L949.33,383.58L956.21,381.94L963.09,383.05L969.97,384.91L976.85,384.93L997.48,383.78L1004.36,385L1025,385" style="vector-effect: none; fill: none; stroke: rgb(144, 237, 125); stroke-opacity: 1; stroke-width: 2px; opacity: 1;"/></g><g class="points"/><g class="text"/></g><g class="trace scatter tracefe1997" style="stroke-miterlimit: 2; opacity: 1;"><g class="fills"/><g class="errorbars"/><g class="lines"><path class="js-line" d="M0,385L96.31,385L103.19,378.64L110.07,384.98L116.95,385L123.83,384.87L130.7,378.76L137.58,385L144.46,385L206.38,385L213.26,378.66L220.13,385L227.01,372.66L233.89,385L240.77,385L282.05,384.77L288.93,372.39L295.81,385L302.68,385L460.91,384.99L467.79,372.13L474.66,385L481.54,385L515.94,385L522.82,378.69L529.7,385L536.58,384.76L564.09,385L570.97,385L605.37,385L612.25,372.19L619.13,384.99L626.01,378.25L632.89,384.42L639.77,385L681.04,384.99L687.92,378.74L694.8,384.99L701.68,384.9L756.71,385L763.59,385L818.62,384.99L825.5,372.65L832.38,384.9L839.26,384.84L846.14,384.96L853.02,359.98L859.9,385L866.78,384.99L942.45,384.98L949.33,383.6L956.21,381.99L963.09,383.06L969.97,384.91L976.85,384.94L997.48,383.83L1004.36,385L1025,385" style="vector-effect: none; fill: none; stroke: rgb(247, 163, 92); stroke-opacity: 1; stroke-width: 2px; opacity: 1;"/></g><g class="points"/><g class="text"/></g><g class="trace scatter tracee11792" style="stroke-miterlimit: 2; opacity: 1;"><g class="fills"/><g class="errorbars"/><g class="lines"><path class="js-line" d="M0,385L96.31,385L103.19,378.73L110.07,384.98L116.95,385L123.83,384.88L130.7,378.91L137.58,385L144.46,385L206.38,385L213.26,378.8L220.13,385L227.01,373.01L233.89,385L240.77,385L282.05,384.78L288.93,371.86L295.81,385L302.68,385L460.91,384.99L467.79,372.66L474.66,385L481.54,385L515.94,385L522.82,378.68L529.7,385L536.58,384.76L557.21,385L564.09,385L605.37,385L612.25,372.4L619.13,384.99L626.01,378.39L632.89,384.42L639.77,385L681.04,384.99L687.92,378.95L694.8,384.99L701.68,384.89L749.83,385L756.71,385L818.62,384.99L825.5,373.03L832.38,384.89L839.26,384.85L846.14,384.96L853.02,360.86L859.9,385L866.78,384.99L942.45,384.98L949.33,383.65L956.21,381.94L963.09,383.13L969.97,384.92L976.85,384.94L997.48,383.88L1004.36,385L1025,385" style="vector-effect: none; fill: none; stroke: rgb(128, 133, 233); stroke-opacity: 1; stroke-width: 2px; opacity: 1;"/></g><g class="points"/><g class="text"/></g><g class="trace scatter trace4ee7fd" style="stroke-miterlimit: 2; opacity: 1;"><g class="fills"/><g class="errorbars"/><g class="lines"><path class="js-line" d="M0,385L96.31,385L103.19,378.88L110.07,384.98L116.95,385L123.83,384.87L130.7,378.91L137.58,385L144.46,385L206.38,385L213.26,378.85L220.13,385L227.01,373.05L233.89,385L240.77,385L282.05,384.78L288.93,371.98L295.81,385L302.68,385L460.91,384.99L467.79,372.8L474.66,385L481.54,385L515.94,385L522.82,378.83L529.7,385L536.58,384.77L557.21,385L564.09,385L605.37,385L612.25,372.6L619.13,384.99L626.01,378.39L632.89,384.43L639.77,385L681.04,384.98L687.92,379.05L694.8,384.99L701.68,384.9L756.71,385L763.59,385L818.62,384.99L825.5,373.37L832.38,384.89L839.26,384.85L846.14,384.96L853.02,361.2L859.9,385L866.78,384.99L942.45,384.98L949.33,383.64L956.21,381.88L963.09,383.13L969.97,384.92L976.85,384.93L997.48,383.85L1004.36,385L1025,385" style="vector-effect: none; fill: none; stroke: rgb(241, 92, 128); stroke-opacity: 1; stroke-width: 2px; opacity: 1;"/></g><g class="points"/><g class="text"/></g><g class="trace scatter tracef9b1b9" style="stroke-miterlimit: 2; opacity: 1;"><g class="fills"/><g class="errorbars"/><g class="lines"><path class="js-line" d="M0,385L96.31,385L103.19,378.55L110.07,384.98L116.95,385L123.83,384.88L130.7,378.72L137.58,385L144.46,385L206.38,385L213.26,378.69L220.13,385L227.01,372.8L233.89,385L240.77,385L282.05,384.78L288.93,372.18L295.81,385L302.68,385L460.91,384.99L467.79,372.14L474.66,385L481.54,385L515.94,385L522.82,378.7L529.7,385L536.58,384.79L557.21,385L564.09,385L605.37,385L612.25,372.24L619.13,384.99L626.01,378.23L632.89,384.41L639.77,385L681.04,384.99L687.92,378.77L694.8,384.99L701.68,384.89L749.83,385L756.71,385L818.62,384.98L825.5,372.9L832.38,384.9L839.26,384.86L846.14,384.97L853.02,360.22L859.9,385L866.78,384.99L942.45,384.98L949.33,383.65L956.21,381.97L963.09,383.05L969.97,384.92L976.85,384.93L997.48,383.8L1004.36,385L1025,385" style="vector-effect: none; fill: none; stroke: rgb(228, 211, 84); stroke-opacity: 1; stroke-width: 2px; opacity: 1;"/></g><g class="points"/><g class="text"/></g><g class="trace scatter trace4394c4" style="stroke-miterlimit: 2; opacity: 1;"><g class="fills"/><g class="errorbars"/><g class="lines"><path class="js-line" d="M0,385L96.31,384.99L103.19,378.77L110.07,384.98L116.95,385L123.83,384.87L130.7,378.75L137.58,385L144.46,385L206.38,385L213.26,378.76L220.13,385L227.01,372.99L233.89,385L240.77,385L282.05,384.78L288.93,372.04L295.81,385L302.68,385L460.91,384.99L467.79,372.39L474.66,385L481.54,385L515.94,385L522.82,378.63L529.7,385L536.58,384.78L557.21,385L564.09,385L605.37,385L612.25,372.36L619.13,384.99L626.01,378.24L632.89,384.43L639.77,385L681.04,384.99L687.92,379.02L694.8,384.99L701.68,384.89L749.83,385L756.71,385L818.62,384.99L825.5,372.95L832.38,384.88L839.26,384.85L846.14,384.96L853.02,360.86L859.9,385L866.78,385L942.45,384.97L949.33,383.65L956.21,381.98L963.09,383.07L969.97,384.92L976.85,384.93L997.48,383.83L1004.36,385L1025,385" style="vector-effect: none; fill: none; stroke: rgb(43, 144, 143); stroke-opacity: 1; stroke-width: 2px; opacity: 1;"/></g><g class="points"/><g class="text"/></g><g class="trace scatter trace1020ca" style="stroke-miterlimit: 2; opacity: 1;"><g class="fills"/><g class="errorbars"/><g class="lines"><path class="js-line" d="M0,385L96.31,385L103.19,378.67L110.07,384.98L116.95,385L123.83,384.88L130.7,378.86L137.58,385L144.46,385L206.38,385L213.26,378.68L220.13,385L227.01,372.91L233.89,385L240.77,385L282.05,384.78L288.93,371.97L295.81,385L302.68,385L460.91,384.99L467.79,372.51L474.66,385L481.54,385L515.94,385L522.82,378.58L529.7,385L536.58,384.78L557.21,385L564.09,385L605.37,385L612.25,372.21L619.13,384.99L626.01,378.35L632.89,384.41L639.77,385L681.04,384.98L687.92,378.85L694.8,385L701.68,384.89L749.83,385L756.71,385L818.62,384.99L825.5,372.97L832.38,384.9L839.26,384.85L846.14,384.96L853.02,360.63L859.9,385L866.78,384.99L942.45,384.98L949.33,383.6L956.21,381.94L963.09,383.09L969.97,384.9L976.85,384.93L997.48,383.82L1004.36,385L1025,385" style="vector-effect: none; fill: none; stroke: rgb(244, 91, 91); stroke-opacity: 1; stroke-width: 2px; opacity: 1;"/></g><g class="points"/><g class="text"/></g><g class="trace scatter tracebf764c" style="stroke-miterlimit: 2; opacity: 1;"><g class="fills"/><g class="errorbars"/><g class="lines"><path class="js-line" d="M0,385L96.31,385L103.19,378.58L110.07,384.98L116.95,385L123.83,384.85L130.7,378.6L137.58,385L144.46,385L206.38,385L213.26,378.55L220.13,385L227.01,372.43L233.89,385L240.77,385L282.05,384.78L288.93,372.17L295.81,385L302.68,385L460.91,384.99L467.79,372.04L474.66,385L481.54,385L515.94,385L522.82,378.57L529.7,385L536.58,384.78L557.21,385L564.09,385L605.37,385L612.25,372.26L619.13,384.99L626.01,378.06L632.89,384.41L639.77,385L681.04,384.99L687.92,378.72L694.8,385L701.68,384.89L749.83,385L756.71,385L818.62,384.99L825.5,372.64L832.38,384.89L839.26,384.85L846.14,384.96L853.02,359.88L859.9,385L866.78,384.99L942.45,384.98L949.33,383.64L956.21,382.06L963.09,383.04L969.97,384.91L976.85,384.94L997.48,383.81L1004.36,385L1025,385" style="vector-effect: none; fill: none; stroke: rgb(145, 232, 225); stroke-opacity: 1; stroke-width: 2px; opacity: 1;"/></g><g class="points"/><g class="text"/></g></g></g></g><g class="zerolinelayer-above"/><path class="xlines-above crisp" d="M0,0" style="fill: none;"/><path class="ylines-above crisp" d="M0,0" style="fill: none;"/><g class="overlines-above"/><g class="xaxislayer-above"><g class="xtick"><text text-anchor="middle" x="0" y="451" transform="translate(190.7,0)" style="font-family: 'Lucida Grande', 'Open Sans', verdana, arial, sans-serif; font-size: 10px; fill: rgb(0, 0, 0); fill-opacity: 1; white-space: pre;">20</text></g><g class="xtick"><text text-anchor="middle" x="0" y="451" style="font-family: 'Lucida Grande', 'Open Sans', verdana, arial, sans-serif; font-size: 10px; fill: rgb(0, 0, 0); fill-opacity: 1; white-space: pre;" transform="translate(328.29,0)">40</text></g><g class="xtick"><text text-anchor="middle" x="0" y="451" style="font-family: 'Lucida Grande', 'Open Sans', verdana, arial, sans-serif; font-size: 10px; fill: rgb(0, 0, 0); fill-opacity: 1; white-space: pre;" transform="translate(465.87,0)">60</text></g><g class="xtick"><text text-anchor="middle" x="0" y="451" style="font-family: 'Lucida Grande', 'Open Sans', verdana, arial, sans-serif; font-size: 10px; fill: rgb(0, 0, 0); fill-opacity: 1; white-space: pre;" transform="translate(603.46,0)">80</text></g><g class="xtick"><text text-anchor="middle" x="0" y="451" style="font-family: 'Lucida Grande', 'Open Sans', verdana, arial, sans-serif; font-size: 10px; fill: rgb(0, 0, 0); fill-opacity: 1; white-space: pre;" transform="translate(741.04,0)">100</text></g><g class="xtick"><text text-anchor="middle" x="0" y="451" style="font-family: 'Lucida Grande', 'Open Sans', verdana, arial, sans-serif; font-size: 10px; fill: rgb(0, 0, 0); fill-opacity: 1; white-space: pre;" transform="translate(878.62,0)">120</text></g><g class="xtick"><text text-anchor="middle" x="0" y="451" style="font-family: 'Lucida Grande', 'Open Sans', verdana, arial, sans-serif; font-size: 10px; fill: rgb(0, 0, 0); fill-opacity: 1; white-space: pre;" transform="translate(1016.21,0)">140</text></g></g><g class="yaxislayer-above"><g class="ytick"><text text-anchor="end" x="54" y="3.5" transform="translate(0,435)" style="font-family: 'Lucida Grande', 'Open Sans', verdana, arial, sans-serif; font-size: 10px; fill: rgb(0, 0, 0); fill-opacity: 1; white-space: pre;">0%</text></g><g class="ytick"><text text-anchor="end" x="54" y="3.5" style="font-family: 'Lucida Grande', 'Open Sans', verdana, arial, sans-serif; font-size: 10px; fill: rgb(0, 0, 0); fill-opacity: 1; white-space: pre;" transform="translate(0,358)">1%</text></g><g class="ytick"><text text-anchor="end" x="54" y="3.5" style="font-family: 'Lucida Grande', 'Open Sans', verdana, arial, sans-serif; font-size: 10px; fill: rgb(0, 0, 0); fill-opacity: 1; white-space: pre;" transform="translate(0,281)">2%</text></g><g class="ytick"><text text-anchor="end" x="54" y="3.5" style="font-family: 'Lucida Grande', 'Open Sans', verdana, arial, sans-serif; font-size: 10px; fill: rgb(0, 0, 0); fill-opacity: 1; white-space: pre;" transform="translate(0,204)">3%</text></g><g class="ytick"><text text-anchor="end" x="54" y="3.5" style="font-family: 'Lucida Grande', 'Open Sans', verdana, arial, sans-serif; font-size: 10px; fill: rgb(0, 0, 0); fill-opacity: 1; white-space: pre;" transform="translate(0,127)">4%</text></g><g class="ytick"><text text-anchor="end" x="54" y="3.5" style="font-family: 'Lucida Grande', 'Open Sans', verdana, arial, sans-serif; font-size: 10px; fill: rgb(0, 0, 0); fill-opacity: 1; white-space: pre;" transform="translate(0,50)">5%</text></g></g><g class="overaxes-above"/></g></g><g class="polarlayer"/><g class="smithlayer"/><g class="ternarylayer"/><g class="geolayer"/><g class="funnelarealayer"/><g class="pielayer"/><g class="iciclelayer"/><g class="treemaplayer"/><g class="sunburstlayer"/><g class="glimages"/><defs id="topdefs-e26664"><g class="clips"/></defs><g class="layer-above"><g class="imagelayer"/><g class="shapelayer"/></g><g class="infolayer"><g class="g-gtitle"><text class="gtitle" x="550" y="25" text-anchor="middle" dy="0em" style="opacity: 1; font-family: 'Lucida Grande', 'Open Sans', verdana, arial, sans-serif; font-size: 20px; fill: rgb(68, 68, 68); fill-opacity: 1; white-space: pre;"><tspan class="line" dy="0em" x="550" y="25">Fastp: Read N Content</tspan><tspan class="line" dy="1.3em" x="550" y="25">​<tspan style="font-size:70%" dy="-0.6em">Read 2: After filtering, 10 lines</tspan><tspan dy="0.42em">​</tspan></tspan></text></g><g class="g-xtitle"><text class="xtitle" x="572.5" y="487" text-anchor="middle" style="opacity: 0.3; font-family: 'Lucida Grande', 'Open Sans', verdana, arial, sans-serif; font-size: 14px; fill: rgb(0, 0, 0); fill-opacity: 1; white-space: pre;">Read Position</text></g><g class="g-ytitle"><text class="ytitle" transform="rotate(-90,22,242.5)" x="22" y="242.5" text-anchor="middle" style="opacity: 0.3; font-family: 'Lucida Grande', 'Open Sans', verdana, arial, sans-serif; font-size: 14px; fill: rgb(0, 0, 0); fill-opacity: 1; white-space: pre;">R2 After filtering: Base Content Percent</text></g></g></svg>