<svg class="main-svg" xmlns="http://www.w3.org/2000/svg" xmlns:xlink="http://www.w3.org/1999/xlink" width="2200" height="1000" style="" viewBox="0 0 1100 500"><rect x="0" y="0" width="1100" height="500" style="fill: rgb(255, 255, 255); fill-opacity: 1;"/><defs id="defs-046fc9"><g class="clips"><clipPath id="clip046fc9xyplot" class="plotclip"><rect width="1014" height="385"/></clipPath><clipPath class="axesclip" id="clip046fc9x"><rect x="60" y="0" width="1014" height="500"/></clipPath><clipPath class="axesclip" id="clip046fc9y"><rect x="0" y="50" width="1100" height="385"/></clipPath><clipPath class="axesclip" id="clip046fc9xy"><rect x="60" y="50" width="1014" height="385"/></clipPath></g><g class="gradients"/><g class="patterns"/></defs><g class="bglayer"/><g class="layer-below"><g class="imagelayer"/><g class="shapelayer"/></g><g class="cartesianlayer"><g class="subplot xy"><g class="layer-subplot"><g class="shapelayer"/><g class="imagelayer"/></g><g class="minor-gridlayer"><g class="x"/><g class="y"/></g><g class="gridlayer"><g class="x"><path class="xgrid crisp" transform="translate(262.8,0)" d="M0,50v385" style="stroke: rgb(0, 0, 0); stroke-opacity: 0.05; stroke-width: 1px;"/><path class="xgrid crisp" transform="translate(465.6,0)" d="M0,50v385" style="stroke: rgb(0, 0, 0); stroke-opacity: 0.05; stroke-width: 1px;"/><path class="xgrid crisp" transform="translate(668.4,0)" d="M0,50v385" style="stroke: rgb(0, 0, 0); stroke-opacity: 0.05; stroke-width: 1px;"/><path class="xgrid crisp" transform="translate(871.2,0)" d="M0,50v385" style="stroke: rgb(0, 0, 0); stroke-opacity: 0.05; stroke-width: 1px;"/></g><g class="y"><path class="ygrid crisp" transform="translate(0,376.4)" d="M60,0h1014" style="stroke: rgb(0, 0, 0); stroke-opacity: 0.05; stroke-width: 1px;"/><path class="ygrid crisp" transform="translate(0,317.8)" d="M60,0h1014" style="stroke: rgb(0, 0, 0); stroke-opacity: 0.05; stroke-width: 1px;"/><path class="ygrid crisp" transform="translate(0,259.2)" d="M60,0h1014" style="stroke: rgb(0, 0, 0); stroke-opacity: 0.05; stroke-width: 1px;"/><path class="ygrid crisp" transform="translate(0,200.6)" d="M60,0h1014" style="stroke: rgb(0, 0, 0); stroke-opacity: 0.05; stroke-width: 1px;"/><path class="ygrid crisp" transform="translate(0,141.99)" d="M60,0h1014" style="stroke: rgb(0, 0, 0); stroke-opacity: 0.05; stroke-width: 1px;"/><path class="ygrid crisp" transform="translate(0,83.39)" d="M60,0h1014" style="stroke: rgb(0, 0, 0); stroke-opacity: 0.05; stroke-width: 1px;"/></g></g><g class="zerolinelayer"><path class="xzl zl crisp" transform="translate(60,0)" d="M0,50v385" style="stroke: rgb(0, 0, 0); stroke-opacity: 0.05; stroke-width: 1px;"/><path class="yzl zl crisp" transform="translate(0,435)" d="M60,0h1014" style="stroke: rgb(0, 0, 0); stroke-opacity: 0.05; stroke-width: 1px;"/></g><g class="layer-between"><g class="shapelayer"/><g class="imagelayer"/></g><path class="xlines-below"/><path class="ylines-below"/><g class="overlines-below"/><g class="xaxislayer-below"/><g class="yaxislayer-below"/><g class="overaxes-below"/><g class="overplot"><g class="xy" transform="translate(60,50)" clip-path="url(#clip046fc9xyplot)"><g class="scatterlayer mlayer"><g class="trace scatter trace9a7404" style="stroke-miterlimit: 2; opacity: 1;"><g class="fills"/><g class="errorbars"/><g class="lines"><path class="js-line" d="M0,385L202.8,384.37L212.94,384.12L243.36,382.67L253.5,381.86L283.92,378.91L294.06,377.41L314.34,373.7L324.48,371.33L344.76,365.57L354.9,362.06L375.18,353.51L385.32,348.27L395.46,342.01L405.6,334.44L415.74,325.11L425.88,313.48L436.02,300L446.16,284.54L456.3,266.8L466.44,247.21L486.72,203.58L496.86,180.83L517.14,134.67L527.28,114.52L537.42,97.25L547.56,83.55L557.7,73.98L567.84,68.48L577.98,67.72L588.12,72.08L598.26,81.2L608.4,94.48L618.54,111.76L628.68,132.76L648.96,180.9L659.1,206.32L679.38,254.81L689.52,277.1L699.66,297L709.8,314.84L719.94,329.9L730.08,342.43L740.22,352.66L750.36,361L760.5,367.71L770.64,372.82L780.78,376.7L790.92,379.48L811.2,382.66L821.34,383.53L851.76,384.69L861.9,384.81L973.44,384.98L983.58,384.97L1014,384.97" style="vector-effect: none; fill: none; stroke: rgb(92, 184, 92); stroke-opacity: 1; stroke-width: 2px; opacity: 1;"/></g><g class="points"/><g class="text"/></g><g class="trace scatter trace02254f" style="stroke-miterlimit: 2; opacity: 1;"><g class="fills"/><g class="errorbars"/><g class="lines"><path class="js-line" d="M0,385L202.8,384.32L212.94,384.09L243.36,382.46L253.5,381.57L283.92,378.56L294.06,377.18L314.34,373.27L324.48,370.92L344.76,364.92L354.9,361.28L375.18,352.69L385.32,347.29L395.46,340.96L405.6,333.18L415.74,323.62L425.88,312.2L436.02,298.75L446.16,283.28L456.3,265.74L466.44,246.43L486.72,203.36L496.86,180.22L517.14,134.93L527.28,114.74L537.42,97.66L547.56,84.25L557.7,74.4L567.84,69.29L577.98,69.35L588.12,73.9L598.26,83.19L608.4,96.52L618.54,114.24L628.68,135.28L648.96,182.93L659.1,208.04L679.38,256.76L689.52,278.84L699.66,298.62L709.8,316.03L719.94,330.98L730.08,343.48L740.22,353.45L750.36,361.54L760.5,368.05L770.64,373.09L780.78,376.86L790.92,379.52L811.2,382.75L821.34,383.59L851.76,384.69L861.9,384.8L963.3,384.93L973.44,384.92L1003.86,384.59L1014,377.22" style="vector-effect: none; fill: none; stroke: rgb(92, 184, 92); stroke-opacity: 1; stroke-width: 2px; opacity: 1;"/></g><g class="points"/><g class="text"/></g><g class="trace scatter trace41addc" style="stroke-miterlimit: 2; opacity: 1;"><g class="fills"/><g class="errorbars"/><g class="lines"><path class="js-line" d="M0,385L202.8,384.39L212.94,384.13L243.36,382.7L253.5,381.94L283.92,379.05L294.06,377.57L324.48,371.51L334.62,368.85L354.9,362.63L365.04,359.14L385.32,351.13L395.46,346.46L405.6,341.04L415.74,334.38L425.88,326.36L436.02,317.16L446.16,306.48L456.3,293.6L466.44,278.73L476.58,262.1L486.72,243.08L496.86,221.98L517.14,174.93L527.28,150.79L537.42,127.84L547.56,107.34L557.7,89.34L567.84,74.81L577.98,65.11L588.12,61.91L598.26,64.73L608.4,73.34L618.54,87.92L628.68,107.56L638.82,131.5L648.96,158.14L679.38,242.36L689.52,267.75L699.66,290.61L709.8,310.62L719.94,327.35L730.08,341.06L740.22,352.05L750.36,360.83L760.5,367.84L770.64,373.1L780.78,376.92L790.92,379.67L811.2,382.84L821.34,383.67L851.76,384.72L861.9,384.83L983.58,384.98L993.72,384.96L1014,384.98" style="vector-effect: none; fill: none; stroke: rgb(92, 184, 92); stroke-opacity: 1; stroke-width: 2px; opacity: 1;"/></g><g class="points"/><g class="text"/></g><g class="trace scatter tracec80c5f" style="stroke-miterlimit: 2; opacity: 1;"><g class="fills"/><g class="errorbars"/><g class="lines"><path class="js-line" d="M0,385L202.8,384.38L212.94,384.12L243.36,382.56L253.5,381.74L283.92,378.87L294.06,377.39L314.34,373.73L324.48,371.29L344.76,365.62L354.9,362.35L375.18,354.95L385.32,350.65L405.6,340.29L415.74,333.59L425.88,325.5L436.02,316.21L446.16,305.31L456.3,292.7L466.44,277.97L476.58,261.07L486.72,242.44L496.86,221.49L517.14,174.73L527.28,150.82L537.42,128.32L547.56,107.97L557.7,89.68L567.84,75.21L577.98,66.49L588.12,63.39L598.26,66.05L608.4,74.84L618.54,89.51L628.68,109.46L638.82,133.32L648.96,160.14L679.38,244.14L689.52,269.43L699.66,292.11L709.8,311.81L719.94,328.49L730.08,342.08L740.22,353L750.36,361.51L760.5,368.15L770.64,373.38L780.78,377.17L790.92,379.86L811.2,382.9L821.34,383.69L851.76,384.73L861.9,384.83L983.58,384.92L993.72,384.87L1003.86,384.56L1014,376.74" style="vector-effect: none; fill: none; stroke: rgb(240, 173, 78); stroke-opacity: 1; stroke-width: 2px; opacity: 1;"/></g><g class="points"/><g class="text"/></g><g class="trace scatter trace148558" style="stroke-miterlimit: 2; opacity: 1;"><g class="fills"/><g class="errorbars"/><g class="lines"><path class="js-line" d="M0,385L202.8,384.45L212.94,384.2L243.36,382.61L253.5,381.61L273.78,379.11L283.92,377.23L304.2,371.39L314.34,367.38L324.48,362.4L334.62,356.54L344.76,349.66L354.9,341.59L365.04,332.72L375.18,322.83L395.46,300.85L405.6,288.72L456.3,225.26L466.44,213.28L476.58,201.97L486.72,191.94L507,174.19L517.14,167.06L527.28,161.45L537.42,157.88L547.56,155.71L557.7,154.5L567.84,154.58L577.98,156.6L588.12,161.02L598.26,168.53L608.4,178.85L618.54,191.52L628.68,206.02L638.82,221.84L679.38,292.48L689.52,308.16L699.66,322.58L709.8,335.27L719.94,346.01L730.08,354.75L740.22,361.91L750.36,367.84L760.5,372.48L770.64,376.13L780.78,378.9L790.92,380.83L811.2,383.23L821.34,383.89L851.76,384.74L861.9,384.85L993.72,384.94L1003.86,384.93L1014,384.96" style="vector-effect: none; fill: none; stroke: rgb(92, 184, 92); stroke-opacity: 1; stroke-width: 2px; opacity: 1;"/></g><g class="points"/><g class="text"/></g><g class="trace scatter trace7182ab" style="stroke-miterlimit: 2; opacity: 1;"><g class="fills"/><g class="errorbars"/><g class="lines"><path class="js-line" d="M0,385L202.8,384.41L212.94,384.16L233.22,383.26L243.36,382.12L273.78,378.64L283.92,376.73L294.06,374.32L304.2,370.95L314.34,366.83L324.48,361.8L334.62,355.84L344.76,348.95L365.04,332.08L375.18,322.43L395.46,300.23L405.6,288.18L446.16,237.6L456.3,225.27L476.58,202.22L486.72,192.61L507,175.1L517.14,167.79L527.28,162.04L537.42,158.62L547.56,156.22L557.7,155L567.84,155.4L577.98,157.64L588.12,162.28L598.26,169.71L608.4,179.63L618.54,192.42L638.82,223.75L648.96,241.29L679.38,293.75L689.52,309.09L699.66,323.38L709.8,335.87L719.94,346.42L730.08,355.25L740.22,362.36L750.36,368.07L760.5,372.73L770.64,376.28L790.92,380.88L801.06,382.28L821.34,383.9L831.48,384.33L882.18,384.92L892.32,384.93L1003.86,384.6L1014,378.13" style="vector-effect: none; fill: none; stroke: rgb(92, 184, 92); stroke-opacity: 1; stroke-width: 2px; opacity: 1;"/></g><g class="points"/><g class="text"/></g><g class="trace scatter trace6daf62" style="stroke-miterlimit: 2; opacity: 1;"><g class="fills"/><g class="errorbars"/><g class="lines"><path class="js-line" d="M0,385L202.8,384.33L212.94,384.09L243.36,382.67L253.5,381.82L283.92,379.02L294.06,377.59L314.34,373.62L324.48,371.09L344.76,365.02L354.9,361.48L375.18,353.6L385.32,349.24L395.46,344.27L405.6,338.14L415.74,330.65L425.88,321.48L436.02,310.98L446.16,299L456.3,284.6L466.44,268.07L486.72,229.46L496.86,208.09L527.28,138.36L537.42,116.5L547.56,97.28L557.7,79.68L567.84,65.06L577.98,55.38L588.12,50.18L598.26,50.82L608.4,56.57L618.54,66.99L628.68,82.52L638.82,102.52L648.96,126.07L659.1,152.01L689.52,234.06L699.66,259.56L709.8,283.01L719.94,303.81L730.08,321.39L740.22,336.05L750.36,348.38L760.5,358.35L770.64,366L780.78,371.89L790.92,376.21L801.06,379.23L821.34,382.73L831.48,383.65L861.9,384.7L872.04,384.83L993.72,384.93L1003.86,384.93L1014,384.95" style="vector-effect: none; fill: none; stroke: rgb(92, 184, 92); stroke-opacity: 1; stroke-width: 2px; opacity: 1;"/></g><g class="points"/><g class="text"/></g><g class="trace scatter trace001c02" style="stroke-miterlimit: 2; opacity: 1;"><g class="fills"/><g class="errorbars"/><g class="lines"><path class="js-line" d="M0,385L202.8,384.35L212.94,384.09L243.36,382.5L253.5,381.68L283.92,378.86L294.06,377.47L314.34,373.4L324.48,370.8L344.76,364.74L354.9,361.14L375.18,353.28L385.32,348.61L395.46,343.43L405.6,337.24L415.74,329.51L425.88,320.41L436.02,309.79L446.16,297.7L456.3,283.75L466.44,267.22L476.58,248.73L486.72,228.67L507,184.18L517.14,160.54L527.28,137.44L537.42,116.23L547.56,97.51L557.7,80.37L567.84,65.8L577.98,56.17L588.12,51.61L598.26,51.97L608.4,57.62L618.54,68.88L628.68,84.86L638.82,104.75L648.96,128.18L659.1,154.32L689.52,235.94L699.66,261.62L709.8,284.73L719.94,305.05L730.08,322.7L740.22,337.2L750.36,349.2L760.5,359.08L770.64,366.75L780.78,372.45L790.92,376.58L801.06,379.49L821.34,382.78L831.48,383.67L861.9,384.7L872.04,384.81L983.58,384.9L993.72,384.87L1003.86,384.6L1014,376.77" style="vector-effect: none; fill: none; stroke: rgb(92, 184, 92); stroke-opacity: 1; stroke-width: 2px; opacity: 1;"/></g><g class="points"/><g class="text"/></g><g class="trace scatter trace6e05e9" style="stroke-miterlimit: 2; opacity: 1;"><g class="fills"/><g class="errorbars"/><g class="lines"><path class="js-line" d="M0,385L212.94,384.31L223.08,384.03L263.64,382.01L273.78,381.4L304.2,378.36L314.34,376.92L334.62,373.24L344.76,370.87L365.04,364.56L375.18,360.41L385.32,355.59L395.46,349.83L405.6,343.05L415.74,334.99L425.88,325.55L436.02,314.97L446.16,303.08L456.3,289.67L476.58,258.92L486.72,242.75L517.14,191.46L527.28,176.48L537.42,162.78L547.56,151.42L557.7,142.79L567.84,136.49L577.98,133.62L588.12,135.05L598.26,140.56L608.4,149.99L618.54,163.54L628.68,179.88L638.82,198.71L648.96,219.53L669.24,261.51L679.38,281.17L689.52,299.32L699.66,315.9L709.8,330.48L719.94,342.72L730.08,352.66L740.22,360.42L750.36,366.7L760.5,371.69L770.64,375.52L780.78,378.42L801.06,382.1L811.2,383.12L841.62,384.57L851.76,384.74L953.16,384.99L963.3,384.99L1014,384.97" style="vector-effect: none; fill: none; stroke: rgb(92, 184, 92); stroke-opacity: 1; stroke-width: 2px; opacity: 1;"/></g><g class="points"/><g class="text"/></g><g class="trace scatter traceb63db5" style="stroke-miterlimit: 2; opacity: 1;"><g class="fills"/><g class="errorbars"/><g class="lines"><path class="js-line" d="M0,385L212.94,384.3L223.08,384.04L263.64,381.83L273.78,381.15L304.2,378.12L314.34,376.62L334.62,372.8L344.76,370.37L365.04,364L375.18,359.74L385.32,354.82L395.46,349.04L405.6,342.24L415.74,334.15L436.02,314.2L446.16,302.52L456.3,289.12L466.44,274.25L486.72,242.2L496.86,225.45L517.14,191.84L527.28,176.55L537.42,163.17L547.56,152.1L557.7,143.18L567.84,137.34L577.98,134.97L588.12,135.66L598.26,141.19L608.4,151.54L618.54,165.13L628.68,181.64L638.82,200.45L648.96,221.12L679.38,282.93L689.52,300.75L699.66,317.07L709.8,331.52L719.94,343.55L730.08,353.35L740.22,361.09L750.36,367.29L760.5,372.19L770.64,375.88L790.92,380.64L801.06,382.16L821.34,383.83L831.48,384.3L872.04,384.9L882.18,384.93L1003.86,384.63L1014,378.22" style="vector-effect: none; fill: none; stroke: rgb(92, 184, 92); stroke-opacity: 1; stroke-width: 2px; opacity: 1;"/></g><g class="points"/><g class="text"/></g><g class="trace scatter trace3856b4" style="stroke-miterlimit: 2; opacity: 1;"><g class="fills"/><g class="errorbars"/><g class="lines"><path class="js-line" d="M0,385L212.94,384.43L223.08,384.21L253.5,382.8L263.64,382.15L283.92,380.51L294.06,379.1L314.34,375.25L324.48,372.55L344.76,364.96L354.9,359.81L365.04,353.49L375.18,345.5L385.32,336.22L395.46,325.3L405.6,312.42L415.74,298.03L456.3,232.49L466.44,216.1L476.58,200.91L486.72,187.37L507,163.87L517.14,154.23L527.28,146.62L537.42,141.48L547.56,138.69L557.7,137.45L567.84,138.02L577.98,141.77L588.12,148.76L598.26,158.48L608.4,170.78L618.54,185.55L628.68,202.2L638.82,220.47L669.24,276.65L679.38,294.15L689.52,309.9L699.66,324.18L709.8,336.84L719.94,347.41L730.08,356.28L740.22,363.48L750.36,369.16L760.5,373.62L770.64,377.03L780.78,379.57L801.06,382.72L811.2,383.59L841.62,384.7L851.76,384.83L963.3,384.99L973.44,384.99L1014,384.99" style="vector-effect: none; fill: none; stroke: rgb(92, 184, 92); stroke-opacity: 1; stroke-width: 2px; opacity: 1;"/></g><g class="points"/><g class="text"/></g><g class="trace scatter trace3005ed" style="stroke-miterlimit: 2; opacity: 1;"><g class="fills"/><g class="errorbars"/><g class="lines"><path class="js-line" d="M0,385L212.94,384.42L223.08,384.22L253.5,382.57L263.64,382.01L294.06,378.84L304.2,377.14L324.48,372.03L334.62,368.67L344.76,364.46L354.9,359.29L365.04,352.86L375.18,344.95L385.32,335.69L395.46,324.51L405.6,311.67L415.74,297.34L436.02,265.27L446.16,248.78L476.58,200.96L486.72,187.57L507,164.21L517.14,154.77L527.28,147.68L537.42,142.59L547.56,139.14L557.7,138.01L567.84,139.02L577.98,142.46L588.12,149.59L598.26,159.66L608.4,171.87L618.54,186.83L638.82,221.9L648.96,240.6L679.38,295.24L689.52,311.03L699.66,325.11L709.8,337.55L719.94,348.27L730.08,356.91L740.22,363.79L750.36,369.37L760.5,373.74L770.64,377.23L780.78,379.76L790.92,381.51L811.2,383.59L821.34,384.11L861.9,384.89L872.04,384.93L1003.86,384.62L1014,377.81" style="vector-effect: none; fill: none; stroke: rgb(92, 184, 92); stroke-opacity: 1; stroke-width: 2px; opacity: 1;"/></g><g class="points"/><g class="text"/></g><g class="trace scatter trace7cd012" style="stroke-miterlimit: 2; opacity: 1;"><g class="fills"/><g class="errorbars"/><g class="lines"><path class="js-line" d="M0,385L233.22,384.45L243.36,384.22L304.2,382.11L314.34,381.49L354.9,377.82L365.04,376.77L405.6,371.59L415.74,369.66L436.02,364.44L446.16,360.92L456.3,356.22L466.44,350.29L476.58,342.69L486.72,332.94L496.86,320.1L507,303.28L517.14,282.72L527.28,258.95L547.56,203.69L557.7,173.96L567.84,144.91L577.98,118.84L588.12,98.68L598.26,87.06L608.4,83.96L618.54,90.66L628.68,105.82L638.82,127.03L648.96,154.02L659.1,184.14L679.38,245.23L689.52,273.07L699.66,297.63L709.8,318.75L719.94,335.82L730.08,348.75L740.22,358.42L750.36,365.97L760.5,371.51L770.64,375.59L780.78,378.61L790.92,380.83L811.2,383.31L821.34,383.93L851.76,384.79L861.9,384.88L1014,384.96" style="vector-effect: none; fill: none; stroke: rgb(240, 173, 78); stroke-opacity: 1; stroke-width: 2px; opacity: 1;"/></g><g class="points"/><g class="text"/></g><g class="trace scatter traceab06d6" style="stroke-miterlimit: 2; opacity: 1;"><g class="fills"/><g class="errorbars"/><g class="lines"><path class="js-line" d="M0,385L233.22,384.44L243.36,384.08L314.34,381.46L324.48,380.68L365.04,376.54L375.18,375.42L405.6,371.28L415.74,369.33L436.02,363.87L446.16,360.16L456.3,355.38L466.44,349.37L476.58,341.76L486.72,331.91L496.86,318.87L507,302.13L517.14,281.73L527.28,257.65L547.56,203.21L557.7,173.6L567.84,144.73L577.98,119.1L588.12,99.31L598.26,88.38L608.4,86.02L618.54,93.17L628.68,108.67L638.82,130.15L648.96,157.29L659.1,187.53L679.38,248.01L689.52,275.33L699.66,299.58L709.8,320.12L719.94,336.59L730.08,349.38L740.22,358.95L750.36,366.34L760.5,371.88L770.64,375.92L790.92,380.96L801.06,382.43L831.48,384.4L841.62,384.64L912.6,384.97L922.74,384.97L1003.86,384.57L1014,375.41" style="vector-effect: none; fill: none; stroke: rgb(240, 173, 78); stroke-opacity: 1; stroke-width: 2px; opacity: 1;"/></g><g class="points"/><g class="text"/></g><g class="trace scatter trace996a68" style="stroke-miterlimit: 2; opacity: 1;"><g class="fills"/><g class="errorbars"/><g class="lines"><path class="js-line" d="M0,385L202.8,384.28L212.94,383.96L243.36,382.38L253.5,381.56L294.06,377.65L304.2,376.2L334.62,370.84L344.76,368.63L375.18,361.32L385.32,358.7L405.6,352.62L415.74,348.82L436.02,338.58L446.16,332.46L456.3,324.59L466.44,314.84L476.58,303.29L486.72,289.55L496.86,272.71L507,252.37L517.14,229.14L527.28,203.19L547.56,146.74L557.7,117.35L567.84,89.08L577.98,63.79L588.12,44.09L598.26,31.45L608.4,25.76L618.54,28.72L628.68,39.62L638.82,57.26L648.96,81.48L659.1,110.06L699.66,235.11L709.8,262.83L719.94,287.53L730.08,308.6L740.22,326.07L750.36,340.43L760.5,352.15L770.64,361.43L780.78,368.36L790.92,373.56L801.06,377.48L811.2,380.16L831.48,383.15L841.62,383.91L872.04,384.77L882.18,384.87L993.72,384.95L1003.86,384.95L1014,384.97" style="vector-effect: none; fill: none; stroke: rgb(240, 173, 78); stroke-opacity: 1; stroke-width: 2px; opacity: 1;"/></g><g class="points"/><g class="text"/></g><g class="trace scatter trace314717" style="stroke-miterlimit: 2; opacity: 1;"><g class="fills"/><g class="errorbars"/><g class="lines"><path class="js-line" d="M0,385L202.8,384.27L212.94,383.96L243.36,382.17L253.5,381.29L273.78,379.67L283.92,378.63L304.2,376.1L314.34,374.4L344.76,368.4L354.9,365.96L385.32,358.22L395.46,355.24L415.74,347.91L425.88,343.16L436.02,337.63L446.16,331.08L456.3,323.2L466.44,313.47L476.58,301.7L486.72,287.65L496.86,270.71L507,250.62L517.14,227.7L527.28,202.05L547.56,145.64L557.7,116.57L567.84,88.78L577.98,64.42L588.12,45.85L598.26,33.89L608.4,28.9L618.54,32.35L628.68,43.3L638.82,61.33L648.96,85.54L659.1,113.9L699.66,238.32L709.8,265.47L719.94,289.62L730.08,310.52L740.22,327.7L750.36,341.74L760.5,353.12L770.64,362.24L780.78,369.11L790.92,374.14L801.06,377.9L811.2,380.44L831.48,383.24L841.62,383.97L872.04,384.77L882.18,384.85L993.72,384.82L1003.86,384.28L1014,369.74" style="vector-effect: none; fill: none; stroke: rgb(240, 173, 78); stroke-opacity: 1; stroke-width: 2px; opacity: 1;"/></g><g class="points"/><g class="text"/></g><g class="trace scatter traceec12fd" style="stroke-miterlimit: 2; opacity: 1;"><g class="fills"/><g class="errorbars"/><g class="lines"><path class="js-line" d="M0,385L212.94,384.35L223.08,384.11L253.5,382.55L263.64,381.82L283.92,379.78L294.06,378.13L314.34,373.41L324.48,370.04L334.62,365.82L344.76,360.65L354.9,354.26L365.04,346.53L375.18,337.37L385.32,326.67L395.46,314.45L405.6,300.82L415.74,285.37L425.88,268.47L466.44,199.92L476.58,182.98L496.86,152.56L507,138.46L517.14,125.89L527.28,115.58L537.42,106.95L547.56,99.97L557.7,94.49L567.84,91.01L577.98,91.06L588.12,94.59L598.26,102.86L608.4,115.13L618.54,131.49L628.68,151.88L648.96,198.46L659.1,223.37L679.38,270.49L689.52,291.78L699.66,310.66L709.8,326.83L719.94,340.09L730.08,350.76L740.22,359.2L750.36,365.84L760.5,371.08L770.64,375.16L780.78,378.16L790.92,380.34L811.2,383.03L821.34,383.75L851.76,384.75L861.9,384.86L1003.86,384.96L1014,384.97" style="vector-effect: none; fill: none; stroke: rgb(92, 184, 92); stroke-opacity: 1; stroke-width: 2px; opacity: 1;"/></g><g class="points"/><g class="text"/></g><g class="trace scatter tracebfeadd" style="stroke-miterlimit: 2; opacity: 1;"><g class="fills"/><g class="errorbars"/><g class="lines"><path class="js-line" d="M0,385L212.94,384.36L223.08,384.09L243.36,383.01L253.5,382.26L273.78,380.68L283.92,379.52L304.2,375.74L314.34,373.08L324.48,369.63L334.62,365.33L344.76,360.06L354.9,353.64L365.04,345.95L375.18,336.86L385.32,326.36L395.46,314.15L405.6,300.46L415.74,285.47L456.3,217.12L466.44,199.83L486.72,168.12L496.86,152.81L507,138.98L517.14,127.01L527.28,116.6L537.42,108.21L547.56,101.41L557.7,95.6L567.84,92.04L577.98,91.83L588.12,95.15L598.26,103.57L608.4,116.11L618.54,133.05L628.68,153.22L638.82,175.79L669.24,249.26L679.38,272.09L689.52,292.87L699.66,311.38L709.8,327.52L719.94,341.01L730.08,351.54L740.22,359.71L750.36,366.26L760.5,371.46L770.64,375.4L780.78,378.26L801.06,382.03L811.2,383.08L841.62,384.56L851.76,384.73L932.88,384.96L943.02,384.95L1003.86,384.48L1014,373.92" style="vector-effect: none; fill: none; stroke: rgb(92, 184, 92); stroke-opacity: 1; stroke-width: 2px; opacity: 1;"/></g><g class="points"/><g class="text"/></g><g class="trace scatter trace84b8a8" style="stroke-miterlimit: 2; opacity: 1;"><g class="fills"/><g class="errorbars"/><g class="lines"><path class="js-line" d="M0,385L212.94,384.29L223.08,384.04L263.64,382.02L273.78,381.35L304.2,378.11L314.34,376.66L334.62,373.03L344.76,370.79L375.18,363.41L385.32,360.54L405.6,353.56L415.74,348.92L436.02,336.63L446.16,328.8L456.3,319.11L466.44,307.37L476.58,293.3L486.72,276.85L496.86,257.28L507,234.54L527.28,182.22L537.42,153.81L557.7,96.99L567.84,70.25L577.98,47.42L588.12,30.84L598.26,21.43L608.4,19.25L618.54,26.31L628.68,41.71L638.82,64.14L648.96,92.51L669.24,157.67L679.38,190.94L699.66,252.52L709.8,278.98L719.94,301.77L730.08,320.79L740.22,336L750.36,348.12L760.5,357.96L770.64,365.66L780.78,371.44L790.92,375.8L801.06,379.02L811.2,381.13L831.48,383.55L841.62,384.15L882.18,384.91L892.32,384.95L1014,384.97" style="vector-effect: none; fill: none; stroke: rgb(240, 173, 78); stroke-opacity: 1; stroke-width: 2px; opacity: 1;"/></g><g class="points"/><g class="text"/></g><g class="trace scatter trace088ce5" style="stroke-miterlimit: 2; opacity: 1;"><g class="fills"/><g class="errorbars"/><g class="lines"><path class="js-line" d="M0,385L212.94,384.26L223.08,384.03L253.5,382.36L263.64,381.92L294.06,379.29L304.2,377.95L324.48,374.77L334.62,372.83L365.04,365.82L375.18,363.1L395.46,356.64L405.6,352.78L415.74,348.25L425.88,342.45L436.02,335.71L446.16,327.84L456.3,318.19L466.44,306.43L476.58,292.26L486.72,275.79L496.86,256.44L507,233.82L527.28,181.54L537.42,153.41L567.84,69.41L577.98,47.82L588.12,31.64L598.26,22.52L608.4,21.44L618.54,29.1L628.68,44.91L638.82,67.12L648.96,95.22L659.1,126.83L689.52,225.32L699.66,254.55L709.8,280.76L719.94,303.34L730.08,322.1L740.22,337.07L750.36,349.03L760.5,358.58L770.64,366.15L780.78,371.89L790.92,376.14L801.06,379.19L821.34,382.64L831.48,383.59L861.9,384.7L872.04,384.82L993.72,384.86L1003.86,384.54L1014,375.06" style="vector-effect: none; fill: none; stroke: rgb(240, 173, 78); stroke-opacity: 1; stroke-width: 2px; opacity: 1;"/></g><g class="points"/><g class="text"/></g></g></g></g><g class="zerolinelayer-above"/><path class="xlines-above crisp" d="M0,0" style="fill: none;"/><path class="ylines-above crisp" d="M0,0" style="fill: none;"/><g class="overlines-above"/><g class="xaxislayer-above"><g class="xtick"><text text-anchor="middle" x="0" y="451" transform="translate(60,0)" style="font-family: 'Lucida Grande', 'Open Sans', verdana, arial, sans-serif; font-size: 10px; fill: rgb(0, 0, 0); fill-opacity: 1; white-space: pre;">0%</text></g><g class="xtick"><text text-anchor="middle" x="0" y="451" style="font-family: 'Lucida Grande', 'Open Sans', verdana, arial, sans-serif; font-size: 10px; fill: rgb(0, 0, 0); fill-opacity: 1; white-space: pre;" transform="translate(262.8,0)">20%</text></g><g class="xtick"><text text-anchor="middle" x="0" y="451" style="font-family: 'Lucida Grande', 'Open Sans', verdana, arial, sans-serif; font-size: 10px; fill: rgb(0, 0, 0); fill-opacity: 1; white-space: pre;" transform="translate(465.6,0)">40%</text></g><g class="xtick"><text text-anchor="middle" x="0" y="451" style="font-family: 'Lucida Grande', 'Open Sans', verdana, arial, sans-serif; font-size: 10px; fill: rgb(0, 0, 0); fill-opacity: 1; white-space: pre;" transform="translate(668.4,0)">60%</text></g><g class="xtick"><text text-anchor="middle" x="0" y="451" style="font-family: 'Lucida Grande', 'Open Sans', verdana, arial, sans-serif; font-size: 10px; fill: rgb(0, 0, 0); fill-opacity: 1; white-space: pre;" transform="translate(871.2,0)">80%</text></g><g class="xtick"><text text-anchor="middle" x="0" y="451" style="font-family: 'Lucida Grande', 'Open Sans', verdana, arial, sans-serif; font-size: 10px; fill: rgb(0, 0, 0); fill-opacity: 1; white-space: pre;" transform="translate(1074,0)">100%</text></g></g><g class="yaxislayer-above"><g class="ytick"><text text-anchor="end" x="54" y="3.5" transform="translate(0,435)" style="font-family: 'Lucida Grande', 'Open Sans', verdana, arial, sans-serif; font-size: 10px; fill: rgb(0, 0, 0); fill-opacity: 1; white-space: pre;">0</text></g><g class="ytick"><text text-anchor="end" x="54" y="3.5" style="font-family: 'Lucida Grande', 'Open Sans', verdana, arial, sans-serif; font-size: 10px; fill: rgb(0, 0, 0); fill-opacity: 1; white-space: pre;" transform="translate(0,376.4)">0.2M</text></g><g class="ytick"><text text-anchor="end" x="54" y="3.5" style="font-family: 'Lucida Grande', 'Open Sans', verdana, arial, sans-serif; font-size: 10px; fill: rgb(0, 0, 0); fill-opacity: 1; white-space: pre;" transform="translate(0,317.8)">0.4M</text></g><g class="ytick"><text text-anchor="end" x="54" y="3.5" style="font-family: 'Lucida Grande', 'Open Sans', verdana, arial, sans-serif; font-size: 10px; fill: rgb(0, 0, 0); fill-opacity: 1; white-space: pre;" transform="translate(0,259.2)">0.6M</text></g><g class="ytick"><text text-anchor="end" x="54" y="3.5" style="font-family: 'Lucida Grande', 'Open Sans', verdana, arial, sans-serif; font-size: 10px; fill: rgb(0, 0, 0); fill-opacity: 1; white-space: pre;" transform="translate(0,200.6)">0.8M</text></g><g class="ytick"><text text-anchor="end" x="54" y="3.5" style="font-family: 'Lucida Grande', 'Open Sans', verdana, arial, sans-serif; font-size: 10px; fill: rgb(0, 0, 0); fill-opacity: 1; white-space: pre;" transform="translate(0,141.99)">1M</text></g><g class="ytick"><text text-anchor="end" x="54" y="3.5" style="font-family: 'Lucida Grande', 'Open Sans', verdana, arial, sans-serif; font-size: 10px; fill: rgb(0, 0, 0); fill-opacity: 1; white-space: pre;" transform="translate(0,83.39)">1.2M</text></g></g><g class="overaxes-above"/></g></g><g class="polarlayer"/><g class="smithlayer"/><g class="ternarylayer"/><g class="geolayer"/><g class="funnelarealayer"/><g class="pielayer"/><g class="iciclelayer"/><g class="treemaplayer"/><g class="sunburstlayer"/><g class="glimages"/><defs id="topdefs-046fc9"><g class="clips"/></defs><g class="layer-above"><g class="imagelayer"/><g class="shapelayer"/></g><g class="infolayer"><g class="g-gtitle"><text class="gtitle" x="550" y="25" text-anchor="middle" dy="0em" style="opacity: 1; font-family: 'Lucida Grande', 'Open Sans', verdana, arial, sans-serif; font-size: 20px; fill: rgb(68, 68, 68); fill-opacity: 1; white-space: pre;"><tspan class="line" dy="0em" x="550" y="25">FastQC: Per Sequence GC Content</tspan><tspan class="line" dy="1.3em" x="550" y="25">​<tspan style="font-size:70%" dy="-0.6em">Counts, 20 lines</tspan><tspan dy="0.42em">​</tspan></tspan></text></g><g class="g-xtitle"><text class="xtitle" x="567" y="487" text-anchor="middle" style="opacity: 0.3; font-family: 'Lucida Grande', 'Open Sans', verdana, arial, sans-serif; font-size: 14px; fill: rgb(0, 0, 0); fill-opacity: 1; white-space: pre;">% GC</text></g><g class="g-ytitle"><text class="ytitle" transform="rotate(-90,22,242.5)" x="22" y="242.5" text-anchor="middle" style="opacity: 0.3; font-family: 'Lucida Grande', 'Open Sans', verdana, arial, sans-serif; font-size: 14px; fill: rgb(0, 0, 0); fill-opacity: 1; white-space: pre;">Count</text></g></g></svg>