<svg class="main-svg" xmlns="http://www.w3.org/2000/svg" xmlns:xlink="http://www.w3.org/1999/xlink" width="2200" height="1000" style="" viewBox="0 0 1100 500"><rect x="0" y="0" width="1100" height="500" style="fill: rgb(255, 255, 255); fill-opacity: 1;"/><defs id="defs-557d7f"><g class="clips"><clipPath id="clip557d7fxyplot" class="plotclip"><rect width="1025" height="385"/></clipPath><clipPath class="axesclip" id="clip557d7fx"><rect x="60" y="0" width="1025" height="500"/></clipPath><clipPath class="axesclip" id="clip557d7fy"><rect x="0" y="50" width="1100" height="385"/></clipPath><clipPath class="axesclip" id="clip557d7fxy"><rect x="60" y="50" width="1025" height="385"/></clipPath></g><g class="gradients"/><g class="patterns"/></defs><g class="bglayer"/><g class="layer-below"><g class="imagelayer"/><g class="shapelayer"/></g><g class="cartesianlayer"><g class="subplot xy"><g class="layer-subplot"><g class="shapelayer"/><g class="imagelayer"/></g><g class="minor-gridlayer"><g class="x"/><g class="y"/></g><g class="gridlayer"><g class="x"><path class="xgrid crisp" transform="translate(190.7,0)" d="M0,50v385" style="stroke: rgb(0, 0, 0); stroke-opacity: 0.05; stroke-width: 1px;"/><path class="xgrid crisp" transform="translate(328.29,0)" d="M0,50v385" style="stroke: rgb(0, 0, 0); stroke-opacity: 0.05; stroke-width: 1px;"/><path class="xgrid crisp" transform="translate(465.87,0)" d="M0,50v385" style="stroke: rgb(0, 0, 0); stroke-opacity: 0.05; stroke-width: 1px;"/><path class="xgrid crisp" transform="translate(603.46,0)" d="M0,50v385" style="stroke: rgb(0, 0, 0); stroke-opacity: 0.05; stroke-width: 1px;"/><path class="xgrid crisp" transform="translate(741.04,0)" d="M0,50v385" style="stroke: rgb(0, 0, 0); stroke-opacity: 0.05; stroke-width: 1px;"/><path class="xgrid crisp" transform="translate(878.62,0)" d="M0,50v385" style="stroke: rgb(0, 0, 0); stroke-opacity: 0.05; stroke-width: 1px;"/><path class="xgrid crisp" transform="translate(1016.21,0)" d="M0,50v385" style="stroke: rgb(0, 0, 0); stroke-opacity: 0.05; stroke-width: 1px;"/></g><g class="y"><path class="ygrid crisp" transform="translate(0,358)" d="M60,0h1025" style="stroke: rgb(0, 0, 0); stroke-opacity: 0.05; stroke-width: 1px;"/><path class="ygrid crisp" transform="translate(0,281)" d="M60,0h1025" style="stroke: rgb(0, 0, 0); stroke-opacity: 0.05; stroke-width: 1px;"/><path class="ygrid crisp" transform="translate(0,204)" d="M60,0h1025" style="stroke: rgb(0, 0, 0); stroke-opacity: 0.05; stroke-width: 1px;"/><path class="ygrid crisp" transform="translate(0,127)" d="M60,0h1025" style="stroke: rgb(0, 0, 0); stroke-opacity: 0.05; stroke-width: 1px;"/></g></g><g class="zerolinelayer"><path class="yzl zl crisp" transform="translate(0,435)" d="M60,0h1025" style="stroke: rgb(0, 0, 0); stroke-opacity: 0.05; stroke-width: 1px;"/></g><g class="layer-between"><g class="shapelayer"/><g class="imagelayer"/></g><path class="xlines-below"/><path class="ylines-below"/><g class="overlines-below"/><g class="xaxislayer-below"/><g class="yaxislayer-below"/><g class="overaxes-below"/><g class="overplot"><g class="xy" transform="translate(60,50)" clip-path="url(#clip557d7fxyplot)"><g class="scatterlayer mlayer"><g class="trace scatter tracec3b93d" style="stroke-miterlimit: 2; opacity: 1;"><g class="fills"/><g class="errorbars"/><g class="lines"><path class="js-line" d="M0,112.79L6.88,193.13L13.76,179.32L20.64,171.85L27.52,174.84L34.4,185.17L41.28,184.14L48.15,172.52L55.03,177.47L61.91,186.16L68.79,153.48L75.67,161.44L82.55,171.48L89.43,177.7L96.31,176.76L103.19,173.51L110.07,175.41L123.83,172.08L130.7,175.74L137.58,175.12L144.46,173.09L151.34,176.37L158.22,175.87L165.1,173.58L171.98,176.55L178.86,175.9L185.74,173.66L192.62,176.19L199.5,175.81L206.38,173.68L213.26,176.55L220.13,176.02L227.01,173.82L233.89,176.78L240.77,175.87L247.65,173.58L254.53,176.46L261.41,175.64L268.29,173.71L275.17,176.29L282.05,175.72L288.93,173.53L295.81,176.38L302.68,175.78L309.56,173.67L316.44,176.61L323.32,175.84L330.2,173.52L337.08,176.44L343.96,175.48L350.84,173.63L357.72,176.21L364.6,175.64L371.48,173.66L378.36,176.41L385.23,175.77L392.11,173.61L398.99,176.22L405.87,175.73L412.75,173.41L419.63,176.48L426.51,175.81L433.39,173.67L440.27,176.33L447.15,175.67L454.03,173.52L460.91,176.29L467.79,175.56L474.66,173.73L481.54,176.41L488.42,175.78L495.3,173.57L502.18,176.28L509.06,175.55L515.94,173.37L522.82,176.13L529.7,175.59L536.58,173.49L543.46,176.37L550.34,175.73L557.21,173.76L564.09,176.44L570.97,175.58L577.85,173.4L584.73,176.03L591.61,175.43L598.49,173.52L605.37,176.16L612.25,175.58L619.13,173.5L626.01,176.43L632.89,175.66L639.77,173.54L646.64,176.21L653.52,175.39L660.4,173.25L667.28,176L674.16,175.4L681.04,173.46L687.92,176.12L694.8,175.63L701.68,173.56L708.56,176.27L715.44,175.59L722.32,173.58L729.19,176.29L736.07,175.31L742.95,173.28L749.83,176.12L756.71,175.45L763.59,173.65L770.47,176.2L777.35,175.62L784.23,173.31L791.11,176.01L797.99,175.29L804.87,173.4L811.74,175.76L818.62,175.34L825.5,173.47L832.38,176.18L839.26,175.68L846.14,173.64L853.02,176.22L859.9,175.44L866.78,173.33L873.66,175.82L880.54,175.39L887.42,173.46L894.3,175.97L901.17,175.46L908.05,173.58L914.93,176.14L921.81,175.49L928.69,173.51L935.57,175.94L942.45,175.39L949.33,173.47L956.21,176.08L963.09,175.44L969.97,173.56L976.85,176.06L983.72,175.25L990.6,173.49L997.48,176.14L1011.24,173.47L1018.12,176.04L1025,175.55" style="vector-effect: none; fill: none; stroke: rgb(124, 181, 236); stroke-opacity: 1; stroke-width: 2px; opacity: 1;"/></g><g class="points"/><g class="text"/></g><g class="trace scatter traceaa8ff0" style="stroke-miterlimit: 2; opacity: 1;"><g class="fills"/><g class="errorbars"/><g class="lines"><path class="js-line" d="M0,109.95L6.88,191.32L13.76,176.67L20.64,170.04L27.52,172.99L34.4,182.82L41.28,181.66L48.15,170.91L55.03,175.31L61.91,182.88L68.79,151.82L75.67,159.2L82.55,168.17L89.43,174.51L96.31,173.91L103.19,170.35L110.07,172.73L116.95,171.46L123.83,169.21L130.7,172.92L137.58,172.32L144.46,170.32L151.34,173.79L158.22,173.41L165.1,170.73L171.98,174.01L178.86,173.38L185.74,170.74L192.62,173.49L199.5,173.19L206.38,170.66L213.26,173.96L220.13,173.46L227.01,170.96L233.89,174.29L240.77,173.34L247.65,170.75L254.53,173.94L261.41,172.97L268.29,170.76L275.17,173.68L282.05,173.2L288.93,170.66L295.81,173.88L302.68,173.45L309.56,170.9L316.44,174L323.32,173.4L330.2,170.67L337.08,173.68L343.96,172.9L350.84,170.64L357.72,173.72L364.6,173.12L371.48,170.87L378.36,173.85L385.23,173.23L392.11,170.82L398.99,173.56L405.87,173.15L412.75,170.54L419.63,173.86L426.51,173.37L433.39,170.98L440.27,173.86L447.15,173.29L454.03,170.68L460.91,173.69L467.79,172.89L474.66,170.78L481.54,173.8L488.42,173.25L495.3,170.81L502.18,173.7L509.06,173.03L515.94,170.6L522.82,173.49L529.7,173.04L536.58,170.56L543.46,173.76L550.34,173.33L557.21,171.03L564.09,173.9L570.97,173.17L577.85,170.68L584.73,173.45L591.61,172.89L598.49,170.64L605.37,173.56L612.25,173.07L619.13,170.68L626.01,173.87L632.89,173.25L639.77,170.81L646.64,173.57L653.52,172.93L660.4,170.49L667.28,173.36L674.16,172.7L681.04,170.55L687.92,173.57L694.8,173.19L701.68,170.73L708.56,173.67L715.44,173.01L722.32,170.7L729.19,173.64L736.07,172.69L742.95,170.43L749.83,173.39L756.71,172.74L763.59,170.81L770.47,173.62L777.35,173.12L784.23,170.46L791.11,173.35L797.99,172.59L804.87,170.34L811.74,173.18L818.62,172.67L825.5,170.5L832.38,173.63L839.26,173.13L846.14,170.84L853.02,173.49L859.9,172.84L866.78,170.4L873.66,173.28L880.54,172.75L887.42,170.6L894.3,173.4L901.17,172.81L908.05,170.59L914.93,173.44L921.81,172.83L928.69,170.65L935.57,173.24L942.45,172.66L949.33,170.59L956.21,173.46L963.09,172.9L969.97,170.72L976.85,173.45L983.72,172.74L990.6,170.59L997.48,173.48L1004.36,172.52L1011.24,170.5L1018.12,173.42L1025,172.79" style="vector-effect: none; fill: none; stroke: rgb(67, 67, 72); stroke-opacity: 1; stroke-width: 2px; opacity: 1;"/></g><g class="points"/><g class="text"/></g><g class="trace scatter tracee6e8d6" style="stroke-miterlimit: 2; opacity: 1;"><g class="fills"/><g class="errorbars"/><g class="lines"><path class="js-line" d="M0,118.17L6.88,208.69L13.76,192.72L20.64,185.75L27.52,187.05L34.4,198.5L41.28,197.89L48.15,185.53L55.03,189.75L61.91,200.04L68.79,165.57L75.67,174.3L82.55,184.99L89.43,190.31L96.31,189.52L103.19,186.52L110.07,188.01L116.95,187.1L123.83,185.17L130.7,188.32L137.58,187.81L144.46,186.45L151.34,188.99L158.22,189.09L165.1,186.86L171.98,189.42L178.86,188.88L185.74,186.69L192.62,188.75L199.5,188.72L206.38,186.62L213.26,189.21L220.13,188.92L227.01,187L233.89,189.58L240.77,189.06L247.65,186.85L254.53,189.31L261.41,188.74L268.29,186.69L275.17,188.99L282.05,188.84L288.93,186.68L295.81,189.37L302.68,189.01L309.56,187.16L316.44,189.71L323.32,189.21L330.2,186.89L337.08,189.35L343.96,188.55L350.84,186.95L357.72,189.21L364.6,189.08L371.48,187.05L378.36,189.49L385.23,189.13L392.11,187.09L398.99,189.14L405.87,189.01L412.75,186.71L419.63,189.41L426.51,189.18L433.39,187.31L440.27,189.49L447.15,189.19L454.03,187.02L460.91,189.4L467.79,188.93L474.66,187.08L481.54,189.38L488.42,189.19L495.3,187.23L502.18,189.35L509.06,188.99L515.94,186.89L522.82,189.18L529.7,188.82L536.58,186.92L543.46,189.46L550.34,189.12L557.21,187.33L564.09,189.61L570.97,189L577.85,187.07L584.73,189.19L591.61,188.74L598.49,186.91L605.37,189.05L612.25,189.02L619.13,187.07L626.01,189.48L632.89,189.05L639.77,187.21L646.64,189.38L653.52,188.85L660.4,186.8L667.28,189.05L674.16,188.68L681.04,186.99L687.92,189.25L694.8,189.06L701.68,187.11L708.56,189.4L715.44,189L722.32,187.2L729.19,189.44L736.07,188.76L742.95,186.68L749.83,189.14L756.71,188.86L763.59,187.28L770.47,189.3L777.35,189.06L784.23,186.97L791.11,189.15L797.99,188.53L804.87,186.89L811.74,188.86L818.62,188.76L825.5,187.03L832.38,189.41L839.26,189.22L846.14,187.45L853.02,189.39L859.9,188.91L866.78,186.8L873.66,189.04L880.54,188.76L887.42,187.13L894.3,189.14L901.17,188.88L908.05,187.14L914.93,189.24L921.81,188.8L928.69,187.1L935.57,189.02L942.45,188.75L949.33,187.02L956.21,189.23L963.09,189.02L969.97,187.22L976.85,189.23L983.72,188.84L990.6,187.08L997.48,189.35L1004.36,188.69L1011.24,187.1L1018.12,189.32L1025,188.95" style="vector-effect: none; fill: none; stroke: rgb(144, 237, 125); stroke-opacity: 1; stroke-width: 2px; opacity: 1;"/></g><g class="points"/><g class="text"/></g><g class="trace scatter trace857cd5" style="stroke-miterlimit: 2; opacity: 1;"><g class="fills"/><g class="errorbars"/><g class="lines"><path class="js-line" d="M0,111.03L6.88,190.77L13.76,176.63L20.64,170.18L27.52,173.19L34.4,182.53L41.28,180.87L48.15,170.23L55.03,174.29L61.91,183.57L68.79,152.35L75.67,159.78L82.55,168.95L89.43,174.98L96.31,174.01L103.19,171.12L110.07,173.26L123.83,169.67L130.7,173.36L144.46,171.04L151.34,174.21L158.22,173.73L165.1,171.63L171.98,174.5L178.86,173.75L185.74,171.39L192.62,173.68L199.5,173.51L206.38,171.35L213.26,174.42L220.13,173.81L227.01,171.89L233.89,174.92L240.77,173.78L247.65,171.71L254.53,174.47L261.41,173.16L268.29,171.51L275.17,174.16L282.05,173.59L288.93,171.43L295.81,174.31L302.68,173.81L309.56,171.75L316.44,174.47L323.32,173.63L330.2,171.31L337.08,174.22L343.96,172.98L350.84,171.5L357.72,174.19L364.6,173.44L371.48,171.51L378.36,174.22L385.23,173.41L392.11,171.43L398.99,173.77L405.87,173.12L412.75,171L419.63,174.27L426.51,173.77L433.39,171.92L440.27,174.52L447.15,173.58L454.03,171.24L460.91,173.99L467.79,173.02L474.66,171.33L481.54,174.13L488.42,173.56L495.3,171.74L502.18,174.29L509.06,173.43L515.94,171.25L522.82,173.85L529.7,173.16L536.58,171.12L543.46,174.16L550.34,173.46L557.21,171.73L564.09,174.5L577.85,171.48L584.73,173.89L591.61,173.01L598.49,171.31L605.37,173.68L612.25,173.21L619.13,171.4L626.01,174.35L632.89,173.36L639.77,171.53L646.64,174.05L653.52,173.04L660.4,171.06L667.28,173.61L681.04,171.21L687.92,173.85L694.8,173.37L701.68,171.43L708.56,173.98L715.44,173.17L722.32,171.39L729.19,173.97L736.07,172.81L742.95,170.8L749.83,173.69L756.71,172.8L763.59,171.47L770.47,173.89L777.35,173.22L784.23,171.05L791.11,173.78L797.99,172.54L804.87,170.97L811.74,173.23L818.62,172.94L825.5,171.06L832.38,174.06L839.26,173.33L846.14,171.58L853.02,173.91L859.9,172.98L866.78,170.84L873.66,173.55L880.54,172.77L887.42,171.3L894.3,173.74L901.17,173.04L908.05,171.43L914.93,173.88L921.81,172.91L928.69,171.16L935.57,173.55L942.45,172.78L949.33,171.04L956.21,173.84L963.09,173.01L969.97,171.37L976.85,173.79L983.72,172.78L990.6,171L997.48,173.58L1004.36,172.57L1011.24,171.12L1018.12,173.68L1025,173.11" style="vector-effect: none; fill: none; stroke: rgb(247, 163, 92); stroke-opacity: 1; stroke-width: 2px; opacity: 1;"/></g><g class="points"/><g class="text"/></g><g class="trace scatter trace567d8e" style="stroke-miterlimit: 2; opacity: 1;"><g class="fills"/><g class="errorbars"/><g class="lines"><path class="js-line" d="M0,111.3L6.88,195.49L13.76,179.72L20.64,171.92L27.52,174.78L34.4,184.78L41.28,183.36L48.15,172.22L55.03,176.99L61.91,185.86L68.79,153.37L75.67,160.74L82.55,170.77L89.43,176.62L96.31,175.57L103.19,172.49L110.07,174.48L123.83,171.4L130.7,174.99L137.58,174.39L144.46,172.47L151.34,175.76L158.22,175.21L165.1,172.85L171.98,175.85L178.86,175.16L185.74,172.82L192.62,175.59L199.5,175.04L206.38,172.94L213.26,176.04L220.13,175.23L227.01,173.09L233.89,176.13L240.77,175.2L247.65,172.97L254.53,176.04L261.41,175L268.29,172.87L275.17,175.66L282.05,175.06L288.93,172.81L295.81,175.83L302.68,175.13L309.56,173.1L316.44,176.03L323.32,175.32L330.2,172.87L337.08,175.85L343.96,174.96L350.84,172.86L357.72,175.71L364.6,175.04L371.48,173.01L378.36,175.89L385.23,175.23L392.11,173.2L398.99,175.99L405.87,175.18L412.75,172.96L419.63,175.91L426.51,175.16L433.39,173.02L440.27,175.78L447.15,174.99L454.03,172.89L460.91,175.95L467.79,175.08L474.66,173.15L481.54,176.04L488.42,175.21L495.3,173.01L502.18,175.74L509.06,175.13L515.94,172.91L522.82,175.69L529.7,175.14L536.58,173.02L543.46,175.89L550.34,175.21L557.21,173.2L564.09,175.96L570.97,175.16L577.85,173.02L584.73,175.7L591.61,174.92L598.49,173.05L605.37,175.76L612.25,175.11L619.13,173.06L626.01,176.14L632.89,175.28L639.77,173.15L646.64,175.84L653.52,175.04L660.4,172.84L667.28,175.72L674.16,174.89L681.04,173.03L687.92,175.79L694.8,175.2L701.68,173.04L708.56,176.06L715.44,175.16L722.32,173.12L729.19,176.04L736.07,174.84L742.95,172.95L749.83,175.67L756.71,175L763.59,173.25L770.47,175.87L777.35,175.34L784.23,173.09L791.11,175.82L797.99,174.96L804.87,172.91L811.74,175.59L818.62,174.95L825.5,173.02L832.38,175.86L839.26,175.22L846.14,173.36L853.02,175.98L859.9,175.1L866.78,173.04L873.66,175.74L880.54,175.11L887.42,172.99L894.3,175.68L901.17,175.05L908.05,173.19L914.93,175.79L921.81,175.15L928.69,173.17L935.57,175.73L942.45,174.97L949.33,173.11L956.21,175.83L963.09,175.07L969.97,173.18L976.85,175.81L983.72,175.04L990.6,173.05L997.48,175.79L1004.36,174.87L1011.24,173.04L1018.12,175.82L1025,175.1" style="vector-effect: none; fill: none; stroke: rgb(128, 133, 233); stroke-opacity: 1; stroke-width: 2px; opacity: 1;"/></g><g class="points"/><g class="text"/></g><g class="trace scatter traceb2871e" style="stroke-miterlimit: 2; opacity: 1;"><g class="fills"/><g class="errorbars"/><g class="lines"><path class="js-line" d="M0,115.93L6.88,202.28L13.76,187.15L20.64,179.27L27.52,181.15L34.4,192.14L41.28,191.22L48.15,179.27L55.03,183.8L61.91,192.6L68.79,160.14L75.67,167.46L82.55,177.58L89.43,183.47L96.31,182.6L103.19,179.65L110.07,181.4L123.83,178.67L130.7,181.99L137.58,181.48L144.46,179.55L151.34,182.6L158.22,182.09L165.1,179.84L171.98,182.8L178.86,182.11L185.74,180L192.62,182.47L199.5,181.97L206.38,179.97L213.26,182.82L220.13,182.12L227.01,180.12L233.89,182.92L240.77,182.19L247.65,180.07L254.53,182.86L261.41,182.04L268.29,179.98L275.17,182.5L282.05,181.94L288.93,179.92L295.81,182.7L302.68,182.16L309.56,180.12L316.44,182.94L323.32,182.23L330.2,180.06L337.08,182.69L343.96,181.85L350.84,179.95L357.72,182.49L364.6,181.92L371.48,180.01L378.36,182.77L385.23,182.21L392.11,180.1L398.99,182.8L405.87,182.2L412.75,180.06L419.63,182.77L426.51,181.93L433.39,180.02L440.27,182.61L447.15,182.02L454.03,180.02L460.91,182.76L467.79,182.05L474.66,180.19L481.54,182.89L488.42,182.2L495.3,180.08L502.18,182.62L509.06,182.02L515.94,179.99L522.82,182.51L529.7,182L536.58,180.15L543.46,182.77L550.34,182.28L557.21,180.39L564.09,182.79L570.97,182.05L577.85,180.02L584.73,182.5L591.61,181.84L598.49,180.03L605.37,182.62L612.25,182.16L619.13,180.15L626.01,182.9L632.89,182.19L639.77,180.12L646.64,182.56L653.52,181.99L660.4,179.97L667.28,182.48L674.16,181.87L681.04,180.1L687.92,182.62L694.8,182.18L701.68,180.16L708.56,182.74L715.44,182.11L722.32,180.06L729.19,182.79L736.07,181.94L742.95,180.1L749.83,182.52L756.71,182.01L763.59,180.22L770.47,182.74L777.35,182.17L784.23,180.09L791.11,182.64L797.99,181.96L804.87,180.1L811.74,182.43L818.62,181.85L825.5,180.12L832.38,182.71L839.26,182.16L846.14,180.28L853.02,182.73L859.9,182.03L866.78,180.05L873.66,182.56L880.54,182.08L887.42,180.12L894.3,182.49L901.17,181.96L908.05,180.19L914.93,182.55L921.81,181.99L928.69,180.21L935.57,182.61L942.45,181.95L949.33,180.12L956.21,182.53L963.09,181.93L969.97,180.27L976.85,182.61L983.72,181.91L990.6,180.15L997.48,182.83L1011.24,180L1018.12,182.58L1025,182.12" style="vector-effect: none; fill: none; stroke: rgb(241, 92, 128); stroke-opacity: 1; stroke-width: 2px; opacity: 1;"/></g><g class="points"/><g class="text"/></g><g class="trace scatter trace3ca0e2" style="stroke-miterlimit: 2; opacity: 1;"><g class="fills"/><g class="errorbars"/><g class="lines"><path class="js-line" d="M0,96.52L6.88,183.18L13.76,166.18L20.64,159.19L27.52,162.68L34.4,172.55L41.28,171.46L48.15,162.03L55.03,165.99L61.91,172.69L68.79,142.48L75.67,149.61L82.55,158.25L89.43,164.11L96.31,163.54L103.19,159.33L110.07,162.17L116.95,161.11L123.83,158.46L130.7,162.4L137.58,162.2L144.46,159.88L151.34,163.43L158.22,163.22L165.1,160.06L171.98,163.49L178.86,162.97L185.74,159.62L192.62,163.01L199.5,162.43L206.38,159.79L213.26,163.08L220.13,162.73L227.01,160.34L233.89,163.84L240.77,162.73L247.65,159.68L254.53,163.13L261.41,162.24L268.29,159.81L275.17,163.01L282.05,162.5L288.93,159.38L295.81,163.27L302.68,162.66L309.56,159.85L316.44,163.3L323.32,162.57L330.2,159.3L337.08,162.7L343.96,162.03L350.84,159.38L357.72,162.79L364.6,162.33L371.48,159.75L378.36,163.38L385.23,162.8L392.11,159.94L398.99,163.24L405.87,162.59L412.75,159.52L419.63,163.15L426.51,162.59L433.39,159.92L440.27,162.77L447.15,162.35L454.03,159.69L460.91,163.14L467.79,162.41L474.66,159.53L481.54,162.84L488.42,162.14L495.3,159.28L502.18,162.67L509.06,161.97L515.94,159.04L522.82,162.34L529.7,161.88L536.58,159.15L543.46,162.7L550.34,162.05L557.21,159.34L564.09,162.66L570.97,162L577.85,158.91L584.73,162.3L591.61,161.61L598.49,158.98L605.37,162.42L612.25,161.92L619.13,159.21L626.01,162.66L632.89,162.04L639.77,159.19L646.64,162.37L653.52,161.63L660.4,158.68L667.28,162.21L674.16,161.39L681.04,158.94L687.92,162.28L694.8,161.79L701.68,159.1L708.56,162.43L715.44,161.84L722.32,159.03L729.19,162.42L736.07,161.47L742.95,158.69L749.83,162.18L756.71,161.54L763.59,158.98L770.47,162.3L777.35,161.84L784.23,158.86L791.11,162.18L797.99,161.36L804.87,158.54L811.74,161.97L818.62,161.34L825.5,158.75L832.38,162.18L839.26,161.81L846.14,159.12L853.02,162.26L859.9,161.65L866.78,158.73L873.66,161.96L880.54,161.65L887.42,158.75L894.3,162.03L901.17,161.43L908.05,159L914.93,162.16L921.81,161.53L928.69,159.04L935.57,162.07L942.45,161.54L949.33,158.86L956.21,162.26L963.09,161.56L969.97,159.05L976.85,162.2L983.72,161.5L990.6,159.01L997.48,162.28L1004.36,161.38L1011.24,158.81L1018.12,162.28L1025,161.73" style="vector-effect: none; fill: none; stroke: rgb(228, 211, 84); stroke-opacity: 1; stroke-width: 2px; opacity: 1;"/></g><g class="points"/><g class="text"/></g><g class="trace scatter trace3e0bb6" style="stroke-miterlimit: 2; opacity: 1;"><g class="fills"/><g class="errorbars"/><g class="lines"><path class="js-line" d="M0,101.21L6.88,184.88L13.76,168.09L20.64,162.11L27.52,165.12L34.4,174.05L41.28,171.33L48.15,162.49L55.03,166.97L61.91,173.38L68.79,144.25L89.43,164.97L96.31,164.39L103.19,160.52L110.07,163.66L116.95,162.47L123.83,159.67L130.7,164.05L137.58,163.43L144.46,160.65L151.34,164.65L158.22,164.17L165.1,160.93L171.98,164.9L178.86,164.17L185.74,161.1L192.62,164.62L199.5,164.07L206.38,160.98L213.26,164.79L220.13,164.06L227.01,161.19L233.89,165.04L240.77,164.12L247.65,161.02L254.53,164.83L261.41,164.03L268.29,161.15L275.17,164.61L282.05,163.97L288.93,160.76L295.81,164.71L302.68,164.03L309.56,160.92L316.44,164.8L323.32,164L330.2,160.89L337.08,164.63L343.96,163.71L350.84,160.71L357.72,164.37L364.6,163.77L371.48,160.88L378.36,164.69L385.23,163.88L392.11,160.85L398.99,164.55L405.87,163.82L412.75,160.68L419.63,164.61L426.51,163.9L433.39,160.89L440.27,164.6L447.15,163.85L454.03,160.89L460.91,164.62L467.79,163.73L474.66,160.95L481.54,164.57L488.42,163.85L495.3,160.78L502.18,164.45L509.06,163.53L515.94,160.52L522.82,164.18L529.7,163.54L536.58,160.7L543.46,164.52L550.34,163.8L557.21,160.95L564.09,164.53L570.97,163.58L577.85,160.65L584.73,164.23L591.61,163.4L598.49,160.62L605.37,164.26L612.25,163.64L619.13,160.68L626.01,164.58L632.89,163.65L639.77,160.81L646.64,164.26L653.52,163.51L660.4,160.43L667.28,164.05L674.16,163.22L681.04,160.67L687.92,164.27L694.8,163.64L701.68,160.75L708.56,164.36L715.44,163.53L722.32,160.71L729.19,164.36L736.07,163.28L742.95,160.46L749.83,164.11L756.71,163.36L763.59,160.68L770.47,164.19L777.35,163.61L784.23,160.58L791.11,164.22L797.99,163.22L804.87,160.34L811.74,163.86L818.62,163.22L825.5,160.44L832.38,164.11L839.26,163.45L846.14,160.79L853.02,164.17L859.9,163.39L866.78,160.41L873.66,164L880.54,163.29L887.42,160.62L894.3,163.95L901.17,163.28L908.05,160.68L914.93,164.09L921.81,163.3L928.69,160.65L935.57,164L942.45,163.3L949.33,160.62L956.21,164.09L963.09,163.35L969.97,160.74L976.85,164.13L983.72,163.17L990.6,160.56L997.48,164.17L1004.36,163.11L1011.24,160.53L1018.12,164.04L1025,163.4" style="vector-effect: none; fill: none; stroke: rgb(43, 144, 143); stroke-opacity: 1; stroke-width: 2px; opacity: 1;"/></g><g class="points"/><g class="text"/></g><g class="trace scatter tracea21fc3" style="stroke-miterlimit: 2; opacity: 1;"><g class="fills"/><g class="errorbars"/><g class="lines"><path class="js-line" d="M0,114.59L6.88,200.23L13.76,185.22L20.64,177.62L27.52,179.94L34.4,190.62L41.28,189.5L48.15,177.69L55.03,182.24L61.91,191.5L68.79,158.98L75.67,166.05L82.55,176.4L89.43,181.96L96.31,181.14L103.19,178.29L110.07,179.85L123.83,177.22L130.7,180.43L137.58,179.92L144.46,178.23L151.34,181.13L158.22,180.76L165.1,178.68L171.98,181.33L178.86,180.64L185.74,178.6L192.62,180.89L199.5,180.39L206.38,178.58L213.26,181.3L220.13,180.75L227.01,178.72L233.89,181.44L240.77,180.66L247.65,178.79L254.53,181.38L261.41,180.63L268.29,178.61L275.17,181.11L282.05,180.53L288.93,178.56L295.81,181.31L302.68,180.71L309.56,178.93L316.44,181.48L323.32,180.8L330.2,178.8L337.08,181.23L343.96,180.5L350.84,178.6L357.72,181.14L364.6,180.6L371.48,178.75L378.36,181.42L385.23,180.72L392.11,178.96L398.99,181.4L405.87,180.84L412.75,178.62L419.63,181.35L426.51,180.64L433.39,178.77L440.27,181.26L447.15,180.6L454.03,178.87L460.91,181.42L467.79,180.82L474.66,178.92L481.54,181.55L488.42,180.79L495.3,178.81L502.18,181.25L509.06,180.63L515.94,178.72L522.82,181.22L529.7,180.58L536.58,178.88L543.46,181.46L550.34,180.78L557.21,179.06L564.09,181.51L570.97,180.78L577.85,178.75L584.73,181.15L591.61,180.56L598.49,178.78L605.37,181.28L612.25,180.76L619.13,178.88L626.01,181.47L632.89,180.79L639.77,178.89L646.64,181.34L653.52,180.65L660.4,178.75L667.28,181.18L674.16,180.59L681.04,178.86L687.92,181.31L694.8,180.87L701.68,178.97L708.56,181.47L715.44,180.81L722.32,179.02L729.19,181.57L736.07,180.54L742.95,178.84L749.83,181.32L756.71,180.73L763.59,178.98L770.47,181.37L777.35,180.96L784.23,178.77L791.11,181.31L797.99,180.65L804.87,178.76L811.74,181.11L818.62,180.58L825.5,178.86L832.38,181.3L839.26,180.76L846.14,179.08L853.02,181.46L859.9,180.73L866.78,178.86L873.66,181.18L880.54,180.73L887.42,178.9L894.3,181.27L901.17,180.71L908.05,178.98L914.93,181.24L921.81,180.64L928.69,178.95L935.57,181.35L942.45,180.69L949.33,178.89L956.21,181.26L963.09,180.66L969.97,178.95L976.85,181.28L983.72,180.6L990.6,178.94L997.48,181.5L1004.36,180.6L1011.24,178.91L1018.12,181.36L1025,180.75" style="vector-effect: none; fill: none; stroke: rgb(244, 91, 91); stroke-opacity: 1; stroke-width: 2px; opacity: 1;"/></g><g class="points"/><g class="text"/></g><g class="trace scatter traced25e56" style="stroke-miterlimit: 2; opacity: 1;"><g class="fills"/><g class="errorbars"/><g class="lines"><path class="js-line" d="M0,105.15L6.88,185.74L13.76,170.09L20.64,162.4L27.52,165.66L34.4,174.51L41.28,171.96L48.15,162.55L55.03,167.44L61.91,175.88L68.79,146.15L75.67,152.53L82.55,161.03L89.43,167.34L96.31,166.07L103.19,162.48L110.07,165.2L116.95,163.81L123.83,161.43L130.7,165.68L137.58,164.95L144.46,162.71L151.34,166.48L158.22,165.82L165.1,163.14L171.98,166.71L178.86,165.78L185.74,163.1L192.62,166.37L199.5,165.73L206.38,163.14L213.26,166.79L220.13,165.99L227.01,163.48L233.89,167.07L240.77,165.87L247.65,163.23L254.53,166.76L261.41,165.67L268.29,163.18L275.17,166.64L282.05,165.74L288.93,163.06L295.81,166.6L302.68,165.88L309.56,163.26L316.44,166.8L323.32,165.89L330.2,163.14L337.08,166.61L343.96,165.51L350.84,163.11L357.72,166.56L364.6,165.64L371.48,163.14L378.36,166.71L385.23,165.74L392.11,163.25L398.99,166.55L405.87,165.72L412.75,162.95L419.63,166.73L426.51,165.79L433.39,163.25L440.27,166.63L447.15,165.83L454.03,163.05L460.91,166.56L467.79,165.59L474.66,163.2L481.54,166.66L488.42,165.72L495.3,163.22L502.18,166.61L509.06,165.74L515.94,163L522.82,166.35L529.7,165.6L536.58,163L543.46,166.58L550.34,165.84L557.21,163.35L564.09,166.82L570.97,165.73L577.85,163.06L584.73,166.32L591.61,165.38L598.49,163.02L605.37,166.34L612.25,165.59L619.13,163.14L626.01,166.74L632.89,165.78L639.77,163.25L646.64,166.58L653.52,165.43L660.4,162.91L667.28,166.33L674.16,165.4L681.04,163.04L687.92,166.4L694.8,165.69L701.68,163.18L708.56,166.53L715.44,165.63L722.32,163.26L729.19,166.75L736.07,165.41L742.95,162.89L749.83,166.31L756.71,165.4L763.59,163.19L770.47,166.39L777.35,165.72L784.23,163L791.11,166.44L797.99,165.23L804.87,162.92L811.74,166.04L818.62,165.28L825.5,162.98L832.38,166.48L839.26,165.57L846.14,163.41L853.02,166.47L859.9,165.46L866.78,162.96L873.66,166.2L880.54,165.44L887.42,163.14L894.3,166.38L901.17,165.43L908.05,163.16L914.93,166.46L921.81,165.5L928.69,163.14L935.57,166.22L942.45,165.37L949.33,163.13L956.21,166.43L963.09,165.44L969.97,163.23L976.85,166.39L983.72,165.26L990.6,163.14L997.48,166.42L1004.36,165.19L1011.24,163L1018.12,166.28L1025,165.48" style="vector-effect: none; fill: none; stroke: rgb(145, 232, 225); stroke-opacity: 1; stroke-width: 2px; opacity: 1;"/></g><g class="points"/><g class="text"/></g></g></g></g><g class="zerolinelayer-above"/><path class="xlines-above crisp" d="M0,0" style="fill: none;"/><path class="ylines-above crisp" d="M0,0" style="fill: none;"/><g class="overlines-above"/><g class="xaxislayer-above"><g class="xtick"><text text-anchor="middle" x="0" y="451" transform="translate(190.7,0)" style="font-family: 'Lucida Grande', 'Open Sans', verdana, arial, sans-serif; font-size: 10px; fill: rgb(0, 0, 0); fill-opacity: 1; white-space: pre;">20</text></g><g class="xtick"><text text-anchor="middle" x="0" y="451" style="font-family: 'Lucida Grande', 'Open Sans', verdana, arial, sans-serif; font-size: 10px; fill: rgb(0, 0, 0); fill-opacity: 1; white-space: pre;" transform="translate(328.29,0)">40</text></g><g class="xtick"><text text-anchor="middle" x="0" y="451" style="font-family: 'Lucida Grande', 'Open Sans', verdana, arial, sans-serif; font-size: 10px; fill: rgb(0, 0, 0); fill-opacity: 1; white-space: pre;" transform="translate(465.87,0)">60</text></g><g class="xtick"><text text-anchor="middle" x="0" y="451" style="font-family: 'Lucida Grande', 'Open Sans', verdana, arial, sans-serif; font-size: 10px; fill: rgb(0, 0, 0); fill-opacity: 1; white-space: pre;" transform="translate(603.46,0)">80</text></g><g class="xtick"><text text-anchor="middle" x="0" y="451" style="font-family: 'Lucida Grande', 'Open Sans', verdana, arial, sans-serif; font-size: 10px; fill: rgb(0, 0, 0); fill-opacity: 1; white-space: pre;" transform="translate(741.04,0)">100</text></g><g class="xtick"><text text-anchor="middle" x="0" y="451" style="font-family: 'Lucida Grande', 'Open Sans', verdana, arial, sans-serif; font-size: 10px; fill: rgb(0, 0, 0); fill-opacity: 1; white-space: pre;" transform="translate(878.62,0)">120</text></g><g class="xtick"><text text-anchor="middle" x="0" y="451" style="font-family: 'Lucida Grande', 'Open Sans', verdana, arial, sans-serif; font-size: 10px; fill: rgb(0, 0, 0); fill-opacity: 1; white-space: pre;" transform="translate(1016.21,0)">140</text></g></g><g class="yaxislayer-above"><g class="ytick"><text text-anchor="end" x="54" y="3.5" transform="translate(0,435)" style="font-family: 'Lucida Grande', 'Open Sans', verdana, arial, sans-serif; font-size: 10px; fill: rgb(0, 0, 0); fill-opacity: 1; white-space: pre;">0%</text></g><g class="ytick"><text text-anchor="end" x="54" y="3.5" style="font-family: 'Lucida Grande', 'Open Sans', verdana, arial, sans-serif; font-size: 10px; fill: rgb(0, 0, 0); fill-opacity: 1; white-space: pre;" transform="translate(0,358)">20%</text></g><g class="ytick"><text text-anchor="end" x="54" y="3.5" style="font-family: 'Lucida Grande', 'Open Sans', verdana, arial, sans-serif; font-size: 10px; fill: rgb(0, 0, 0); fill-opacity: 1; white-space: pre;" transform="translate(0,281)">40%</text></g><g class="ytick"><text text-anchor="end" x="54" y="3.5" style="font-family: 'Lucida Grande', 'Open Sans', verdana, arial, sans-serif; font-size: 10px; fill: rgb(0, 0, 0); fill-opacity: 1; white-space: pre;" transform="translate(0,204)">60%</text></g><g class="ytick"><text text-anchor="end" x="54" y="3.5" style="font-family: 'Lucida Grande', 'Open Sans', verdana, arial, sans-serif; font-size: 10px; fill: rgb(0, 0, 0); fill-opacity: 1; white-space: pre;" transform="translate(0,127)">80%</text></g><g class="ytick"><text text-anchor="end" x="54" y="3.5" style="font-family: 'Lucida Grande', 'Open Sans', verdana, arial, sans-serif; font-size: 10px; fill: rgb(0, 0, 0); fill-opacity: 1; white-space: pre;" transform="translate(0,50)">100%</text></g></g><g class="overaxes-above"/></g></g><g class="polarlayer"/><g class="smithlayer"/><g class="ternarylayer"/><g class="geolayer"/><g class="funnelarealayer"/><g class="pielayer"/><g class="iciclelayer"/><g class="treemaplayer"/><g class="sunburstlayer"/><g class="glimages"/><defs id="topdefs-557d7f"><g class="clips"/></defs><g class="layer-above"><g class="imagelayer"/><g class="shapelayer"/></g><g class="infolayer"><g class="g-gtitle"><text class="gtitle" x="550" y="25" text-anchor="middle" dy="0em" style="opacity: 1; font-family: 'Lucida Grande', 'Open Sans', verdana, arial, sans-serif; font-size: 20px; fill: rgb(68, 68, 68); fill-opacity: 1; white-space: pre;"><tspan class="line" dy="0em" x="550" y="25">Fastp: Read GC Content</tspan><tspan class="line" dy="1.3em" x="550" y="25">​<tspan style="font-size:70%" dy="-0.6em">Read 1: After filtering, 10 lines</tspan><tspan dy="0.42em">​</tspan></tspan></text></g><g class="g-xtitle"><text class="xtitle" x="572.5" y="487" text-anchor="middle" style="opacity: 0.3; font-family: 'Lucida Grande', 'Open Sans', verdana, arial, sans-serif; font-size: 14px; fill: rgb(0, 0, 0); fill-opacity: 1; white-space: pre;">Read Position</text></g><g class="g-ytitle"><text class="ytitle" transform="rotate(-90,22,242.5)" x="22" y="242.5" text-anchor="middle" style="opacity: 0.3; font-family: 'Lucida Grande', 'Open Sans', verdana, arial, sans-serif; font-size: 14px; fill: rgb(0, 0, 0); fill-opacity: 1; white-space: pre;">R1 After filtering: Base Content Percent</text></g></g></svg>