<svg class="main-svg" xmlns="http://www.w3.org/2000/svg" xmlns:xlink="http://www.w3.org/1999/xlink" width="2200" height="1000" style="" viewBox="0 0 1100 500"><rect x="0" y="0" width="1100" height="500" style="fill: rgb(255, 255, 255); fill-opacity: 1;"/><defs id="defs-f8c888"><g class="clips"><clipPath id="clipf8c888xyplot" class="plotclip"><rect width="1025" height="385"/></clipPath><clipPath class="axesclip" id="clipf8c888x"><rect x="60" y="0" width="1025" height="500"/></clipPath><clipPath class="axesclip" id="clipf8c888y"><rect x="0" y="50" width="1100" height="385"/></clipPath><clipPath class="axesclip" id="clipf8c888xy"><rect x="60" y="50" width="1025" height="385"/></clipPath></g><g class="gradients"/><g class="patterns"/></defs><g class="bglayer"/><g class="layer-below"><g class="imagelayer"/><g class="shapelayer"/></g><g class="cartesianlayer"><g class="subplot xy"><g class="layer-subplot"><g class="shapelayer"/><g class="imagelayer"/></g><g class="minor-gridlayer"><g class="x"/><g class="y"/></g><g class="gridlayer"><g class="x"><path class="xgrid crisp" transform="translate(190.7,0)" d="M0,50v385" style="stroke: rgb(0, 0, 0); stroke-opacity: 0.05; stroke-width: 1px;"/><path class="xgrid crisp" transform="translate(328.29,0)" d="M0,50v385" style="stroke: rgb(0, 0, 0); stroke-opacity: 0.05; stroke-width: 1px;"/><path class="xgrid crisp" transform="translate(465.87,0)" d="M0,50v385" style="stroke: rgb(0, 0, 0); stroke-opacity: 0.05; stroke-width: 1px;"/><path class="xgrid crisp" transform="translate(603.46,0)" d="M0,50v385" style="stroke: rgb(0, 0, 0); stroke-opacity: 0.05; stroke-width: 1px;"/><path class="xgrid crisp" transform="translate(741.04,0)" d="M0,50v385" style="stroke: rgb(0, 0, 0); stroke-opacity: 0.05; stroke-width: 1px;"/><path class="xgrid crisp" transform="translate(878.62,0)" d="M0,50v385" style="stroke: rgb(0, 0, 0); stroke-opacity: 0.05; stroke-width: 1px;"/><path class="xgrid crisp" transform="translate(1016.21,0)" d="M0,50v385" style="stroke: rgb(0, 0, 0); stroke-opacity: 0.05; stroke-width: 1px;"/></g><g class="y"><path class="ygrid crisp" transform="translate(0,389.85)" d="M60,0h1025" style="stroke: rgb(0, 0, 0); stroke-opacity: 0.05; stroke-width: 1px;"/><path class="ygrid crisp" transform="translate(0,344.7)" d="M60,0h1025" style="stroke: rgb(0, 0, 0); stroke-opacity: 0.05; stroke-width: 1px;"/><path class="ygrid crisp" transform="translate(0,299.55)" d="M60,0h1025" style="stroke: rgb(0, 0, 0); stroke-opacity: 0.05; stroke-width: 1px;"/><path class="ygrid crisp" transform="translate(0,254.4)" d="M60,0h1025" style="stroke: rgb(0, 0, 0); stroke-opacity: 0.05; stroke-width: 1px;"/><path class="ygrid crisp" transform="translate(0,209.24)" d="M60,0h1025" style="stroke: rgb(0, 0, 0); stroke-opacity: 0.05; stroke-width: 1px;"/><path class="ygrid crisp" transform="translate(0,164.09)" d="M60,0h1025" style="stroke: rgb(0, 0, 0); stroke-opacity: 0.05; stroke-width: 1px;"/><path class="ygrid crisp" transform="translate(0,118.94)" d="M60,0h1025" style="stroke: rgb(0, 0, 0); stroke-opacity: 0.05; stroke-width: 1px;"/><path class="ygrid crisp" transform="translate(0,73.78999999999999)" d="M60,0h1025" style="stroke: rgb(0, 0, 0); stroke-opacity: 0.05; stroke-width: 1px;"/></g></g><g class="zerolinelayer"><path class="yzl zl crisp" transform="translate(0,435)" d="M60,0h1025" style="stroke: rgb(0, 0, 0); stroke-opacity: 0.05; stroke-width: 1px;"/></g><g class="layer-between"><g class="shapelayer"/><g class="imagelayer"/></g><path class="xlines-below"/><path class="ylines-below"/><g class="overlines-below"/><g class="xaxislayer-below"/><g class="yaxislayer-below"/><g class="overaxes-below"/><g class="overplot"><g class="xy" transform="translate(60,50)" clip-path="url(#clipf8c888xyplot)"><g class="scatterlayer mlayer"><g class="trace scatter trace472328" style="stroke-miterlimit: 2; opacity: 1;"><g class="fills"/><g class="errorbars"/><g class="lines"><path class="js-line" d="M0,20.73L6.88,22.31L13.76,21.86L20.64,20.99L27.52,21.33L48.15,19.94L55.03,19.91L61.91,20.34L68.79,19.78L130.7,19.69L137.58,19.52L302.68,20.2L309.56,21.1L316.44,19.9L323.32,20.77L337.08,21.32L343.96,20.79L357.72,21.24L364.6,21.46L392.11,20.61L398.99,21.42L405.87,21.03L412.75,21.49L474.66,21.52L481.54,21.62L694.8,20.99L701.68,21.13L722.32,21.06L729.19,21.63L742.95,21.17L749.83,21.22L873.66,21.87L880.54,22.19L976.85,22.35L983.72,22.44L1025,22.62" style="vector-effect: none; fill: none; stroke: rgb(124, 181, 236); stroke-opacity: 1; stroke-width: 2px; opacity: 1;"/></g><g class="points"/><g class="text"/></g><g class="trace scatter trace3e614f" style="stroke-miterlimit: 2; opacity: 1;"><g class="fills"/><g class="errorbars"/><g class="lines"><path class="js-line" d="M0,20.89L13.76,22.49L20.64,21.59L34.4,21.21L41.28,19.99L55.03,20.13L61.91,20.35L75.67,20.05L82.55,19.92L165.1,19.44L171.98,19.37L213.26,19.67L220.13,19.59L288.93,19.96L295.81,20.72L316.44,19.87L323.32,20.4L337.08,21.36L343.96,20.38L350.84,21.43L357.72,21.7L364.6,21.31L371.48,21.68L385.23,21.56L392.11,21.18L398.99,21.66L405.87,21.32L419.63,21.76L426.51,21.58L433.39,21.2L440.27,21.89L488.42,21.7L495.3,21.26L846.14,21.59L853.02,21.78L914.93,21.97L921.81,22.09L983.72,22.29L990.6,22.29L1025,22.46" style="vector-effect: none; fill: none; stroke: rgb(67, 67, 72); stroke-opacity: 1; stroke-width: 2px; opacity: 1;"/></g><g class="points"/><g class="text"/></g><g class="trace scatter trace3fb25a" style="stroke-miterlimit: 2; opacity: 1;"><g class="fills"/><g class="errorbars"/><g class="lines"><path class="js-line" d="M0,19.67L6.88,21.94L13.76,22.52L20.64,20.4L27.52,21.61L34.4,21.36L41.28,20.05L55.03,20.18L61.91,20.55L68.79,19.86L75.67,20.05L171.98,19.38L178.86,19.53L254.53,19.78L261.41,19.73L288.93,20.09L295.81,21.41L302.68,20.86L309.56,22.68L316.44,19.99L323.32,20.86L337.08,21.48L343.96,21.13L350.84,22.21L357.72,21.03L364.6,22.38L371.48,21.29L378.36,22.21L385.23,21.46L392.11,20.5L398.99,22.51L405.87,21.54L412.75,23.11L426.51,21.77L433.39,20.77L440.27,23.23L447.15,23.08L454.03,21.73L460.91,21.88L488.42,22.6L495.3,21.71L529.7,21.25L536.58,21.26L612.25,20.91L619.13,20.92L722.32,21.36L729.19,21.97L742.95,21.54L749.83,21.63L825.5,22.27L832.38,22.42L956.21,23.82L963.09,23.98L1025,24.82" style="vector-effect: none; fill: none; stroke: rgb(144, 237, 125); stroke-opacity: 1; stroke-width: 2px; opacity: 1;"/></g><g class="points"/><g class="text"/></g><g class="trace scatter trace1d34d8" style="stroke-miterlimit: 2; opacity: 1;"><g class="fills"/><g class="errorbars"/><g class="lines"><path class="js-line" d="M0,21.13L13.76,21.89L20.64,20.94L27.52,21.72L34.4,19.69L48.15,19.93L55.03,19.61L75.67,19.74L82.55,19.61L151.34,19.42L158.22,19.3L288.93,19.85L295.81,20.38L302.68,20.09L309.56,20.98L316.44,19.78L323.32,20.26L337.08,20.52L343.96,20.4L350.84,20.88L357.72,20.35L364.6,21L371.48,20.5L385.23,20.63L392.11,20.12L398.99,21.09L405.87,20.67L412.75,21.32L419.63,21.11L433.39,20.33L440.27,21.42L474.66,21.21L481.54,21.4L522.82,20.72L529.7,20.68L722.32,21L729.19,21.59L742.95,21.12L749.83,21.16L873.66,21.81L880.54,22.15L976.85,22.33L983.72,22.42L1025,22.59" style="vector-effect: none; fill: none; stroke: rgb(247, 163, 92); stroke-opacity: 1; stroke-width: 2px; opacity: 1;"/></g><g class="points"/><g class="text"/></g><g class="trace scatter trace0533ea" style="stroke-miterlimit: 2; opacity: 1;"><g class="fills"/><g class="errorbars"/><g class="lines"><path class="js-line" d="M0,21.67L6.88,22.41L13.76,22.38L27.52,21.32L34.4,21.73L41.28,22.1L48.15,21.27L282.05,21.3L288.93,21.43L295.81,22.04L302.68,21.8L309.56,22.44L316.44,21.38L323.32,22.66L330.2,22.52L337.08,22.83L343.96,22.05L357.72,23L364.6,22.9L385.23,22.74L392.11,22.38L398.99,22.95L405.87,22.62L419.63,23.1L426.51,22.88L433.39,22.52L440.27,23.22L488.42,23.07L495.3,22.61L612.25,22.73L619.13,22.69L722.32,22.59L729.19,23.14L742.95,22.7L749.83,22.73L873.66,23.4L880.54,23.72L990.6,24.05L997.48,24.14L1025,24.27" style="vector-effect: none; fill: none; stroke: rgb(128, 133, 233); stroke-opacity: 1; stroke-width: 2px; opacity: 1;"/></g><g class="points"/><g class="text"/></g><g class="trace scatter trace8a9a5c" style="stroke-miterlimit: 2; opacity: 1;"><g class="fills"/><g class="errorbars"/><g class="lines"><path class="js-line" d="M0,20.15L6.88,22.42L13.76,20.81L20.64,20.23L27.52,22.53L41.28,19.98L48.15,20.45L82.55,19.91L89.43,19.94L165.1,19.46L171.98,19.38L240.77,19.82L247.65,19.61L309.56,20.82L316.44,19.84L323.32,20.86L330.2,20.89L577.85,20.93L584.73,20.91L1025,22.23" style="vector-effect: none; fill: none; stroke: rgb(241, 92, 128); stroke-opacity: 1; stroke-width: 2px; opacity: 1;"/></g><g class="points"/><g class="text"/></g><g class="trace scatter trace150e6d" style="stroke-miterlimit: 2; opacity: 1;"><g class="fills"/><g class="errorbars"/><g class="lines"><path class="js-line" d="M0,22.05L6.88,23.15L13.76,22.24L34.4,20.78L41.28,20.81L48.15,20.03L55.03,20.14L75.67,20.09L82.55,20.02L178.86,19.55L185.74,19.72L206.38,19.6L213.26,19.89L227.01,19.67L233.89,19.85L288.93,20.45L295.81,26.87L302.68,24.69L309.56,30.82L316.44,20.78L323.32,31.34L330.2,28.7L337.08,32.94L343.96,26.41L350.84,33.44L357.72,35.2L364.6,34.01L371.48,35.1L378.36,35.33L392.11,29.08L398.99,32.92L405.87,30.94L412.75,34.97L419.63,35.25L426.51,33.23L433.39,29.66L440.27,34.7L447.15,35.48L454.03,35.5L467.79,34.43L474.66,35.06L481.54,35.31L488.42,34.13L495.3,30.2L502.18,29.18L529.7,28.92L536.58,29L605.37,27.76L612.25,27.45L708.56,22.95L715.44,22.76L832.38,23.44L839.26,23.48L914.93,24.41L921.81,24.59L963.09,25.01L969.97,25.09L1025,25.71" style="vector-effect: none; fill: none; stroke: rgb(228, 211, 84); stroke-opacity: 1; stroke-width: 2px; opacity: 1;"/></g><g class="points"/><g class="text"/></g><g class="trace scatter traceab159c" style="stroke-miterlimit: 2; opacity: 1;"><g class="fills"/><g class="errorbars"/><g class="lines"><path class="js-line" d="M0,23.64L6.88,24.97L13.76,24.32L27.52,22.7L34.4,22.37L41.28,23.78L48.15,23.1L68.79,22.41L75.67,22.75L144.46,22.33L151.34,22.43L192.62,22.32L199.5,22.5L282.05,22.82L288.93,22.99L295.81,25.11L302.68,24.04L309.56,27.77L316.44,23.07L323.32,26.9L330.2,28.09L337.08,27.99L343.96,26.42L350.84,28.34L357.72,27.29L364.6,28.42L371.48,27.52L378.36,28.34L385.23,27.2L392.11,25.41L398.99,28.41L405.87,27.25L412.75,28.63L419.63,28.53L426.51,27.5L433.39,26.26L440.27,28.64L454.03,28.05L460.91,27.34L474.66,28.05L481.54,28.51L488.42,28.27L495.3,26.77L515.94,26.4L522.82,26.42L577.85,25.78L584.73,25.6L626.01,24.98L632.89,24.84L681.04,24.35L687.92,24.32L873.66,25.07L880.54,25.4L990.6,25.68L997.48,25.77L1025,25.87" style="vector-effect: none; fill: none; stroke: rgb(43, 144, 143); stroke-opacity: 1; stroke-width: 2px; opacity: 1;"/></g><g class="points"/><g class="text"/></g><g class="trace scatter tracebace8b" style="stroke-miterlimit: 2; opacity: 1;"><g class="fills"/><g class="errorbars"/><g class="lines"><path class="js-line" d="M0,21.14L13.76,22.09L20.64,20.39L27.52,21.45L34.4,21.29L48.15,19.9L55.03,19.97L61.91,20.33L68.79,19.8L89.43,20.04L96.31,19.88L123.83,19.76L130.7,19.81L151.34,19.75L158.22,19.56L288.93,20.13L295.81,20.5L316.44,20.06L323.32,20.83L392.11,20.33L398.99,21.02L405.87,20.65L412.75,21.14L433.39,20.51L440.27,21.21L722.32,21.05L729.19,21.61L742.95,21.14L749.83,21.18L873.66,21.71L880.54,22.04L1025,22.25" style="vector-effect: none; fill: none; stroke: rgb(244, 91, 91); stroke-opacity: 1; stroke-width: 2px; opacity: 1;"/></g><g class="points"/><g class="text"/></g><g class="trace scatter trace4662d6" style="stroke-miterlimit: 2; opacity: 1;"><g class="fills"/><g class="errorbars"/><g class="lines"><path class="js-line" d="M0,20.25L13.76,22.4L20.64,21.35L27.52,20.45L34.4,20.52L41.28,21L48.15,20.5L55.03,20.05L61.91,20.45L68.79,19.81L75.67,20.05L144.46,19.57L151.34,19.7L178.86,19.63L185.74,19.69L206.38,19.7L213.26,19.82L254.53,19.89L261.41,19.96L302.68,20.3L309.56,21.32L316.44,20.06L323.32,20.98L337.08,21.37L343.96,21.02L350.84,21.54L357.72,21.18L371.48,21.3L378.36,21.57L392.11,20.76L398.99,21.64L405.87,21.31L412.75,21.76L433.39,21.1L440.27,21.84L722.32,21.38L729.19,21.95L742.95,21.52L749.83,21.58L846.14,22.28L853.02,22.49L908.05,22.85L914.93,22.92L969.97,23.46L976.85,23.45L1025,23.95" style="vector-effect: none; fill: none; stroke: rgb(145, 232, 225); stroke-opacity: 1; stroke-width: 2px; opacity: 1;"/></g><g class="points"/><g class="text"/></g></g></g></g><g class="zerolinelayer-above"/><path class="xlines-above crisp" d="M0,0" style="fill: none;"/><path class="ylines-above crisp" d="M0,0" style="fill: none;"/><g class="overlines-above"/><g class="xaxislayer-above"><g class="xtick"><text text-anchor="middle" x="0" y="451" transform="translate(190.7,0)" style="font-family: 'Lucida Grande', 'Open Sans', verdana, arial, sans-serif; font-size: 10px; fill: rgb(0, 0, 0); fill-opacity: 1; white-space: pre;">20</text></g><g class="xtick"><text text-anchor="middle" x="0" y="451" style="font-family: 'Lucida Grande', 'Open Sans', verdana, arial, sans-serif; font-size: 10px; fill: rgb(0, 0, 0); fill-opacity: 1; white-space: pre;" transform="translate(328.29,0)">40</text></g><g class="xtick"><text text-anchor="middle" x="0" y="451" style="font-family: 'Lucida Grande', 'Open Sans', verdana, arial, sans-serif; font-size: 10px; fill: rgb(0, 0, 0); fill-opacity: 1; white-space: pre;" transform="translate(465.87,0)">60</text></g><g class="xtick"><text text-anchor="middle" x="0" y="451" style="font-family: 'Lucida Grande', 'Open Sans', verdana, arial, sans-serif; font-size: 10px; fill: rgb(0, 0, 0); fill-opacity: 1; white-space: pre;" transform="translate(603.46,0)">80</text></g><g class="xtick"><text text-anchor="middle" x="0" y="451" style="font-family: 'Lucida Grande', 'Open Sans', verdana, arial, sans-serif; font-size: 10px; fill: rgb(0, 0, 0); fill-opacity: 1; white-space: pre;" transform="translate(741.04,0)">100</text></g><g class="xtick"><text text-anchor="middle" x="0" y="451" style="font-family: 'Lucida Grande', 'Open Sans', verdana, arial, sans-serif; font-size: 10px; fill: rgb(0, 0, 0); fill-opacity: 1; white-space: pre;" transform="translate(878.62,0)">120</text></g><g class="xtick"><text text-anchor="middle" x="0" y="451" style="font-family: 'Lucida Grande', 'Open Sans', verdana, arial, sans-serif; font-size: 10px; fill: rgb(0, 0, 0); fill-opacity: 1; white-space: pre;" transform="translate(1016.21,0)">140</text></g></g><g class="yaxislayer-above"><g class="ytick"><text text-anchor="end" x="54" y="3.5" transform="translate(0,435)" style="font-family: 'Lucida Grande', 'Open Sans', verdana, arial, sans-serif; font-size: 10px; fill: rgb(0, 0, 0); fill-opacity: 1; white-space: pre;">0</text></g><g class="ytick"><text text-anchor="end" x="54" y="3.5" style="font-family: 'Lucida Grande', 'Open Sans', verdana, arial, sans-serif; font-size: 10px; fill: rgb(0, 0, 0); fill-opacity: 1; white-space: pre;" transform="translate(0,389.85)">5</text></g><g class="ytick"><text text-anchor="end" x="54" y="3.5" style="font-family: 'Lucida Grande', 'Open Sans', verdana, arial, sans-serif; font-size: 10px; fill: rgb(0, 0, 0); fill-opacity: 1; white-space: pre;" transform="translate(0,344.7)">10</text></g><g class="ytick"><text text-anchor="end" x="54" y="3.5" style="font-family: 'Lucida Grande', 'Open Sans', verdana, arial, sans-serif; font-size: 10px; fill: rgb(0, 0, 0); fill-opacity: 1; white-space: pre;" transform="translate(0,299.55)">15</text></g><g class="ytick"><text text-anchor="end" x="54" y="3.5" style="font-family: 'Lucida Grande', 'Open Sans', verdana, arial, sans-serif; font-size: 10px; fill: rgb(0, 0, 0); fill-opacity: 1; white-space: pre;" transform="translate(0,254.4)">20</text></g><g class="ytick"><text text-anchor="end" x="54" y="3.5" style="font-family: 'Lucida Grande', 'Open Sans', verdana, arial, sans-serif; font-size: 10px; fill: rgb(0, 0, 0); fill-opacity: 1; white-space: pre;" transform="translate(0,209.24)">25</text></g><g class="ytick"><text text-anchor="end" x="54" y="3.5" style="font-family: 'Lucida Grande', 'Open Sans', verdana, arial, sans-serif; font-size: 10px; fill: rgb(0, 0, 0); fill-opacity: 1; white-space: pre;" transform="translate(0,164.09)">30</text></g><g class="ytick"><text text-anchor="end" x="54" y="3.5" style="font-family: 'Lucida Grande', 'Open Sans', verdana, arial, sans-serif; font-size: 10px; fill: rgb(0, 0, 0); fill-opacity: 1; white-space: pre;" transform="translate(0,118.94)">35</text></g><g class="ytick"><text text-anchor="end" x="54" y="3.5" style="font-family: 'Lucida Grande', 'Open Sans', verdana, arial, sans-serif; font-size: 10px; fill: rgb(0, 0, 0); fill-opacity: 1; white-space: pre;" transform="translate(0,73.78999999999999)">40</text></g></g><g class="overaxes-above"/></g></g><g class="polarlayer"/><g class="smithlayer"/><g class="ternarylayer"/><g class="geolayer"/><g class="funnelarealayer"/><g class="pielayer"/><g class="iciclelayer"/><g class="treemaplayer"/><g class="sunburstlayer"/><g class="glimages"/><defs id="topdefs-f8c888"><g class="clips"/></defs><g class="layer-above"><g class="imagelayer"/><g class="shapelayer"/></g><g class="infolayer"><g class="g-gtitle"><text class="gtitle" x="550" y="25" text-anchor="middle" dy="0em" style="opacity: 1; font-family: 'Lucida Grande', 'Open Sans', verdana, arial, sans-serif; font-size: 20px; fill: rgb(68, 68, 68); fill-opacity: 1; white-space: pre;"><tspan class="line" dy="0em" x="550" y="25">Fastp: Sequence Quality</tspan><tspan class="line" dy="1.3em" x="550" y="25">​<tspan style="font-size:70%" dy="-0.6em">Read 1: Before filtering, 10 lines</tspan><tspan dy="0.42em">​</tspan></tspan></text></g><g class="g-xtitle"><text class="xtitle" x="572.5" y="487" text-anchor="middle" style="opacity: 0.3; font-family: 'Lucida Grande', 'Open Sans', verdana, arial, sans-serif; font-size: 14px; fill: rgb(0, 0, 0); fill-opacity: 1; white-space: pre;">Read Position</text></g><g class="g-ytitle"><text class="ytitle" transform="rotate(-90,22,242.5)" x="22" y="242.5" text-anchor="middle" style="opacity: 0.3; font-family: 'Lucida Grande', 'Open Sans', verdana, arial, sans-serif; font-size: 14px; fill: rgb(0, 0, 0); fill-opacity: 1; white-space: pre;">R1 Before filtering: Sequence Quality</text></g></g></svg>