<svg class="main-svg" xmlns="http://www.w3.org/2000/svg" xmlns:xlink="http://www.w3.org/1999/xlink" width="2200" height="1000" style="" viewBox="0 0 1100 500"><rect x="0" y="0" width="1100" height="500" style="fill: rgb(255, 255, 255); fill-opacity: 1;"/><defs id="defs-448b82"><g class="clips"><clipPath id="clip448b82xyplot" class="plotclip"><rect width="1025" height="385"/></clipPath><clipPath class="axesclip" id="clip448b82x"><rect x="60" y="0" width="1025" height="500"/></clipPath><clipPath class="axesclip" id="clip448b82y"><rect x="0" y="50" width="1100" height="385"/></clipPath><clipPath class="axesclip" id="clip448b82xy"><rect x="60" y="50" width="1025" height="385"/></clipPath></g><g class="gradients"/><g class="patterns"/></defs><g class="bglayer"/><g class="layer-below"><g class="imagelayer"/><g class="shapelayer"/></g><g class="cartesianlayer"><g class="subplot xy"><g class="layer-subplot"><g class="shapelayer"/><g class="imagelayer"/></g><g class="minor-gridlayer"><g class="x"/><g class="y"/></g><g class="gridlayer"><g class="x"><path class="xgrid crisp" transform="translate(190.7,0)" d="M0,50v385" style="stroke: rgb(0, 0, 0); stroke-opacity: 0.05; stroke-width: 1px;"/><path class="xgrid crisp" transform="translate(328.29,0)" d="M0,50v385" style="stroke: rgb(0, 0, 0); stroke-opacity: 0.05; stroke-width: 1px;"/><path class="xgrid crisp" transform="translate(465.87,0)" d="M0,50v385" style="stroke: rgb(0, 0, 0); stroke-opacity: 0.05; stroke-width: 1px;"/><path class="xgrid crisp" transform="translate(603.46,0)" d="M0,50v385" style="stroke: rgb(0, 0, 0); stroke-opacity: 0.05; stroke-width: 1px;"/><path class="xgrid crisp" transform="translate(741.04,0)" d="M0,50v385" style="stroke: rgb(0, 0, 0); stroke-opacity: 0.05; stroke-width: 1px;"/><path class="xgrid crisp" transform="translate(878.62,0)" d="M0,50v385" style="stroke: rgb(0, 0, 0); stroke-opacity: 0.05; stroke-width: 1px;"/><path class="xgrid crisp" transform="translate(1016.21,0)" d="M0,50v385" style="stroke: rgb(0, 0, 0); stroke-opacity: 0.05; stroke-width: 1px;"/></g><g class="y"><path class="ygrid crisp" transform="translate(0,358)" d="M60,0h1025" style="stroke: rgb(0, 0, 0); stroke-opacity: 0.05; stroke-width: 1px;"/><path class="ygrid crisp" transform="translate(0,281)" d="M60,0h1025" style="stroke: rgb(0, 0, 0); stroke-opacity: 0.05; stroke-width: 1px;"/><path class="ygrid crisp" transform="translate(0,204)" d="M60,0h1025" style="stroke: rgb(0, 0, 0); stroke-opacity: 0.05; stroke-width: 1px;"/><path class="ygrid crisp" transform="translate(0,127)" d="M60,0h1025" style="stroke: rgb(0, 0, 0); stroke-opacity: 0.05; stroke-width: 1px;"/></g></g><g class="zerolinelayer"><path class="yzl zl crisp" transform="translate(0,435)" d="M60,0h1025" style="stroke: rgb(0, 0, 0); stroke-opacity: 0.05; stroke-width: 1px;"/></g><g class="layer-between"><g class="shapelayer"/><g class="imagelayer"/></g><path class="xlines-below"/><path class="ylines-below"/><g class="overlines-below"/><g class="xaxislayer-below"/><g class="yaxislayer-below"/><g class="overaxes-below"/><g class="overplot"><g class="xy" transform="translate(60,50)" clip-path="url(#clip448b82xyplot)"><g class="scatterlayer mlayer"><g class="trace scatter trace7d5244" style="stroke-miterlimit: 2; opacity: 1;"><g class="fills"/><g class="errorbars"/><g class="lines"><path class="js-line" d="M0,381.76L6.88,384.63L13.76,384.62L41.28,384.91L48.15,384.02L61.91,384.81L68.79,384.58L82.55,384.79L89.43,383.57L96.31,384.61L103.19,378.28L110.07,384.64L116.95,384.88L123.83,383.56L130.7,378.62L137.58,384.93L144.46,384.62L151.34,384.7L158.22,383.39L165.1,384.66L171.98,384.89L206.38,384.92L213.26,378.37L220.13,384.74L227.01,372.2L233.89,384.77L240.77,384.87L282.05,384.92L288.93,370.5L295.81,384.69L302.68,384.55L323.32,384.64L330.2,384.32L337.08,383.97L343.96,384.82L350.84,384.35L357.72,384.64L364.6,384.03L371.48,384.28L405.87,384.8L412.75,383.15L419.63,384.49L426.51,384.32L460.91,384.2L467.79,371.43L474.66,384.74L481.54,384.36L495.3,384.26L502.18,383.89L515.94,384.58L522.82,377.97L529.7,384.26L536.58,383.98L543.46,383.74L550.34,384.65L605.37,384.67L612.25,371.79L619.13,384.58L626.01,377.18L632.89,383.45L639.77,384.55L681.04,384.54L687.92,377.88L694.8,384.35L701.68,384.3L708.56,384.57L715.44,383.93L729.19,384.44L736.07,384.41L763.59,384.62L770.47,384.76L791.11,384.42L797.99,384.26L811.74,384.64L818.62,384.09L825.5,372.4L832.38,384.14L846.14,383.95L853.02,359.62L859.9,384.16L866.78,384.46L949.33,383.9L956.21,379.48L969.97,384.23L976.85,384.43L990.6,382.6L997.48,382.99L1004.36,384.08L1011.24,384.3L1025,384.34" style="vector-effect: none; fill: none; stroke: rgb(124, 181, 236); stroke-opacity: 1; stroke-width: 2px; opacity: 1;"/></g><g class="points"/><g class="text"/></g><g class="trace scatter trace4a5997" style="stroke-miterlimit: 2; opacity: 1;"><g class="fills"/><g class="errorbars"/><g class="lines"><path class="js-line" d="M0,381.84L6.88,384.64L13.76,384.6L41.28,384.92L48.15,384.03L61.91,384.8L68.79,384.59L82.55,384.78L89.43,383.53L96.31,384.63L103.19,378.31L110.07,384.64L116.95,384.88L123.83,383.55L130.7,378.77L137.58,384.94L144.46,384.63L151.34,384.7L158.22,383.35L165.1,384.67L171.98,384.9L206.38,384.94L213.26,378.48L220.13,384.75L227.01,372.61L233.89,384.79L240.77,384.88L282.05,384.93L288.93,370.28L295.81,384.7L302.68,384.53L323.32,384.63L330.2,384.28L337.08,384L343.96,384.84L350.84,384.3L357.72,384.66L364.6,384L371.48,384.3L405.87,384.8L412.75,383.14L419.63,384.51L426.51,384.28L460.91,384.2L467.79,371.88L474.66,384.74L481.54,384.33L495.3,384.24L502.18,383.89L515.94,384.61L522.82,377.87L529.7,384.21L536.58,384.01L543.46,383.69L550.34,384.64L605.37,384.69L612.25,371.81L619.13,384.55L626.01,377.32L632.89,383.42L639.77,384.55L681.04,384.52L687.92,378.11L694.8,384.35L701.68,384.29L708.56,384.58L715.44,383.89L729.19,384.45L736.07,384.38L763.59,384.59L770.47,384.76L797.99,384.22L804.87,384.59L818.62,384.05L825.5,372.9L832.38,384.08L839.26,384.35L846.14,383.91L853.02,360.49L859.9,384.13L866.78,384.48L894.3,384.42L901.17,384.55L928.69,384.14L935.57,384.3L942.45,384.49L949.33,383.91L956.21,379.5L963.09,382.17L969.97,384.21L976.85,384.42L990.6,382.6L997.48,383.01L1004.36,384.07L1011.24,384.32L1025,384.37" style="vector-effect: none; fill: none; stroke: rgb(67, 67, 72); stroke-opacity: 1; stroke-width: 2px; opacity: 1;"/></g><g class="points"/><g class="text"/></g><g class="trace scatter trace958164" style="stroke-miterlimit: 2; opacity: 1;"><g class="fills"/><g class="errorbars"/><g class="lines"><path class="js-line" d="M0,381.71L6.88,384.64L13.76,384.6L41.28,384.91L48.15,384L61.91,384.81L68.79,384.59L82.55,384.78L89.43,383.58L96.31,384.6L103.19,378.22L110.07,384.65L116.95,384.87L123.83,383.59L130.7,378.56L137.58,384.93L144.46,384.6L151.34,384.72L158.22,383.42L165.1,384.65L171.98,384.89L206.38,384.93L213.26,378.21L220.13,384.73L227.01,371.91L233.89,384.77L240.77,384.87L282.05,384.92L288.93,370.52L295.81,384.68L302.68,384.57L330.2,384.34L337.08,383.95L343.96,384.82L350.84,384.38L357.72,384.65L364.6,384.04L405.87,384.79L412.75,383.13L419.63,384.47L426.51,384.33L460.91,384.2L467.79,370.95L474.66,384.73L481.54,384.38L495.3,384.29L502.18,383.92L515.94,384.58L522.82,377.9L529.7,384.28L536.58,383.96L543.46,383.76L550.34,384.65L605.37,384.66L612.25,371.79L619.13,384.58L626.01,377.1L632.89,383.49L639.77,384.54L681.04,384.53L687.92,377.78L694.8,384.34L701.68,384.34L708.56,384.57L715.44,383.96L729.19,384.43L736.07,384.44L756.71,384.59L763.59,384.61L777.35,384.52L784.23,383.92L797.99,384.3L804.87,384.56L818.62,384.11L825.5,371.98L832.38,384.16L839.26,384.3L846.14,383.96L853.02,358.92L859.9,384.19L866.78,384.45L949.33,383.9L956.21,379.53L969.97,384.27L976.85,384.42L990.6,382.64L997.48,382.97L1004.36,384.11L1011.24,384.3L1025,384.36" style="vector-effect: none; fill: none; stroke: rgb(144, 237, 125); stroke-opacity: 1; stroke-width: 2px; opacity: 1;"/></g><g class="points"/><g class="text"/></g><g class="trace scatter tracec69c03" style="stroke-miterlimit: 2; opacity: 1;"><g class="fills"/><g class="errorbars"/><g class="lines"><path class="js-line" d="M0,381.82L6.88,384.64L13.76,384.62L41.28,384.92L48.15,384.05L61.91,384.82L68.79,384.59L82.55,384.79L89.43,383.58L96.31,384.61L103.19,378.26L110.07,384.65L116.95,384.89L123.83,383.57L130.7,378.64L137.58,384.94L144.46,384.61L151.34,384.71L158.22,383.42L165.1,384.66L171.98,384.9L206.38,384.93L213.26,378.4L220.13,384.73L227.01,372.18L233.89,384.78L240.77,384.88L282.05,384.93L288.93,370.71L295.81,384.69L302.68,384.55L323.32,384.65L330.2,384.33L337.08,383.95L343.96,384.83L350.84,384.35L357.72,384.65L364.6,384.03L371.48,384.28L405.87,384.79L412.75,383.18L419.63,384.49L426.51,384.31L460.91,384.21L467.79,371.21L474.66,384.74L481.54,384.36L495.3,384.27L502.18,383.91L515.94,384.59L522.82,377.93L529.7,384.25L536.58,383.98L543.46,383.72L550.34,384.65L605.37,384.67L612.25,371.78L619.13,384.57L626.01,377.22L632.89,383.45L639.77,384.55L681.04,384.53L687.92,377.82L694.8,384.34L701.68,384.31L708.56,384.57L715.44,383.94L729.19,384.44L736.07,384.41L763.59,384.6L770.47,384.77L791.11,384.41L797.99,384.27L811.74,384.63L818.62,384.09L825.5,372.25L832.38,384.15L846.14,383.97L853.02,359.29L859.9,384.16L866.78,384.46L949.33,383.9L956.21,379.5L969.97,384.24L976.85,384.44L990.6,382.65L997.48,383.03L1004.36,384.09L1011.24,384.3L1025,384.37" style="vector-effect: none; fill: none; stroke: rgb(247, 163, 92); stroke-opacity: 1; stroke-width: 2px; opacity: 1;"/></g><g class="points"/><g class="text"/></g><g class="trace scatter traceaff31c" style="stroke-miterlimit: 2; opacity: 1;"><g class="fills"/><g class="errorbars"/><g class="lines"><path class="js-line" d="M0,381.79L6.88,384.66L13.76,384.61L41.28,384.9L48.15,384.05L61.91,384.8L68.79,384.6L82.55,384.78L89.43,383.61L96.31,384.62L103.19,378.34L110.07,384.65L116.95,384.87L123.83,383.64L130.7,378.77L137.58,384.94L144.46,384.64L151.34,384.69L158.22,383.43L165.1,384.68L171.98,384.88L206.38,384.93L213.26,378.5L220.13,384.76L227.01,372.5L233.89,384.79L240.77,384.86L282.05,384.92L288.93,370.16L295.81,384.69L302.68,384.56L323.32,384.64L330.2,384.34L337.08,383.99L343.96,384.82L350.84,384.35L357.72,384.66L364.6,384.05L371.48,384.3L405.87,384.8L412.75,383.19L419.63,384.49L426.51,384.33L460.91,384.22L467.79,371.69L474.66,384.73L481.54,384.37L495.3,384.3L502.18,383.88L515.94,384.61L522.82,377.92L529.7,384.26L536.58,383.97L543.46,383.71L550.34,384.65L605.37,384.68L612.25,371.96L619.13,384.57L626.01,377.35L632.89,383.43L639.77,384.55L681.04,384.54L687.92,378.04L694.8,384.36L701.68,384.28L708.56,384.59L715.44,383.96L729.19,384.45L736.07,384.41L763.59,384.61L770.47,384.77L791.11,384.44L797.99,384.27L811.74,384.63L818.62,384.13L825.5,372.59L832.38,384.14L846.14,383.95L853.02,360.16L859.9,384.19L866.78,384.47L949.33,383.92L956.21,379.51L963.09,382.34L969.97,384.26L976.85,384.45L983.72,383.85L990.6,382.69L997.48,383.1L1004.36,384.1L1011.24,384.34L1025,384.37" style="vector-effect: none; fill: none; stroke: rgb(128, 133, 233); stroke-opacity: 1; stroke-width: 2px; opacity: 1;"/></g><g class="points"/><g class="text"/></g><g class="trace scatter trace129d79" style="stroke-miterlimit: 2; opacity: 1;"><g class="fills"/><g class="errorbars"/><g class="lines"><path class="js-line" d="M0,381.82L6.88,384.64L13.76,384.63L41.28,384.91L48.15,384.08L61.91,384.81L68.79,384.59L82.55,384.79L89.43,383.6L96.31,384.64L103.19,378.53L110.07,384.63L116.95,384.88L123.83,383.6L130.7,378.79L137.58,384.94L144.46,384.62L151.34,384.69L158.22,383.45L165.1,384.66L171.98,384.89L206.38,384.93L213.26,378.56L220.13,384.75L227.01,372.58L233.89,384.78L240.77,384.87L282.05,384.92L288.93,370.26L295.81,384.71L302.68,384.55L323.32,384.64L330.2,384.33L337.08,384.02L343.96,384.82L350.84,384.35L357.72,384.66L364.6,384.06L371.48,384.31L405.87,384.8L412.75,383.22L419.63,384.53L426.51,384.33L460.91,384.23L467.79,371.83L474.66,384.74L481.54,384.38L495.3,384.28L502.18,383.87L515.94,384.61L522.82,378.07L529.7,384.25L536.58,384.01L543.46,383.71L550.34,384.65L605.37,384.69L612.25,372.16L619.13,384.56L626.01,377.39L632.89,383.44L639.77,384.58L681.04,384.53L687.92,378.15L694.8,384.32L701.68,384.3L708.56,384.59L715.44,383.96L729.19,384.43L736.07,384.41L763.59,384.61L770.47,384.77L797.99,384.26L804.87,384.6L818.62,384.1L825.5,372.97L832.38,384.13L839.26,384.35L846.14,383.99L853.02,360.53L859.9,384.17L866.78,384.5L928.69,384.16L935.57,384.27L942.45,384.49L949.33,383.94L956.21,379.41L963.09,382.26L969.97,384.24L976.85,384.44L990.6,382.7L997.48,383.06L1004.36,384.1L1011.24,384.33L1025,384.37" style="vector-effect: none; fill: none; stroke: rgb(241, 92, 128); stroke-opacity: 1; stroke-width: 2px; opacity: 1;"/></g><g class="points"/><g class="text"/></g><g class="trace scatter tracee2fb84" style="stroke-miterlimit: 2; opacity: 1;"><g class="fills"/><g class="errorbars"/><g class="lines"><path class="js-line" d="M0,381.81L6.88,384.62L13.76,384.58L41.28,384.91L48.15,384.02L61.91,384.79L68.79,384.56L82.55,384.77L89.43,383.52L96.31,384.58L103.19,378.11L110.07,384.64L116.95,384.87L123.83,383.53L130.7,378.51L137.58,384.93L144.46,384.59L151.34,384.7L158.22,383.36L165.1,384.65L171.98,384.89L206.38,384.92L213.26,378.35L220.13,384.72L227.01,372.11L233.89,384.77L240.77,384.87L282.05,384.92L288.93,370.51L295.81,384.66L302.68,384.53L323.32,384.62L330.2,384.28L337.08,383.94L343.96,384.8L350.84,384.31L357.72,384.63L364.6,383.99L371.48,384.26L405.87,384.77L412.75,383.1L419.63,384.46L426.51,384.26L460.91,384.17L467.79,371L474.66,384.71L481.54,384.32L495.3,384.23L502.18,383.87L515.94,384.55L522.82,377.9L529.7,384.19L536.58,383.97L543.46,383.63L550.34,384.62L605.37,384.62L612.25,371.7L619.13,384.54L626.01,377.06L632.89,383.39L639.77,384.51L681.04,384.5L687.92,377.73L694.8,384.31L701.68,384.29L708.56,384.56L715.44,383.89L729.19,384.41L736.07,384.38L756.71,384.57L763.59,384.57L777.35,384.5L784.23,383.9L797.99,384.24L804.87,384.51L818.62,384.04L825.5,372.21L832.38,384.08L839.26,384.31L846.14,383.91L853.02,359.05L859.9,384.1L866.78,384.43L935.57,384.29L942.45,384.42L949.33,383.84L956.21,379.53L969.97,384.19L976.85,384.42L990.6,382.59L997.48,382.93L1004.36,384.04L1011.24,384.27L1025,384.32" style="vector-effect: none; fill: none; stroke: rgb(228, 211, 84); stroke-opacity: 1; stroke-width: 2px; opacity: 1;"/></g><g class="points"/><g class="text"/></g><g class="trace scatter trace42c103" style="stroke-miterlimit: 2; opacity: 1;"><g class="fills"/><g class="errorbars"/><g class="lines"><path class="js-line" d="M0,381.84L6.88,384.64L13.76,384.61L41.28,384.9L48.15,384.06L61.91,384.81L68.79,384.59L82.55,384.78L89.43,383.62L96.31,384.62L103.19,378.36L110.07,384.64L116.95,384.87L123.83,383.61L130.7,378.6L137.58,384.94L144.46,384.63L151.34,384.71L158.22,383.47L165.1,384.67L171.98,384.88L206.38,384.93L213.26,378.44L220.13,384.75L227.01,372.38L233.89,384.77L240.77,384.86L282.05,384.92L288.93,370.42L295.81,384.69L302.68,384.56L323.32,384.65L330.2,384.34L337.08,384.01L343.96,384.82L364.6,384.06L371.48,384.3L405.87,384.8L412.75,383.21L419.63,384.51L426.51,384.33L460.91,384.22L467.79,371.34L474.66,384.73L481.54,384.36L495.3,384.29L502.18,383.91L515.94,384.58L522.82,377.87L529.7,384.28L536.58,384.02L543.46,383.76L550.34,384.65L605.37,384.66L612.25,371.88L619.13,384.58L626.01,377.19L632.89,383.5L639.77,384.55L681.04,384.53L687.92,378.07L694.8,384.33L701.68,384.32L708.56,384.57L715.44,383.97L729.19,384.44L736.07,384.43L763.59,384.61L770.47,384.77L791.11,384.42L797.99,384.29L811.74,384.63L818.62,384.12L825.5,372.39L832.38,384.14L846.14,383.97L853.02,360.04L859.9,384.19L866.78,384.49L935.57,384.32L942.45,384.49L949.33,383.94L956.21,379.58L969.97,384.28L976.85,384.47L990.6,382.65L997.48,383.05L1004.36,384.13L1011.24,384.33L1025,384.37" style="vector-effect: none; fill: none; stroke: rgb(43, 144, 143); stroke-opacity: 1; stroke-width: 2px; opacity: 1;"/></g><g class="points"/><g class="text"/></g><g class="trace scatter trace10f3bc" style="stroke-miterlimit: 2; opacity: 1;"><g class="fills"/><g class="errorbars"/><g class="lines"><path class="js-line" d="M0,381.78L6.88,384.64L13.76,384.6L41.28,384.91L48.15,384.04L61.91,384.8L68.79,384.6L82.55,384.77L89.43,383.59L96.31,384.62L103.19,378.28L110.07,384.64L116.95,384.87L123.83,383.6L130.7,378.73L137.58,384.94L144.46,384.64L151.34,384.7L158.22,383.4L165.1,384.66L171.98,384.89L206.38,384.93L213.26,378.39L220.13,384.74L227.01,372.42L233.89,384.78L240.77,384.87L282.05,384.92L288.93,370.28L295.81,384.67L302.68,384.55L323.32,384.63L330.2,384.3L337.08,383.99L343.96,384.82L350.84,384.34L357.72,384.65L364.6,384.03L371.48,384.3L405.87,384.79L412.75,383.18L419.63,384.51L426.51,384.3L460.91,384.2L467.79,371.58L474.66,384.73L481.54,384.34L495.3,384.27L502.18,383.91L515.94,384.6L522.82,377.82L529.7,384.24L536.58,384L543.46,383.71L550.34,384.64L605.37,384.67L612.25,371.78L619.13,384.55L626.01,377.34L632.89,383.44L639.77,384.53L681.04,384.53L687.92,377.91L694.8,384.36L701.68,384.29L708.56,384.58L715.44,383.94L729.19,384.45L736.07,384.41L763.59,384.6L770.47,384.76L791.11,384.43L797.99,384.27L811.74,384.62L818.62,384.08L825.5,372.56L832.38,384.14L846.14,383.96L853.02,359.98L859.9,384.15L866.78,384.47L935.57,384.3L942.45,384.5L949.33,383.93L956.21,379.46L963.09,382.25L969.97,384.23L983.72,383.85L990.6,382.64L1018.12,384.41L1025,384.4" style="vector-effect: none; fill: none; stroke: rgb(244, 91, 91); stroke-opacity: 1; stroke-width: 2px; opacity: 1;"/></g><g class="points"/><g class="text"/></g><g class="trace scatter trace7aebe1" style="stroke-miterlimit: 2; opacity: 1;"><g class="fills"/><g class="errorbars"/><g class="lines"><path class="js-line" d="M0,381.83L6.88,384.62L13.76,384.61L41.28,384.91L48.15,384.04L61.91,384.81L68.79,384.57L82.55,384.78L89.43,383.58L96.31,384.61L103.19,378.19L110.07,384.64L116.95,384.88L123.83,383.56L130.7,378.48L137.58,384.93L144.46,384.6L151.34,384.72L158.22,383.42L165.1,384.67L171.98,384.89L206.38,384.93L213.26,378.28L220.13,384.74L227.01,371.95L233.89,384.78L240.77,384.87L282.05,384.92L288.93,370.54L295.81,384.67L302.68,384.56L323.32,384.65L330.2,384.31L337.08,383.97L343.96,384.82L364.6,384.05L371.48,384.27L405.87,384.8L412.75,383.13L419.63,384.49L426.51,384.3L460.91,384.21L467.79,371.13L474.66,384.73L481.54,384.35L495.3,384.26L502.18,383.9L515.94,384.58L522.82,377.83L529.7,384.26L536.58,384.01L543.46,383.72L550.34,384.64L605.37,384.66L612.25,371.85L619.13,384.57L626.01,377L632.89,383.48L639.77,384.53L681.04,384.53L687.92,377.81L694.8,384.34L701.68,384.32L708.56,384.56L715.44,383.95L729.19,384.44L736.07,384.43L756.71,384.58L763.59,384.61L777.35,384.51L784.23,383.96L797.99,384.29L804.87,384.55L818.62,384.08L825.5,372.2L832.38,384.14L839.26,384.34L846.14,383.97L853.02,359.17L859.9,384.16L866.78,384.46L949.33,383.9L956.21,379.64L969.97,384.26L976.85,384.46L990.6,382.64L997.48,382.98L1004.36,384.09L1011.24,384.29L1025,384.37" style="vector-effect: none; fill: none; stroke: rgb(145, 232, 225); stroke-opacity: 1; stroke-width: 2px; opacity: 1;"/></g><g class="points"/><g class="text"/></g></g></g></g><g class="zerolinelayer-above"/><path class="xlines-above crisp" d="M0,0" style="fill: none;"/><path class="ylines-above crisp" d="M0,0" style="fill: none;"/><g class="overlines-above"/><g class="xaxislayer-above"><g class="xtick"><text text-anchor="middle" x="0" y="451" transform="translate(190.7,0)" style="font-family: 'Lucida Grande', 'Open Sans', verdana, arial, sans-serif; font-size: 10px; fill: rgb(0, 0, 0); fill-opacity: 1; white-space: pre;">20</text></g><g class="xtick"><text text-anchor="middle" x="0" y="451" style="font-family: 'Lucida Grande', 'Open Sans', verdana, arial, sans-serif; font-size: 10px; fill: rgb(0, 0, 0); fill-opacity: 1; white-space: pre;" transform="translate(328.29,0)">40</text></g><g class="xtick"><text text-anchor="middle" x="0" y="451" style="font-family: 'Lucida Grande', 'Open Sans', verdana, arial, sans-serif; font-size: 10px; fill: rgb(0, 0, 0); fill-opacity: 1; white-space: pre;" transform="translate(465.87,0)">60</text></g><g class="xtick"><text text-anchor="middle" x="0" y="451" style="font-family: 'Lucida Grande', 'Open Sans', verdana, arial, sans-serif; font-size: 10px; fill: rgb(0, 0, 0); fill-opacity: 1; white-space: pre;" transform="translate(603.46,0)">80</text></g><g class="xtick"><text text-anchor="middle" x="0" y="451" style="font-family: 'Lucida Grande', 'Open Sans', verdana, arial, sans-serif; font-size: 10px; fill: rgb(0, 0, 0); fill-opacity: 1; white-space: pre;" transform="translate(741.04,0)">100</text></g><g class="xtick"><text text-anchor="middle" x="0" y="451" style="font-family: 'Lucida Grande', 'Open Sans', verdana, arial, sans-serif; font-size: 10px; fill: rgb(0, 0, 0); fill-opacity: 1; white-space: pre;" transform="translate(878.62,0)">120</text></g><g class="xtick"><text text-anchor="middle" x="0" y="451" style="font-family: 'Lucida Grande', 'Open Sans', verdana, arial, sans-serif; font-size: 10px; fill: rgb(0, 0, 0); fill-opacity: 1; white-space: pre;" transform="translate(1016.21,0)">140</text></g></g><g class="yaxislayer-above"><g class="ytick"><text text-anchor="end" x="54" y="3.5" transform="translate(0,435)" style="font-family: 'Lucida Grande', 'Open Sans', verdana, arial, sans-serif; font-size: 10px; fill: rgb(0, 0, 0); fill-opacity: 1; white-space: pre;">0%</text></g><g class="ytick"><text text-anchor="end" x="54" y="3.5" style="font-family: 'Lucida Grande', 'Open Sans', verdana, arial, sans-serif; font-size: 10px; fill: rgb(0, 0, 0); fill-opacity: 1; white-space: pre;" transform="translate(0,358)">1%</text></g><g class="ytick"><text text-anchor="end" x="54" y="3.5" style="font-family: 'Lucida Grande', 'Open Sans', verdana, arial, sans-serif; font-size: 10px; fill: rgb(0, 0, 0); fill-opacity: 1; white-space: pre;" transform="translate(0,281)">2%</text></g><g class="ytick"><text text-anchor="end" x="54" y="3.5" style="font-family: 'Lucida Grande', 'Open Sans', verdana, arial, sans-serif; font-size: 10px; fill: rgb(0, 0, 0); fill-opacity: 1; white-space: pre;" transform="translate(0,204)">3%</text></g><g class="ytick"><text text-anchor="end" x="54" y="3.5" style="font-family: 'Lucida Grande', 'Open Sans', verdana, arial, sans-serif; font-size: 10px; fill: rgb(0, 0, 0); fill-opacity: 1; white-space: pre;" transform="translate(0,127)">4%</text></g><g class="ytick"><text text-anchor="end" x="54" y="3.5" style="font-family: 'Lucida Grande', 'Open Sans', verdana, arial, sans-serif; font-size: 10px; fill: rgb(0, 0, 0); fill-opacity: 1; white-space: pre;" transform="translate(0,50)">5%</text></g></g><g class="overaxes-above"/></g></g><g class="polarlayer"/><g class="smithlayer"/><g class="ternarylayer"/><g class="geolayer"/><g class="funnelarealayer"/><g class="pielayer"/><g class="iciclelayer"/><g class="treemaplayer"/><g class="sunburstlayer"/><g class="glimages"/><defs id="topdefs-448b82"><g class="clips"/></defs><g class="layer-above"><g class="imagelayer"/><g class="shapelayer"/></g><g class="infolayer"><g class="g-gtitle"><text class="gtitle" x="550" y="25" text-anchor="middle" dy="0em" style="opacity: 1; font-family: 'Lucida Grande', 'Open Sans', verdana, arial, sans-serif; font-size: 20px; fill: rgb(68, 68, 68); fill-opacity: 1; white-space: pre;"><tspan class="line" dy="0em" x="550" y="25">Fastp: Read N Content</tspan><tspan class="line" dy="1.3em" x="550" y="25">​<tspan style="font-size:70%" dy="-0.6em">Read 2: Before filtering, 10 lines</tspan><tspan dy="0.42em">​</tspan></tspan></text></g><g class="g-xtitle"><text class="xtitle" x="572.5" y="487" text-anchor="middle" style="opacity: 0.3; font-family: 'Lucida Grande', 'Open Sans', verdana, arial, sans-serif; font-size: 14px; fill: rgb(0, 0, 0); fill-opacity: 1; white-space: pre;">Read Position</text></g><g class="g-ytitle"><text class="ytitle" transform="rotate(-90,22,242.5)" x="22" y="242.5" text-anchor="middle" style="opacity: 0.3; font-family: 'Lucida Grande', 'Open Sans', verdana, arial, sans-serif; font-size: 14px; fill: rgb(0, 0, 0); fill-opacity: 1; white-space: pre;">R2 Before filtering: Base Content Percent</text></g></g></svg>