<svg class="main-svg" xmlns="http://www.w3.org/2000/svg" xmlns:xlink="http://www.w3.org/1999/xlink" width="2200" height="1000" style="" viewBox="0 0 1100 500"><rect x="0" y="0" width="1100" height="500" style="fill: rgb(255, 255, 255); fill-opacity: 1;"/><defs id="defs-c35d16"><g class="clips"><clipPath id="clipc35d16xyplot" class="plotclip"><rect width="1025" height="385"/></clipPath><clipPath class="axesclip" id="clipc35d16x"><rect x="60" y="0" width="1025" height="500"/></clipPath><clipPath class="axesclip" id="clipc35d16y"><rect x="0" y="50" width="1100" height="385"/></clipPath><clipPath class="axesclip" id="clipc35d16xy"><rect x="60" y="50" width="1025" height="385"/></clipPath></g><g class="gradients"/><g class="patterns"/></defs><g class="bglayer"/><g class="layer-below"><g class="imagelayer"/><g class="shapelayer"><g class="shape-group" data-index="0" clip-path="url(#clipc35d16y)"><path data-index="0" fill-rule="evenodd" d="M60,-472.14H1085V-4100.68H60Z" style="opacity: 0.13; stroke: rgb(0, 0, 0); stroke-opacity: 0; fill: rgb(153, 1, 1); fill-opacity: 1; stroke-width: 0px;"/></g><g class="shape-group" data-index="1" clip-path="url(#clipc35d16y)"><path data-index="1" fill-rule="evenodd" d="M60,208.22H1085V-472.14H60Z" style="opacity: 0.13; stroke: rgb(0, 0, 0); stroke-opacity: 0; fill: rgb(160, 115, 0); fill-opacity: 1; stroke-width: 0px;"/></g><g class="shape-group" data-index="2" clip-path="url(#clipc35d16y)"><path data-index="2" fill-rule="evenodd" d="M60,435H1085V208.22H60Z" style="opacity: 0.13; stroke: rgb(0, 0, 0); stroke-opacity: 0; fill: rgb(0, 149, 0); fill-opacity: 1; stroke-width: 0px;"/></g><g class="shape-group" data-index="3" clip-path="url(#clipc35d16y)"><path data-index="3" fill-rule="evenodd" d="M60,-472.14H1085V-4100.68H60Z" style="opacity: 0.13; stroke: rgb(0, 0, 0); stroke-opacity: 0; fill: rgb(153, 1, 1); fill-opacity: 1; stroke-width: 0px;"/></g><g class="shape-group" data-index="4" clip-path="url(#clipc35d16y)"><path data-index="4" fill-rule="evenodd" d="M60,208.22H1085V-472.14H60Z" style="opacity: 0.13; stroke: rgb(0, 0, 0); stroke-opacity: 0; fill: rgb(160, 115, 0); fill-opacity: 1; stroke-width: 0px;"/></g><g class="shape-group" data-index="5" clip-path="url(#clipc35d16y)"><path data-index="5" fill-rule="evenodd" d="M60,435H1085V208.22H60Z" style="opacity: 0.13; stroke: rgb(0, 0, 0); stroke-opacity: 0; fill: rgb(0, 149, 0); fill-opacity: 1; stroke-width: 0px;"/></g></g></g><g class="cartesianlayer"><g class="subplot xy"><g class="layer-subplot"><g class="shapelayer"/><g class="imagelayer"/></g><g class="minor-gridlayer"><g class="x"/><g class="y"/></g><g class="gridlayer"><g class="x"><path class="xgrid crisp" transform="translate(202.15,0)" d="M0,50v385" style="stroke: rgb(0, 0, 0); stroke-opacity: 0.05; stroke-width: 1px;"/><path class="xgrid crisp" transform="translate(351.79,0)" d="M0,50v385" style="stroke: rgb(0, 0, 0); stroke-opacity: 0.05; stroke-width: 1px;"/><path class="xgrid crisp" transform="translate(501.42,0)" d="M0,50v385" style="stroke: rgb(0, 0, 0); stroke-opacity: 0.05; stroke-width: 1px;"/><path class="xgrid crisp" transform="translate(651.06,0)" d="M0,50v385" style="stroke: rgb(0, 0, 0); stroke-opacity: 0.05; stroke-width: 1px;"/><path class="xgrid crisp" transform="translate(800.69,0)" d="M0,50v385" style="stroke: rgb(0, 0, 0); stroke-opacity: 0.05; stroke-width: 1px;"/><path class="xgrid crisp" transform="translate(950.33,0)" d="M0,50v385" style="stroke: rgb(0, 0, 0); stroke-opacity: 0.05; stroke-width: 1px;"/></g><g class="y"><path class="ygrid crisp" transform="translate(0,389.64)" d="M60,0h1025" style="stroke: rgb(0, 0, 0); stroke-opacity: 0.05; stroke-width: 1px;"/><path class="ygrid crisp" transform="translate(0,344.29)" d="M60,0h1025" style="stroke: rgb(0, 0, 0); stroke-opacity: 0.05; stroke-width: 1px;"/><path class="ygrid crisp" transform="translate(0,298.93)" d="M60,0h1025" style="stroke: rgb(0, 0, 0); stroke-opacity: 0.05; stroke-width: 1px;"/><path class="ygrid crisp" transform="translate(0,253.57)" d="M60,0h1025" style="stroke: rgb(0, 0, 0); stroke-opacity: 0.05; stroke-width: 1px;"/><path class="ygrid crisp" transform="translate(0,208.22)" d="M60,0h1025" style="stroke: rgb(0, 0, 0); stroke-opacity: 0.05; stroke-width: 1px;"/><path class="ygrid crisp" transform="translate(0,162.86)" d="M60,0h1025" style="stroke: rgb(0, 0, 0); stroke-opacity: 0.05; stroke-width: 1px;"/><path class="ygrid crisp" transform="translate(0,117.5)" d="M60,0h1025" style="stroke: rgb(0, 0, 0); stroke-opacity: 0.05; stroke-width: 1px;"/><path class="ygrid crisp" transform="translate(0,72.15)" d="M60,0h1025" style="stroke: rgb(0, 0, 0); stroke-opacity: 0.05; stroke-width: 1px;"/></g></g><g class="zerolinelayer"><path class="yzl zl crisp" transform="translate(0,435)" d="M60,0h1025" style="stroke: rgb(0, 0, 0); stroke-opacity: 0.05; stroke-width: 1px;"/></g><g class="layer-between"><g class="shapelayer"/><g class="imagelayer"/></g><path class="xlines-below"/><path class="ylines-below"/><g class="overlines-below"/><g class="xaxislayer-below"/><g class="yaxislayer-below"/><g class="overaxes-below"/><g class="overplot"><g class="xy" transform="translate(60,50)" clip-path="url(#clipc35d16xyplot)"><g class="scatterlayer mlayer"><g class="trace scatter tracecf0440" style="stroke-miterlimit: 2; opacity: 1;"><g class="fills"/><g class="errorbars"/><g class="lines"><path class="js-line" d="M0,385L306.75,384.36L321.72,384.18L411.5,382.41L426.46,381.99L516.24,378.44L531.2,377.73L635.95,371.41L650.91,370.28L710.77,365.18L725.73,363.65L785.58,356.67L800.55,354.65L845.44,347.8L860.4,345.17L905.29,336.27L920.26,332.94L965.15,321.34L980.11,316.97L1010.04,307.35L1025,302.04" style="vector-effect: none; fill: none; stroke: rgb(124, 181, 236); stroke-opacity: 1; stroke-width: 2px; opacity: 1;"/></g><g class="points"/><g class="text"/></g><g class="trace scatter tracedca402" style="stroke-miterlimit: 2; opacity: 1;"><g class="fills"/><g class="errorbars"/><g class="lines"><path class="js-line" d="M0,385L501.28,384.35L516.24,382.45L531.2,362.95L546.17,360.59L635.95,360.22L650.91,360.2L845.44,359.37L860.4,359.17L965.15,356.94L980.11,356.44L1025,354.64" style="vector-effect: none; fill: none; stroke: rgb(67, 67, 72); stroke-opacity: 1; stroke-width: 2px; opacity: 1;"/></g><g class="points"/><g class="text"/></g><g class="trace scatter tracea47a04" style="stroke-miterlimit: 2; opacity: 1;"><g class="fills"/><g class="errorbars"/><g class="lines"><path class="js-line" d="M0,385L291.79,384.34L306.75,384.21L411.5,382.34L426.46,381.93L531.2,377.85L546.17,377.12L635.95,371.86L650.91,370.76L710.77,365.8L725.73,364.31L785.58,357.46L800.55,355.46L845.44,348.73L860.4,346.16L905.29,337.39L920.26,334.1L965.15,322.59L980.11,318.27L1010.04,308.72L1025,303.45" style="vector-effect: none; fill: none; stroke: rgb(144, 237, 125); stroke-opacity: 1; stroke-width: 2px; opacity: 1;"/></g><g class="points"/><g class="text"/></g><g class="trace scatter trace41927a" style="stroke-miterlimit: 2; opacity: 1;"><g class="fills"/><g class="errorbars"/><g class="lines"><path class="js-line" d="M0,349.76L14.96,348.97L22.45,348.93L321.72,347.73L336.68,347.71L860.4,346.17L875.36,346L965.15,344.23L980.11,343.77L1025,342.12" style="vector-effect: none; fill: none; stroke: rgb(247, 163, 92); stroke-opacity: 1; stroke-width: 2px; opacity: 1;"/></g><g class="points"/><g class="text"/></g><g class="trace scatter trace558c96" style="stroke-miterlimit: 2; opacity: 1;"><g class="fills"/><g class="errorbars"/><g class="lines"><path class="js-line" d="M0,385L321.72,384.26L336.68,384.07L426.46,382.23L441.42,381.77L516.24,378.96L531.2,378.32L620.99,373.55L635.95,372.58L710.77,366.81L725.73,365.42L785.58,358.92L800.55,357.03L845.44,350.61L860.4,348.21L905.29,339.85L920.26,336.68L965.15,325.82L980.11,321.73L1010.04,312.67L1025,307.63" style="vector-effect: none; fill: none; stroke: rgb(128, 133, 233); stroke-opacity: 1; stroke-width: 2px; opacity: 1;"/></g><g class="points"/><g class="text"/></g><g class="trace scatter trace573b91" style="stroke-miterlimit: 2; opacity: 1;"><g class="fills"/><g class="errorbars"/><g class="lines"><path class="js-line" d="M0,385L366.61,384.25L381.57,384.24L471.35,384.08L486.31,383.39L501.28,382.75L516.24,375.64L531.2,357.35L546.17,355.54L620.99,355.11L635.95,355.08L860.4,353.97L875.36,353.76L980.11,351.34L995.07,350.85L1025,349.61" style="vector-effect: none; fill: none; stroke: rgb(241, 92, 128); stroke-opacity: 1; stroke-width: 2px; opacity: 1;"/></g><g class="points"/><g class="text"/></g><g class="trace scatter trace0ad186" style="stroke-miterlimit: 2; opacity: 1;"><g class="fills"/><g class="errorbars"/><g class="lines"><path class="js-line" d="M0,385L306.75,384.28L321.72,384.13L426.46,382.12L441.42,381.67L531.2,378.28L546.17,377.64L635.95,372.73L650.91,371.73L710.77,367.01L725.73,365.63L785.58,359.15L800.55,357.25L845.44,350.85L860.4,348.47L905.29,340.16L920.26,337L965.15,326.12L980.11,322.01L1010.04,312.94L1025,307.89" style="vector-effect: none; fill: none; stroke: rgb(228, 211, 84); stroke-opacity: 1; stroke-width: 2px; opacity: 1;"/></g><g class="points"/><g class="text"/></g><g class="trace scatter trace3aaa81" style="stroke-miterlimit: 2; opacity: 1;"><g class="fills"/><g class="errorbars"/><g class="lines"><path class="js-line" d="M0,343.5L14.96,342.61L22.45,342.57L246.9,341.44L261.86,341.42L800.55,340.37L815.51,340.29L920.26,339.12L935.22,338.83L1025,336.12" style="vector-effect: none; fill: none; stroke: rgb(43, 144, 143); stroke-opacity: 1; stroke-width: 2px; opacity: 1;"/></g><g class="points"/><g class="text"/></g><g class="trace scatter trace755ae0" style="stroke-miterlimit: 2; opacity: 1;"><g class="fills"/><g class="errorbars"/><g class="lines"><path class="js-line" d="M0,385L276.82,384.42L291.79,384.19L351.64,382.16L366.61,381.36L411.5,377.96L426.46,376.55L471.35,371.2L486.31,368.97L531.2,361.5L546.17,358.46L591.06,347.94L606.02,343.96L635.95,335.04L650.91,330.07L680.84,319.07L695.8,313L725.73,299.47L740.69,292.05L770.62,275.73L785.58,266.68L815.51,246.72L830.47,235.83L860.4,211.76L875.36,198.67L905.29,170.15L920.26,154.61L950.18,120.71L965.15,102.33L995.07,62.62L1010.04,41.02L1025,18.33" style="vector-effect: none; fill: none; stroke: rgb(244, 91, 91); stroke-opacity: 1; stroke-width: 2px; opacity: 1;"/></g><g class="points"/><g class="text"/></g><g class="trace scatter trace09560b" style="stroke-miterlimit: 2; opacity: 1;"><g class="fills"/><g class="errorbars"/><g class="lines"><path class="js-line" d="M0,384.91L261.86,383.55L276.82,383.47L1025,379.66" style="vector-effect: none; fill: none; stroke: rgb(145, 232, 225); stroke-opacity: 1; stroke-width: 2px; opacity: 1;"/></g><g class="points"/><g class="text"/></g><g class="trace scatter trace0cd698" style="stroke-miterlimit: 2; opacity: 1;"><g class="fills"/><g class="errorbars"/><g class="lines"><path class="js-line" d="M0,385L471.35,384.25L486.31,384.22L501.28,384.11L516.24,379.69L531.2,335.75L546.17,334.45L665.88,333.91L680.84,333.87L815.51,333.06L830.47,332.8L890.33,330.62L905.29,329.78L950.18,326.24L965.15,324.77L1010.04,319.19L1025,316.91" style="vector-effect: none; fill: none; stroke: rgb(124, 181, 236); stroke-opacity: 1; stroke-width: 2px; opacity: 1;"/></g><g class="points"/><g class="text"/></g><g class="trace scatter trace80514a" style="stroke-miterlimit: 2; opacity: 1;"><g class="fills"/><g class="errorbars"/><g class="lines"><path class="js-line" d="M0,385L276.82,384.29L291.79,384.06L351.64,382.04L366.61,381.25L411.5,377.86L426.46,376.46L471.35,371.12L486.31,368.91L531.2,361.5L546.17,358.51L591.06,348.09L606.02,344.14L635.95,335.28L650.91,330.34L680.84,319.38L695.8,313.32L725.73,299.81L740.69,292.4L770.62,276.04L785.58,266.96L815.51,247L830.47,236.12L860.4,212.15L875.36,199.12L905.29,170.69L920.26,155.16L950.18,121.21L965.15,102.81L995.07,63.07L1010.04,41.45L1025,18.75" style="vector-effect: none; fill: none; stroke: rgb(67, 67, 72); stroke-opacity: 1; stroke-width: 2px; opacity: 1;"/></g><g class="points"/><g class="text"/></g><g class="trace scatter tracea9708b" style="stroke-miterlimit: 2; opacity: 1;"><g class="fills"/><g class="errorbars"/><g class="lines"><path class="js-line" d="M0,384.89L157.12,383.9L172.08,383.82L1025,378.92" style="vector-effect: none; fill: none; stroke: rgb(144, 237, 125); stroke-opacity: 1; stroke-width: 2px; opacity: 1;"/></g><g class="points"/><g class="text"/></g><g class="trace scatter tracee628d8" style="stroke-miterlimit: 2; opacity: 1;"><g class="fills"/><g class="errorbars"/><g class="lines"><path class="js-line" d="M0,327.1L14.96,326.23L22.45,326.18L456.39,324.7L471.35,324.68L755.66,323.46L770.62,323.25L860.4,321.72L875.36,321.21L920.26,318.93L935.22,317.9L980.11,313.74L995.07,312.09L1025,308.1" style="vector-effect: none; fill: none; stroke: rgb(247, 163, 92); stroke-opacity: 1; stroke-width: 2px; opacity: 1;"/></g><g class="points"/><g class="text"/></g><g class="trace scatter trace682eda" style="stroke-miterlimit: 2; opacity: 1;"><g class="fills"/><g class="errorbars"/><g class="lines"><path class="js-line" d="M0,385L321.72,384.33L336.68,384.17L441.42,382.04L456.39,381.58L561.13,376.6L576.09,375.63L635.95,371.19L650.91,369.85L710.77,363.55L725.73,361.63L770.62,354.98L785.58,352.43L830.47,343.67L845.44,340.35L875.36,332.92L890.33,328.82L920.26,319.83L935.22,314.82L965.15,303.72L980.11,297.61L1010.04,284.05L1025,276.58" style="vector-effect: none; fill: none; stroke: rgb(128, 133, 233); stroke-opacity: 1; stroke-width: 2px; opacity: 1;"/></g><g class="points"/><g class="text"/></g><g class="trace scatter trace257563" style="stroke-miterlimit: 2; opacity: 1;"><g class="fills"/><g class="errorbars"/><g class="lines"><path class="js-line" d="M0,385L456.39,384.25L471.35,384.22L501.28,384.15L516.24,382.52L531.2,363.35L546.17,362.79L890.33,361.15L905.29,360.9L995.07,358.59L1010.04,357.93L1025,357.29" style="vector-effect: none; fill: none; stroke: rgb(241, 92, 128); stroke-opacity: 1; stroke-width: 2px; opacity: 1;"/></g><g class="points"/><g class="text"/></g><g class="trace scatter trace24c97b" style="stroke-miterlimit: 2; opacity: 1;"><g class="fills"/><g class="errorbars"/><g class="lines"><path class="js-line" d="M0,385L306.75,384.33L321.72,384.2L426.46,382.36L441.42,381.92L516.24,378.98L531.2,378.27L606.02,373.7L620.99,372.55L680.84,367.09L695.8,365.49L740.69,359.78L755.66,357.57L800.55,349.96L815.51,347.04L860.4,337.12L875.36,333.28L905.29,324.89L920.26,320.28L950.18,309.93L965.15,304.21L995.07,291.61L1010.04,284.61L1025,277.16" style="vector-effect: none; fill: none; stroke: rgb(228, 211, 84); stroke-opacity: 1; stroke-width: 2px; opacity: 1;"/></g><g class="points"/><g class="text"/></g><g class="trace scatter trace1f08ad" style="stroke-miterlimit: 2; opacity: 1;"><g class="fills"/><g class="errorbars"/><g class="lines"><path class="js-line" d="M0,352.63L14.96,352.06L22.45,352.02L276.82,350.75L291.79,350.72L875.36,349.03L890.33,348.86L995.07,346.71L1010.04,346.14L1025,345.59" style="vector-effect: none; fill: none; stroke: rgb(43, 144, 143); stroke-opacity: 1; stroke-width: 2px; opacity: 1;"/></g><g class="points"/><g class="text"/></g><g class="trace scatter trace08c10d" style="stroke-miterlimit: 2; opacity: 1;"><g class="fills"/><g class="errorbars"/><g class="lines"><path class="js-line" d="M0,385L306.75,384.39L321.72,384.22L411.5,382.46L426.46,382.04L516.24,378.38L531.2,377.64L620.99,371.93L635.95,370.77L710.77,363.84L725.73,362.14L785.58,354.28L800.55,352.01L845.44,344.36L860.4,341.47L905.29,331.7L920.26,328.02L965.15,315.64L980.11,311.05L1010.04,301.03L1025,295.5" style="vector-effect: none; fill: none; stroke: rgb(244, 91, 91); stroke-opacity: 1; stroke-width: 2px; opacity: 1;"/></g><g class="points"/><g class="text"/></g><g class="trace scatter traceae38d7" style="stroke-miterlimit: 2; opacity: 1;"><g class="fills"/><g class="errorbars"/><g class="lines"><path class="js-line" d="M0,385L486.31,384.26L501.28,383.99L516.24,378.3L531.2,359.47L546.17,358.21L561.13,358.1L860.4,356.81L875.36,356.6L980.11,353.98L995.07,353.45L1025,352.08" style="vector-effect: none; fill: none; stroke: rgb(145, 232, 225); stroke-opacity: 1; stroke-width: 2px; opacity: 1;"/></g><g class="points"/><g class="text"/></g><g class="trace scatter tracef322b3" style="stroke-miterlimit: 2; opacity: 1;"><g class="fills"/><g class="errorbars"/><g class="lines"><path class="js-line" d="M0,385L291.79,384.35L306.75,384.23L396.53,382.76L411.5,382.36L486.31,379.68L501.28,379.07L576.09,375.26L591.06,374.33L665.88,368.69L680.84,367.35L740.69,360.93L755.66,359.08L800.55,352.72L815.51,350.35L860.4,342.32L875.36,339.3L920.26,329.03L935.22,325.18L980.11,312.21L995.07,307.41L1025,296.77" style="vector-effect: none; fill: none; stroke: rgb(124, 181, 236); stroke-opacity: 1; stroke-width: 2px; opacity: 1;"/></g><g class="points"/><g class="text"/></g><g class="trace scatter trace8dd43c" style="stroke-miterlimit: 2; opacity: 1;"><g class="fills"/><g class="errorbars"/><g class="lines"><path class="js-line" d="M0,345.84L7.48,344.94L14.96,344.87L261.86,343.58L276.82,343.56L875.36,341.81L890.33,341.62L980.11,339.6L995.07,339.14L1025,337.9" style="vector-effect: none; fill: none; stroke: rgb(67, 67, 72); stroke-opacity: 1; stroke-width: 2px; opacity: 1;"/></g><g class="points"/><g class="text"/></g><g class="trace scatter trace2f98e2" style="stroke-miterlimit: 2; opacity: 1;"><g class="fills"/><g class="errorbars"/><g class="lines"><path class="js-line" d="M0,385L336.68,384.35L351.64,384.19L456.39,382.35L471.35,381.86L591.06,377.49L606.02,376.8L680.84,372.54L695.8,371.52L755.66,366.6L770.62,365.15L830.47,358.28L845.44,356.25L890.33,349.32L905.29,346.71L950.18,337.73L965.15,334.34L995.07,326.84L1010.04,322.66L1025,318.15" style="vector-effect: none; fill: none; stroke: rgb(144, 237, 125); stroke-opacity: 1; stroke-width: 2px; opacity: 1;"/></g><g class="points"/><g class="text"/></g><g class="trace scatter trace551c88" style="stroke-miterlimit: 2; opacity: 1;"><g class="fills"/><g class="errorbars"/><g class="lines"><path class="js-line" d="M0,385L501.28,384.37L516.24,382.33L531.2,367.39L546.17,366.15L695.8,365.76L710.77,365.73L890.33,364.75L905.29,364.57L995.07,362.8L1010.04,362.3L1025,361.84" style="vector-effect: none; fill: none; stroke: rgb(247, 163, 92); stroke-opacity: 1; stroke-width: 2px; opacity: 1;"/></g><g class="points"/><g class="text"/></g><g class="trace scatter trace95997d" style="stroke-miterlimit: 2; opacity: 1;"><g class="fills"/><g class="errorbars"/><g class="lines"><path class="js-line" d="M0,385L321.72,384.33L336.68,384.21L441.42,382.6L456.39,382.26L606.02,376.99L620.99,376.26L710.77,370.73L725.73,369.57L785.58,364L800.55,362.36L845.44,356.75L860.4,354.63L905.29,347.37L920.26,344.63L965.15,335.1L980.11,331.54L1010.04,323.5L1025,319.02" style="vector-effect: none; fill: none; stroke: rgb(128, 133, 233); stroke-opacity: 1; stroke-width: 2px; opacity: 1;"/></g><g class="points"/><g class="text"/></g><g class="trace scatter tracec1c601" style="stroke-miterlimit: 2; opacity: 1;"><g class="fills"/><g class="errorbars"/><g class="lines"><path class="js-line" d="M0,354.47L14.96,353.62L22.45,353.57L306.75,352.44L321.72,352.42L860.4,351.06L875.36,350.94L980.11,349.35L995.07,349.01L1025,348.08" style="vector-effect: none; fill: none; stroke: rgb(241, 92, 128); stroke-opacity: 1; stroke-width: 2px; opacity: 1;"/></g><g class="points"/><g class="text"/></g><g class="trace scatter trace774d2c" style="stroke-miterlimit: 2; opacity: 1;"><g class="fills"/><g class="errorbars"/><g class="lines"><path class="js-line" d="M0,384.99L261.86,384.29L276.82,383.99L321.72,382.12L336.68,381.23L381.57,377.79L396.53,376.33L441.42,371.18L456.39,369.19L516.24,359.48L531.2,356.77L576.09,347.62L591.06,344.35L635.95,333.65L650.91,329.73L695.8,317.11L710.77,312.53L755.66,297.71L770.62,292.41L815.51,274.84L830.47,268.47L860.4,255.02L875.36,247.88L905.29,232.73L920.26,224.75L950.18,207.48L965.15,198.35L995.07,178.92L1010.04,168.55L1025,157.75" style="vector-effect: none; fill: none; stroke: rgb(228, 211, 84); stroke-opacity: 1; stroke-width: 2px; opacity: 1;"/></g><g class="points"/><g class="text"/></g><g class="trace scatter trace79ba82" style="stroke-miterlimit: 2; opacity: 1;"><g class="fills"/><g class="errorbars"/><g class="lines"><path class="js-line" d="M0,385L321.72,384.64L336.68,384.11L471.35,383.91L486.31,382.5L501.28,380.33L516.24,332.77L531.2,159.16L546.17,141.95L561.13,140.38L576.09,139.87L650.91,138.9L665.88,138.84L800.55,137.77L815.51,137.41L860.4,135.38L875.36,134.46L920.26,130.88L935.22,129.38L980.11,124.07L995.07,122.04L1025,117.2" style="vector-effect: none; fill: none; stroke: rgb(43, 144, 143); stroke-opacity: 1; stroke-width: 2px; opacity: 1;"/></g><g class="points"/><g class="text"/></g><g class="trace scatter trace1174f6" style="stroke-miterlimit: 2; opacity: 1;"><g class="fills"/><g class="errorbars"/><g class="lines"><path class="js-line" d="M0,384.99L261.86,384.11L276.82,383.81L321.72,381.97L336.68,381.08L381.57,377.66L396.53,376.22L441.42,371.09L456.39,369.11L516.24,359.46L531.2,356.79L576.09,347.82L591.06,344.56L635.95,333.96L650.91,330.07L695.8,317.59L710.77,313.02L755.66,298.27L770.62,292.99L815.51,275.43L830.47,269.1L875.36,248.66L890.33,241.3L920.26,225.67L935.22,217.27L965.15,199.36L980.11,189.93L1010.04,169.66L1025,158.89" style="vector-effect: none; fill: none; stroke: rgb(244, 91, 91); stroke-opacity: 1; stroke-width: 2px; opacity: 1;"/></g><g class="points"/><g class="text"/></g><g class="trace scatter trace6fd098" style="stroke-miterlimit: 2; opacity: 1;"><g class="fills"/><g class="errorbars"/><g class="lines"><path class="js-line" d="M0,131.65L7.48,130.52L14.96,130.42L67.34,129.24L82.3,127.99L112.23,126.88L127.19,126.79L381.57,126.32L396.53,126.3L620.99,125.62L635.95,125.31L770.62,123.41L785.58,123.22L845.44,121.86L860.4,121.25L905.29,118.55L920.26,117.43L965.15,113.14L980.11,111.4L1025,105.3" style="vector-effect: none; fill: none; stroke: rgb(145, 232, 225); stroke-opacity: 1; stroke-width: 2px; opacity: 1;"/></g><g class="points"/><g class="text"/></g><g class="trace scatter trace8e774f" style="stroke-miterlimit: 2; opacity: 1;"><g class="fills"/><g class="errorbars"/><g class="lines"><path class="js-line" d="M0,385L306.75,384.23L321.72,384.02L411.5,381.95L426.46,381.45L516.24,377.21L531.2,376.37L606.02,371.23L620.99,370.01L680.84,364.43L695.8,362.83L755.66,355.45L770.62,353.39L830.47,343.81L845.44,341.12L890.33,332.25L905.29,328.97L950.18,318.18L965.15,314.25L1010.04,301.35L1025,296.59" style="vector-effect: none; fill: none; stroke: rgb(124, 181, 236); stroke-opacity: 1; stroke-width: 2px; opacity: 1;"/></g><g class="points"/><g class="text"/></g><g class="trace scatter tracec0b018" style="stroke-miterlimit: 2; opacity: 1;"><g class="fills"/><g class="errorbars"/><g class="lines"><path class="js-line" d="M0,385L501.28,384.36L516.24,376.15L531.2,301.96L546.17,295.95L591.06,295.25L606.02,295.15L875.36,293.55L890.33,293.27L965.15,291.16L980.11,290.56L1025,288.38" style="vector-effect: none; fill: none; stroke: rgb(67, 67, 72); stroke-opacity: 1; stroke-width: 2px; opacity: 1;"/></g><g class="points"/><g class="text"/></g><g class="trace scatter trace6af1dc" style="stroke-miterlimit: 2; opacity: 1;"><g class="fills"/><g class="errorbars"/><g class="lines"><path class="js-line" d="M0,385L276.82,384.33L291.79,384.2L381.57,382.67L396.53,382.27L471.35,379.38L486.31,378.62L561.13,374.5L576.09,373.53L635.95,368.92L650.91,367.58L710.77,361.42L725.73,359.65L785.58,351.46L800.55,349.13L860.4,338.71L875.36,335.78L920.26,326.03L935.22,322.44L980.11,310.74L995.07,306.45L1025,297.18" style="vector-effect: none; fill: none; stroke: rgb(144, 237, 125); stroke-opacity: 1; stroke-width: 2px; opacity: 1;"/></g><g class="points"/><g class="text"/></g><g class="trace scatter trace31b2b7" style="stroke-miterlimit: 2; opacity: 1;"><g class="fills"/><g class="errorbars"/><g class="lines"><path class="js-line" d="M0,275.19L7.48,274.07L14.96,273.94L67.34,272.84L82.3,272.15L127.19,271.43L142.15,271.37L740.69,269.27L755.66,269.07L935.22,266.44L950.18,266L1025,262.82" style="vector-effect: none; fill: none; stroke: rgb(247, 163, 92); stroke-opacity: 1; stroke-width: 2px; opacity: 1;"/></g><g class="points"/><g class="text"/></g><g class="trace scatter tracec40415" style="stroke-miterlimit: 2; opacity: 1;"><g class="fills"/><g class="errorbars"/><g class="lines"><path class="js-line" d="M0,385L351.64,384.26L366.61,384.09L456.39,382.55L471.35,382.07L606.02,377.26L620.99,376.56L695.8,372.17L710.77,371.11L785.58,364.59L800.55,362.98L860.4,355.47L875.36,353.3L920.26,345.75L935.22,342.84L980.11,332.96L995.07,329.22L1025,320.91" style="vector-effect: none; fill: none; stroke: rgb(128, 133, 233); stroke-opacity: 1; stroke-width: 2px; opacity: 1;"/></g><g class="points"/><g class="text"/></g><g class="trace scatter traceff2d22" style="stroke-miterlimit: 2; opacity: 1;"><g class="fills"/><g class="errorbars"/><g class="lines"><path class="js-line" d="M0,385L501.28,384.45L516.24,383.01L531.2,370.44L546.17,369.99L935.22,368.21L950.18,367.96L1025,366.06" style="vector-effect: none; fill: none; stroke: rgb(241, 92, 128); stroke-opacity: 1; stroke-width: 2px; opacity: 1;"/></g><g class="points"/><g class="text"/></g><g class="trace scatter traceae6d35" style="stroke-miterlimit: 2; opacity: 1;"><g class="fills"/><g class="errorbars"/><g class="lines"><path class="js-line" d="M0,385L321.72,384.33L336.68,384.22L441.42,382.73L456.39,382.42L620.99,376.68L635.95,375.94L710.77,371.31L725.73,370.17L785.58,364.84L800.55,363.24L860.4,355.81L875.36,353.66L920.26,346.18L935.22,343.3L980.11,333.44L995.07,329.71L1025,321.43" style="vector-effect: none; fill: none; stroke: rgb(228, 211, 84); stroke-opacity: 1; stroke-width: 2px; opacity: 1;"/></g><g class="points"/><g class="text"/></g><g class="trace scatter trace99e619" style="stroke-miterlimit: 2; opacity: 1;"><g class="fills"/><g class="errorbars"/><g class="lines"><path class="js-line" d="M0,352.97L14.96,352.18L22.45,352.13L216.97,351.03L231.93,351.01L890.33,349.49L905.29,349.35L995.07,347.86L1010.04,347.41L1025,347.01" style="vector-effect: none; fill: none; stroke: rgb(43, 144, 143); stroke-opacity: 1; stroke-width: 2px; opacity: 1;"/></g><g class="points"/><g class="text"/></g><g class="trace scatter trace676fa5" style="stroke-miterlimit: 2; opacity: 1;"><g class="fills"/><g class="errorbars"/><g class="lines"><path class="js-line" d="M0,385L291.79,384.37L306.75,384.17L381.57,382.26L396.53,381.69L456.39,378.64L471.35,377.58L546.17,371.35L561.13,369.76L620.99,362.45L635.95,360.26L680.84,352.91L695.8,350.09L740.69,340.53L755.66,336.9L800.55,324.61L815.51,320.03L845.44,309.94L860.4,304.43L890.33,292.43L905.29,285.9L935.22,271.83L950.18,264.07L980.11,247.39L995.07,238.25L1025,218.31" style="vector-effect: none; fill: none; stroke: rgb(244, 91, 91); stroke-opacity: 1; stroke-width: 2px; opacity: 1;"/></g><g class="points"/><g class="text"/></g><g class="trace scatter trace1f7b50" style="stroke-miterlimit: 2; opacity: 1;"><g class="fills"/><g class="errorbars"/><g class="lines"><path class="js-line" d="M0,385L501.28,384.34L516.24,382.36L531.2,362.01L546.17,360.34L680.84,359.94L695.8,359.91L830.47,359.16L845.44,358.95L920.26,356.96L935.22,356.36L995.07,353.23L1010.04,352.12L1025,350.98" style="vector-effect: none; fill: none; stroke: rgb(145, 232, 225); stroke-opacity: 1; stroke-width: 2px; opacity: 1;"/></g><g class="points"/><g class="text"/></g><g class="trace scatter trace8bfc8e" style="stroke-miterlimit: 2; opacity: 1;"><g class="fills"/><g class="errorbars"/><g class="lines"><path class="js-line" d="M0,385L291.79,384.26L306.75,384.06L381.57,382.18L396.53,381.61L456.39,378.6L471.35,377.55L546.17,371.44L561.13,369.92L620.99,362.71L635.95,360.55L680.84,353.28L695.8,350.48L740.69,340.98L755.66,337.37L800.55,325.09L815.51,320.53L845.44,310.51L860.4,305.05L890.33,293.13L905.29,286.64L935.22,272.61L950.18,264.87L980.11,248.2L995.07,239.07L1025,219.14" style="vector-effect: none; fill: none; stroke: rgb(124, 181, 236); stroke-opacity: 1; stroke-width: 2px; opacity: 1;"/></g><g class="points"/><g class="text"/></g><g class="trace scatter trace3a5228" style="stroke-miterlimit: 2; opacity: 1;"><g class="fills"/><g class="errorbars"/><g class="lines"><path class="js-line" d="M0,346.45L7.48,345.57L14.96,345.5L336.68,344.06L351.64,344.04L815.51,342.78L830.47,342.65L905.29,341.29L920.26,340.86L995.07,337.54L1010.04,336.55L1025,335.55" style="vector-effect: none; fill: none; stroke: rgb(67, 67, 72); stroke-opacity: 1; stroke-width: 2px; opacity: 1;"/></g><g class="points"/><g class="text"/></g></g></g></g><g class="zerolinelayer-above"/><path class="xlines-above crisp" d="M0,0" style="fill: none;"/><path class="ylines-above crisp" d="M0,0" style="fill: none;"/><g class="overlines-above"/><g class="xaxislayer-above"><g class="xtick"><text text-anchor="middle" x="0" y="451" transform="translate(202.15,0)" style="font-family: 'Lucida Grande', 'Open Sans', verdana, arial, sans-serif; font-size: 10px; fill: rgb(0, 0, 0); fill-opacity: 1; white-space: pre;">20 bp</text></g><g class="xtick"><text text-anchor="middle" x="0" y="451" style="font-family: 'Lucida Grande', 'Open Sans', verdana, arial, sans-serif; font-size: 10px; fill: rgb(0, 0, 0); fill-opacity: 1; white-space: pre;" transform="translate(351.79,0)">40 bp</text></g><g class="xtick"><text text-anchor="middle" x="0" y="451" style="font-family: 'Lucida Grande', 'Open Sans', verdana, arial, sans-serif; font-size: 10px; fill: rgb(0, 0, 0); fill-opacity: 1; white-space: pre;" transform="translate(501.42,0)">60 bp</text></g><g class="xtick"><text text-anchor="middle" x="0" y="451" style="font-family: 'Lucida Grande', 'Open Sans', verdana, arial, sans-serif; font-size: 10px; fill: rgb(0, 0, 0); fill-opacity: 1; white-space: pre;" transform="translate(651.06,0)">80 bp</text></g><g class="xtick"><text text-anchor="middle" x="0" y="451" style="font-family: 'Lucida Grande', 'Open Sans', verdana, arial, sans-serif; font-size: 10px; fill: rgb(0, 0, 0); fill-opacity: 1; white-space: pre;" transform="translate(800.69,0)">100 bp</text></g><g class="xtick"><text text-anchor="middle" x="0" y="451" style="font-family: 'Lucida Grande', 'Open Sans', verdana, arial, sans-serif; font-size: 10px; fill: rgb(0, 0, 0); fill-opacity: 1; white-space: pre;" transform="translate(950.33,0)">120 bp</text></g></g><g class="yaxislayer-above"><g class="ytick"><text text-anchor="end" x="54" y="3.5" transform="translate(0,435)" style="font-family: 'Lucida Grande', 'Open Sans', verdana, arial, sans-serif; font-size: 10px; fill: rgb(0, 0, 0); fill-opacity: 1; white-space: pre;">0%</text></g><g class="ytick"><text text-anchor="end" x="54" y="3.5" style="font-family: 'Lucida Grande', 'Open Sans', verdana, arial, sans-serif; font-size: 10px; fill: rgb(0, 0, 0); fill-opacity: 1; white-space: pre;" transform="translate(0,389.64)">1%</text></g><g class="ytick"><text text-anchor="end" x="54" y="3.5" style="font-family: 'Lucida Grande', 'Open Sans', verdana, arial, sans-serif; font-size: 10px; fill: rgb(0, 0, 0); fill-opacity: 1; white-space: pre;" transform="translate(0,344.29)">2%</text></g><g class="ytick"><text text-anchor="end" x="54" y="3.5" style="font-family: 'Lucida Grande', 'Open Sans', verdana, arial, sans-serif; font-size: 10px; fill: rgb(0, 0, 0); fill-opacity: 1; white-space: pre;" transform="translate(0,298.93)">3%</text></g><g class="ytick"><text text-anchor="end" x="54" y="3.5" style="font-family: 'Lucida Grande', 'Open Sans', verdana, arial, sans-serif; font-size: 10px; fill: rgb(0, 0, 0); fill-opacity: 1; white-space: pre;" transform="translate(0,253.57)">4%</text></g><g class="ytick"><text text-anchor="end" x="54" y="3.5" style="font-family: 'Lucida Grande', 'Open Sans', verdana, arial, sans-serif; font-size: 10px; fill: rgb(0, 0, 0); fill-opacity: 1; white-space: pre;" transform="translate(0,208.22)">5%</text></g><g class="ytick"><text text-anchor="end" x="54" y="3.5" style="font-family: 'Lucida Grande', 'Open Sans', verdana, arial, sans-serif; font-size: 10px; fill: rgb(0, 0, 0); fill-opacity: 1; white-space: pre;" transform="translate(0,162.86)">6%</text></g><g class="ytick"><text text-anchor="end" x="54" y="3.5" style="font-family: 'Lucida Grande', 'Open Sans', verdana, arial, sans-serif; font-size: 10px; fill: rgb(0, 0, 0); fill-opacity: 1; white-space: pre;" transform="translate(0,117.5)">7%</text></g><g class="ytick"><text text-anchor="end" x="54" y="3.5" style="font-family: 'Lucida Grande', 'Open Sans', verdana, arial, sans-serif; font-size: 10px; fill: rgb(0, 0, 0); fill-opacity: 1; white-space: pre;" transform="translate(0,72.15)">8%</text></g></g><g class="overaxes-above"/></g></g><g class="polarlayer"/><g class="smithlayer"/><g class="ternarylayer"/><g class="geolayer"/><g class="funnelarealayer"/><g class="pielayer"/><g class="iciclelayer"/><g class="treemaplayer"/><g class="sunburstlayer"/><g class="glimages"/><defs id="topdefs-c35d16"><g class="clips"/></defs><g class="layer-above"><g class="imagelayer"/><g class="shapelayer"/></g><g class="infolayer"><g class="g-gtitle"><text class="gtitle" x="550" y="25" text-anchor="middle" dy="0em" style="opacity: 1; font-family: 'Lucida Grande', 'Open Sans', verdana, arial, sans-serif; font-size: 20px; fill: rgb(68, 68, 68); fill-opacity: 1; white-space: pre;"><tspan class="line" dy="0em" x="550" y="25">FastQC: Adapter Content</tspan><tspan class="line" dy="1.3em" x="550" y="25">​<tspan style="font-size:70%" dy="-0.6em">42 sample-adapter combinations</tspan><tspan dy="0.42em">​</tspan></tspan></text></g><g class="g-xtitle"><text class="xtitle" x="572.5" y="487" text-anchor="middle" style="opacity: 0.3; font-family: 'Lucida Grande', 'Open Sans', verdana, arial, sans-serif; font-size: 14px; fill: rgb(0, 0, 0); fill-opacity: 1; white-space: pre;">Position (bp)</text></g><g class="g-ytitle"><text class="ytitle" transform="rotate(-90,22,242.5)" x="22" y="242.5" text-anchor="middle" style="opacity: 0.3; font-family: 'Lucida Grande', 'Open Sans', verdana, arial, sans-serif; font-size: 14px; fill: rgb(0, 0, 0); fill-opacity: 1; white-space: pre;">% of Sequences</text></g></g></svg>