<svg class="main-svg" xmlns="http://www.w3.org/2000/svg" xmlns:xlink="http://www.w3.org/1999/xlink" width="2200" height="1000" style="" viewBox="0 0 1100 500"><rect x="0" y="0" width="1100" height="500" style="fill: rgb(255, 255, 255); fill-opacity: 1;"/><defs id="defs-3a542f"><g class="clips"><clipPath id="clip3a542fxyplot" class="plotclip"><rect width="1025" height="385"/></clipPath><clipPath class="axesclip" id="clip3a542fx"><rect x="60" y="0" width="1025" height="500"/></clipPath><clipPath class="axesclip" id="clip3a542fy"><rect x="0" y="50" width="1100" height="385"/></clipPath><clipPath class="axesclip" id="clip3a542fxy"><rect x="60" y="50" width="1025" height="385"/></clipPath></g><g class="gradients"/><g class="patterns"/></defs><g class="bglayer"/><g class="layer-below"><g class="imagelayer"/><g class="shapelayer"/></g><g class="cartesianlayer"><g class="subplot xy"><g class="layer-subplot"><g class="shapelayer"/><g class="imagelayer"/></g><g class="minor-gridlayer"><g class="x"/><g class="y"/></g><g class="gridlayer"><g class="x"><path class="xgrid crisp" transform="translate(189.83,0)" d="M0,50v385" style="stroke: rgb(128, 128, 128); stroke-opacity: 0.15; stroke-width: 1px;"/><path class="xgrid crisp" transform="translate(326.5,0)" d="M0,50v385" style="stroke: rgb(128, 128, 128); stroke-opacity: 0.15; stroke-width: 1px;"/><path class="xgrid crisp" transform="translate(463.17,0)" d="M0,50v385" style="stroke: rgb(128, 128, 128); stroke-opacity: 0.15; stroke-width: 1px;"/><path class="xgrid crisp" transform="translate(599.83,0)" d="M0,50v385" style="stroke: rgb(128, 128, 128); stroke-opacity: 0.15; stroke-width: 1px;"/><path class="xgrid crisp" transform="translate(736.5,0)" d="M0,50v385" style="stroke: rgb(128, 128, 128); stroke-opacity: 0.15; stroke-width: 1px;"/><path class="xgrid crisp" transform="translate(873.17,0)" d="M0,50v385" style="stroke: rgb(128, 128, 128); stroke-opacity: 0.15; stroke-width: 1px;"/><path class="xgrid crisp" transform="translate(1009.83,0)" d="M0,50v385" style="stroke: rgb(128, 128, 128); stroke-opacity: 0.15; stroke-width: 1px;"/></g><g class="y"><path class="ygrid crisp" transform="translate(0,358)" d="M60,0h1025" style="stroke: rgb(128, 128, 128); stroke-opacity: 0.15; stroke-width: 1px;"/><path class="ygrid crisp" transform="translate(0,281)" d="M60,0h1025" style="stroke: rgb(128, 128, 128); stroke-opacity: 0.15; stroke-width: 1px;"/><path class="ygrid crisp" transform="translate(0,204)" d="M60,0h1025" style="stroke: rgb(128, 128, 128); stroke-opacity: 0.15; stroke-width: 1px;"/><path class="ygrid crisp" transform="translate(0,127)" d="M60,0h1025" style="stroke: rgb(128, 128, 128); stroke-opacity: 0.15; stroke-width: 1px;"/></g></g><g class="zerolinelayer"><path class="yzl zl crisp" transform="translate(0,435)" d="M60,0h1025" style="stroke: rgb(128, 128, 128); stroke-opacity: 0.2; stroke-width: 1px;"/></g><g class="layer-between"><g class="shapelayer"/><g class="imagelayer"/></g><path class="xlines-below"/><path class="ylines-below"/><g class="overlines-below"/><g class="xaxislayer-below"/><g class="yaxislayer-below"/><g class="overaxes-below"/><g class="overplot"><g class="xy" transform="translate(60,50)" clip-path="url(#clip3a542fxyplot)"><g class="scatterlayer mlayer"><g class="trace scatter trace74fd62" style="stroke-miterlimit: 2; opacity: 1;"><g class="fills"/><g class="errorbars"/><g class="lines"><path class="js-line" d="M0,384.77L27.33,384.85L34.17,384.95L102.5,384.93L109.33,383.95L123,385L129.83,384.98L205,384.48L211.83,384.06L218.67,383.76L225.5,384.77L232.33,383.95L239.17,379.13L246,380.19L252.83,384.51L259.67,384.73L266.5,383.44L273.33,382.12L280.17,382.08L287,381.66L293.83,382.37L300.67,384.46L307.5,384.68L314.33,384.54L321.17,380.55L328,376.92L334.83,383.94L348.5,384.62L355.33,384.78L362.17,383.08L369,383.6L389.5,384.94L396.33,384.62L403.17,383.26L410,383.65L416.83,383.99L423.67,382.65L437.33,384.51L444.17,383.96L451,382.9L457.83,383.59L464.67,384.55L471.5,382.81L478.33,379.9L485.17,378.99L498.83,384.01L505.67,385L533,384.73L539.83,384.14L560.33,384.93L567.17,384.43L580.83,385L587.67,384.43L594.5,384.79L601.33,384.21L628.67,383.54L635.5,383.88L642.33,384.83L649.17,384.99L656,383.4L662.83,380.54L669.67,384.81L676.5,384.99L724.33,384.99L731.17,380.13L738,378.53L744.83,384.2L751.67,383.09L758.5,383.94L765.33,384.66L772.17,384.59L779,384.27L785.83,382.99L792.67,384.7L799.5,384.81L806.33,383.82L813.17,384.39L820,383.54L826.83,384.14L854.17,384.66L861,384.39L874.67,383.4L881.5,379.44L888.33,383.61L895.17,383.21L908.83,384.42L915.67,383.72L929.33,383.98L936.17,384.49L943,384.37L949.83,383.31L984,385L990.83,385L1018.17,384.77L1025,384.99" style="vector-effect: none; fill: none; stroke: rgb(124, 181, 236); stroke-opacity: 1; stroke-width: 2px; opacity: 1;"/></g><g class="points"/><g class="text"/></g><g class="trace scatter tracef69acf" style="stroke-miterlimit: 2; opacity: 1;"><g class="fills"/><g class="errorbars"/><g class="lines"><path class="js-line" d="M0,384.77L27.33,384.85L34.17,384.95L102.5,384.93L109.33,383.95L123,385L129.83,384.98L205,384.48L211.83,384.06L218.67,383.76L225.5,384.77L232.33,383.95L239.17,379.13L246,380.19L252.83,384.51L259.67,384.73L266.5,383.44L273.33,382.12L280.17,382.08L287,381.66L293.83,382.37L300.67,384.46L307.5,384.68L314.33,384.54L321.17,380.55L328,376.92L334.83,383.94L348.5,384.62L355.33,384.78L362.17,383.08L369,383.6L389.5,384.94L396.33,384.62L403.17,383.26L410,383.65L416.83,383.99L423.67,382.65L437.33,384.51L444.17,383.96L451,382.9L457.83,383.59L464.67,384.55L471.5,382.81L478.33,379.9L485.17,378.99L498.83,384.01L505.67,385L533,384.73L539.83,384.14L560.33,384.93L567.17,384.43L580.83,385L587.67,384.43L594.5,384.79L601.33,384.21L628.67,383.54L635.5,383.88L642.33,384.83L649.17,384.99L656,383.4L662.83,380.54L669.67,384.81L676.5,384.99L724.33,384.99L731.17,380.13L738,378.53L744.83,384.2L751.67,383.09L758.5,383.94L765.33,384.66L772.17,384.59L779,384.27L785.83,382.99L792.67,384.7L799.5,384.81L806.33,383.82L813.17,384.39L820,383.54L826.83,384.14L854.17,384.66L861,384.39L874.67,383.4L881.5,379.44L888.33,383.61L895.17,383.21L908.83,384.42L915.67,383.72L929.33,383.98L936.17,384.49L943,384.37L949.83,383.31L984,385L990.83,385L1018.17,384.77L1025,384.99" style="vector-effect: none; fill: none; stroke: rgb(67, 67, 72); stroke-opacity: 1; stroke-width: 2px; opacity: 1;"/></g><g class="points"/><g class="text"/></g><g class="trace scatter tracecd372c" style="stroke-miterlimit: 2; opacity: 1;"><g class="fills"/><g class="errorbars"/><g class="lines"><path class="js-line" d="M0,384.82L27.33,384.95L34.17,384.92L102.5,384.87L109.33,384.24L136.67,385L143.5,385L205,384.53L211.83,383.9L218.67,383.63L225.5,384.76L232.33,384.05L239.17,379.84L246,380.67L252.83,384.57L259.67,384.79L266.5,383.66L273.33,382.41L280.17,382.5L293.83,382.6L300.67,384.4L314.33,384.57L321.17,381.23L328,377.32L334.83,384.11L348.5,384.64L355.33,384.85L362.17,383.29L369,383.76L389.5,384.95L396.33,384.74L403.17,383.19L410,383.57L416.83,384.18L423.67,383L437.33,384.62L444.17,383.99L451,382.95L457.83,383.85L464.67,384.66L471.5,382.91L478.33,380.35L485.17,379.5L498.83,384.01L505.67,385L533,384.83L539.83,384.1L560.33,384.94L567.17,384.57L580.83,385L587.67,384.55L601.33,384.34L608.17,384.05L635.5,383.65L642.33,384.88L649.17,385L656,383.7L662.83,380.99L669.67,384.88L690.17,384.71L697,384.49L724.33,385L731.17,380.77L738,378.71L744.83,384.42L751.67,383.01L758.5,384.02L772.17,384.63L779,384.43L785.83,383.46L792.67,384.88L813.17,384.4L820,383.8L847.33,384.7L854.17,384.64L874.67,383.87L881.5,379.85L888.33,383.71L895.17,383.62L908.83,384.69L915.67,383.76L929.33,384.19L936.17,384.59L943,384.47L949.83,383.29L984,385L990.83,385L1018.17,384.82L1025,384.97" style="vector-effect: none; fill: none; stroke: rgb(144, 237, 125); stroke-opacity: 1; stroke-width: 2px; opacity: 1;"/></g><g class="points"/><g class="text"/></g><g class="trace scatter trace133e75" style="stroke-miterlimit: 2; opacity: 1;"><g class="fills"/><g class="errorbars"/><g class="lines"><path class="js-line" d="M0,384.79L41,384.94L47.83,384.9L102.5,384.87L109.33,384.07L123,385L129.83,384.94L164,384.93L170.83,384.53L191.33,384.71L198.17,384.54L211.83,384.05L218.67,383.74L225.5,384.84L232.33,383.97L239.17,380.04L246,380.85L252.83,384.33L259.67,384.71L273.33,382.14L280.17,382.31L287,382.29L293.83,383.08L300.67,384.57L307.5,384.79L314.33,384.48L321.17,381.19L328,377.85L334.83,384.13L348.5,384.71L355.33,384.77L362.17,383.24L369,383.78L389.5,384.94L396.33,384.6L403.17,383.42L410,383.74L416.83,384.17L423.67,382.99L437.33,384.74L444.17,383.84L451,382.89L457.83,383.71L464.67,384.58L471.5,383.01L478.33,380.36L485.17,379.63L498.83,384.1L505.67,385L601.33,384.38L608.17,383.78L621.83,384.38L628.67,383.87L635.5,383.74L642.33,384.86L649.17,385L656,383.81L662.83,381.02L669.67,384.9L690.17,384.74L697,384.48L724.33,384.97L731.17,380.77L738,379.14L744.83,384.2L751.67,383.17L758.5,384.08L772.17,384.7L779,384.44L785.83,383.31L792.67,384.7L799.5,384.86L806.33,383.84L813.17,384.53L820,383.7L840.5,384.79L847.33,384.79L867.83,383.94L874.67,383.38L881.5,379.59L888.33,383.81L895.17,383.34L902,384.18L908.83,384.64L915.67,383.64L929.33,384.15L936.17,384.66L943,384.51L949.83,383.27L984,385L990.83,385L1011.33,384.6L1018.17,384.81L1025,384.99" style="vector-effect: none; fill: none; stroke: rgb(247, 163, 92); stroke-opacity: 1; stroke-width: 2px; opacity: 1;"/></g><g class="points"/><g class="text"/></g></g></g></g><g class="zerolinelayer-above"/><path class="xlines-above crisp" d="M0,0" style="fill: none;"/><path class="ylines-above crisp" d="M0,0" style="fill: none;"/><g class="overlines-above"/><g class="xaxislayer-above"><g class="xtick"><text text-anchor="middle" x="0" y="451" transform="translate(189.83,0)" style="font-family: system-ui, -apple-system, 'Segoe UI', Roboto, 'Helvetica Neue', 'Noto Sans', 'Liberation Sans', Arial, sans-serif, 'Apple Color Emoji', 'Segoe UI Emoji', 'Segoe UI Symbol', 'Noto Color Emoji'; font-size: 10px; fill: rgb(80, 80, 80); fill-opacity: 1; white-space: pre;">20</text></g><g class="xtick"><text text-anchor="middle" x="0" y="451" style="font-family: system-ui, -apple-system, 'Segoe UI', Roboto, 'Helvetica Neue', 'Noto Sans', 'Liberation Sans', Arial, sans-serif, 'Apple Color Emoji', 'Segoe UI Emoji', 'Segoe UI Symbol', 'Noto Color Emoji'; font-size: 10px; fill: rgb(80, 80, 80); fill-opacity: 1; white-space: pre;" transform="translate(326.5,0)">40</text></g><g class="xtick"><text text-anchor="middle" x="0" y="451" style="font-family: system-ui, -apple-system, 'Segoe UI', Roboto, 'Helvetica Neue', 'Noto Sans', 'Liberation Sans', Arial, sans-serif, 'Apple Color Emoji', 'Segoe UI Emoji', 'Segoe UI Symbol', 'Noto Color Emoji'; font-size: 10px; fill: rgb(80, 80, 80); fill-opacity: 1; white-space: pre;" transform="translate(463.17,0)">60</text></g><g class="xtick"><text text-anchor="middle" x="0" y="451" style="font-family: system-ui, -apple-system, 'Segoe UI', Roboto, 'Helvetica Neue', 'Noto Sans', 'Liberation Sans', Arial, sans-serif, 'Apple Color Emoji', 'Segoe UI Emoji', 'Segoe UI Symbol', 'Noto Color Emoji'; font-size: 10px; fill: rgb(80, 80, 80); fill-opacity: 1; white-space: pre;" transform="translate(599.83,0)">80</text></g><g class="xtick"><text text-anchor="middle" x="0" y="451" style="font-family: system-ui, -apple-system, 'Segoe UI', Roboto, 'Helvetica Neue', 'Noto Sans', 'Liberation Sans', Arial, sans-serif, 'Apple Color Emoji', 'Segoe UI Emoji', 'Segoe UI Symbol', 'Noto Color Emoji'; font-size: 10px; fill: rgb(80, 80, 80); fill-opacity: 1; white-space: pre;" transform="translate(736.5,0)">100</text></g><g class="xtick"><text text-anchor="middle" x="0" y="451" style="font-family: system-ui, -apple-system, 'Segoe UI', Roboto, 'Helvetica Neue', 'Noto Sans', 'Liberation Sans', Arial, sans-serif, 'Apple Color Emoji', 'Segoe UI Emoji', 'Segoe UI Symbol', 'Noto Color Emoji'; font-size: 10px; fill: rgb(80, 80, 80); fill-opacity: 1; white-space: pre;" transform="translate(873.17,0)">120</text></g><g class="xtick"><text text-anchor="middle" x="0" y="451" style="font-family: system-ui, -apple-system, 'Segoe UI', Roboto, 'Helvetica Neue', 'Noto Sans', 'Liberation Sans', Arial, sans-serif, 'Apple Color Emoji', 'Segoe UI Emoji', 'Segoe UI Symbol', 'Noto Color Emoji'; font-size: 10px; fill: rgb(80, 80, 80); fill-opacity: 1; white-space: pre;" transform="translate(1009.83,0)">140</text></g></g><g class="yaxislayer-above"><g class="ytick"><text text-anchor="end" x="54" y="3.5" transform="translate(0,435)" style="font-family: system-ui, -apple-system, 'Segoe UI', Roboto, 'Helvetica Neue', 'Noto Sans', 'Liberation Sans', Arial, sans-serif, 'Apple Color Emoji', 'Segoe UI Emoji', 'Segoe UI Symbol', 'Noto Color Emoji'; font-size: 10px; fill: rgb(80, 80, 80); fill-opacity: 1; white-space: pre;">0%</text></g><g class="ytick"><text text-anchor="end" x="54" y="3.5" style="font-family: system-ui, -apple-system, 'Segoe UI', Roboto, 'Helvetica Neue', 'Noto Sans', 'Liberation Sans', Arial, sans-serif, 'Apple Color Emoji', 'Segoe UI Emoji', 'Segoe UI Symbol', 'Noto Color Emoji'; font-size: 10px; fill: rgb(80, 80, 80); fill-opacity: 1; white-space: pre;" transform="translate(0,358)">1%</text></g><g class="ytick"><text text-anchor="end" x="54" y="3.5" style="font-family: system-ui, -apple-system, 'Segoe UI', Roboto, 'Helvetica Neue', 'Noto Sans', 'Liberation Sans', Arial, sans-serif, 'Apple Color Emoji', 'Segoe UI Emoji', 'Segoe UI Symbol', 'Noto Color Emoji'; font-size: 10px; fill: rgb(80, 80, 80); fill-opacity: 1; white-space: pre;" transform="translate(0,281)">2%</text></g><g class="ytick"><text text-anchor="end" x="54" y="3.5" style="font-family: system-ui, -apple-system, 'Segoe UI', Roboto, 'Helvetica Neue', 'Noto Sans', 'Liberation Sans', Arial, sans-serif, 'Apple Color Emoji', 'Segoe UI Emoji', 'Segoe UI Symbol', 'Noto Color Emoji'; font-size: 10px; fill: rgb(80, 80, 80); fill-opacity: 1; white-space: pre;" transform="translate(0,204)">3%</text></g><g class="ytick"><text text-anchor="end" x="54" y="3.5" style="font-family: system-ui, -apple-system, 'Segoe UI', Roboto, 'Helvetica Neue', 'Noto Sans', 'Liberation Sans', Arial, sans-serif, 'Apple Color Emoji', 'Segoe UI Emoji', 'Segoe UI Symbol', 'Noto Color Emoji'; font-size: 10px; fill: rgb(80, 80, 80); fill-opacity: 1; white-space: pre;" transform="translate(0,127)">4%</text></g><g class="ytick"><text text-anchor="end" x="54" y="3.5" style="font-family: system-ui, -apple-system, 'Segoe UI', Roboto, 'Helvetica Neue', 'Noto Sans', 'Liberation Sans', Arial, sans-serif, 'Apple Color Emoji', 'Segoe UI Emoji', 'Segoe UI Symbol', 'Noto Color Emoji'; font-size: 10px; fill: rgb(80, 80, 80); fill-opacity: 1; white-space: pre;" transform="translate(0,50)">5%</text></g></g><g class="overaxes-above"/></g></g><g class="polarlayer"/><g class="smithlayer"/><g class="ternarylayer"/><g class="geolayer"/><g class="funnelarealayer"/><g class="pielayer"/><g class="iciclelayer"/><g class="treemaplayer"/><g class="sunburstlayer"/><g class="glimages"/><defs id="topdefs-3a542f"><g class="clips"/></defs><g class="layer-above"><g class="imagelayer"/><g class="shapelayer"/></g><g class="infolayer"><g class="g-gtitle"><text class="gtitle" x="550" y="25" text-anchor="middle" dy="0em" style="opacity: 1; font-family: system-ui, -apple-system, 'Segoe UI', Roboto, 'Helvetica Neue', 'Noto Sans', 'Liberation Sans', Arial, sans-serif, 'Apple Color Emoji', 'Segoe UI Emoji', 'Segoe UI Symbol', 'Noto Color Emoji'; font-size: 20px; fill: rgb(60, 60, 60); fill-opacity: 1; white-space: pre;"><tspan class="line" dy="0em" x="550" y="25">Fastp: Read N Content</tspan><tspan class="line" dy="1.3em" x="550" y="25">​<tspan style="font-size:70%" dy="-0.6em">Read 1: Before filtering, 4 lines</tspan><tspan dy="0.42em">​</tspan></tspan></text></g><g class="g-xtitle"><text class="xtitle" x="572.5" y="487" text-anchor="middle" style="opacity: 1; font-family: system-ui, -apple-system, 'Segoe UI', Roboto, 'Helvetica Neue', 'Noto Sans', 'Liberation Sans', Arial, sans-serif, 'Apple Color Emoji', 'Segoe UI Emoji', 'Segoe UI Symbol', 'Noto Color Emoji'; font-size: 14px; fill: rgb(100, 100, 100); fill-opacity: 1; white-space: pre;">Read Position</text></g><g class="g-ytitle"><text class="ytitle" transform="rotate(-90,22,242.5)" x="22" y="242.5" text-anchor="middle" style="opacity: 1; font-family: system-ui, -apple-system, 'Segoe UI', Roboto, 'Helvetica Neue', 'Noto Sans', 'Liberation Sans', Arial, sans-serif, 'Apple Color Emoji', 'Segoe UI Emoji', 'Segoe UI Symbol', 'Noto Color Emoji'; font-size: 14px; fill: rgb(100, 100, 100); fill-opacity: 1; white-space: pre;">R1 Before filtering: Base Content Percent</text></g></g></svg>