<svg class="main-svg" xmlns="http://www.w3.org/2000/svg" xmlns:xlink="http://www.w3.org/1999/xlink" width="2200" height="1000" style="" viewBox="0 0 1100 500"><rect x="0" y="0" width="1100" height="500" style="fill: rgb(255, 255, 255); fill-opacity: 1;"/><defs id="defs-877f8b"><g class="clips"><clipPath id="clip877f8bxyplot" class="plotclip"><rect width="1014" height="385"/></clipPath><clipPath class="axesclip" id="clip877f8bx"><rect x="60" y="0" width="1014" height="500"/></clipPath><clipPath class="axesclip" id="clip877f8by"><rect x="0" y="50" width="1100" height="385"/></clipPath><clipPath class="axesclip" id="clip877f8bxy"><rect x="60" y="50" width="1014" height="385"/></clipPath></g><g class="gradients"/><g class="patterns"/></defs><g class="bglayer"/><g class="layer-below"><g class="imagelayer"/><g class="shapelayer"/></g><g class="cartesianlayer"><g class="subplot xy"><g class="layer-subplot"><g class="shapelayer"/><g class="imagelayer"/></g><g class="minor-gridlayer"><g class="x"/><g class="y"/></g><g class="gridlayer"><g class="x"><path class="xgrid crisp" transform="translate(262.8,0)" d="M0,50v385" style="stroke: rgb(128, 128, 128); stroke-opacity: 0.15; stroke-width: 1px;"/><path class="xgrid crisp" transform="translate(465.6,0)" d="M0,50v385" style="stroke: rgb(128, 128, 128); stroke-opacity: 0.15; stroke-width: 1px;"/><path class="xgrid crisp" transform="translate(668.4,0)" d="M0,50v385" style="stroke: rgb(128, 128, 128); stroke-opacity: 0.15; stroke-width: 1px;"/><path class="xgrid crisp" transform="translate(871.2,0)" d="M0,50v385" style="stroke: rgb(128, 128, 128); stroke-opacity: 0.15; stroke-width: 1px;"/></g><g class="y"><path class="ygrid crisp" transform="translate(0,366.64)" d="M60,0h1014" style="stroke: rgb(128, 128, 128); stroke-opacity: 0.15; stroke-width: 1px;"/><path class="ygrid crisp" transform="translate(0,298.28)" d="M60,0h1014" style="stroke: rgb(128, 128, 128); stroke-opacity: 0.15; stroke-width: 1px;"/><path class="ygrid crisp" transform="translate(0,229.91)" d="M60,0h1014" style="stroke: rgb(128, 128, 128); stroke-opacity: 0.15; stroke-width: 1px;"/><path class="ygrid crisp" transform="translate(0,161.55)" d="M60,0h1014" style="stroke: rgb(128, 128, 128); stroke-opacity: 0.15; stroke-width: 1px;"/><path class="ygrid crisp" transform="translate(0,93.19)" d="M60,0h1014" style="stroke: rgb(128, 128, 128); stroke-opacity: 0.15; stroke-width: 1px;"/></g></g><g class="zerolinelayer"><path class="xzl zl crisp" transform="translate(60,0)" d="M0,50v385" style="stroke: rgb(128, 128, 128); stroke-opacity: 0.2; stroke-width: 1px;"/><path class="yzl zl crisp" transform="translate(0,435)" d="M60,0h1014" style="stroke: rgb(128, 128, 128); stroke-opacity: 0.2; stroke-width: 1px;"/></g><g class="layer-between"><g class="shapelayer"/><g class="imagelayer"/></g><path class="xlines-below"/><path class="ylines-below"/><g class="overlines-below"/><g class="xaxislayer-below"/><g class="yaxislayer-below"/><g class="overaxes-below"/><g class="overplot"><g class="xy" transform="translate(60,50)" clip-path="url(#clip877f8bxyplot)"><g class="scatterlayer mlayer"><g class="trace scatter trace34d88b" style="stroke-miterlimit: 2; opacity: 1;"><g class="fills"/><g class="errorbars"/><g class="lines"><path class="js-line" d="M0,385L111.54,384.23L121.68,383.76L141.96,382.66L152.1,381.53L172.38,378.66L182.52,376.64L202.8,371.67L212.94,368.31L243.36,357.08L253.5,352.02L273.78,341.93L283.92,337.13L334.62,309.98L344.76,305.81L375.18,295.45L385.32,291.36L405.6,281.61L415.74,277.75L436.02,265.7L446.16,261.66L466.44,252.64L476.58,247.55L486.72,244.39L496.86,244.36L517.14,244.62L527.28,247.7L547.56,254.78L557.7,259.93L577.98,271.78L588.12,276.01L608.4,285.46L618.54,289.93L628.68,293.78L638.82,298.5L648.96,303.85L659.1,307.79L679.38,317.63L689.52,322.95L719.94,341.67L730.08,348.96L740.22,355.01L750.36,359.87L770.64,369.12L780.78,372.97L801.06,378.26L811.2,380.09L831.48,382.62L841.62,383.31L882.18,384.71L892.32,384.83L1014,385" style="vector-effect: none; fill: none; stroke: rgb(92, 184, 92); stroke-opacity: 1; stroke-width: 2px; opacity: 1;"/></g><g class="points"/><g class="text"/></g><g class="trace scatter tracee02d23" style="stroke-miterlimit: 2; opacity: 1;"><g class="fills"/><g class="errorbars"/><g class="lines"><path class="js-line" d="M0,385L111.54,384.23L121.68,383.76L141.96,382.66L152.1,381.53L172.38,378.66L182.52,376.64L202.8,371.67L212.94,368.31L243.36,357.08L253.5,352.02L273.78,341.93L283.92,337.13L334.62,309.98L344.76,305.81L375.18,295.45L385.32,291.36L405.6,281.61L415.74,277.75L436.02,265.7L446.16,261.66L466.44,252.64L476.58,247.55L486.72,244.39L496.86,244.36L517.14,244.62L527.28,247.7L547.56,254.78L557.7,259.93L577.98,271.78L588.12,276.01L608.4,285.46L618.54,289.93L628.68,293.78L638.82,298.5L648.96,303.85L659.1,307.79L679.38,317.63L689.52,322.95L719.94,341.67L730.08,348.96L740.22,355.01L750.36,359.87L770.64,369.12L780.78,372.97L801.06,378.26L811.2,380.09L831.48,382.62L841.62,383.31L882.18,384.71L892.32,384.83L1014,385" style="vector-effect: none; fill: none; stroke: rgb(92, 184, 92); stroke-opacity: 1; stroke-width: 2px; opacity: 1;"/></g><g class="points"/><g class="text"/></g><g class="trace scatter tracebec678" style="stroke-miterlimit: 2; opacity: 1;"><g class="fills"/><g class="errorbars"/><g class="lines"><path class="js-line" d="M0,384.99L91.26,384.51L101.4,384.2L131.82,382.37L141.96,381.26L162.24,377.78L172.38,375.26L182.52,371.84L192.66,367.58L212.94,357.95L223.08,352.09L233.22,345.13L243.36,337.23L263.64,321.57L273.78,312.89L283.92,302.91L294.06,291.56L304.2,276.94L314.34,248.06L334.62,115.45L344.76,113.51L354.9,157.05L365.04,185.29L375.18,189.3L385.32,178.98L395.46,165.72L405.6,150.7L415.74,133.45L425.88,117.87L456.3,71.33L466.44,56.08L476.58,43.18L486.72,33.17L496.86,25.13L507,19.72L517.14,19.25L527.28,23.83L537.42,30.86L547.56,39.11L557.7,49.01L567.84,61.56L618.54,122.55L628.68,133.61L659.1,170.47L669.24,184.01L699.66,226.95L709.8,240.9L750.36,298.12L760.5,310.21L790.92,341.34L801.06,350.14L811.2,357.64L821.34,363.82L841.62,372.17L851.76,375.21L872.04,379.47L882.18,380.88L902.46,382.97L912.6,383.64L953.16,384.69L963.3,384.81L1014,384.97" style="vector-effect: none; fill: none; stroke: rgb(92, 184, 92); stroke-opacity: 1; stroke-width: 2px; opacity: 1;"/></g><g class="points"/><g class="text"/></g><g class="trace scatter trace50b864" style="stroke-miterlimit: 2; opacity: 1;"><g class="fills"/><g class="errorbars"/><g class="lines"><path class="js-line" d="M0,385L131.82,384.35L141.96,384.05L172.38,382.13L182.52,381.07L212.94,376.9L223.08,375.07L263.64,366.13L273.78,363.82L314.34,352.63L324.48,349.01L334.62,345.69L344.76,343.31L365.04,337.89L375.18,336.07L385.32,333.53L395.46,329.97L425.88,318.2L436.02,315.17L486.72,292.69L496.86,289.22L527.28,279.93L537.42,277.27L577.98,266.48L588.12,264.64L608.4,261.29L618.54,258.2L628.68,255.56L638.82,254.87L659.1,252.98L669.24,255.96L689.52,266.3L699.66,274.57L719.94,296.32L730.08,307.64L760.5,341.05L770.64,349.57L780.78,357.69L790.92,363.97L811.2,372.7L821.34,375.92L841.62,380.49L851.76,381.89L882.18,384.07L892.32,384.33L943.02,384.96L953.16,384.97L1014,385" style="vector-effect: none; fill: none; stroke: rgb(217, 83, 79); stroke-opacity: 1; stroke-width: 2px; opacity: 1;"/></g><g class="points"/><g class="text"/></g><g class="trace scatter trace74ede5" style="stroke-miterlimit: 2; opacity: 1;"><g class="fills"/><g class="errorbars"/><g class="lines"><path class="js-line" d="M0,385L1014,385" style="vector-effect: none; fill: none; stroke: rgb(217, 83, 79); stroke-opacity: 1; stroke-width: 2px; opacity: 1;"/></g><g class="points"/><g class="text"/></g></g></g></g><g class="zerolinelayer-above"/><path class="xlines-above crisp" d="M0,0" style="fill: none;"/><path class="ylines-above crisp" d="M0,0" style="fill: none;"/><g class="overlines-above"/><g class="xaxislayer-above"><g class="xtick"><text text-anchor="middle" x="0" y="451" transform="translate(60,0)" style="font-family: system-ui, -apple-system, 'Segoe UI', Roboto, 'Helvetica Neue', 'Noto Sans', 'Liberation Sans', Arial, sans-serif, 'Apple Color Emoji', 'Segoe UI Emoji', 'Segoe UI Symbol', 'Noto Color Emoji'; font-size: 10px; fill: rgb(80, 80, 80); fill-opacity: 1; white-space: pre;">0%</text></g><g class="xtick"><text text-anchor="middle" x="0" y="451" style="font-family: system-ui, -apple-system, 'Segoe UI', Roboto, 'Helvetica Neue', 'Noto Sans', 'Liberation Sans', Arial, sans-serif, 'Apple Color Emoji', 'Segoe UI Emoji', 'Segoe UI Symbol', 'Noto Color Emoji'; font-size: 10px; fill: rgb(80, 80, 80); fill-opacity: 1; white-space: pre;" transform="translate(262.8,0)">20%</text></g><g class="xtick"><text text-anchor="middle" x="0" y="451" style="font-family: system-ui, -apple-system, 'Segoe UI', Roboto, 'Helvetica Neue', 'Noto Sans', 'Liberation Sans', Arial, sans-serif, 'Apple Color Emoji', 'Segoe UI Emoji', 'Segoe UI Symbol', 'Noto Color Emoji'; font-size: 10px; fill: rgb(80, 80, 80); fill-opacity: 1; white-space: pre;" transform="translate(465.6,0)">40%</text></g><g class="xtick"><text text-anchor="middle" x="0" y="451" style="font-family: system-ui, -apple-system, 'Segoe UI', Roboto, 'Helvetica Neue', 'Noto Sans', 'Liberation Sans', Arial, sans-serif, 'Apple Color Emoji', 'Segoe UI Emoji', 'Segoe UI Symbol', 'Noto Color Emoji'; font-size: 10px; fill: rgb(80, 80, 80); fill-opacity: 1; white-space: pre;" transform="translate(668.4,0)">60%</text></g><g class="xtick"><text text-anchor="middle" x="0" y="451" style="font-family: system-ui, -apple-system, 'Segoe UI', Roboto, 'Helvetica Neue', 'Noto Sans', 'Liberation Sans', Arial, sans-serif, 'Apple Color Emoji', 'Segoe UI Emoji', 'Segoe UI Symbol', 'Noto Color Emoji'; font-size: 10px; fill: rgb(80, 80, 80); fill-opacity: 1; white-space: pre;" transform="translate(871.2,0)">80%</text></g><g class="xtick"><text text-anchor="middle" x="0" y="451" style="font-family: system-ui, -apple-system, 'Segoe UI', Roboto, 'Helvetica Neue', 'Noto Sans', 'Liberation Sans', Arial, sans-serif, 'Apple Color Emoji', 'Segoe UI Emoji', 'Segoe UI Symbol', 'Noto Color Emoji'; font-size: 10px; fill: rgb(80, 80, 80); fill-opacity: 1; white-space: pre;" transform="translate(1074,0)">100%</text></g></g><g class="yaxislayer-above"><g class="ytick"><text text-anchor="end" x="54" y="3.5" transform="translate(0,435)" style="font-family: system-ui, -apple-system, 'Segoe UI', Roboto, 'Helvetica Neue', 'Noto Sans', 'Liberation Sans', Arial, sans-serif, 'Apple Color Emoji', 'Segoe UI Emoji', 'Segoe UI Symbol', 'Noto Color Emoji'; font-size: 10px; fill: rgb(80, 80, 80); fill-opacity: 1; white-space: pre;">0</text></g><g class="ytick"><text text-anchor="end" x="54" y="3.5" style="font-family: system-ui, -apple-system, 'Segoe UI', Roboto, 'Helvetica Neue', 'Noto Sans', 'Liberation Sans', Arial, sans-serif, 'Apple Color Emoji', 'Segoe UI Emoji', 'Segoe UI Symbol', 'Noto Color Emoji'; font-size: 10px; fill: rgb(80, 80, 80); fill-opacity: 1; white-space: pre;" transform="translate(0,366.64)">10k</text></g><g class="ytick"><text text-anchor="end" x="54" y="3.5" style="font-family: system-ui, -apple-system, 'Segoe UI', Roboto, 'Helvetica Neue', 'Noto Sans', 'Liberation Sans', Arial, sans-serif, 'Apple Color Emoji', 'Segoe UI Emoji', 'Segoe UI Symbol', 'Noto Color Emoji'; font-size: 10px; fill: rgb(80, 80, 80); fill-opacity: 1; white-space: pre;" transform="translate(0,298.28)">20k</text></g><g class="ytick"><text text-anchor="end" x="54" y="3.5" style="font-family: system-ui, -apple-system, 'Segoe UI', Roboto, 'Helvetica Neue', 'Noto Sans', 'Liberation Sans', Arial, sans-serif, 'Apple Color Emoji', 'Segoe UI Emoji', 'Segoe UI Symbol', 'Noto Color Emoji'; font-size: 10px; fill: rgb(80, 80, 80); fill-opacity: 1; white-space: pre;" transform="translate(0,229.91)">30k</text></g><g class="ytick"><text text-anchor="end" x="54" y="3.5" style="font-family: system-ui, -apple-system, 'Segoe UI', Roboto, 'Helvetica Neue', 'Noto Sans', 'Liberation Sans', Arial, sans-serif, 'Apple Color Emoji', 'Segoe UI Emoji', 'Segoe UI Symbol', 'Noto Color Emoji'; font-size: 10px; fill: rgb(80, 80, 80); fill-opacity: 1; white-space: pre;" transform="translate(0,161.55)">40k</text></g><g class="ytick"><text text-anchor="end" x="54" y="3.5" style="font-family: system-ui, -apple-system, 'Segoe UI', Roboto, 'Helvetica Neue', 'Noto Sans', 'Liberation Sans', Arial, sans-serif, 'Apple Color Emoji', 'Segoe UI Emoji', 'Segoe UI Symbol', 'Noto Color Emoji'; font-size: 10px; fill: rgb(80, 80, 80); fill-opacity: 1; white-space: pre;" transform="translate(0,93.19)">50k</text></g></g><g class="overaxes-above"/></g></g><g class="polarlayer"/><g class="smithlayer"/><g class="ternarylayer"/><g class="geolayer"/><g class="funnelarealayer"/><g class="pielayer"/><g class="iciclelayer"/><g class="treemaplayer"/><g class="sunburstlayer"/><g class="glimages"/><defs id="topdefs-877f8b"><g class="clips"/></defs><g class="layer-above"><g class="imagelayer"/><g class="shapelayer"/></g><g class="infolayer"><g class="g-gtitle"><text class="gtitle" x="550" y="25" text-anchor="middle" dy="0em" style="opacity: 1; font-family: system-ui, -apple-system, 'Segoe UI', Roboto, 'Helvetica Neue', 'Noto Sans', 'Liberation Sans', Arial, sans-serif, 'Apple Color Emoji', 'Segoe UI Emoji', 'Segoe UI Symbol', 'Noto Color Emoji'; font-size: 20px; fill: rgb(60, 60, 60); fill-opacity: 1; white-space: pre;"><tspan class="line" dy="0em" x="550" y="25">FastQC: Per Sequence GC Content</tspan><tspan class="line" dy="1.3em" x="550" y="25">​<tspan style="font-size:70%" dy="-0.6em">Counts, 5 lines</tspan><tspan dy="0.42em">​</tspan></tspan></text></g><g class="g-xtitle"><text class="xtitle" x="567" y="487" text-anchor="middle" style="opacity: 1; font-family: system-ui, -apple-system, 'Segoe UI', Roboto, 'Helvetica Neue', 'Noto Sans', 'Liberation Sans', Arial, sans-serif, 'Apple Color Emoji', 'Segoe UI Emoji', 'Segoe UI Symbol', 'Noto Color Emoji'; font-size: 14px; fill: rgb(100, 100, 100); fill-opacity: 1; white-space: pre;">% GC</text></g><g class="g-ytitle"><text class="ytitle" transform="rotate(-90,22,242.5)" x="22" y="242.5" text-anchor="middle" style="opacity: 1; font-family: system-ui, -apple-system, 'Segoe UI', Roboto, 'Helvetica Neue', 'Noto Sans', 'Liberation Sans', Arial, sans-serif, 'Apple Color Emoji', 'Segoe UI Emoji', 'Segoe UI Symbol', 'Noto Color Emoji'; font-size: 14px; fill: rgb(100, 100, 100); fill-opacity: 1; white-space: pre;">Count</text></g></g></svg>