<svg class="main-svg" xmlns="http://www.w3.org/2000/svg" xmlns:xlink="http://www.w3.org/1999/xlink" width="2200" height="1000" style="" viewBox="0 0 1100 500"><rect x="0" y="0" width="1100" height="500" style="fill: rgb(255, 255, 255); fill-opacity: 1;"/><defs id="defs-db09e8"><g class="clips"><clipPath id="clipdb09e8xyplot" class="plotclip"><rect width="1025" height="385"/></clipPath><clipPath class="axesclip" id="clipdb09e8x"><rect x="60" y="0" width="1025" height="500"/></clipPath><clipPath class="axesclip" id="clipdb09e8y"><rect x="0" y="50" width="1100" height="385"/></clipPath><clipPath class="axesclip" id="clipdb09e8xy"><rect x="60" y="50" width="1025" height="385"/></clipPath></g><g class="gradients"/><g class="patterns"/></defs><g class="bglayer"/><g class="layer-below"><g class="imagelayer"/><g class="shapelayer"/></g><g class="cartesianlayer"><g class="subplot xy"><g class="layer-subplot"><g class="shapelayer"/><g class="imagelayer"/></g><g class="minor-gridlayer"><g class="x"/><g class="y"/></g><g class="gridlayer"><g class="x"><path class="xgrid crisp" transform="translate(246.02,0)" d="M0,50v385" style="stroke: rgb(128, 128, 128); stroke-opacity: 0.15; stroke-width: 1px;"/><path class="xgrid crisp" transform="translate(435.83,0)" d="M0,50v385" style="stroke: rgb(128, 128, 128); stroke-opacity: 0.15; stroke-width: 1px;"/><path class="xgrid crisp" transform="translate(625.65,0)" d="M0,50v385" style="stroke: rgb(128, 128, 128); stroke-opacity: 0.15; stroke-width: 1px;"/><path class="xgrid crisp" transform="translate(815.46,0)" d="M0,50v385" style="stroke: rgb(128, 128, 128); stroke-opacity: 0.15; stroke-width: 1px;"/><path class="xgrid crisp" transform="translate(1005.28,0)" d="M0,50v385" style="stroke: rgb(128, 128, 128); stroke-opacity: 0.15; stroke-width: 1px;"/></g><g class="y"><path class="ygrid crisp" transform="translate(0,385.98)" d="M60,0h1025" style="stroke: rgb(128, 128, 128); stroke-opacity: 0.15; stroke-width: 1px;"/><path class="ygrid crisp" transform="translate(0,336.97)" d="M60,0h1025" style="stroke: rgb(128, 128, 128); stroke-opacity: 0.15; stroke-width: 1px;"/><path class="ygrid crisp" transform="translate(0,287.95)" d="M60,0h1025" style="stroke: rgb(128, 128, 128); stroke-opacity: 0.15; stroke-width: 1px;"/><path class="ygrid crisp" transform="translate(0,238.93)" d="M60,0h1025" style="stroke: rgb(128, 128, 128); stroke-opacity: 0.15; stroke-width: 1px;"/><path class="ygrid crisp" transform="translate(0,189.92)" d="M60,0h1025" style="stroke: rgb(128, 128, 128); stroke-opacity: 0.15; stroke-width: 1px;"/><path class="ygrid crisp" transform="translate(0,140.9)" d="M60,0h1025" style="stroke: rgb(128, 128, 128); stroke-opacity: 0.15; stroke-width: 1px;"/><path class="ygrid crisp" transform="translate(0,91.89)" d="M60,0h1025" style="stroke: rgb(128, 128, 128); stroke-opacity: 0.15; stroke-width: 1px;"/></g></g><g class="zerolinelayer"><path class="yzl zl crisp" transform="translate(0,435)" d="M60,0h1025" style="stroke: rgb(128, 128, 128); stroke-opacity: 0.2; stroke-width: 1px;"/></g><g class="layer-between"><g class="shapelayer"/><g class="imagelayer"/></g><path class="xlines-below"/><path class="ylines-below"/><g class="overlines-below"/><g class="xaxislayer-below"/><g class="yaxislayer-below"/><g class="overaxes-below"/><g class="overplot"><g class="xy" transform="translate(60,50)" clip-path="url(#clipdb09e8xyplot)"><g class="scatterlayer mlayer"><g class="trace scatter tracebf8c2b" style="stroke-miterlimit: 2; opacity: 1;"><g class="fills"/><g class="errorbars"/><g class="lines"><path class="js-line" d="M0,55.58L15.19,54.57L18.98,19.28L22.78,19.25L26.57,20.75L30.37,20.85L34.17,21.72L37.96,20.65L41.76,21.12L45.56,22.04L49.35,21.63L56.94,21.39L60.74,21.42L64.54,21.91L68.33,21.37L79.72,21.71L83.52,22.47L91.11,21.89L94.91,22.45L98.7,23.49L102.5,22.36L129.07,23.62L132.87,22.74L136.67,22.33L140.46,23.01L151.85,23.23L155.65,23.65L170.83,23.03L174.63,24.13L178.43,22.94L182.22,23.99L186.02,23.39L189.81,23.65L197.41,23.1L201.2,24.19L208.8,23.4L212.59,23.41L216.39,22.82L220.19,23.97L227.78,23.12L231.57,24.09L235.37,23.73L239.17,24.14L273.33,24.11L277.13,24.28L280.93,24.85L284.72,23.38L303.7,23.24L307.5,23.66L315.09,23.77L318.89,23.07L322.69,23.85L326.48,23.25L337.87,22.86L341.67,23.17L345.46,23.42L349.26,22.45L356.85,23.38L360.65,22.31L368.24,23.04L372.04,22.22L375.83,21.71L379.63,22.74L387.22,23.03L391.02,22.85L394.81,22.54L398.61,23.25L410,22.32L413.8,23.26L417.59,23.43L421.39,22.68L428.98,24.13L432.78,23.8L440.37,22.87L444.17,24.38L451.76,24.67L455.56,24.28L459.35,25.94L463.15,25.48L466.94,24.16L470.74,24.6L485.93,23.46L489.72,24.69L497.31,24.04L501.11,24.1L516.3,25.55L520.09,26.93L527.69,28.61L531.48,29.81L539.07,34.06L542.87,35.52L550.46,42.84L554.26,46.42L561.85,52.17L565.65,55.44L569.44,77.08L573.24,27.94L580.83,28.07L584.63,28.02L596.02,28.16L599.81,28L630.19,28.52L633.98,28.41L645.37,28.4L649.17,28.48L698.52,28.71L702.31,28.82L728.89,29.24L732.69,28.92L747.87,29.41L751.67,29.42L778.24,29.53L782.04,29.73L789.63,29.68L793.43,29.78L801.02,29.68L804.81,29.97L903.52,32.13L907.31,32.58L918.7,32.5L922.5,32.97L945.28,34.32L949.07,34.85L960.46,36.27L964.26,37.15L979.44,39.11L983.24,40.75L990.83,43.62L994.63,45.44L1002.22,50.2L1006.02,54.61L1009.81,60.58L1013.61,59.76L1017.41,59.25L1021.2,59.7L1025,59.74" style="vector-effect: none; fill: none; stroke: rgb(124, 181, 236); stroke-opacity: 1; stroke-width: 2px; opacity: 1;"/></g><g class="points"/><g class="text"/></g><g class="trace scatter tracea7f90b" style="stroke-miterlimit: 2; opacity: 1;"><g class="fills"/><g class="errorbars"/><g class="lines"><path class="js-line" d="M0,55.58L15.19,54.57L18.98,19.28L22.78,19.25L26.57,20.75L30.37,20.85L34.17,21.72L37.96,20.65L41.76,21.12L45.56,22.04L49.35,21.63L56.94,21.39L60.74,21.42L64.54,21.91L68.33,21.37L79.72,21.71L83.52,22.47L91.11,21.89L94.91,22.45L98.7,23.49L102.5,22.36L129.07,23.62L132.87,22.74L136.67,22.33L140.46,23.01L151.85,23.23L155.65,23.65L170.83,23.03L174.63,24.13L178.43,22.94L182.22,23.99L186.02,23.39L189.81,23.65L197.41,23.1L201.2,24.19L208.8,23.4L212.59,23.41L216.39,22.82L220.19,23.97L227.78,23.12L231.57,24.09L235.37,23.73L239.17,24.14L273.33,24.11L277.13,24.28L280.93,24.85L284.72,23.38L303.7,23.24L307.5,23.66L315.09,23.77L318.89,23.07L322.69,23.85L326.48,23.25L337.87,22.86L341.67,23.17L345.46,23.42L349.26,22.45L356.85,23.38L360.65,22.31L368.24,23.04L372.04,22.22L375.83,21.71L379.63,22.74L387.22,23.03L391.02,22.85L394.81,22.54L398.61,23.25L410,22.32L413.8,23.26L417.59,23.43L421.39,22.68L428.98,24.13L432.78,23.8L440.37,22.87L444.17,24.38L451.76,24.67L455.56,24.28L459.35,25.94L463.15,25.48L466.94,24.16L470.74,24.6L485.93,23.46L489.72,24.69L497.31,24.04L501.11,24.1L516.3,25.55L520.09,26.93L527.69,28.61L531.48,29.81L539.07,34.06L542.87,35.52L550.46,42.84L554.26,46.42L561.85,52.17L565.65,55.44L569.44,77.08L573.24,27.94L580.83,28.07L584.63,28.02L596.02,28.16L599.81,28L630.19,28.52L633.98,28.41L645.37,28.4L649.17,28.48L698.52,28.71L702.31,28.82L728.89,29.24L732.69,28.92L747.87,29.41L751.67,29.42L778.24,29.53L782.04,29.73L789.63,29.68L793.43,29.78L801.02,29.68L804.81,29.97L903.52,32.13L907.31,32.58L918.7,32.5L922.5,32.97L945.28,34.32L949.07,34.85L960.46,36.27L964.26,37.15L979.44,39.11L983.24,40.75L990.83,43.62L994.63,45.44L1002.22,50.2L1006.02,54.61L1009.81,60.58L1013.61,59.76L1017.41,59.25L1021.2,59.7L1025,59.74" style="vector-effect: none; fill: none; stroke: rgb(67, 67, 72); stroke-opacity: 1; stroke-width: 2px; opacity: 1;"/></g><g class="points"/><g class="text"/></g><g class="trace scatter trace0d1147" style="stroke-miterlimit: 2; opacity: 1;"><g class="fills"/><g class="errorbars"/><g class="lines"><path class="js-line" d="M0,55.89L15.19,54.76L18.98,19.95L22.78,19.97L26.57,21.44L30.37,21.46L34.17,22.42L37.96,21.23L41.76,21.54L45.56,22.54L49.35,22.24L56.94,21.89L60.74,21.95L64.54,22.44L68.33,21.84L79.72,22.27L83.52,23.15L87.31,22.38L91.11,22.47L98.7,24.06L102.5,22.93L129.07,24.13L132.87,23.15L136.67,22.75L140.46,23.45L151.85,23.64L155.65,24.07L170.83,23.28L174.63,24.51L178.43,23.2L182.22,24.38L186.02,23.56L189.81,23.84L197.41,23.26L201.2,24.37L216.39,23.03L220.19,24.2L227.78,23.32L231.57,24.26L235.37,23.83L239.17,24.44L269.54,23.91L273.33,24.33L280.93,25.11L284.72,23.61L303.7,23.34L307.5,23.88L315.09,23.96L318.89,23.19L322.69,24.05L326.48,23.37L341.67,23.35L345.46,23.59L349.26,22.71L353.06,23.34L356.85,23.55L360.65,22.41L368.24,23.08L372.04,22.51L375.83,21.94L379.63,22.97L387.22,23.36L391.02,23.29L394.81,22.82L398.61,23.57L410,22.57L413.8,23.5L417.59,24.01L421.39,23.09L428.98,24.65L432.78,24.27L440.37,23.25L444.17,24.93L451.76,25.3L455.56,24.81L459.35,26.31L463.15,26.05L466.94,24.71L470.74,25.23L478.33,24.49L482.13,23.61L485.93,24.03L489.72,25.38L497.31,24.75L501.11,24.76L516.3,26.28L520.09,27.74L527.69,29.34L531.48,30.84L535.28,33.44L539.07,34.99L542.87,36.57L546.67,40.4L554.26,48.16L558.06,50.93L565.65,57.71L569.44,81.21L573.24,29.29L577.04,29.53L607.41,29.45L611.2,29.65L660.56,29.68L664.35,29.62L690.93,30.15L694.72,30.05L747.87,30.42L751.67,31.07L759.26,30.75L763.06,30.7L782.04,31.05L785.83,30.62L797.22,31.09L801.02,31.06L854.17,31.87L857.96,31.47L865.56,32.49L869.35,31.95L873.15,32.69L876.94,32.42L895.93,33.02L899.72,33.25L914.91,34.12L918.7,34.56L933.89,34.46L937.69,35.29L952.87,36.46L956.67,37.71L960.46,37.5L964.26,38.17L968.06,39.15L971.85,39.33L987.04,43.16L990.83,44.92L994.63,46.48L998.43,49.25L1006.02,54.74L1009.81,61.67L1017.41,60.61L1021.2,61.93L1025,61.82" style="vector-effect: none; fill: none; stroke: rgb(144, 237, 125); stroke-opacity: 1; stroke-width: 2px; opacity: 1;"/></g><g class="points"/><g class="text"/></g></g></g></g><g class="zerolinelayer-above"/><path class="xlines-above crisp" d="M0,0" style="fill: none;"/><path class="ylines-above crisp" d="M0,0" style="fill: none;"/><g class="overlines-above"/><g class="xaxislayer-above"><g class="xtick"><text text-anchor="middle" x="0" y="451" transform="translate(246.02,0)" style="font-family: system-ui, -apple-system, 'Segoe UI', Roboto, 'Helvetica Neue', 'Noto Sans', 'Liberation Sans', Arial, sans-serif, 'Apple Color Emoji', 'Segoe UI Emoji', 'Segoe UI Symbol', 'Noto Color Emoji'; font-size: 10px; fill: rgb(80, 80, 80); fill-opacity: 1; white-space: pre;">50</text></g><g class="xtick"><text text-anchor="middle" x="0" y="451" style="font-family: system-ui, -apple-system, 'Segoe UI', Roboto, 'Helvetica Neue', 'Noto Sans', 'Liberation Sans', Arial, sans-serif, 'Apple Color Emoji', 'Segoe UI Emoji', 'Segoe UI Symbol', 'Noto Color Emoji'; font-size: 10px; fill: rgb(80, 80, 80); fill-opacity: 1; white-space: pre;" transform="translate(435.83,0)">100</text></g><g class="xtick"><text text-anchor="middle" x="0" y="451" style="font-family: system-ui, -apple-system, 'Segoe UI', Roboto, 'Helvetica Neue', 'Noto Sans', 'Liberation Sans', Arial, sans-serif, 'Apple Color Emoji', 'Segoe UI Emoji', 'Segoe UI Symbol', 'Noto Color Emoji'; font-size: 10px; fill: rgb(80, 80, 80); fill-opacity: 1; white-space: pre;" transform="translate(625.65,0)">150</text></g><g class="xtick"><text text-anchor="middle" x="0" y="451" style="font-family: system-ui, -apple-system, 'Segoe UI', Roboto, 'Helvetica Neue', 'Noto Sans', 'Liberation Sans', Arial, sans-serif, 'Apple Color Emoji', 'Segoe UI Emoji', 'Segoe UI Symbol', 'Noto Color Emoji'; font-size: 10px; fill: rgb(80, 80, 80); fill-opacity: 1; white-space: pre;" transform="translate(815.46,0)">200</text></g><g class="xtick"><text text-anchor="middle" x="0" y="451" style="font-family: system-ui, -apple-system, 'Segoe UI', Roboto, 'Helvetica Neue', 'Noto Sans', 'Liberation Sans', Arial, sans-serif, 'Apple Color Emoji', 'Segoe UI Emoji', 'Segoe UI Symbol', 'Noto Color Emoji'; font-size: 10px; fill: rgb(80, 80, 80); fill-opacity: 1; white-space: pre;" transform="translate(1005.28,0)">250</text></g></g><g class="yaxislayer-above"><g class="ytick"><text text-anchor="end" x="54" y="3.5" transform="translate(0,435)" style="font-family: system-ui, -apple-system, 'Segoe UI', Roboto, 'Helvetica Neue', 'Noto Sans', 'Liberation Sans', Arial, sans-serif, 'Apple Color Emoji', 'Segoe UI Emoji', 'Segoe UI Symbol', 'Noto Color Emoji'; font-size: 10px; fill: rgb(80, 80, 80); fill-opacity: 1; white-space: pre;">0</text></g><g class="ytick"><text text-anchor="end" x="54" y="3.5" style="font-family: system-ui, -apple-system, 'Segoe UI', Roboto, 'Helvetica Neue', 'Noto Sans', 'Liberation Sans', Arial, sans-serif, 'Apple Color Emoji', 'Segoe UI Emoji', 'Segoe UI Symbol', 'Noto Color Emoji'; font-size: 10px; fill: rgb(80, 80, 80); fill-opacity: 1; white-space: pre;" transform="translate(0,385.98)">5</text></g><g class="ytick"><text text-anchor="end" x="54" y="3.5" style="font-family: system-ui, -apple-system, 'Segoe UI', Roboto, 'Helvetica Neue', 'Noto Sans', 'Liberation Sans', Arial, sans-serif, 'Apple Color Emoji', 'Segoe UI Emoji', 'Segoe UI Symbol', 'Noto Color Emoji'; font-size: 10px; fill: rgb(80, 80, 80); fill-opacity: 1; white-space: pre;" transform="translate(0,336.97)">10</text></g><g class="ytick"><text text-anchor="end" x="54" y="3.5" style="font-family: system-ui, -apple-system, 'Segoe UI', Roboto, 'Helvetica Neue', 'Noto Sans', 'Liberation Sans', Arial, sans-serif, 'Apple Color Emoji', 'Segoe UI Emoji', 'Segoe UI Symbol', 'Noto Color Emoji'; font-size: 10px; fill: rgb(80, 80, 80); fill-opacity: 1; white-space: pre;" transform="translate(0,287.95)">15</text></g><g class="ytick"><text text-anchor="end" x="54" y="3.5" style="font-family: system-ui, -apple-system, 'Segoe UI', Roboto, 'Helvetica Neue', 'Noto Sans', 'Liberation Sans', Arial, sans-serif, 'Apple Color Emoji', 'Segoe UI Emoji', 'Segoe UI Symbol', 'Noto Color Emoji'; font-size: 10px; fill: rgb(80, 80, 80); fill-opacity: 1; white-space: pre;" transform="translate(0,238.93)">20</text></g><g class="ytick"><text text-anchor="end" x="54" y="3.5" style="font-family: system-ui, -apple-system, 'Segoe UI', Roboto, 'Helvetica Neue', 'Noto Sans', 'Liberation Sans', Arial, sans-serif, 'Apple Color Emoji', 'Segoe UI Emoji', 'Segoe UI Symbol', 'Noto Color Emoji'; font-size: 10px; fill: rgb(80, 80, 80); fill-opacity: 1; white-space: pre;" transform="translate(0,189.92)">25</text></g><g class="ytick"><text text-anchor="end" x="54" y="3.5" style="font-family: system-ui, -apple-system, 'Segoe UI', Roboto, 'Helvetica Neue', 'Noto Sans', 'Liberation Sans', Arial, sans-serif, 'Apple Color Emoji', 'Segoe UI Emoji', 'Segoe UI Symbol', 'Noto Color Emoji'; font-size: 10px; fill: rgb(80, 80, 80); fill-opacity: 1; white-space: pre;" transform="translate(0,140.9)">30</text></g><g class="ytick"><text text-anchor="end" x="54" y="3.5" style="font-family: system-ui, -apple-system, 'Segoe UI', Roboto, 'Helvetica Neue', 'Noto Sans', 'Liberation Sans', Arial, sans-serif, 'Apple Color Emoji', 'Segoe UI Emoji', 'Segoe UI Symbol', 'Noto Color Emoji'; font-size: 10px; fill: rgb(80, 80, 80); fill-opacity: 1; white-space: pre;" transform="translate(0,91.89)">35</text></g></g><g class="overaxes-above"/></g></g><g class="polarlayer"/><g class="smithlayer"/><g class="ternarylayer"/><g class="geolayer"/><g class="funnelarealayer"/><g class="pielayer"/><g class="iciclelayer"/><g class="treemaplayer"/><g class="sunburstlayer"/><g class="glimages"/><defs id="topdefs-db09e8"><g class="clips"/></defs><g class="layer-above"><g class="imagelayer"/><g class="shapelayer"/></g><g class="infolayer"><g class="g-gtitle"><text class="gtitle" x="550" y="25" text-anchor="middle" dy="0em" style="opacity: 1; font-family: system-ui, -apple-system, 'Segoe UI', Roboto, 'Helvetica Neue', 'Noto Sans', 'Liberation Sans', Arial, sans-serif, 'Apple Color Emoji', 'Segoe UI Emoji', 'Segoe UI Symbol', 'Noto Color Emoji'; font-size: 20px; fill: rgb(60, 60, 60); fill-opacity: 1; white-space: pre;"><tspan class="line" dy="0em" x="550" y="25">Fastp: Sequence Quality</tspan><tspan class="line" dy="1.3em" x="550" y="25">​<tspan style="font-size:70%" dy="-0.6em">Merged and filtered, 3 lines</tspan><tspan dy="0.42em">​</tspan></tspan></text></g><g class="g-xtitle"><text class="xtitle" x="572.5" y="487" text-anchor="middle" style="opacity: 1; font-family: system-ui, -apple-system, 'Segoe UI', Roboto, 'Helvetica Neue', 'Noto Sans', 'Liberation Sans', Arial, sans-serif, 'Apple Color Emoji', 'Segoe UI Emoji', 'Segoe UI Symbol', 'Noto Color Emoji'; font-size: 14px; fill: rgb(100, 100, 100); fill-opacity: 1; white-space: pre;">Read Position</text></g><g class="g-ytitle"><text class="ytitle" transform="rotate(-90,22,242.5)" x="22" y="242.5" text-anchor="middle" style="opacity: 1; font-family: system-ui, -apple-system, 'Segoe UI', Roboto, 'Helvetica Neue', 'Noto Sans', 'Liberation Sans', Arial, sans-serif, 'Apple Color Emoji', 'Segoe UI Emoji', 'Segoe UI Symbol', 'Noto Color Emoji'; font-size: 14px; fill: rgb(100, 100, 100); fill-opacity: 1; white-space: pre;">Sequence Quality</text></g></g></svg>