<svg class="main-svg" xmlns="http://www.w3.org/2000/svg" xmlns:xlink="http://www.w3.org/1999/xlink" width="2200" height="1000" style="" viewBox="0 0 1100 500"><rect x="0" y="0" width="1100" height="500" style="fill: rgb(255, 255, 255); fill-opacity: 1;"/><defs id="defs-74951a"><g class="clips"><clipPath id="clip74951axyplot" class="plotclip"><rect width="1025" height="385"/></clipPath><clipPath class="axesclip" id="clip74951ax"><rect x="60" y="0" width="1025" height="500"/></clipPath><clipPath class="axesclip" id="clip74951ay"><rect x="0" y="50" width="1100" height="385"/></clipPath><clipPath class="axesclip" id="clip74951axy"><rect x="60" y="50" width="1025" height="385"/></clipPath></g><g class="gradients"/><g class="patterns"/></defs><g class="bglayer"/><g class="layer-below"><g class="imagelayer"/><g class="shapelayer"/></g><g class="cartesianlayer"><g class="subplot xy"><g class="layer-subplot"><g class="shapelayer"/><g class="imagelayer"/></g><g class="minor-gridlayer"><g class="x"/><g class="y"/></g><g class="gridlayer"><g class="x"><path class="xgrid crisp" transform="translate(189.83,0)" d="M0,50v385" style="stroke: rgb(128, 128, 128); stroke-opacity: 0.15; stroke-width: 1px;"/><path class="xgrid crisp" transform="translate(326.5,0)" d="M0,50v385" style="stroke: rgb(128, 128, 128); stroke-opacity: 0.15; stroke-width: 1px;"/><path class="xgrid crisp" transform="translate(463.17,0)" d="M0,50v385" style="stroke: rgb(128, 128, 128); stroke-opacity: 0.15; stroke-width: 1px;"/><path class="xgrid crisp" transform="translate(599.83,0)" d="M0,50v385" style="stroke: rgb(128, 128, 128); stroke-opacity: 0.15; stroke-width: 1px;"/><path class="xgrid crisp" transform="translate(736.5,0)" d="M0,50v385" style="stroke: rgb(128, 128, 128); stroke-opacity: 0.15; stroke-width: 1px;"/><path class="xgrid crisp" transform="translate(873.17,0)" d="M0,50v385" style="stroke: rgb(128, 128, 128); stroke-opacity: 0.15; stroke-width: 1px;"/><path class="xgrid crisp" transform="translate(1009.83,0)" d="M0,50v385" style="stroke: rgb(128, 128, 128); stroke-opacity: 0.15; stroke-width: 1px;"/></g><g class="y"><path class="ygrid crisp" transform="translate(0,358)" d="M60,0h1025" style="stroke: rgb(128, 128, 128); stroke-opacity: 0.15; stroke-width: 1px;"/><path class="ygrid crisp" transform="translate(0,281)" d="M60,0h1025" style="stroke: rgb(128, 128, 128); stroke-opacity: 0.15; stroke-width: 1px;"/><path class="ygrid crisp" transform="translate(0,204)" d="M60,0h1025" style="stroke: rgb(128, 128, 128); stroke-opacity: 0.15; stroke-width: 1px;"/><path class="ygrid crisp" transform="translate(0,127)" d="M60,0h1025" style="stroke: rgb(128, 128, 128); stroke-opacity: 0.15; stroke-width: 1px;"/></g></g><g class="zerolinelayer"><path class="yzl zl crisp" transform="translate(0,435)" d="M60,0h1025" style="stroke: rgb(128, 128, 128); stroke-opacity: 0.2; stroke-width: 1px;"/></g><g class="layer-between"><g class="shapelayer"/><g class="imagelayer"/></g><path class="xlines-below"/><path class="ylines-below"/><g class="overlines-below"/><g class="xaxislayer-below"/><g class="yaxislayer-below"/><g class="overaxes-below"/><g class="overplot"><g class="xy" transform="translate(60,50)" clip-path="url(#clip74951axyplot)"><g class="scatterlayer mlayer"><g class="trace scatter trace729a5d" style="stroke-miterlimit: 2; opacity: 1;"><g class="fills"/><g class="errorbars"/><g class="lines"><path class="js-line" d="M0,181.93L6.83,143.25L13.67,166.65L20.5,186.98L27.33,195.99L34.17,203.38L41,203.78L47.83,202.93L54.67,203.38L61.5,200.27L68.33,199.18L75.17,202.25L82,200L88.83,199.83L95.67,201.61L102.5,199.96L109.33,199.52L116.17,202.34L123,200.26L129.83,199.42L136.67,201.99L143.5,199.79L150.33,199.35L157.17,201.74L164,199.85L170.83,199.86L177.67,202.22L184.5,200.65L191.33,200.19L198.17,202.36L205,200.35L211.83,199.57L218.67,201.85L225.5,199.91L232.33,199.77L239.17,202.39L246,200.03L252.83,199.62L259.67,201.42L266.5,199.12L273.33,198.95L280.17,199.62L287,198.25L293.83,197.48L300.67,198.65L307.5,196.98L314.33,196.66L321.17,198.35L328,196.4L334.83,195.88L341.67,197.48L348.5,196.45L355.33,196.76L362.17,197.8L369,196.11L375.83,195.92L382.67,197.01L389.5,195.69L396.33,196.04L403.17,197.68L410,195.82L416.83,195.46L423.67,196.69L437.33,194.62L444.17,195.79L451,193.75L457.83,193.09L464.67,194.79L471.5,193.56L478.33,193.19L485.17,194.6L492,193.54L498.83,193.25L505.67,194.4L512.5,193.35L526.17,193.92L533,193.16L539.83,192.46L546.67,193.71L560.33,191.37L567.17,192.06L574,190.48L580.83,189.77L587.67,190.61L594.5,188.29L601.33,188.21L608.17,189.35L615,187.62L621.83,187.68L628.67,188.65L635.5,187.88L642.33,187.68L649.17,189.67L656,189.12L662.83,190.05L669.67,192.23L676.5,192.55L683.33,192.85L690.17,195.5L703.83,197.01L710.67,198.95L724.33,201.47L731.17,203.01L744.83,205.09L751.67,207.19L758.5,207.3L765.33,208.37L772.17,210.4L779,211.34L785.83,211.93L792.67,213.71L806.33,215.05L813.17,217L826.83,217.54L833.67,219.48L847.33,220.62L854.17,222.42L861,222.18L867.83,223.68L874.67,224.97L881.5,225.32L888.33,225.78L895.17,227.26L908.83,228.4L915.67,229.67L922.5,230.41L929.33,230.39L936.17,232.35L943,232.76L949.83,233.03L956.67,234.55L963.5,235.12L970.33,234.26L977.17,237.48L984,237.94L1011.33,242.67L1018.17,244.45L1025,252.18" style="vector-effect: none; fill: none; stroke: rgb(124, 181, 236); stroke-opacity: 1; stroke-width: 2px; opacity: 1;"/></g><g class="points"/><g class="text"/></g><g class="trace scatter trace690830" style="stroke-miterlimit: 2; opacity: 1;"><g class="fills"/><g class="errorbars"/><g class="lines"><path class="js-line" d="M0,181.93L6.83,143.25L13.67,166.65L20.5,186.98L27.33,195.99L34.17,203.38L41,203.78L47.83,202.93L54.67,203.38L61.5,200.27L68.33,199.18L75.17,202.25L82,200L88.83,199.83L95.67,201.61L102.5,199.96L109.33,199.52L116.17,202.34L123,200.26L129.83,199.42L136.67,201.99L143.5,199.79L150.33,199.35L157.17,201.74L164,199.85L170.83,199.86L177.67,202.22L184.5,200.65L191.33,200.19L198.17,202.36L205,200.35L211.83,199.57L218.67,201.85L225.5,199.91L232.33,199.77L239.17,202.39L246,200.03L252.83,199.62L259.67,201.42L266.5,199.12L273.33,198.95L280.17,199.62L287,198.25L293.83,197.48L300.67,198.65L307.5,196.98L314.33,196.66L321.17,198.35L328,196.4L334.83,195.88L341.67,197.48L348.5,196.45L355.33,196.76L362.17,197.8L369,196.11L375.83,195.92L382.67,197.01L389.5,195.69L396.33,196.04L403.17,197.68L410,195.82L416.83,195.46L423.67,196.69L437.33,194.62L444.17,195.79L451,193.75L457.83,193.09L464.67,194.79L471.5,193.56L478.33,193.19L485.17,194.6L492,193.54L498.83,193.25L505.67,194.4L512.5,193.35L526.17,193.92L533,193.16L539.83,192.46L546.67,193.71L560.33,191.37L567.17,192.06L574,190.48L580.83,189.77L587.67,190.61L594.5,188.29L601.33,188.21L608.17,189.35L615,187.62L621.83,187.68L628.67,188.65L635.5,187.88L642.33,187.68L649.17,189.67L656,189.12L662.83,190.05L669.67,192.23L676.5,192.55L683.33,192.85L690.17,195.5L703.83,197.01L710.67,198.95L724.33,201.47L731.17,203.01L744.83,205.09L751.67,207.19L758.5,207.3L765.33,208.37L772.17,210.4L779,211.34L785.83,211.93L792.67,213.71L806.33,215.05L813.17,217L826.83,217.54L833.67,219.48L847.33,220.62L854.17,222.42L861,222.18L867.83,223.68L874.67,224.97L881.5,225.32L888.33,225.78L895.17,227.26L908.83,228.4L915.67,229.67L922.5,230.41L929.33,230.39L936.17,232.35L943,232.76L949.83,233.03L956.67,234.55L963.5,235.12L970.33,234.26L977.17,237.48L984,237.94L1011.33,242.67L1018.17,244.45L1025,252.18" style="vector-effect: none; fill: none; stroke: rgb(67, 67, 72); stroke-opacity: 1; stroke-width: 2px; opacity: 1;"/></g><g class="points"/><g class="text"/></g><g class="trace scatter traceddcdd4" style="stroke-miterlimit: 2; opacity: 1;"><g class="fills"/><g class="errorbars"/><g class="lines"><path class="js-line" d="M0,168.95L6.83,129.28L13.67,149.02L20.5,164.71L27.33,171.13L34.17,178.81L41,180.35L47.83,178.56L54.67,181.56L68.33,175.89L75.17,179.83L88.83,175.89L95.67,179.62L109.33,176.28L116.17,180.44L123,178.34L129.83,177.03L136.67,179.97L143.5,178.51L150.33,176.52L157.17,180.17L170.83,178.28L177.67,182.01L184.5,181.34L191.33,179.57L198.17,183.16L205,181.71L211.83,179.24L218.67,182.55L232.33,179.69L239.17,182.83L246,180.91L252.83,178.15L259.67,181.37L266.5,180.05L273.33,178.08L280.17,180.78L287,179.03L293.83,178.29L300.67,180.65L307.5,179.69L314.33,178.64L321.17,180.75L334.83,178.96L341.67,182.39L355.33,181.53L362.17,183.38L369,182.56L375.83,182.71L382.67,185.64L389.5,185.68L396.33,185.17L403.17,188.55L410,187.82L416.83,188.09L423.67,190.62L430.5,190.97L437.33,189.11L444.17,191.47L451,190.26L457.83,190.21L464.67,192.87L471.5,192.42L478.33,191.54L485.17,193.53L498.83,192.5L505.67,193.42L519.33,189.91L526.17,191.24L539.83,187.62L546.67,188.79L560.33,185.63L567.17,185.48L580.83,182.67L587.67,184.11L594.5,183.4L601.33,183.74L608.17,186.06L615,186.37L621.83,186.87L628.67,189.55L642.33,192.2L649.17,195.61L656,196.25L662.83,198.02L669.67,200.81L676.5,202.4L683.33,203.54L690.17,206.78L703.83,208.5L710.67,211.14L724.33,212.4L731.17,214.52L744.83,215.3L751.67,217.33L765.33,218.09L772.17,219.59L779,220.44L785.83,220.08L792.67,222.32L799.5,222.27L806.33,222.74L813.17,224.42L820,223.87L826.83,224.35L833.67,226.2L840.5,225.83L847.33,225.94L854.17,227.43L867.83,227.82L874.67,229.27L888.33,229.6L895.17,231.06L908.83,231.5L915.67,233.37L929.33,233.63L936.17,235.7L949.83,236.19L956.67,238.19L963.5,238.42L970.33,236.83L977.17,241.43L984,241.22L1011.33,246.34L1018.17,248.44L1025,258.44" style="vector-effect: none; fill: none; stroke: rgb(144, 237, 125); stroke-opacity: 1; stroke-width: 2px; opacity: 1;"/></g><g class="points"/><g class="text"/></g></g></g></g><g class="zerolinelayer-above"/><path class="xlines-above crisp" d="M0,0" style="fill: none;"/><path class="ylines-above crisp" d="M0,0" style="fill: none;"/><g class="overlines-above"/><g class="xaxislayer-above"><g class="xtick"><text text-anchor="middle" x="0" y="451" transform="translate(189.83,0)" style="font-family: system-ui, -apple-system, 'Segoe UI', Roboto, 'Helvetica Neue', 'Noto Sans', 'Liberation Sans', Arial, sans-serif, 'Apple Color Emoji', 'Segoe UI Emoji', 'Segoe UI Symbol', 'Noto Color Emoji'; font-size: 10px; fill: rgb(80, 80, 80); fill-opacity: 1; white-space: pre;">20</text></g><g class="xtick"><text text-anchor="middle" x="0" y="451" style="font-family: system-ui, -apple-system, 'Segoe UI', Roboto, 'Helvetica Neue', 'Noto Sans', 'Liberation Sans', Arial, sans-serif, 'Apple Color Emoji', 'Segoe UI Emoji', 'Segoe UI Symbol', 'Noto Color Emoji'; font-size: 10px; fill: rgb(80, 80, 80); fill-opacity: 1; white-space: pre;" transform="translate(326.5,0)">40</text></g><g class="xtick"><text text-anchor="middle" x="0" y="451" style="font-family: system-ui, -apple-system, 'Segoe UI', Roboto, 'Helvetica Neue', 'Noto Sans', 'Liberation Sans', Arial, sans-serif, 'Apple Color Emoji', 'Segoe UI Emoji', 'Segoe UI Symbol', 'Noto Color Emoji'; font-size: 10px; fill: rgb(80, 80, 80); fill-opacity: 1; white-space: pre;" transform="translate(463.17,0)">60</text></g><g class="xtick"><text text-anchor="middle" x="0" y="451" style="font-family: system-ui, -apple-system, 'Segoe UI', Roboto, 'Helvetica Neue', 'Noto Sans', 'Liberation Sans', Arial, sans-serif, 'Apple Color Emoji', 'Segoe UI Emoji', 'Segoe UI Symbol', 'Noto Color Emoji'; font-size: 10px; fill: rgb(80, 80, 80); fill-opacity: 1; white-space: pre;" transform="translate(599.83,0)">80</text></g><g class="xtick"><text text-anchor="middle" x="0" y="451" style="font-family: system-ui, -apple-system, 'Segoe UI', Roboto, 'Helvetica Neue', 'Noto Sans', 'Liberation Sans', Arial, sans-serif, 'Apple Color Emoji', 'Segoe UI Emoji', 'Segoe UI Symbol', 'Noto Color Emoji'; font-size: 10px; fill: rgb(80, 80, 80); fill-opacity: 1; white-space: pre;" transform="translate(736.5,0)">100</text></g><g class="xtick"><text text-anchor="middle" x="0" y="451" style="font-family: system-ui, -apple-system, 'Segoe UI', Roboto, 'Helvetica Neue', 'Noto Sans', 'Liberation Sans', Arial, sans-serif, 'Apple Color Emoji', 'Segoe UI Emoji', 'Segoe UI Symbol', 'Noto Color Emoji'; font-size: 10px; fill: rgb(80, 80, 80); fill-opacity: 1; white-space: pre;" transform="translate(873.17,0)">120</text></g><g class="xtick"><text text-anchor="middle" x="0" y="451" style="font-family: system-ui, -apple-system, 'Segoe UI', Roboto, 'Helvetica Neue', 'Noto Sans', 'Liberation Sans', Arial, sans-serif, 'Apple Color Emoji', 'Segoe UI Emoji', 'Segoe UI Symbol', 'Noto Color Emoji'; font-size: 10px; fill: rgb(80, 80, 80); fill-opacity: 1; white-space: pre;" transform="translate(1009.83,0)">140</text></g></g><g class="yaxislayer-above"><g class="ytick"><text text-anchor="end" x="54" y="3.5" transform="translate(0,435)" style="font-family: system-ui, -apple-system, 'Segoe UI', Roboto, 'Helvetica Neue', 'Noto Sans', 'Liberation Sans', Arial, sans-serif, 'Apple Color Emoji', 'Segoe UI Emoji', 'Segoe UI Symbol', 'Noto Color Emoji'; font-size: 10px; fill: rgb(80, 80, 80); fill-opacity: 1; white-space: pre;">0%</text></g><g class="ytick"><text text-anchor="end" x="54" y="3.5" style="font-family: system-ui, -apple-system, 'Segoe UI', Roboto, 'Helvetica Neue', 'Noto Sans', 'Liberation Sans', Arial, sans-serif, 'Apple Color Emoji', 'Segoe UI Emoji', 'Segoe UI Symbol', 'Noto Color Emoji'; font-size: 10px; fill: rgb(80, 80, 80); fill-opacity: 1; white-space: pre;" transform="translate(0,358)">20%</text></g><g class="ytick"><text text-anchor="end" x="54" y="3.5" style="font-family: system-ui, -apple-system, 'Segoe UI', Roboto, 'Helvetica Neue', 'Noto Sans', 'Liberation Sans', Arial, sans-serif, 'Apple Color Emoji', 'Segoe UI Emoji', 'Segoe UI Symbol', 'Noto Color Emoji'; font-size: 10px; fill: rgb(80, 80, 80); fill-opacity: 1; white-space: pre;" transform="translate(0,281)">40%</text></g><g class="ytick"><text text-anchor="end" x="54" y="3.5" style="font-family: system-ui, -apple-system, 'Segoe UI', Roboto, 'Helvetica Neue', 'Noto Sans', 'Liberation Sans', Arial, sans-serif, 'Apple Color Emoji', 'Segoe UI Emoji', 'Segoe UI Symbol', 'Noto Color Emoji'; font-size: 10px; fill: rgb(80, 80, 80); fill-opacity: 1; white-space: pre;" transform="translate(0,204)">60%</text></g><g class="ytick"><text text-anchor="end" x="54" y="3.5" style="font-family: system-ui, -apple-system, 'Segoe UI', Roboto, 'Helvetica Neue', 'Noto Sans', 'Liberation Sans', Arial, sans-serif, 'Apple Color Emoji', 'Segoe UI Emoji', 'Segoe UI Symbol', 'Noto Color Emoji'; font-size: 10px; fill: rgb(80, 80, 80); fill-opacity: 1; white-space: pre;" transform="translate(0,127)">80%</text></g><g class="ytick"><text text-anchor="end" x="54" y="3.5" style="font-family: system-ui, -apple-system, 'Segoe UI', Roboto, 'Helvetica Neue', 'Noto Sans', 'Liberation Sans', Arial, sans-serif, 'Apple Color Emoji', 'Segoe UI Emoji', 'Segoe UI Symbol', 'Noto Color Emoji'; font-size: 10px; fill: rgb(80, 80, 80); fill-opacity: 1; white-space: pre;" transform="translate(0,50)">100%</text></g></g><g class="overaxes-above"/></g></g><g class="polarlayer"/><g class="smithlayer"/><g class="ternarylayer"/><g class="geolayer"/><g class="funnelarealayer"/><g class="pielayer"/><g class="iciclelayer"/><g class="treemaplayer"/><g class="sunburstlayer"/><g class="glimages"/><defs id="topdefs-74951a"><g class="clips"/></defs><g class="layer-above"><g class="imagelayer"/><g class="shapelayer"/></g><g class="infolayer"><g class="g-gtitle"><text class="gtitle" x="550" y="25" text-anchor="middle" dy="0em" style="opacity: 1; font-family: system-ui, -apple-system, 'Segoe UI', Roboto, 'Helvetica Neue', 'Noto Sans', 'Liberation Sans', Arial, sans-serif, 'Apple Color Emoji', 'Segoe UI Emoji', 'Segoe UI Symbol', 'Noto Color Emoji'; font-size: 20px; fill: rgb(60, 60, 60); fill-opacity: 1; white-space: pre;"><tspan class="line" dy="0em" x="550" y="25">Fastp: Read GC Content</tspan><tspan class="line" dy="1.3em" x="550" y="25">​<tspan style="font-size:70%" dy="-0.6em">Read 2: Before filtering, 3 lines</tspan><tspan dy="0.42em">​</tspan></tspan></text></g><g class="g-xtitle"><text class="xtitle" x="572.5" y="487" text-anchor="middle" style="opacity: 1; font-family: system-ui, -apple-system, 'Segoe UI', Roboto, 'Helvetica Neue', 'Noto Sans', 'Liberation Sans', Arial, sans-serif, 'Apple Color Emoji', 'Segoe UI Emoji', 'Segoe UI Symbol', 'Noto Color Emoji'; font-size: 14px; fill: rgb(100, 100, 100); fill-opacity: 1; white-space: pre;">Read Position</text></g><g class="g-ytitle"><text class="ytitle" transform="rotate(-90,22,242.5)" x="22" y="242.5" text-anchor="middle" style="opacity: 1; font-family: system-ui, -apple-system, 'Segoe UI', Roboto, 'Helvetica Neue', 'Noto Sans', 'Liberation Sans', Arial, sans-serif, 'Apple Color Emoji', 'Segoe UI Emoji', 'Segoe UI Symbol', 'Noto Color Emoji'; font-size: 14px; fill: rgb(100, 100, 100); fill-opacity: 1; white-space: pre;">R2 Before filtering: Base Content Percent</text></g></g></svg>