<svg class="main-svg" xmlns="http://www.w3.org/2000/svg" xmlns:xlink="http://www.w3.org/1999/xlink" width="2200" height="1000" style="" viewBox="0 0 1100 500"><rect x="0" y="0" width="1100" height="500" style="fill: rgb(255, 255, 255); fill-opacity: 1;"/><defs id="defs-25e8c9"><g class="clips"><clipPath id="clip25e8c9xyplot" class="plotclip"><rect width="1025" height="385"/></clipPath><clipPath class="axesclip" id="clip25e8c9x"><rect x="60" y="0" width="1025" height="500"/></clipPath><clipPath class="axesclip" id="clip25e8c9y"><rect x="0" y="50" width="1100" height="385"/></clipPath><clipPath class="axesclip" id="clip25e8c9xy"><rect x="60" y="50" width="1025" height="385"/></clipPath></g><g class="gradients"/><g class="patterns"/></defs><g class="bglayer"/><g class="layer-below"><g class="imagelayer"/><g class="shapelayer"/></g><g class="cartesianlayer"><g class="subplot xy"><g class="layer-subplot"><g class="shapelayer"/><g class="imagelayer"/></g><g class="minor-gridlayer"><g class="x"/><g class="y"/></g><g class="gridlayer"><g class="x"><path class="xgrid crisp" transform="translate(189.83,0)" d="M0,50v385" style="stroke: rgb(128, 128, 128); stroke-opacity: 0.15; stroke-width: 1px;"/><path class="xgrid crisp" transform="translate(326.5,0)" d="M0,50v385" style="stroke: rgb(128, 128, 128); stroke-opacity: 0.15; stroke-width: 1px;"/><path class="xgrid crisp" transform="translate(463.17,0)" d="M0,50v385" style="stroke: rgb(128, 128, 128); stroke-opacity: 0.15; stroke-width: 1px;"/><path class="xgrid crisp" transform="translate(599.83,0)" d="M0,50v385" style="stroke: rgb(128, 128, 128); stroke-opacity: 0.15; stroke-width: 1px;"/><path class="xgrid crisp" transform="translate(736.5,0)" d="M0,50v385" style="stroke: rgb(128, 128, 128); stroke-opacity: 0.15; stroke-width: 1px;"/><path class="xgrid crisp" transform="translate(873.17,0)" d="M0,50v385" style="stroke: rgb(128, 128, 128); stroke-opacity: 0.15; stroke-width: 1px;"/><path class="xgrid crisp" transform="translate(1009.83,0)" d="M0,50v385" style="stroke: rgb(128, 128, 128); stroke-opacity: 0.15; stroke-width: 1px;"/></g><g class="y"><path class="ygrid crisp" transform="translate(0,385.96)" d="M60,0h1025" style="stroke: rgb(128, 128, 128); stroke-opacity: 0.15; stroke-width: 1px;"/><path class="ygrid crisp" transform="translate(0,336.92)" d="M60,0h1025" style="stroke: rgb(128, 128, 128); stroke-opacity: 0.15; stroke-width: 1px;"/><path class="ygrid crisp" transform="translate(0,287.89)" d="M60,0h1025" style="stroke: rgb(128, 128, 128); stroke-opacity: 0.15; stroke-width: 1px;"/><path class="ygrid crisp" transform="translate(0,238.85)" d="M60,0h1025" style="stroke: rgb(128, 128, 128); stroke-opacity: 0.15; stroke-width: 1px;"/><path class="ygrid crisp" transform="translate(0,189.81)" d="M60,0h1025" style="stroke: rgb(128, 128, 128); stroke-opacity: 0.15; stroke-width: 1px;"/><path class="ygrid crisp" transform="translate(0,140.76999999999998)" d="M60,0h1025" style="stroke: rgb(128, 128, 128); stroke-opacity: 0.15; stroke-width: 1px;"/><path class="ygrid crisp" transform="translate(0,91.74000000000001)" d="M60,0h1025" style="stroke: rgb(128, 128, 128); stroke-opacity: 0.15; stroke-width: 1px;"/></g></g><g class="zerolinelayer"><path class="yzl zl crisp" transform="translate(0,435)" d="M60,0h1025" style="stroke: rgb(128, 128, 128); stroke-opacity: 0.2; stroke-width: 1px;"/></g><g class="layer-between"><g class="shapelayer"/><g class="imagelayer"/></g><path class="xlines-below"/><path class="ylines-below"/><g class="overlines-below"/><g class="xaxislayer-below"/><g class="yaxislayer-below"/><g class="overaxes-below"/><g class="overplot"><g class="xy" transform="translate(60,50)" clip-path="url(#clip25e8c9xyplot)"><g class="scatterlayer mlayer"><g class="trace scatter trace2ad12f" style="stroke-miterlimit: 2; opacity: 1;"><g class="fills"/><g class="errorbars"/><g class="lines"><path class="js-line" d="M0,55.55L27.33,54.5L34.17,19.25L41,19.25L47.83,20.87L54.67,21L61.5,21.91L68.33,20.82L75.17,21.29L82,22.22L88.83,21.8L109.33,21.63L116.17,22.11L129.83,21.46L136.67,21.85L170.83,22.76L177.67,23.83L184.5,22.63L191.33,22.9L218.67,23L225.5,23.95L232.33,24.23L239.17,23.49L246,23.04L252.83,23.64L273.33,24.08L280.17,24.53L307.5,23.87L314.33,25.08L321.17,23.96L328,25.21L334.83,24.33L341.67,24.63L355.33,24.05L362.17,25.35L375.83,24.48L382.67,24.48L389.5,23.79L396.33,25.11L410,24.25L416.83,25.38L423.67,25L430.5,25.51L471.5,25.6L478.33,26.19L485.17,25.86L492,26.49L505.67,27.45L512.5,25.86L546.67,26.16L553.5,26.76L567.17,27L574,26.24L580.83,27.43L587.67,26.8L608.17,26.51L615,27.02L621.83,27.53L628.67,26.43L642.33,27.82L649.17,26.63L662.83,28.17L669.67,27.22L676.5,26.8L683.33,28.49L697,29.86L703.83,30.31L710.67,30.26L717.5,32.02L738,33.49L744.83,35.54L751.67,37.13L758.5,37.02L772.17,41.04L779,41.68L792.67,42.39L799.5,45.26L806.33,46.98L813.17,47.71L820,48.75L826.83,51.43L833.67,52.18L840.5,51.6L847.33,53.27L854.17,53.99L861,54.86L867.83,54.87L874.67,56.48L881.5,59.15L888.33,59.6L895.17,61.79L902,61.42L908.83,62.66L915.67,64.76L922.5,64.27L929.33,65.2L936.17,67.47L949.83,69.64L956.67,71.25L963.5,74.26L970.33,75.61L977.17,76.07L984,77.47L997.67,83.49L1004.5,85.38L1018.17,91.46L1025,102.66" style="vector-effect: none; fill: none; stroke: rgb(124, 181, 236); stroke-opacity: 1; stroke-width: 2px; opacity: 1;"/></g><g class="points"/><g class="text"/></g><g class="trace scatter trace375734" style="stroke-miterlimit: 2; opacity: 1;"><g class="fills"/><g class="errorbars"/><g class="lines"><path class="js-line" d="M0,55.55L27.33,54.5L34.17,19.25L41,19.25L47.83,20.87L54.67,21L61.5,21.91L68.33,20.82L75.17,21.29L82,22.22L88.83,21.8L109.33,21.63L116.17,22.11L129.83,21.46L136.67,21.85L170.83,22.76L177.67,23.83L184.5,22.63L191.33,22.9L218.67,23L225.5,23.95L232.33,24.23L239.17,23.49L246,23.04L252.83,23.64L273.33,24.08L280.17,24.53L307.5,23.87L314.33,25.08L321.17,23.96L328,25.21L334.83,24.33L341.67,24.63L355.33,24.05L362.17,25.35L375.83,24.48L382.67,24.48L389.5,23.79L396.33,25.11L410,24.25L416.83,25.38L423.67,25L430.5,25.51L471.5,25.6L478.33,26.19L485.17,25.86L492,26.49L505.67,27.45L512.5,25.86L546.67,26.16L553.5,26.76L567.17,27L574,26.24L580.83,27.43L587.67,26.8L608.17,26.51L615,27.02L621.83,27.53L628.67,26.43L642.33,27.82L649.17,26.63L662.83,28.17L669.67,27.22L676.5,26.8L683.33,28.49L697,29.86L703.83,30.31L710.67,30.26L717.5,32.02L738,33.49L744.83,35.54L751.67,37.13L758.5,37.02L772.17,41.04L779,41.68L792.67,42.39L799.5,45.26L806.33,46.98L813.17,47.71L820,48.75L826.83,51.43L833.67,52.18L840.5,51.6L847.33,53.27L854.17,53.99L861,54.86L867.83,54.87L874.67,56.48L881.5,59.15L888.33,59.6L895.17,61.79L902,61.42L908.83,62.66L915.67,64.76L922.5,64.27L929.33,65.2L936.17,67.47L949.83,69.64L956.67,71.25L963.5,74.26L970.33,75.61L977.17,76.07L984,77.47L997.67,83.49L1004.5,85.38L1018.17,91.46L1025,102.66" style="vector-effect: none; fill: none; stroke: rgb(67, 67, 72); stroke-opacity: 1; stroke-width: 2px; opacity: 1;"/></g><g class="points"/><g class="text"/></g><g class="trace scatter trace82ab72" style="stroke-miterlimit: 2; opacity: 1;"><g class="fills"/><g class="errorbars"/><g class="lines"><path class="js-line" d="M0,56.42L27.33,55.06L34.17,20.39L41,20.52L47.83,22.27L54.67,22.37L61.5,23.39L68.33,22.05L75.17,22.5L82,23.53L88.83,23.08L109.33,22.96L116.17,23.5L123,22.75L129.83,22.76L150.33,24.17L157.17,23.39L170.83,24.09L177.67,25.48L184.5,24.08L191.33,24.37L218.67,24.53L225.5,25.76L232.33,26.06L239.17,25.14L246,24.68L252.83,25.38L273.33,25.73L280.17,26.2L300.67,25.86L307.5,25.44L314.33,26.86L321.17,25.52L328,26.99L334.83,25.84L341.67,26.27L348.5,25.81L355.33,25.68L362.17,27.07L375.83,26.29L382.67,26.27L389.5,25.44L396.33,26.93L403.17,26.06L410,25.99L416.83,27.41L423.67,26.99L437.33,28.09L444.17,28.52L471.5,30.64L478.33,31.49L485.17,31.4L492,32.14L505.67,33.6L512.5,31.87L546.67,32.57L553.5,33.4L567.17,33.55L574,32.42L580.83,33.87L587.67,33.03L608.17,32.62L615,33.52L621.83,34.25L628.67,33.03L635.5,34.69L642.33,35.44L649.17,34.17L656,35.87L662.83,37.3L669.67,36.91L676.5,37.28L683.33,41.09L697,46.98L703.83,49.71L710.67,52.05L717.5,56.64L731.17,62.98L738,66.5L751.67,76.7L758.5,80.03L765.33,84.55L772.17,90.05L785.83,96.87L792.67,100.13L799.5,105.5L806.33,109.72L813.17,112.76L820,116.72L826.83,120.88L833.67,124.1L840.5,126.02L847.33,129.12L861,134.56L867.83,136.02L888.33,144.81L895.17,149.84L902,148.28L908.83,149.4L915.67,153.65L922.5,150.55L929.33,151.29L936.17,153.06L943,152.69L949.83,153.62L956.67,154.17L963.5,155.78L970.33,155.23L977.17,152.62L984,149.45L990.83,149.59L1004.5,148.87L1011.33,149.59L1018.17,151.14L1025,142.7" style="vector-effect: none; fill: none; stroke: rgb(144, 237, 125); stroke-opacity: 1; stroke-width: 2px; opacity: 1;"/></g><g class="points"/><g class="text"/></g><g class="trace scatter trace75b5cd" style="stroke-miterlimit: 2; opacity: 1;"><g class="fills"/><g class="errorbars"/><g class="lines"><path class="js-line" d="M0,55.91L27.33,54.77L34.17,20.03L41,20.09L47.83,21.67L54.67,21.7L61.5,22.71L68.33,21.49L75.17,21.83L82,22.85L88.83,22.54L102.5,22.23L109.33,22.28L116.17,22.73L123,22.14L143.5,22.56L150.33,23.43L157.17,22.69L164,22.78L177.67,24.55L184.5,23.35L225.5,24.67L232.33,24.98L246,23.67L252.83,24.32L273.33,24.64L280.17,25.09L307.5,24.23L314.33,25.56L321.17,24.3L328,25.7L334.83,24.66L341.67,24.96L355.33,24.47L362.17,25.71L375.83,24.93L382.67,24.92L389.5,24.16L396.33,25.51L403.17,24.62L410,24.6L416.83,25.8L423.67,25.41L437.33,26.38L444.17,26.77L471.5,27.65L478.33,28.14L485.17,27.86L492,28.39L505.67,29.48L512.5,27.67L546.67,27.88L553.5,28.69L567.17,28.87L574,27.99L580.83,29.23L587.67,28.67L608.17,28.47L615,29.2L621.83,29.78L628.67,28.65L642.33,30.43L649.17,29.29L662.83,31.59L669.67,31.17L676.5,31.21L683.33,33.96L697,37.31L703.83,38.53L710.67,39.35L717.5,41.78L738,45.54L744.83,48.13L751.67,50.53L758.5,51.02L772.17,55.7L779,56.86L792.67,58.36L799.5,61.66L806.33,63.56L813.17,64.62L820,66.01L826.83,68.79L833.67,69.93L840.5,69.73L847.33,71.62L854.17,72.58L874.67,75.38L881.5,78.24L888.33,78.94L895.17,81.43L902,81.05L908.83,82.03L915.67,84.33L922.5,83.62L929.33,84.68L936.17,86.75L949.83,88.94L956.67,90.3L963.5,93.15L970.33,94.34L977.17,94.26L984,95.25L997.67,100.07L1004.5,101.82L1018.17,107.44L1025,116.49" style="vector-effect: none; fill: none; stroke: rgb(247, 163, 92); stroke-opacity: 1; stroke-width: 2px; opacity: 1;"/></g><g class="points"/><g class="text"/></g></g></g></g><g class="zerolinelayer-above"/><path class="xlines-above crisp" d="M0,0" style="fill: none;"/><path class="ylines-above crisp" d="M0,0" style="fill: none;"/><g class="overlines-above"/><g class="xaxislayer-above"><g class="xtick"><text text-anchor="middle" x="0" y="451" transform="translate(189.83,0)" style="font-family: system-ui, -apple-system, 'Segoe UI', Roboto, 'Helvetica Neue', 'Noto Sans', 'Liberation Sans', Arial, sans-serif, 'Apple Color Emoji', 'Segoe UI Emoji', 'Segoe UI Symbol', 'Noto Color Emoji'; font-size: 10px; fill: rgb(80, 80, 80); fill-opacity: 1; white-space: pre;">20</text></g><g class="xtick"><text text-anchor="middle" x="0" y="451" style="font-family: system-ui, -apple-system, 'Segoe UI', Roboto, 'Helvetica Neue', 'Noto Sans', 'Liberation Sans', Arial, sans-serif, 'Apple Color Emoji', 'Segoe UI Emoji', 'Segoe UI Symbol', 'Noto Color Emoji'; font-size: 10px; fill: rgb(80, 80, 80); fill-opacity: 1; white-space: pre;" transform="translate(326.5,0)">40</text></g><g class="xtick"><text text-anchor="middle" x="0" y="451" style="font-family: system-ui, -apple-system, 'Segoe UI', Roboto, 'Helvetica Neue', 'Noto Sans', 'Liberation Sans', Arial, sans-serif, 'Apple Color Emoji', 'Segoe UI Emoji', 'Segoe UI Symbol', 'Noto Color Emoji'; font-size: 10px; fill: rgb(80, 80, 80); fill-opacity: 1; white-space: pre;" transform="translate(463.17,0)">60</text></g><g class="xtick"><text text-anchor="middle" x="0" y="451" style="font-family: system-ui, -apple-system, 'Segoe UI', Roboto, 'Helvetica Neue', 'Noto Sans', 'Liberation Sans', Arial, sans-serif, 'Apple Color Emoji', 'Segoe UI Emoji', 'Segoe UI Symbol', 'Noto Color Emoji'; font-size: 10px; fill: rgb(80, 80, 80); fill-opacity: 1; white-space: pre;" transform="translate(599.83,0)">80</text></g><g class="xtick"><text text-anchor="middle" x="0" y="451" style="font-family: system-ui, -apple-system, 'Segoe UI', Roboto, 'Helvetica Neue', 'Noto Sans', 'Liberation Sans', Arial, sans-serif, 'Apple Color Emoji', 'Segoe UI Emoji', 'Segoe UI Symbol', 'Noto Color Emoji'; font-size: 10px; fill: rgb(80, 80, 80); fill-opacity: 1; white-space: pre;" transform="translate(736.5,0)">100</text></g><g class="xtick"><text text-anchor="middle" x="0" y="451" style="font-family: system-ui, -apple-system, 'Segoe UI', Roboto, 'Helvetica Neue', 'Noto Sans', 'Liberation Sans', Arial, sans-serif, 'Apple Color Emoji', 'Segoe UI Emoji', 'Segoe UI Symbol', 'Noto Color Emoji'; font-size: 10px; fill: rgb(80, 80, 80); fill-opacity: 1; white-space: pre;" transform="translate(873.17,0)">120</text></g><g class="xtick"><text text-anchor="middle" x="0" y="451" style="font-family: system-ui, -apple-system, 'Segoe UI', Roboto, 'Helvetica Neue', 'Noto Sans', 'Liberation Sans', Arial, sans-serif, 'Apple Color Emoji', 'Segoe UI Emoji', 'Segoe UI Symbol', 'Noto Color Emoji'; font-size: 10px; fill: rgb(80, 80, 80); fill-opacity: 1; white-space: pre;" transform="translate(1009.83,0)">140</text></g></g><g class="yaxislayer-above"><g class="ytick"><text text-anchor="end" x="54" y="3.5" transform="translate(0,435)" style="font-family: system-ui, -apple-system, 'Segoe UI', Roboto, 'Helvetica Neue', 'Noto Sans', 'Liberation Sans', Arial, sans-serif, 'Apple Color Emoji', 'Segoe UI Emoji', 'Segoe UI Symbol', 'Noto Color Emoji'; font-size: 10px; fill: rgb(80, 80, 80); fill-opacity: 1; white-space: pre;">0</text></g><g class="ytick"><text text-anchor="end" x="54" y="3.5" style="font-family: system-ui, -apple-system, 'Segoe UI', Roboto, 'Helvetica Neue', 'Noto Sans', 'Liberation Sans', Arial, sans-serif, 'Apple Color Emoji', 'Segoe UI Emoji', 'Segoe UI Symbol', 'Noto Color Emoji'; font-size: 10px; fill: rgb(80, 80, 80); fill-opacity: 1; white-space: pre;" transform="translate(0,385.96)">5</text></g><g class="ytick"><text text-anchor="end" x="54" y="3.5" style="font-family: system-ui, -apple-system, 'Segoe UI', Roboto, 'Helvetica Neue', 'Noto Sans', 'Liberation Sans', Arial, sans-serif, 'Apple Color Emoji', 'Segoe UI Emoji', 'Segoe UI Symbol', 'Noto Color Emoji'; font-size: 10px; fill: rgb(80, 80, 80); fill-opacity: 1; white-space: pre;" transform="translate(0,336.92)">10</text></g><g class="ytick"><text text-anchor="end" x="54" y="3.5" style="font-family: system-ui, -apple-system, 'Segoe UI', Roboto, 'Helvetica Neue', 'Noto Sans', 'Liberation Sans', Arial, sans-serif, 'Apple Color Emoji', 'Segoe UI Emoji', 'Segoe UI Symbol', 'Noto Color Emoji'; font-size: 10px; fill: rgb(80, 80, 80); fill-opacity: 1; white-space: pre;" transform="translate(0,287.89)">15</text></g><g class="ytick"><text text-anchor="end" x="54" y="3.5" style="font-family: system-ui, -apple-system, 'Segoe UI', Roboto, 'Helvetica Neue', 'Noto Sans', 'Liberation Sans', Arial, sans-serif, 'Apple Color Emoji', 'Segoe UI Emoji', 'Segoe UI Symbol', 'Noto Color Emoji'; font-size: 10px; fill: rgb(80, 80, 80); fill-opacity: 1; white-space: pre;" transform="translate(0,238.85)">20</text></g><g class="ytick"><text text-anchor="end" x="54" y="3.5" style="font-family: system-ui, -apple-system, 'Segoe UI', Roboto, 'Helvetica Neue', 'Noto Sans', 'Liberation Sans', Arial, sans-serif, 'Apple Color Emoji', 'Segoe UI Emoji', 'Segoe UI Symbol', 'Noto Color Emoji'; font-size: 10px; fill: rgb(80, 80, 80); fill-opacity: 1; white-space: pre;" transform="translate(0,189.81)">25</text></g><g class="ytick"><text text-anchor="end" x="54" y="3.5" style="font-family: system-ui, -apple-system, 'Segoe UI', Roboto, 'Helvetica Neue', 'Noto Sans', 'Liberation Sans', Arial, sans-serif, 'Apple Color Emoji', 'Segoe UI Emoji', 'Segoe UI Symbol', 'Noto Color Emoji'; font-size: 10px; fill: rgb(80, 80, 80); fill-opacity: 1; white-space: pre;" transform="translate(0,140.76999999999998)">30</text></g><g class="ytick"><text text-anchor="end" x="54" y="3.5" style="font-family: system-ui, -apple-system, 'Segoe UI', Roboto, 'Helvetica Neue', 'Noto Sans', 'Liberation Sans', Arial, sans-serif, 'Apple Color Emoji', 'Segoe UI Emoji', 'Segoe UI Symbol', 'Noto Color Emoji'; font-size: 10px; fill: rgb(80, 80, 80); fill-opacity: 1; white-space: pre;" transform="translate(0,91.74000000000001)">35</text></g></g><g class="overaxes-above"/></g></g><g class="polarlayer"/><g class="smithlayer"/><g class="ternarylayer"/><g class="geolayer"/><g class="funnelarealayer"/><g class="pielayer"/><g class="iciclelayer"/><g class="treemaplayer"/><g class="sunburstlayer"/><g class="glimages"/><defs id="topdefs-25e8c9"><g class="clips"/></defs><g class="layer-above"><g class="imagelayer"/><g class="shapelayer"/></g><g class="infolayer"><g class="g-gtitle"><text class="gtitle" x="550" y="25" text-anchor="middle" dy="0em" style="opacity: 1; font-family: system-ui, -apple-system, 'Segoe UI', Roboto, 'Helvetica Neue', 'Noto Sans', 'Liberation Sans', Arial, sans-serif, 'Apple Color Emoji', 'Segoe UI Emoji', 'Segoe UI Symbol', 'Noto Color Emoji'; font-size: 20px; fill: rgb(60, 60, 60); fill-opacity: 1; white-space: pre;"><tspan class="line" dy="0em" x="550" y="25">Fastp: Sequence Quality</tspan><tspan class="line" dy="1.3em" x="550" y="25">​<tspan style="font-size:70%" dy="-0.6em">Read 1: Before filtering, 4 lines</tspan><tspan dy="0.42em">​</tspan></tspan></text></g><g class="g-xtitle"><text class="xtitle" x="572.5" y="487" text-anchor="middle" style="opacity: 1; font-family: system-ui, -apple-system, 'Segoe UI', Roboto, 'Helvetica Neue', 'Noto Sans', 'Liberation Sans', Arial, sans-serif, 'Apple Color Emoji', 'Segoe UI Emoji', 'Segoe UI Symbol', 'Noto Color Emoji'; font-size: 14px; fill: rgb(100, 100, 100); fill-opacity: 1; white-space: pre;">Read Position</text></g><g class="g-ytitle"><text class="ytitle" transform="rotate(-90,22,242.5)" x="22" y="242.5" text-anchor="middle" style="opacity: 1; font-family: system-ui, -apple-system, 'Segoe UI', Roboto, 'Helvetica Neue', 'Noto Sans', 'Liberation Sans', Arial, sans-serif, 'Apple Color Emoji', 'Segoe UI Emoji', 'Segoe UI Symbol', 'Noto Color Emoji'; font-size: 14px; fill: rgb(100, 100, 100); fill-opacity: 1; white-space: pre;">R1 Before filtering: Sequence Quality</text></g></g></svg>