<svg class="main-svg" xmlns="http://www.w3.org/2000/svg" xmlns:xlink="http://www.w3.org/1999/xlink" width="2200" height="1000" style="" viewBox="0 0 1100 500"><rect x="0" y="0" width="1100" height="500" style="fill: rgb(255, 255, 255); fill-opacity: 1;"/><defs id="defs-239ece"><g class="clips"><clipPath id="clip239ecexyplot" class="plotclip"><rect width="1014" height="385"/></clipPath><clipPath class="axesclip" id="clip239ecex"><rect x="60" y="0" width="1014" height="500"/></clipPath><clipPath class="axesclip" id="clip239ecey"><rect x="0" y="50" width="1100" height="385"/></clipPath><clipPath class="axesclip" id="clip239ecexy"><rect x="60" y="50" width="1014" height="385"/></clipPath></g><g class="gradients"/><g class="patterns"/></defs><g class="bglayer"/><g class="layer-below"><g class="imagelayer"/><g class="shapelayer"/></g><g class="cartesianlayer"><g class="subplot xy"><g class="layer-subplot"><g class="shapelayer"/><g class="imagelayer"/></g><g class="minor-gridlayer"><g class="x"/><g class="y"/></g><g class="gridlayer"><g class="x"><path class="xgrid crisp" transform="translate(262.8,0)" d="M0,50v385" style="stroke: rgb(128, 128, 128); stroke-opacity: 0.15; stroke-width: 1px;"/><path class="xgrid crisp" transform="translate(465.6,0)" d="M0,50v385" style="stroke: rgb(128, 128, 128); stroke-opacity: 0.15; stroke-width: 1px;"/><path class="xgrid crisp" transform="translate(668.4,0)" d="M0,50v385" style="stroke: rgb(128, 128, 128); stroke-opacity: 0.15; stroke-width: 1px;"/><path class="xgrid crisp" transform="translate(871.2,0)" d="M0,50v385" style="stroke: rgb(128, 128, 128); stroke-opacity: 0.15; stroke-width: 1px;"/></g><g class="y"><path class="ygrid crisp" transform="translate(0,361.61)" d="M60,0h1014" style="stroke: rgb(128, 128, 128); stroke-opacity: 0.15; stroke-width: 1px;"/><path class="ygrid crisp" transform="translate(0,288.22)" d="M60,0h1014" style="stroke: rgb(128, 128, 128); stroke-opacity: 0.15; stroke-width: 1px;"/><path class="ygrid crisp" transform="translate(0,214.82)" d="M60,0h1014" style="stroke: rgb(128, 128, 128); stroke-opacity: 0.15; stroke-width: 1px;"/><path class="ygrid crisp" transform="translate(0,141.43)" d="M60,0h1014" style="stroke: rgb(128, 128, 128); stroke-opacity: 0.15; stroke-width: 1px;"/><path class="ygrid crisp" transform="translate(0,68.03999999999999)" d="M60,0h1014" style="stroke: rgb(128, 128, 128); stroke-opacity: 0.15; stroke-width: 1px;"/></g></g><g class="zerolinelayer"><path class="xzl zl crisp" transform="translate(60,0)" d="M0,50v385" style="stroke: rgb(128, 128, 128); stroke-opacity: 0.2; stroke-width: 1px;"/><path class="yzl zl crisp" transform="translate(0,435)" d="M60,0h1014" style="stroke: rgb(128, 128, 128); stroke-opacity: 0.2; stroke-width: 1px;"/></g><g class="layer-between"><g class="shapelayer"/><g class="imagelayer"/></g><path class="xlines-below"/><path class="ylines-below"/><g class="overlines-below"/><g class="xaxislayer-below"/><g class="yaxislayer-below"/><g class="overaxes-below"/><g class="overplot"><g class="xy" transform="translate(60,50)" clip-path="url(#clip239ecexyplot)"><g class="scatterlayer mlayer"><g class="trace scatter trace48fc2d" style="stroke-miterlimit: 2; opacity: 1;"><g class="fills"/><g class="errorbars"/><g class="lines"><path class="js-line" d="M0,385L152.1,384.42L162.24,384.18L172.38,383.05L182.52,381.07L192.66,378.76L202.8,374.55L212.94,369.52L223.08,363.17L233.22,352.91L243.36,338.54L253.5,320.17L263.64,303.48L273.78,281.93L283.92,255.7L294.06,232.85L304.2,215.14L314.34,192.71L324.48,162.71L334.62,132.61L344.76,109.04L354.9,88.86L365.04,65.74L385.32,39.18L395.46,26.1L405.6,23.98L415.74,27.55L425.88,25.16L436.02,19.25L446.16,21.72L456.3,19.83L466.44,19.58L476.58,26.65L486.72,37.18L496.86,43.42L507,41.14L517.14,47.62L527.28,56.75L537.42,64.31L547.56,65.71L557.7,62.42L567.84,53.45L577.98,38.3L588.12,34.48L598.26,34.01L608.4,28.38L618.54,24.39L628.68,24.06L638.82,27.17L648.96,29.29L659.1,38.99L669.24,60.13L679.38,85.65L699.66,146.33L709.8,179.62L719.94,212.72L730.08,242.2L750.36,296.8L760.5,317.45L770.64,332.73L780.78,345.02L790.92,354.21L801.06,359.38L811.2,362.13L821.34,365.7L841.62,375.16L851.76,378.9L861.9,380.57L872.04,380.88L912.6,383.71L922.74,383.93L1014,385" style="vector-effect: none; fill: none; stroke: rgb(217, 83, 79); stroke-opacity: 1; stroke-width: 2px; opacity: 1;"/></g><g class="points"/><g class="text"/></g><g class="trace scatter traceadf724" style="stroke-miterlimit: 2; opacity: 1;"><g class="fills"/><g class="errorbars"/><g class="lines"><path class="js-line" d="M0,385L131.82,384.53L141.96,384.12L162.24,382.17L172.38,379.12L192.66,370.95L202.8,364.33L223.08,342.77L233.22,326.8L253.5,282.32L263.64,258.56L294.06,168.97L304.2,135.84L314.34,112.61L324.48,93.56L334.62,74.45L344.76,58.17L354.9,49.51L365.04,46.1L375.18,35.38L385.32,34.59L395.46,39.56L405.6,38.05L415.74,35.24L425.88,35.05L436.02,36.54L446.16,36.65L456.3,36.92L466.44,34.42L486.72,20.84L496.86,26.69L507,30.71L517.14,36.48L527.28,56.88L537.42,68.76L557.7,68.24L567.84,66.2L577.98,65.51L588.12,62.24L598.26,63.7L608.4,69.42L628.68,70.3L638.82,77.64L648.96,91.11L659.1,106.01L679.38,126.74L689.52,150.38L719.94,243.5L730.08,269.89L740.22,289.02L750.36,304.48L770.64,338.43L780.78,349.78L790.92,355.67L801.06,360.28L811.2,366.47L821.34,371.36L831.48,374.44L841.62,376.31L872.04,381.43L882.18,382.47L912.6,384.23L922.74,384.34L1014,385" style="vector-effect: none; fill: none; stroke: rgb(240, 173, 78); stroke-opacity: 1; stroke-width: 2px; opacity: 1;"/></g><g class="points"/><g class="text"/></g><g class="trace scatter trace2d2261" style="stroke-miterlimit: 2; opacity: 1;"><g class="fills"/><g class="errorbars"/><g class="lines"><path class="js-line" d="M0,385L152.1,384.42L162.24,384.18L172.38,383.05L182.52,381.07L192.66,378.76L202.8,374.55L212.94,369.52L223.08,363.17L233.22,352.91L243.36,338.54L253.5,320.17L263.64,303.48L273.78,281.93L283.92,255.7L294.06,232.85L304.2,215.14L314.34,192.71L324.48,162.71L334.62,132.61L344.76,109.04L354.9,88.86L365.04,65.74L385.32,39.18L395.46,26.1L405.6,23.98L415.74,27.55L425.88,25.16L436.02,19.25L446.16,21.72L456.3,19.83L466.44,19.58L476.58,26.65L486.72,37.18L496.86,43.42L507,41.14L517.14,47.62L527.28,56.75L537.42,64.31L547.56,65.71L557.7,62.42L567.84,53.45L577.98,38.3L588.12,34.48L598.26,34.01L608.4,28.38L618.54,24.39L628.68,24.06L638.82,27.17L648.96,29.29L659.1,38.99L669.24,60.13L679.38,85.65L699.66,146.33L709.8,179.62L719.94,212.72L730.08,242.2L750.36,296.8L760.5,317.45L770.64,332.73L780.78,345.02L790.92,354.21L801.06,359.38L811.2,362.13L821.34,365.7L841.62,375.16L851.76,378.9L861.9,380.57L872.04,380.88L912.6,383.71L922.74,383.93L1014,385" style="vector-effect: none; fill: none; stroke: rgb(217, 83, 79); stroke-opacity: 1; stroke-width: 2px; opacity: 1;"/></g><g class="points"/><g class="text"/></g><g class="trace scatter trace17a009" style="stroke-miterlimit: 2; opacity: 1;"><g class="fills"/><g class="errorbars"/><g class="lines"><path class="js-line" d="M0,385L131.82,384.53L141.96,384.12L162.24,382.17L172.38,379.12L192.66,370.95L202.8,364.33L223.08,342.77L233.22,326.8L253.5,282.32L263.64,258.56L294.06,168.97L304.2,135.84L314.34,112.61L324.48,93.56L334.62,74.45L344.76,58.17L354.9,49.51L365.04,46.1L375.18,35.38L385.32,34.59L395.46,39.56L405.6,38.05L415.74,35.24L425.88,35.05L436.02,36.54L446.16,36.65L456.3,36.92L466.44,34.42L486.72,20.84L496.86,26.69L507,30.71L517.14,36.48L527.28,56.88L537.42,68.76L557.7,68.24L567.84,66.2L577.98,65.51L588.12,62.24L598.26,63.7L608.4,69.42L628.68,70.3L638.82,77.64L648.96,91.11L659.1,106.01L679.38,126.74L689.52,150.38L719.94,243.5L730.08,269.89L740.22,289.02L750.36,304.48L770.64,338.43L780.78,349.78L790.92,355.67L801.06,360.28L811.2,366.47L821.34,371.36L831.48,374.44L841.62,376.31L872.04,381.43L882.18,382.47L912.6,384.23L922.74,384.34L1014,385" style="vector-effect: none; fill: none; stroke: rgb(240, 173, 78); stroke-opacity: 1; stroke-width: 2px; opacity: 1;"/></g><g class="points"/><g class="text"/></g></g></g></g><g class="zerolinelayer-above"/><path class="xlines-above crisp" d="M0,0" style="fill: none;"/><path class="ylines-above crisp" d="M0,0" style="fill: none;"/><g class="overlines-above"/><g class="xaxislayer-above"><g class="xtick"><text text-anchor="middle" x="0" y="451" transform="translate(60,0)" style="font-family: system-ui, -apple-system, 'Segoe UI', Roboto, 'Helvetica Neue', 'Noto Sans', 'Liberation Sans', Arial, sans-serif, 'Apple Color Emoji', 'Segoe UI Emoji', 'Segoe UI Symbol', 'Noto Color Emoji'; font-size: 10px; fill: rgb(80, 80, 80); fill-opacity: 1; white-space: pre;">0%</text></g><g class="xtick"><text text-anchor="middle" x="0" y="451" style="font-family: system-ui, -apple-system, 'Segoe UI', Roboto, 'Helvetica Neue', 'Noto Sans', 'Liberation Sans', Arial, sans-serif, 'Apple Color Emoji', 'Segoe UI Emoji', 'Segoe UI Symbol', 'Noto Color Emoji'; font-size: 10px; fill: rgb(80, 80, 80); fill-opacity: 1; white-space: pre;" transform="translate(262.8,0)">20%</text></g><g class="xtick"><text text-anchor="middle" x="0" y="451" style="font-family: system-ui, -apple-system, 'Segoe UI', Roboto, 'Helvetica Neue', 'Noto Sans', 'Liberation Sans', Arial, sans-serif, 'Apple Color Emoji', 'Segoe UI Emoji', 'Segoe UI Symbol', 'Noto Color Emoji'; font-size: 10px; fill: rgb(80, 80, 80); fill-opacity: 1; white-space: pre;" transform="translate(465.6,0)">40%</text></g><g class="xtick"><text text-anchor="middle" x="0" y="451" style="font-family: system-ui, -apple-system, 'Segoe UI', Roboto, 'Helvetica Neue', 'Noto Sans', 'Liberation Sans', Arial, sans-serif, 'Apple Color Emoji', 'Segoe UI Emoji', 'Segoe UI Symbol', 'Noto Color Emoji'; font-size: 10px; fill: rgb(80, 80, 80); fill-opacity: 1; white-space: pre;" transform="translate(668.4,0)">60%</text></g><g class="xtick"><text text-anchor="middle" x="0" y="451" style="font-family: system-ui, -apple-system, 'Segoe UI', Roboto, 'Helvetica Neue', 'Noto Sans', 'Liberation Sans', Arial, sans-serif, 'Apple Color Emoji', 'Segoe UI Emoji', 'Segoe UI Symbol', 'Noto Color Emoji'; font-size: 10px; fill: rgb(80, 80, 80); fill-opacity: 1; white-space: pre;" transform="translate(871.2,0)">80%</text></g><g class="xtick"><text text-anchor="middle" x="0" y="451" style="font-family: system-ui, -apple-system, 'Segoe UI', Roboto, 'Helvetica Neue', 'Noto Sans', 'Liberation Sans', Arial, sans-serif, 'Apple Color Emoji', 'Segoe UI Emoji', 'Segoe UI Symbol', 'Noto Color Emoji'; font-size: 10px; fill: rgb(80, 80, 80); fill-opacity: 1; white-space: pre;" transform="translate(1074,0)">100%</text></g></g><g class="yaxislayer-above"><g class="ytick"><text text-anchor="end" x="54" y="3.5" transform="translate(0,435)" style="font-family: system-ui, -apple-system, 'Segoe UI', Roboto, 'Helvetica Neue', 'Noto Sans', 'Liberation Sans', Arial, sans-serif, 'Apple Color Emoji', 'Segoe UI Emoji', 'Segoe UI Symbol', 'Noto Color Emoji'; font-size: 10px; fill: rgb(80, 80, 80); fill-opacity: 1; white-space: pre;">0%</text></g><g class="ytick"><text text-anchor="end" x="54" y="3.5" style="font-family: system-ui, -apple-system, 'Segoe UI', Roboto, 'Helvetica Neue', 'Noto Sans', 'Liberation Sans', Arial, sans-serif, 'Apple Color Emoji', 'Segoe UI Emoji', 'Segoe UI Symbol', 'Noto Color Emoji'; font-size: 10px; fill: rgb(80, 80, 80); fill-opacity: 1; white-space: pre;" transform="translate(0,361.61)">0.5%</text></g><g class="ytick"><text text-anchor="end" x="54" y="3.5" style="font-family: system-ui, -apple-system, 'Segoe UI', Roboto, 'Helvetica Neue', 'Noto Sans', 'Liberation Sans', Arial, sans-serif, 'Apple Color Emoji', 'Segoe UI Emoji', 'Segoe UI Symbol', 'Noto Color Emoji'; font-size: 10px; fill: rgb(80, 80, 80); fill-opacity: 1; white-space: pre;" transform="translate(0,288.22)">1%</text></g><g class="ytick"><text text-anchor="end" x="54" y="3.5" style="font-family: system-ui, -apple-system, 'Segoe UI', Roboto, 'Helvetica Neue', 'Noto Sans', 'Liberation Sans', Arial, sans-serif, 'Apple Color Emoji', 'Segoe UI Emoji', 'Segoe UI Symbol', 'Noto Color Emoji'; font-size: 10px; fill: rgb(80, 80, 80); fill-opacity: 1; white-space: pre;" transform="translate(0,214.82)">1.5%</text></g><g class="ytick"><text text-anchor="end" x="54" y="3.5" style="font-family: system-ui, -apple-system, 'Segoe UI', Roboto, 'Helvetica Neue', 'Noto Sans', 'Liberation Sans', Arial, sans-serif, 'Apple Color Emoji', 'Segoe UI Emoji', 'Segoe UI Symbol', 'Noto Color Emoji'; font-size: 10px; fill: rgb(80, 80, 80); fill-opacity: 1; white-space: pre;" transform="translate(0,141.43)">2%</text></g><g class="ytick"><text text-anchor="end" x="54" y="3.5" style="font-family: system-ui, -apple-system, 'Segoe UI', Roboto, 'Helvetica Neue', 'Noto Sans', 'Liberation Sans', Arial, sans-serif, 'Apple Color Emoji', 'Segoe UI Emoji', 'Segoe UI Symbol', 'Noto Color Emoji'; font-size: 10px; fill: rgb(80, 80, 80); fill-opacity: 1; white-space: pre;" transform="translate(0,68.03999999999999)">2.5%</text></g></g><g class="overaxes-above"/></g></g><g class="polarlayer"/><g class="smithlayer"/><g class="ternarylayer"/><g class="geolayer"/><g class="funnelarealayer"/><g class="pielayer"/><g class="iciclelayer"/><g class="treemaplayer"/><g class="sunburstlayer"/><g class="glimages"/><defs id="topdefs-239ece"><g class="clips"/></defs><g class="layer-above"><g class="imagelayer"/><g class="shapelayer"/></g><g class="infolayer"><g class="g-gtitle"><text class="gtitle" x="550" y="25" text-anchor="middle" dy="0em" style="opacity: 1; font-family: system-ui, -apple-system, 'Segoe UI', Roboto, 'Helvetica Neue', 'Noto Sans', 'Liberation Sans', Arial, sans-serif, 'Apple Color Emoji', 'Segoe UI Emoji', 'Segoe UI Symbol', 'Noto Color Emoji'; font-size: 20px; fill: rgb(60, 60, 60); fill-opacity: 1; white-space: pre;"><tspan class="line" dy="0em" x="550" y="25">FastQC: Per Sequence GC Content</tspan><tspan class="line" dy="1.3em" x="550" y="25">​<tspan style="font-size:70%" dy="-0.6em">Percentages, 4 lines</tspan><tspan dy="0.42em">​</tspan></tspan></text></g><g class="g-xtitle"><text class="xtitle" x="567" y="487" text-anchor="middle" style="opacity: 1; font-family: system-ui, -apple-system, 'Segoe UI', Roboto, 'Helvetica Neue', 'Noto Sans', 'Liberation Sans', Arial, sans-serif, 'Apple Color Emoji', 'Segoe UI Emoji', 'Segoe UI Symbol', 'Noto Color Emoji'; font-size: 14px; fill: rgb(100, 100, 100); fill-opacity: 1; white-space: pre;">% GC</text></g><g class="g-ytitle"><text class="ytitle" transform="rotate(-90,22,242.5)" x="22" y="242.5" text-anchor="middle" style="opacity: 1; font-family: system-ui, -apple-system, 'Segoe UI', Roboto, 'Helvetica Neue', 'Noto Sans', 'Liberation Sans', Arial, sans-serif, 'Apple Color Emoji', 'Segoe UI Emoji', 'Segoe UI Symbol', 'Noto Color Emoji'; font-size: 14px; fill: rgb(100, 100, 100); fill-opacity: 1; white-space: pre;">Percentage</text></g></g></svg>